<svg xmlns="http://www.w3.org/2000/svg" width="748.486" height="297.113" viewBox="0 0 748.486 297.113">
  <g id="undraw_directions_x53j" transform="translate(-12.223)">
    <g id="Group_1275" data-name="Group 1275" transform="translate(12.223 84.743)" opacity="0.1">
      <path id="Path_4375" data-name="Path 4375" d="M181,630.213a9.953,9.953,0,0,1-1.315,5.04,10.316,10.316,0,0,1,0,10.079,9.262,9.262,0,0,1,.993,2.443,184.85,184.85,0,0,1-12.249-18.319h0a9.771,9.771,0,0,1,1.286-4.3,9.953,9.953,0,0,1-1.315-5.04,10.365,10.365,0,0,1,.594-3.505,8.709,8.709,0,0,1,.721-1.535,5.477,5.477,0,0,1,9.97,0,9.069,9.069,0,0,1,.7,1.486,10.434,10.434,0,0,1,.611,3.554,9.953,9.953,0,0,1-1.315,5.04A9.954,9.954,0,0,1,181,630.213Z" transform="translate(-144.368 -482.16)" fill="#3f3d56"/>
      <ellipse id="Ellipse_5207" data-name="Ellipse 5207" cx="6.298" cy="8.248" rx="6.298" ry="8.248" transform="translate(24.032 119.651)" fill="#3f3d56"/>
      <ellipse id="Ellipse_5208" data-name="Ellipse 5208" cx="6.298" cy="8.248" rx="6.298" ry="8.248" transform="translate(24.032 109.572)" fill="#3f3d56"/>
      <path id="Path_4376" data-name="Path 4376" d="M169.739,360.718a30.035,30.035,0,0,1-6.46,18.657,30.177,30.177,0,0,1-17.912,48.268c-.725.147-1.461.261-2.206.35a30.483,30.483,0,0,1-6.92.037q-1.148-.122-2.267-.338a29.84,29.84,0,0,1-9.363-3.424,300.647,300.647,0,0,1-14.171-34.11,30.039,30.039,0,0,1,5.41-10.768,30.2,30.2,0,0,1-4.885-28.337l22.911,7.69-21.486-11.162a30.3,30.3,0,0,1,3.44-5.5,30.177,30.177,0,1,1,49.84-33.768l-22.15,16.283,24.018-12.457a30.214,30.214,0,0,1-.578,23.908l-17.912-.134L165.6,338.63a30.3,30.3,0,0,1-2.349,3.452A30.043,30.043,0,0,1,169.739,360.718Z" transform="translate(-109.367 -293.239)" fill="#6c63ff"/>
      <path id="Path_4377" data-name="Path 4377" d="M169.77,495.682a30.184,30.184,0,0,1-24.347,29.61c-.73.147-1.466.262-2.211.351a30.488,30.488,0,0,1-6.92.037q-1.148-.122-2.267-.338a29.839,29.839,0,0,1-9.363-3.424,300.637,300.637,0,0,1-14.191-34.126,30.039,30.039,0,0,1,5.41-10.768,30.055,30.055,0,0,1-6.46-18.673c0-3.387,57.936,13.523,53.89,18.657A30.035,30.035,0,0,1,169.77,495.682Z" transform="translate(-109.398 -390.874)" opacity="0.1"/>
    </g>
    <path id="Path_4362" data-name="Path 4362" d="M318.446,137.991A100.4,100.4,0,0,0,197.81,124.406C236.475,138.247,279.138,138.756,318.446,137.991Z" transform="translate(-149.583 -100.01)" fill="#6c63ff" opacity="0.1"/>
    <path id="Path_4363" data-name="Path 4363" d="M917.969,623.047l-42.223-73.133a1.343,1.343,0,0,0-2.333,0L831.19,623.047a1.343,1.343,0,0,0,1.164,2.035h12.6a1.352,1.352,0,0,1,1.348,1.348v15.608a1.348,1.348,0,0,0,1.343,1.348h16.434a1.348,1.348,0,0,0,1.347-1.348v-7.543a1.343,1.343,0,0,1,1.343-1.343h15.624a1.348,1.348,0,0,1,1.348,1.343v7.543a1.347,1.347,0,0,0,1.347,1.348h16.43a1.347,1.347,0,0,0,1.347-1.348V626.414a1.347,1.347,0,0,1,1.348-1.347h12.6a1.348,1.348,0,0,0,1.164-2.019Zm-58.881,8.093a1.343,1.343,0,0,1-.953.407H852.22a1.347,1.347,0,0,1,0-2.695h5.927a1.347,1.347,0,0,1,.953,2.3Zm38.787,0a1.343,1.343,0,0,1-.953.407h-5.911a1.347,1.347,0,0,1,0-2.695h5.935a1.347,1.347,0,0,1,.953,2.3Z" transform="translate(-525.01 -360.282)" fill="#3f3d56" opacity="0.27"/>
    <path id="Path_4364" data-name="Path 4364" d="M285.536,624.633,243.313,551.5a1.347,1.347,0,0,0-2.333,0L204.51,614.668a111.407,111.407,0,0,0,15.262,15.758h5.943a1.347,1.347,0,1,1,0,2.695h-2.508a65.252,65.252,0,0,0,9.77,6.078v-3.114a1.347,1.347,0,0,1,1.347-1.347h15.624a1.347,1.347,0,0,1,1.343,1.347v7.539a1.311,1.311,0,0,0,.126.566,1.348,1.348,0,0,0,1.221.782h16.434a1.319,1.319,0,0,0,1.071-.542,1.294,1.294,0,0,0,.273-.814V628a1.347,1.347,0,0,1,1.347-1.347h12.6a1.347,1.347,0,0,0,1.176-2.023Zm-27.906,6.188a1.344,1.344,0,0,1,.953-.407h5.927a1.347,1.347,0,0,1,0,2.695h-5.931a1.347,1.347,0,0,1-.953-2.3Zm-26.522-27.063a1.347,1.347,0,0,1-1.347-1.347V592.176a1.347,1.347,0,0,1,1.347-1.347h22.084a1.347,1.347,0,0,1,1.343,1.347V602.41a1.347,1.347,0,0,1-1.343,1.347Z" transform="translate(-153.556 -361.224)" fill="#6c63ff" opacity="0.27"/>
    <path id="Path_4365" data-name="Path 4365" d="M573.833,369h-52.25V357.7a2.7,2.7,0,0,0-2.7-2.7H503.537V342.962a1.7,1.7,0,0,0-1.7-1.7H482.071a1.7,1.7,0,0,0-1.7,1.7V355H462.332a2.7,2.7,0,0,0-2.7,2.7V369H409.805a.55.55,0,0,0-.546.55V519.572a.55.55,0,0,0,.545.55h33.112a.55.55,0,0,0,.55-.55V499.388a.554.554,0,0,1,.55-.55H458a.554.554,0,0,1,.55.55v20.183a.55.55,0,0,0,.545.55h65.439a.554.554,0,0,0,.549-.55V499.388a.55.55,0,0,1,.545-.55h13.988a.55.55,0,0,1,.549.55v20.183a.554.554,0,0,0,.55.55h33.112a.554.554,0,0,0,.549-.55V369.552a.554.554,0,0,0-.549-.55ZM437.54,491.829a.545.545,0,0,1-.546.545H416.543a.545.545,0,0,1-.55-.545v-6.973a.549.549,0,0,1,.55-.55h20.452a.55.55,0,0,1,.545.55Zm0-18.05a.545.545,0,0,1-.546.55H416.543a.546.546,0,0,1-.55-.55V466.8a.545.545,0,0,1,.55-.55h20.452a.546.546,0,0,1,.546.55Zm0-18.046a.55.55,0,0,1-.546.55H416.543a.55.55,0,0,1-.55-.55v-6.986a.549.549,0,0,1,.55-.55h20.452a.55.55,0,0,1,.545.55Zm0-18.05a.546.546,0,0,1-.546.55H416.543a.546.546,0,0,1-.55-.55v-6.969a.545.545,0,0,1,.55-.55h20.452a.546.546,0,0,1,.546.55Zm0-18.046a.55.55,0,0,1-.546.55H416.543a.55.55,0,0,1-.55-.55v-6.986a.545.545,0,0,1,.55-.546h20.452a.545.545,0,0,1,.546.546Zm0-18.046a.545.545,0,0,1-.546.545H416.543a.545.545,0,0,1-.55-.545V394.6a.549.549,0,0,1,.55-.55h20.452a.55.55,0,0,1,.545.55Zm0-18.05a.545.545,0,0,1-.546.55H416.543a.546.546,0,0,1-.55-.55v-6.969a.546.546,0,0,1,.55-.55h20.452a.546.546,0,0,1,.546.55Zm48.488,108.285a.545.545,0,0,1-.55.545H465.027a.55.55,0,0,1-.55-.545v-6.969a.554.554,0,0,1,.55-.55h20.452a.55.55,0,0,1,.549.55Zm0-18.05a.546.546,0,0,1-.55.55H465.027a.55.55,0,0,1-.55-.55V466.8a.55.55,0,0,1,.55-.55h20.452a.545.545,0,0,1,.549.55Zm0-18.046a.55.55,0,0,1-.55.55H465.027a.554.554,0,0,1-.55-.55v-6.982a.554.554,0,0,1,.55-.55h20.452a.549.549,0,0,1,.549.55Zm0-18.05a.546.546,0,0,1-.55.55H465.027a.55.55,0,0,1-.55-.55v-6.965a.55.55,0,0,1,.55-.55h20.452a.545.545,0,0,1,.549.55Zm0-18.046a.55.55,0,0,1-.55.55H465.027a.554.554,0,0,1-.55-.55v-6.981a.55.55,0,0,1,.55-.546h20.452a.545.545,0,0,1,.549.546Zm0-18.046a.546.546,0,0,1-.55.546H465.027a.55.55,0,0,1-.55-.546V394.6a.554.554,0,0,1,.55-.55h20.452a.549.549,0,0,1,.549.55Zm0-18.05a.546.546,0,0,1-.55.55H465.027a.55.55,0,0,1-.55-.55v-6.965a.55.55,0,0,1,.55-.55h20.452a.546.546,0,0,1,.549.55Zm33.133,108.285a.546.546,0,0,1-.55.546H498.159a.55.55,0,0,1-.55-.546v-6.965a.554.554,0,0,1,.549-.55h20.452a.55.55,0,0,1,.549.55Zm0-18.05a.546.546,0,0,1-.55.55H498.159a.549.549,0,0,1-.549-.55V466.8a.549.549,0,0,1,.549-.55h20.452a.545.545,0,0,1,.549.55Zm0-18.046a.55.55,0,0,1-.55.55H498.159a.554.554,0,0,1-.549-.55v-6.977a.554.554,0,0,1,.549-.55h20.452a.55.55,0,0,1,.549.55Zm0-18.05a.546.546,0,0,1-.55.55H498.159a.549.549,0,0,1-.549-.55v-6.961a.549.549,0,0,1,.549-.55h20.452a.545.545,0,0,1,.549.55Zm0-18.046a.55.55,0,0,1-.55.55H498.159a.554.554,0,0,1-.549-.55v-6.977a.549.549,0,0,1,.549-.546h20.452a.545.545,0,0,1,.549.546Zm0-18.046a.546.546,0,0,1-.55.545H498.159a.55.55,0,0,1-.55-.546V394.6a.554.554,0,0,1,.549-.55h20.452a.55.55,0,0,1,.549.55Zm0-18.05a.546.546,0,0,1-.55.55H498.159a.55.55,0,0,1-.549-.55v-6.961a.55.55,0,0,1,.549-.55h20.452a.546.546,0,0,1,.549.55Zm48.488,108.285a.55.55,0,0,1-.549.545H546.647a.546.546,0,0,1-.55-.545v-6.961a.55.55,0,0,1,.55-.55H567.1a.554.554,0,0,1,.55.55Zm0-18.05a.55.55,0,0,1-.549.55H546.647a.546.546,0,0,1-.55-.55V466.8a.546.546,0,0,1,.55-.55H567.1a.55.55,0,0,1,.55.55Zm0-18.046a.554.554,0,0,1-.549.55H546.647a.55.55,0,0,1-.55-.55v-6.973a.55.55,0,0,1,.55-.55H567.1a.554.554,0,0,1,.55.55Zm0-18.05a.55.55,0,0,1-.549.55H546.647a.546.546,0,0,1-.55-.55v-6.957a.546.546,0,0,1,.55-.55H567.1a.55.55,0,0,1,.55.55Zm0-18.046a.554.554,0,0,1-.549.55H546.647a.55.55,0,0,1-.55-.55v-6.973a.546.546,0,0,1,.55-.546H567.1a.55.55,0,0,1,.55.546Zm0-18.046a.55.55,0,0,1-.546.558H546.647a.545.545,0,0,1-.55-.545V394.6a.55.55,0,0,1,.55-.55H567.1a.554.554,0,0,1,.55.55Zm0-18.05a.55.55,0,0,1-.549.55H546.647a.545.545,0,0,1-.55-.55v-6.957a.546.546,0,0,1,.55-.55H567.1a.55.55,0,0,1,.55.55Z" transform="translate(5.326 -235.891)" fill="#1147b0" opacity="0.27"/>
    <path id="Path_4366" data-name="Path 4366" d="M396.565,286.667a11.761,11.761,0,0,0-6.827.741,10.059,10.059,0,0,1-8.235-.02,11.488,11.488,0,0,0-9.64.191,6,6,0,0,1-2.776.692c-3.908,0-7.161-3.936-7.836-9.131a7.494,7.494,0,0,0,1.954-2.1c2.292-3.692,5.842-6.066,9.827-6.066s7.49,2.345,9.77,6a7.535,7.535,0,0,0,6.493,3.566h.1C392.539,280.532,395.234,283.028,396.565,286.667Z" transform="translate(-246.489 -195.293)" fill="#6c63ff" opacity="0.1"/>
    <path id="Path_4367" data-name="Path 4367" d="M408.446,249.238l-6.318,4.006,3.835-6.973a6.245,6.245,0,0,0-3.823-1.364h-.1a7.4,7.4,0,0,1-1.311-.1l-2.133,1.36.92-1.669a7.613,7.613,0,0,1-3.745-2.85l-3.835,2.443,2.414-4.413a11.218,11.218,0,0,0-8.585-4.34c-3.985,0-7.535,2.369-9.827,6.062a7.348,7.348,0,0,1-6.513,3.5h-.216c-4.4,0-7.967,4.987-7.967,11.142s3.566,11.142,7.967,11.142a5.948,5.948,0,0,0,2.776-.7,11.488,11.488,0,0,1,9.64-.187,10.059,10.059,0,0,0,8.2,0,11.484,11.484,0,0,1,9.558.183,5.963,5.963,0,0,0,2.744.68c4.4,0,7.967-4.991,7.967-11.142A14.151,14.151,0,0,0,408.446,249.238Z" transform="translate(-246.483 -174.167)" fill="#6c63ff" opacity="0.27"/>
    <path id="Path_4368" data-name="Path 4368" d="M873.034,476.015a8.268,8.268,0,0,0-4.779.517,7.03,7.03,0,0,1-5.74,0,8.044,8.044,0,0,0-6.75.134,4.184,4.184,0,0,1-1.942.484c-2.736,0-5.011-2.756-5.483-6.391a5.321,5.321,0,0,0,1.368-1.474,7.69,7.69,0,0,1,13.727-.049,5.268,5.268,0,0,0,4.543,2.5h.073C870.209,471.724,872.094,473.471,873.034,476.015Z" transform="translate(-535.292 -310.36)" fill="#6c63ff" opacity="0.1"/>
    <path id="Path_4369" data-name="Path 4369" d="M881.323,449.818l-4.421,2.8,2.683-4.885a4.372,4.372,0,0,0-2.675-.953h-.069a5.247,5.247,0,0,1-.916-.069l-1.5.949.643-1.164a5.369,5.369,0,0,1-2.622-1.991l-2.691,1.693,1.693-3.082a7.816,7.816,0,0,0-6.009-3.041,8.221,8.221,0,0,0-6.88,4.246,5.138,5.138,0,0,1-4.547,2.443h-.134c-3.078,0-5.577,3.489-5.577,7.8s2.5,7.8,5.577,7.8a4.184,4.184,0,0,0,1.942-.484,8.028,8.028,0,0,1,6.75-.13,7.071,7.071,0,0,0,5.74,0,8.04,8.04,0,0,1,6.688.13,4.213,4.213,0,0,0,1.921.472c3.082,0,5.577-3.489,5.577-7.8A9.914,9.914,0,0,0,881.323,449.818Z" transform="translate(-535.268 -295.561)" fill="#6c63ff" opacity="0.27"/>
    <path id="Path_4370" data-name="Path 4370" d="M315.62,411.991a8.272,8.272,0,0,1,4.779.517,7.018,7.018,0,0,0,5.736,0,8.044,8.044,0,0,1,6.75.134,4.2,4.2,0,0,0,1.942.484c2.736,0,5.015-2.756,5.488-6.391a5.265,5.265,0,0,1-1.368-1.474,7.69,7.69,0,0,0-13.735-.065,5.292,5.292,0,0,1-4.551,2.5h-.069C318.425,407.7,316.536,409.447,315.62,411.991Z" transform="translate(-219.435 -272.389)" fill="#6c63ff" opacity="0.1"/>
    <path id="Path_4371" data-name="Path 4371" d="M293.438,385.812l4.421,2.793-2.687-4.885a4.38,4.38,0,0,1,2.675-.953h.073a5.3,5.3,0,0,0,.916-.069l1.5.948-.643-1.164a5.377,5.377,0,0,0,2.626-1.991l2.683,1.7-1.7-3.082a7.855,7.855,0,0,1,6.013-3.041,8.221,8.221,0,0,1,6.88,4.246,5.134,5.134,0,0,0,4.547,2.443h.147c3.082,0,5.577,3.489,5.577,7.8s-2.5,7.8-5.577,7.8a4.209,4.209,0,0,1-1.942-.484,8.028,8.028,0,0,0-6.75-.13,7.063,7.063,0,0,1-5.736,0,8.048,8.048,0,0,0-6.693.13,4.2,4.2,0,0,1-1.921.472c-3.078,0-5.577-3.489-5.577-7.8A9.912,9.912,0,0,1,293.438,385.812Z" transform="translate(-205.59 -257.608)" fill="#6c63ff" opacity="0.1"/>
    <path id="Path_4372" data-name="Path 4372" d="M295.68,784.78c5.512,3.5,13.454-.041,19,3.407,1.433.887,2.589,2.194,4.071,3a13.154,13.154,0,0,0,5.895,1.221c16.943.655,34.171-4.071,50.69-.252,4.62,1.067,9.139,2.8,13.873,3.053,8.178.444,16.015-3.546,24.2-3.766,12.416-.334,24.616,7.975,36.6,4.7,3.941-1.079,7.556-3.379,11.622-3.766,4.531-.407,8.887,1.567,13.291,2.719,15.62,4.071,31.887-2.524,48.036-3.016,10.531-.322,20.961,1.974,31.484,2.5a188.028,188.028,0,0,0,22.455-.672c2.85-.2,5.834-.444,8.219-2.007s3.851-4.922,2.377-7.364Z" transform="translate(-207.612 -499.796)" fill="#3f3d56"/>
    <path id="Path_4373" data-name="Path 4373" d="M295.68,784.78c5.512,3.5,13.454-.041,19,3.407,1.433.887,2.589,2.194,4.071,3a13.154,13.154,0,0,0,5.895,1.221c16.943.655,34.171-4.071,50.69-.252,4.62,1.067,9.139,2.8,13.873,3.053,8.178.444,16.015-3.546,24.2-3.766,12.416-.334,24.616,7.975,36.6,4.7,3.941-1.079,7.556-3.379,11.622-3.766,4.531-.407,8.887,1.567,13.291,2.719,15.62,4.071,31.887-2.524,48.036-3.016,10.531-.322,20.961,1.974,31.484,2.5a188.028,188.028,0,0,0,22.455-.672c2.85-.2,5.834-.444,8.219-2.007s3.851-4.922,2.377-7.364Z" transform="translate(-207.612 -499.796)" opacity="0.1"/>
    <path id="Path_4374" data-name="Path 4374" d="M295.68,779.78c11.678,3.5,28.5-.041,40.259,3.407,3.036.887,5.485,2.194,8.625,3a55.63,55.63,0,0,0,12.488,1.221c35.9.655,72.394-4.071,107.393-.252,9.789,1.067,19.362,2.8,29.392,3.053,17.327.444,33.929-3.546,51.273-3.766,26.3-.334,52.153,7.975,77.534,4.7,8.349-1.079,16.007-3.379,24.623-3.766,9.6-.407,18.827,1.567,28.159,2.719,33.092,4.071,67.556-2.524,101.769-3.017,22.312-.322,44.408,1.974,66.7,2.5,15.852.375,31.738-.151,47.573-.672,6.037-.2,12.359-.444,17.413-2.007s8.159-4.922,5.037-7.364Z" transform="translate(-207.612 -496.831)" fill="#3f3d56"/>
    <path id="Path_4382" data-name="Path 4382" d="M371.6,732.685l7.792-4.584a18.781,18.781,0,0,0-3.985-4.767l-14.7,4.572,11.521-6.77A18.726,18.726,0,0,0,344.5,737.562c0,10.34,8.382,10.7,18.726,10.7s18.726-.358,18.726-10.7a18.641,18.641,0,0,0-1.608-7.6Z" transform="translate(-236.558 -460.837)" fill="#1147b0"/>
    <path id="Path_4383" data-name="Path 4383" d="M373.56,760.214a14.551,14.551,0,0,0-2.76-2.166,12.851,12.851,0,0,0-4.547-2.219,34.094,34.094,0,0,0-4.478-.13,10.446,10.446,0,0,1-6.843-3.135,21.382,21.382,0,0,0-3.179-3.293,6.994,6.994,0,0,0-4.767-.875,11.853,11.853,0,0,0-1.409.289,18.665,18.665,0,0,0-1.107,6.355c0,10.34,8.382,10.7,18.726,10.7,5.019,0,9.575-.085,12.937-1.352l-.562-1.05a14.818,14.818,0,0,0-2.011-3.122Z" transform="translate(-236.54 -478.315)" opacity="0.1"/>
    <circle id="Ellipse_5209" data-name="Ellipse 5209" cx="14.553" cy="14.553" r="14.553" transform="translate(207.308 61.071)" fill="#3f3d56"/>
    <path id="Path_4384" data-name="Path 4384" d="M569.426,535.331c1.5,10.539-.33,21.286-3.183,31.541a23.422,23.422,0,0,1-2.1,5.549,59.173,59.173,0,0,1-3.558,4.8c-2.443,3.362-3.875,7.328-5.215,11.252a317.38,317.38,0,0,0-9.29,33.1,2.267,2.267,0,0,0,0,1.412c.354.814,1.429.92,2.312.916l11.423-.061c.407-.782-.346-1.628-.814-2.378-1.628-2.532-.065-5.821,1.372-8.471a91.083,91.083,0,0,0,8.052-20.354,55.183,55.183,0,0,1,2.687-8.846c1.535-3.411,3.941-6.346,5.895-9.538a79.885,79.885,0,0,0,5.573-11.777c2.3-5.61,4.612-11.289,5.516-17.281.851-5.626.431-11.358-.122-17.02a1.075,1.075,0,0,0-1.246-1.221l-15.327-.79c-3.159-.163-3.908-.855-3.428,2.247C568.3,530.731,569.092,532.986,569.426,535.331Z" transform="translate(-356.008 -346.496)" fill="#3f3d56"/>
    <path id="Path_4385" data-name="Path 4385" d="M569.426,535.331c1.5,10.539-.33,21.286-3.183,31.541a23.422,23.422,0,0,1-2.1,5.549,59.173,59.173,0,0,1-3.558,4.8c-2.443,3.362-3.875,7.328-5.215,11.252a317.38,317.38,0,0,0-9.29,33.1,2.267,2.267,0,0,0,0,1.412c.354.814,1.429.92,2.312.916l11.423-.061c.407-.782-.346-1.628-.814-2.378-1.628-2.532-.065-5.821,1.372-8.471a91.083,91.083,0,0,0,8.052-20.354,55.183,55.183,0,0,1,2.687-8.846c1.535-3.411,3.941-6.346,5.895-9.538a79.885,79.885,0,0,0,5.573-11.777c2.3-5.61,4.612-11.289,5.516-17.281.851-5.626.431-11.358-.122-17.02a1.075,1.075,0,0,0-1.246-1.221l-15.327-.79c-3.159-.163-3.908-.855-3.428,2.247C568.3,530.731,569.092,532.986,569.426,535.331Z" transform="translate(-356.008 -346.496)" fill="#1147b0"/>
    <path id="Path_4386" data-name="Path 4386" d="M602.931,484.336c-3.114,4.478-6.379,9.632-5.345,14.993.786,4.071,3.888,7.226,6.815,10.177,11.7,11.748,23.2,24.8,27.185,40.9,1.026,4.16,1.523,8.431,2.406,12.62,1.6,7.613,4.478,14.891,7.328,22.125l7.637,19.276a11.545,11.545,0,0,0,11.032-7.328,4.831,4.831,0,0,1-2.894-1.86c-3.257-4.506-3.924-10.3-4.759-15.8-.924-6.074-2.158-12.1-3.4-18.119l-5.471-26.64c-.631-3.073-1.262-6.151-2.084-9.18-3.183-11.732-9.216-22.8-10.149-34.928-.138-1.783-.224-3.741-1.433-5.064-1.27-1.4-3.354-1.628-5.239-1.738C616.939,483.282,610.36,482.537,602.931,484.336Z" transform="translate(-386.501 -321.124)" fill="#1147b0"/>
    <path id="Path_4387" data-name="Path 4387" d="M546.939,757.024a12.156,12.156,0,0,0-2.532-.326,5.26,5.26,0,0,0-4.136,2.259,10.281,10.281,0,0,0-1.111,2.443l-1.1,3.167a3.522,3.522,0,0,0-.159,2.85,3.02,3.02,0,0,0,1.482,1.144c2.67,1.189,5.7,1.254,8.589,1.539,2.825.277,5.626.773,8.414,1.294.961.183,1.917.366,2.89.464a34.442,34.442,0,0,0,6.538-.2l2.243-.216a8.078,8.078,0,0,0,2.206-.407,2.781,2.781,0,0,0,1.628-1.462c.554-1.372-.635-3-2.088-3.281-.59-.114-1.221-.061-1.8-.138a8.5,8.5,0,0,1-1.97-.59,39.293,39.293,0,0,1-8.292-4.042c-.7-.493-1.433-1.181-1.356-2.035a4.152,4.152,0,0,1,.362-1.054,3.851,3.851,0,0,0,.033-2.724c-.138-.374-.407-.769-.786-.814-1.075-.13-.944,1.437-1.1,2.035-.216.814-.607.887-1.372.814C551.32,757.549,549.121,757.439,546.939,757.024Z" transform="translate(-351.079 -482.217)" fill="#263238"/>
    <path id="Path_4388" data-name="Path 4388" d="M718.277,765.87a7.186,7.186,0,0,0,1.555,4.376,3.4,3.4,0,0,0,1.107.892,4.445,4.445,0,0,0,2.035.322,16.3,16.3,0,0,0,5.654-1.144,16.149,16.149,0,0,1,1.954-.737,21.932,21.932,0,0,1,2.54-.366c3.367-.484,6.322-2.471,9.575-3.476a20.129,20.129,0,0,0,2.85-.936,13.059,13.059,0,0,0,3.35-2.617,6.012,6.012,0,0,0,2.2-5.544,1.055,1.055,0,0,0-.1-.574.855.855,0,0,0-.366-.289,5.314,5.314,0,0,0-3.257-.053,57.874,57.874,0,0,1-12.025.444,1.746,1.746,0,0,1-1.848-1.054l-1.527-2.442c-.436-.7-1.128-1.5-1.917-1.262a1.562,1.562,0,0,0-.863,1.628,8.7,8.7,0,0,1,.1,1.97,2.69,2.69,0,0,1-1.3,1.693,8.319,8.319,0,0,1-2.035.782c-2.247.635-4.861,1.356-6.6,3.008C718.082,761.661,718.2,764.287,718.277,765.87Z" transform="translate(-458.15 -480.125)" fill="#263238"/>
    <path id="Path_4389" data-name="Path 4389" d="M693.539,364.48a9.431,9.431,0,0,0,2.223-2.418,9.857,9.857,0,0,0,.948-3.342l.639-4.038c.354-2.227.769-4.584,2.255-6.281s4.445-2.3,5.956-.627a5.224,5.224,0,0,1,1.083,2.7,19.679,19.679,0,0,1-4.812,16.283c-1.828,2-4.071,3.595-6,5.488-1.685,1.628-3.147,3.5-4.7,5.268a64.9,64.9,0,0,1-12.811,11.195c.057-3.029.444-6.277,0-9.286-.33-2.174-1.221-3.346.883-4.767C684.082,371.335,689.012,368.331,693.539,364.48Z" transform="translate(-434.202 -240.241)" fill="#fbbebe"/>
    <path id="Path_4390" data-name="Path 4390" d="M611.41,307.808a7.447,7.447,0,0,1-2.85,5.63q7.608,2.662,15.009,5.87a5.2,5.2,0,0,1-1.286-3.639,18.371,18.371,0,0,1,2.809-9.811,2.381,2.381,0,0,0,.46-1.295c-.057-.961-1.2-1.4-2.133-1.628a52.46,52.46,0,0,0-9.737-1.413c-1.4-.045-3.069-.489-2.752,1.3A19.654,19.654,0,0,1,611.41,307.808Z" transform="translate(-393.123 -213.36)" fill="#fbbebe"/>
    <circle id="Ellipse_5210" data-name="Ellipse 5210" cx="11.899" cy="11.899" r="11.899" transform="translate(216.198 71.81)" fill="#fbbebe"/>
    <path id="Path_4391" data-name="Path 4391" d="M626.282,342.053a14.4,14.4,0,0,0-1.51-2.532,52.671,52.671,0,0,0-7.14-8.756,44.447,44.447,0,0,0-6.778-4.979,15.383,15.383,0,0,0-4.242-2.035,16.6,16.6,0,0,0-2.723-.37l-3.09-.252a2.528,2.528,0,0,0-.814.024,1.755,1.755,0,0,0-1.042,2.1,5.159,5.159,0,0,0,1.376,2.166c.138,6.306-2.666,12.526-3.045,18.824-.664,11.012,6.057,21.254,6.595,32.274a3.481,3.481,0,0,1-.155,1.478c-.09.228-.224.436-.326.659a6.442,6.442,0,0,0-.362,2.239,11.374,11.374,0,0,1-3.35,7.173,4.979,4.979,0,0,0,1.889,1.441,34.07,34.07,0,0,0,4.23,1.01c3.6,1.05,7.287,2.109,11.028,1.885a9.732,9.732,0,0,0,.851-3.2c.529-.33,1.14.375,1.221.993s-.037,1.339.407,1.787a1.676,1.676,0,0,0,1.547.309,68.39,68.39,0,0,0,6.717-1.575,12.529,12.529,0,0,1,6.811-.024,1.822,1.822,0,0,0-.106-1.995,8.917,8.917,0,0,1-1.071-1.828,4.106,4.106,0,0,1-.13-1.2c0-3.481.716-7,.037-10.413-.2-1-.517-1.978-.721-2.984a25.738,25.738,0,0,1-.293-5.952c.053-1.991-.187-4.144-.228-6.163a19.651,19.651,0,0,0-.163-2.5c-.138-.867-.407-1.714-.48-2.589-.22-2.223.676-4.429.541-6.66C631.537,347.016,627.6,345.176,626.282,342.053Z" transform="translate(-386.403 -226.205)" fill="#05ccf0"/>
    <path id="Path_4392" data-name="Path 4392" d="M579.237,365.579c-2.882,7.645-4.291,15.754-5.7,23.806L570.281,408.3a91.517,91.517,0,0,0-1.816,16.145,17.283,17.283,0,0,1-.3,4.543c-.521,1.93-1.816,3.538-2.8,5.292a17.415,17.415,0,0,0-1.873,11.777c.334,1.689,1.246,3.607,2.96,3.8,1.409.155,2.626-.965,3.448-2.121,1.889-2.65,2.825-5.85,3.664-9a203.583,203.583,0,0,0,5.646-31.382,30.569,30.569,0,0,1,.566-3.989,28.314,28.314,0,0,1,1.376-3.973q1.868-4.633,3.741-9.265c2.878-7.136,5.773-14.3,9.725-20.908-3.908-1.124-7.975-2.442-11.883-3.554A10.731,10.731,0,0,0,579.237,365.579Z" transform="translate(-366.214 -251.326)" fill="#fbbebe"/>
    <path id="Path_4393" data-name="Path 4393" d="M604.961,366.837a44.721,44.721,0,0,0-8.357-.476,1.8,1.8,0,0,1-1.124-.293c-.566-.484-.326-1.392-.041-2.08l1.352-3.257a4.739,4.739,0,0,1,1.083-1.8,4.592,4.592,0,0,1,2.569-.871,23.274,23.274,0,0,1,8.9.346,10.644,10.644,0,0,1,6.872,5.325,3.624,3.624,0,0,1,.073,3.562c-1.058,1.518-3.432,3.216-5.2,2.385C608.962,368.673,607.338,367.342,604.961,366.837Z" transform="translate(-385.164 -246.776)" fill="#05ccf0"/>
    <path id="Path_4394" data-name="Path 4394" d="M600.477,233.179a12.017,12.017,0,0,0-6.635,1.913,14.553,14.553,0,0,0-14.289-3.346,8.317,8.317,0,1,0-9.607,9.624,14.553,14.553,0,1,0,27.934,8.178,13.027,13.027,0,0,0,2.609.265c5.74,0,10.4-3.725,10.4-8.317S606.209,233.179,600.477,233.179Z" transform="translate(-366.135 -167.952)" fill="#3f3d56"/>
    <path id="Path_4395" data-name="Path 4395" d="M653.515,271.185a12.658,12.658,0,0,1-2.609-.265A14.482,14.482,0,0,1,649,275.109a13.068,13.068,0,0,0,2.443.236c5.365,0,9.77-3.257,10.336-7.425A11.469,11.469,0,0,1,653.515,271.185Z" transform="translate(-417.1 -193.484)" opacity="0.1"/>
    <path id="Path_4396" data-name="Path 4396" d="M585.922,259.94a14.574,14.574,0,0,1-13.914-18.84,8.317,8.317,0,0,1-6.876-8.191,8.176,8.176,0,0,1,.134-1.49,8.317,8.317,0,0,0,4.665,13.841,14.553,14.553,0,1,0,27.8,8.622A14.525,14.525,0,0,1,585.922,259.94Z" transform="translate(-366.141 -171.843)" opacity="0.1"/>
    <rect id="Rectangle_1517" data-name="Rectangle 1517" width="0.273" height="2.255" rx="0.136" transform="matrix(0.814, 0.581, -0.581, 0.814, 272.726, 112.364)" fill="#3a3768"/>
    <rect id="Rectangle_1518" data-name="Rectangle 1518" width="0.155" height="0.741" rx="0.077" transform="matrix(0.814, 0.581, -0.581, 0.814, 266.353, 105.644)" fill="#3a3768"/>
    <rect id="Rectangle_1519" data-name="Rectangle 1519" width="0.171" height="1.29" rx="0.085" transform="matrix(0.814, 0.581, -0.581, 0.814, 265.554, 106.751)" fill="#3a3768"/>
    <rect id="Rectangle_1520" data-name="Rectangle 1520" width="0.163" height="1.303" rx="0.081" transform="matrix(0.814, 0.581, -0.581, 0.814, 264.548, 108.173)" fill="#3a3768"/>
    <rect id="Rectangle_1521" data-name="Rectangle 1521" width="9.151" height="18.6" rx="2.52" transform="matrix(0.814, 0.581, -0.581, 0.814, 268.226, 104.459)" fill="#3a3768"/>
    <rect id="Rectangle_1522" data-name="Rectangle 1522" width="9.151" height="18.6" rx="2.52" transform="matrix(0.814, 0.581, -0.581, 0.814, 268.226, 104.459)" opacity="0.1"/>
    <rect id="Rectangle_1523" data-name="Rectangle 1523" width="9.151" height="18.6" rx="2.52" transform="matrix(0.814, 0.581, -0.581, 0.814, 267.849, 103.7)" fill="#3a3768"/>
    <path id="Path_4397" data-name="Path 4397" d="M729.149,346.245l-.851-.611-.073.1a.594.594,0,0,1-.814.142l-2.719-1.942a.6.6,0,0,1-.138-.834l.073-.1-.814-.57a.725.725,0,0,0-1.014.167l-9.4,13.169a.729.729,0,0,0,.167,1.014l5.349,3.814a.725.725,0,0,0,1.014-.171l9.4-13.165a.724.724,0,0,0-.179-1.014Z" transform="translate(-455.206 -237.582)" fill="#1147b0"/>
    <rect id="Rectangle_1524" data-name="Rectangle 1524" width="1.278" height="0.261" rx="0.13" transform="matrix(0.814, 0.581, -0.581, 0.814, 270.53, 106.3)" fill="#e6e8ec"/>
    <circle id="Ellipse_5211" data-name="Ellipse 5211" cx="0.147" cy="0.147" r="0.147" transform="translate(271.607 107.21)" fill="#e6e8ec"/>
    <path id="Path_4398" data-name="Path 4398" d="M707.275,99A27.275,27.275,0,0,0,680,126.275c0,15.062,28.577,64.946,28.577,64.946s25.972-49.864,25.972-64.946A27.275,27.275,0,0,0,707.275,99Zm0,45.463a5.92,5.92,0,1,1,0,.012Z" transform="translate(-435.481 -93.329)" fill="#6c63ff"/>
    <path id="Path_4399" data-name="Path 4399" d="M707.275,99A27.275,27.275,0,0,0,680,126.275c0,15.062,28.577,64.946,28.577,64.946s25.972-49.864,25.972-64.946A27.275,27.275,0,0,0,707.275,99Zm0,45.463a5.92,5.92,0,1,1,0,.012Z" transform="translate(-435.481 -93.329)" fill="#05ccf0" opacity="0.31"/>
    <path id="Path_4400" data-name="Path 4400" d="M707.275,85.07A27.275,27.275,0,0,0,680,112.345c0,15.062,28.577,70.629,28.577,70.629s25.972-55.559,25.972-70.625A27.276,27.276,0,0,0,707.271,85.07Zm0,45.463a14.289,14.289,0,1,1,14.289-14.289A14.289,14.289,0,0,1,707.275,130.533Z" transform="translate(-435.481 -85.07)" fill="#1147b0"/>
    <path id="Path_4401" data-name="Path 4401" d="M573.833,369h-52.25V357.7a2.7,2.7,0,0,0-2.7-2.7H503.537V342.962a1.7,1.7,0,0,0-1.7-1.7H482.071a1.7,1.7,0,0,0-1.7,1.7V355c-19.531,0-20.741,1.21-70.564,14a.55.55,0,0,0-.546.55V519.572a.55.55,0,0,0,.545.55h33.112a.55.55,0,0,0,.55-.55V499.388a.554.554,0,0,1,.55-.55H458a.554.554,0,0,1,.55.55v20.183a.55.55,0,0,0,.545.55h65.439a.554.554,0,0,0,.549-.55V499.388a.55.55,0,0,1,.545-.55h13.988a.55.55,0,0,1,.549.55v20.183a.554.554,0,0,0,.55.55h33.112a.554.554,0,0,0,.549-.55V369.552a.554.554,0,0,0-.549-.55ZM437.54,491.829a.545.545,0,0,1-.546.545H416.543a.545.545,0,0,1-.55-.545v-6.973a.549.549,0,0,1,.55-.55h20.452a.55.55,0,0,1,.545.55Zm0-18.05a.545.545,0,0,1-.546.55H416.543a.546.546,0,0,1-.55-.55V466.8a.545.545,0,0,1,.55-.55h20.452a.546.546,0,0,1,.546.55Zm0-18.046a.55.55,0,0,1-.546.55H416.543a.55.55,0,0,1-.55-.55v-6.986a.549.549,0,0,1,.55-.55h20.452a.55.55,0,0,1,.545.55Zm0-18.05a.546.546,0,0,1-.546.55H416.543a.546.546,0,0,1-.55-.55v-6.969a.545.545,0,0,1,.55-.55h20.452a.545.545,0,0,1,.387.161C437.484,430.428,437.541,430.568,437.54,437.682Zm0-18.046a.55.55,0,0,1-.546.55H416.543a.55.55,0,0,1-.55-.55v-6.986a.545.545,0,0,1,.55-.546h20.452C437.3,412.105,437.54,412.349,437.54,419.636Zm0-18.046a.545.545,0,0,1-.546.545H416.543a.545.545,0,0,1-.55-.545V394.6a.549.549,0,0,1,.55-.55h20.452a.55.55,0,0,1,.545.55Zm-.158-17.662a.545.545,0,0,1-.387.161c-20.6,0-20.738-.056-20.842-.16a.546.546,0,0,1-.16-.39c0-7.115.056-7.256.16-7.359a.546.546,0,0,1,.39-.16h20.452a.545.545,0,0,1,.387.161C437.484,376.285,437.484,383.825,437.382,383.928Zm48.646,107.9a.546.546,0,0,1-.161.387c-.1.1-21.388-.085-21.39-.387,0-7.272.247-7.517.55-7.519C485.782,484.306,486.028,484.552,486.028,491.825Zm-.16-17.66c-.1.1-.244.161-20.842.16-.3,0-.3-8.076,20.452-8.076a.545.545,0,0,1,.39.16C485.972,466.511,485.972,474.061,485.868,474.164Zm.16-18.436a.55.55,0,0,1-.55.55H465.027c-.3,0-.547-.247-.55-7.531C464.479,448.444,486.028,448.443,486.028,455.728Zm0-18.05a.546.546,0,0,1-.55.55H465.027a.55.55,0,0,1-.55-.55C464.477,430.41,486.029,430.567,486.028,437.678Zm0-18.046a.55.55,0,0,1-.55.55c-20.755,0-20.754-8.076,0-8.076a.545.545,0,0,1,.549.546Zm0-18.046a.546.546,0,0,1-.55.546c-20.754,0-20.755-8.074,0-8.076a.549.549,0,0,1,.549.55Zm0-18.05a.546.546,0,0,1-.55.55c-20.582,0-11.851-8.064,0-8.064a.546.546,0,0,1,.549.55Zm33.133,108.285a.546.546,0,0,1-.55.546H498.159a.55.55,0,0,1-.55-.546v-6.965a.554.554,0,0,1,.549-.55h20.452a.55.55,0,0,1,.549.55Zm0-18.05a.546.546,0,0,1-.55.55H498.159a.549.549,0,0,1-.549-.55V466.8a.549.549,0,0,1,.549-.55h20.452a.545.545,0,0,1,.549.55Zm0-18.046a.55.55,0,0,1-.55.55H498.159a.554.554,0,0,1-.549-.55v-6.977a.554.554,0,0,1,.549-.55h20.452a.55.55,0,0,1,.549.55Zm0-18.05a.546.546,0,0,1-.55.55H498.159a.549.549,0,0,1-.549-.55v-6.961a.549.549,0,0,1,.549-.55h20.452a.545.545,0,0,1,.549.55Zm0-18.046a.55.55,0,0,1-.55.55H498.159a.554.554,0,0,1-.549-.55v-6.977a.549.549,0,0,1,.549-.546h20.452a.545.545,0,0,1,.549.546Zm0-18.046a.546.546,0,0,1-.55.545H498.159a.55.55,0,0,1-.55-.546V394.6a.554.554,0,0,1,.549-.55h20.452a.55.55,0,0,1,.549.55Zm0-18.05a.546.546,0,0,1-.55.55H498.159a.55.55,0,0,1-.549-.55v-6.961a.55.55,0,0,1,.549-.55h20.452a.546.546,0,0,1,.549.55Zm48.488,108.285a.55.55,0,0,1-.549.545H546.647a.546.546,0,0,1-.55-.545v-6.961a.55.55,0,0,1,.55-.55H567.1a.554.554,0,0,1,.55.55Zm0-18.05a.55.55,0,0,1-.549.55H546.647a.546.546,0,0,1-.55-.55V466.8a.546.546,0,0,1,.55-.55H567.1a.55.55,0,0,1,.55.55Zm0-18.046a.554.554,0,0,1-.549.55H546.647a.55.55,0,0,1-.55-.55v-6.973a.55.55,0,0,1,.55-.55H567.1a.554.554,0,0,1,.55.55Zm0-18.05a.55.55,0,0,1-.549.55H546.647a.546.546,0,0,1-.55-.55v-6.957a.546.546,0,0,1,.55-.55H567.1a.55.55,0,0,1,.55.55Zm0-18.046a.554.554,0,0,1-.549.55H546.647a.55.55,0,0,1-.55-.55v-6.973a.546.546,0,0,1,.55-.546H567.1a.55.55,0,0,1,.55.546Zm0-18.046a.55.55,0,0,1-.546.558H546.647a.545.545,0,0,1-.55-.545V394.6a.55.55,0,0,1,.55-.55H567.1a.554.554,0,0,1,.55.55Zm0-18.05a.55.55,0,0,1-.549.55H546.647a.545.545,0,0,1-.55-.55v-6.957a.546.546,0,0,1,.55-.55H567.1a.55.55,0,0,1,.55.55Z" transform="translate(186.326 -237.891)" fill="#05ccf0" opacity="0.27"/>
  </g>
</svg>
