<svg xmlns="http://www.w3.org/2000/svg" xmlns:xlink="http://www.w3.org/1999/xlink" width="626.309" height="521.095" viewBox="0 0 626.309 521.095">
  <defs>
    <linearGradient id="linear-gradient" x1="0.453" y1="0.971" x2="0.613" y2="0.032" gradientUnits="objectBoundingBox">
      <stop offset="0" stop-color="#05d0f2"/>
      <stop offset="1" stop-color="#1238a9"/>
    </linearGradient>
    <filter id="Floor_11_" x="0" y="155.269" width="626.309" height="365.826" filterUnits="userSpaceOnUse">
      <feOffset dy="3" input="SourceAlpha"/>
      <feGaussianBlur stdDeviation="24.5" result="blur"/>
      <feFlood flood-color="#c2e8f7"/>
      <feComposite operator="in" in2="blur"/>
      <feComposite in="SourceGraphic"/>
    </filter>
    <linearGradient id="linear-gradient-2" x1="0.776" y1="0.122" x2="0.16" y2="0.977" gradientUnits="objectBoundingBox">
      <stop offset="0" stop-color="#1053b6"/>
      <stop offset="1" stop-color="#05caef"/>
    </linearGradient>
  </defs>
  <g id="_2905211" data-name="2905211" transform="translate(42.813 -29.95)">
    <g id="Floor" transform="translate(30.688 255.719)">
      <g transform="matrix(1, 0, 0, 1, -73.5, -225.77)" filter="url(#Floor_11_)">
        <path id="Floor_11_2" data-name="Floor_11_" d="M100.885,429.758c93.586,42.727,245.326,42.727,338.923,0s93.585-112.008,0-154.735-245.337-42.727-338.923,0S7.288,387.031,100.885,429.758Z" transform="translate(42.81 -17.21)" fill="url(#linear-gradient)"/>
      </g>
    </g>
    <g id="Shadow" transform="translate(395.082 346.379)">
      <ellipse id="XMLID_1972_" cx="45.849" cy="26.467" rx="45.849" ry="26.467" fill="#e0e0e0"/>
    </g>
    <g id="Pen_tool" transform="translate(58.646 29.95)">
      <g id="XMLID_1661_">
        <g id="XMLID_647_" transform="translate(45.063)">
          <g id="XMLID_1026_" transform="translate(0 47.873)">
            <path id="XMLID_1034_" d="M150.432,142.543c-4.488,2.6-8.144,9.558-8.144,15.554,0,5.337,2.912,8.106,6.712,6.808V278.2l-41.3-86.648a7.326,7.326,0,0,1-.086-5.29c10.426-24.128,18.122-51.311,20.748-79.2a6.334,6.334,0,0,1,2.769-4.354l38.574-22.275a1.738,1.738,0,0,1,2.807,1.442c2.588,24.128,9.978,42.03,19.984,54.07a5.923,5.923,0,0,1,1.06,4.974c-5.805,18.867-39.261,127.676-41.7,135.62v-113.3a20.255,20.255,0,0,0,6.712-14.551C158.567,142.687,154.929,139.946,150.432,142.543Z" transform="translate(-107.167 -80.09)" fill="#27debf"/>
          </g>
          <path id="XMLID_1035_" d="M212.456,151.821l-41.7,135.62-2.845-1.652v3.3L149,278.189l-41.3-86.648a7.326,7.326,0,0,1-.086-5.29c10.426-24.128,18.122-51.311,20.748-79.2a6.334,6.334,0,0,1,2.769-4.354l38.574-22.275a5.562,5.562,0,0,1,5.032,0l13.864,8a6.4,6.4,0,0,1,2.807,4.344c2.588,24.137,9.978,42.04,19.984,54.08A5.9,5.9,0,0,1,212.456,151.821Z" transform="translate(-107.166 -32.204)" fill="#27debf"/>
          <path id="XMLID_1046_" d="M180.03,163.023c0,5.347-2.893,11.458-6.712,14.551v113.3l-2.845-1.652V179.226c-3.819,1.3-6.712-1.451-6.712-6.789,0-6,3.638-12.966,8.144-15.563C176.392,154.277,180.03,157.036,180.03,163.023Z" transform="translate(-109.725 -35.643)" opacity="0.15"/>
          <g id="XMLID_871_" transform="translate(18.901 58.787)">
            <path id="XMLID_1041_" d="M213.35,152.35l-41.7,135.62V174.664c3.819-3.094,6.712-9.195,6.712-14.551,0-5.987-3.638-8.746-8.125-6.149s-8.144,9.558-8.144,15.563c0,5.337,2.893,8.1,6.712,6.789v113.3l-41.3-86.629a7.277,7.277,0,0,1-.086-5.29c10.426-24.128,18.132-51.311,20.757-79.21a6.334,6.334,0,0,1,2.769-4.354l38.564-22.266a1.731,1.731,0,0,1,2.8,1.442c2.587,24.137,9.978,42.04,19.984,54.08A5.87,5.87,0,0,1,213.35,152.35Z" transform="translate(-126.963 -91.52)" fill="#05caef"/>
          </g>
          <path id="XMLID_1037_" d="M148.055,116.912a5.568,5.568,0,0,0-.783,2.225c-2.616,27.9-10.331,55.082-20.757,79.21a6.993,6.993,0,0,0-.439,2.893l-18.9-10.913a7.11,7.11,0,0,1,.439-2.912c10.436-24.128,18.132-51.311,20.748-79.2a5.535,5.535,0,0,1,.792-2.234Z" transform="translate(-107.167 -33.387)" fill="#114db3" opacity="0.25"/>
          <path id="XMLID_1040_" d="M192.387,92.366a1.68,1.68,0,0,0-2.721-1.031L151.091,113.61a5.724,5.724,0,0,0-1.986,2.129l-18.9-10.923a5.984,5.984,0,0,1,1.976-2.12L170.76,80.422a5.6,5.6,0,0,1,5.051,0l13.854,8A6.436,6.436,0,0,1,192.387,92.366Z" transform="translate(-108.208 -32.204)" fill="#114db3" opacity="0.15"/>
          <g id="XMLID_905_" transform="translate(10.191)">
            <path id="XMLID_874_" d="M120.371,65.851l61.1-35.28a5.562,5.562,0,0,1,5.032,0l13.864,8.011a5.565,5.565,0,0,1,2.521,4.363V69.862a5.565,5.565,0,0,1-2.521,4.363l-61.1,35.28a5.562,5.562,0,0,1-5.032,0l-13.864-8.011a5.565,5.565,0,0,1-2.521-4.363V70.215A5.565,5.565,0,0,1,120.371,65.851Z" transform="translate(-117.84 -29.951)" fill="#114db3"/>
            <path id="XMLID_1038_" d="M202.9,42.534c-.172-1.3-1.232-1.776-2.5-1.05l-61.088,35.27a4.974,4.974,0,0,0-1.776,1.881L118.62,67.722a5.166,5.166,0,0,1,1.8-1.881L181.5,30.552a5.562,5.562,0,0,1,5.032,0L200.4,38.562A5.7,5.7,0,0,1,202.9,42.534Z" transform="translate(-117.875 -29.95)" fill="#fff" opacity="0.4"/>
            <path id="XMLID_1042_" d="M138.865,111.483c-.019.01-.038.01-.057.019-.048.01-.1.038-.153.048a.487.487,0,0,1-.162.067.8.8,0,0,1-.248.067c-.1.019-.2.048-.306.067-.057.01-.124.019-.21.038-.143.019-.286.048-.43.057a5.323,5.323,0,0,1-3.074-.573l-13.864-8a5.565,5.565,0,0,1-2.521-4.363V71.983a5.067,5.067,0,0,1,.735-2.473L137.49,80.423a5.011,5.011,0,0,0-.745,2.473v26.925c0,1.136.573,1.8,1.394,1.8a1.266,1.266,0,0,0,.363-.048A1.365,1.365,0,0,0,138.865,111.483Z" transform="translate(-117.84 -31.738)" opacity="0.15"/>
          </g>
          <path id="XMLID_1039_" d="M167.915,294.259,149,283.355l-41.286-86.638a6.5,6.5,0,0,1-.535-2.387l18.9,10.913a6.45,6.45,0,0,0,.535,2.4Z" transform="translate(-107.167 -37.38)" opacity="0.15"/>
          <path id="XMLID_1045_" d="M173.318,178.339v113.3l-2.845-1.652V179.991c-3.819,1.3-6.712-1.451-6.712-6.789,0-.124,0-.248.01-.372Z" transform="translate(-109.725 -36.408)" opacity="0.15"/>
        </g>
        <g id="XMLID_216_" transform="translate(0 105.133)">
          <path id="XMLID_480_" d="M256.077,144.317c0-3.074-2.158-4.325-4.822-2.788a10.661,10.661,0,0,0-4.822,8.354c0,2.492,1.423,3.752,3.38,3.342-2.721,56.916-42.555,123.99-91.155,152.042-24.147,13.94-46.785,16.232-63.742,6.445-16.012-9.242-25.226-28.272-26.2-53.851a10.794,10.794,0,0,0,3.447-7.3c0-3.074-2.158-4.325-4.822-2.788a10.661,10.661,0,0,0-4.822,8.355c0,2.626,1.575,3.905,3.7,3.265,1.3,25.77,10.923,45.009,27.422,54.538a48.528,48.528,0,0,0,24.6,6.33c12.823,0,27.021-4.287,41.715-12.766,49.716-28.7,90.391-97.657,92.5-155.69A10.886,10.886,0,0,0,256.077,144.317Z" transform="translate(-60.085 -140.097)" fill="#1240ad"/>
          <path id="XMLID_406_" d="M251.255,252.989a10.8,10.8,0,0,0-4.631,6.77L71.905,360.633c-.621-1.891-2.425-2.483-4.573-1.241a10.661,10.661,0,0,0-4.822,8.355c0,3.075,2.158,4.325,4.822,2.788a10.831,10.831,0,0,0,4.688-7l174.6-100.808c.563,2.024,2.416,2.693,4.631,1.413a10.661,10.661,0,0,0,4.822-8.355C256.076,252.7,253.919,251.452,251.255,252.989Z" transform="translate(-60.085 -145.135)" fill="#1240ad"/>
          <path id="XMLID_23_" d="M73.97,258.265a6.865,6.865,0,1,1-6.865-6.865A6.866,6.866,0,0,1,73.97,258.265Z" transform="translate(-59.982 -145.093)" fill="#1240ad"/>
          <circle id="XMLID_219_" cx="6.865" cy="6.865" r="6.865" transform="translate(0 212.825)" fill="#1240ad"/>
          <path id="XMLID_220_" d="M267.13,258.725a6.865,6.865,0,1,1-6.865-6.865A6.866,6.866,0,0,1,267.13,258.725Z" transform="translate(-68.713 -145.113)" fill="#1240ad"/>
          <path id="XMLID_217_" d="M266.47,146.925a6.865,6.865,0,1,1-6.865-6.865A6.866,6.866,0,0,1,266.47,146.925Z" transform="translate(-68.683 -140.06)" fill="#1240ad"/>
        </g>
      </g>
    </g>
    <g id="Character" transform="translate(215.441 124.942)">
      <g id="Character_4_">
        <g id="XMLID_1426_" transform="translate(0 254.7)">
          <path id="XMLID_2608_" d="M301.58,380.952c-1.413,3.122-6.6,3.848-9.605,3.943-4.583.153-8.8-1.91-12.871-3.762-2.864-1.3-5.643-2.788-8.469-4.182-2.8-1.375-5.633-2.988-8.7-3.676-3.657-.821-10.083-1.222-11.353,3.428-1.375,5.022,5.519,9.242,8.765,11.658,3.16,2.349,7.705,5.07,9.29,8.908,1.929,4.669-4.411,6.139-7.753,6.321-9.491.506-18.819-2.607-27.546-6.006-12.517-4.879-24.978-10.226-38.077-13.386-10.952-2.645-28-5.27-34.335,6.922-.124.239.267.7.43.42,6.865-11.267,22.581-8.937,33.4-6.321,13.243,3.2,25.808,8.641,38.469,13.549,8.469,3.275,17.358,6.13,26.534,5.967,4.192-.076,12.651-1.852,10.035-7.934-1.356-3.16-4.583-5.5-7.218-7.524-3.246-2.492-6.922-4.793-9.481-8.049-1.633-2.072-2.148-5.1.64-6.55,2.377-1.232,5.662-.812,8.154-.2,3.819.936,7.438,3.141,10.932,4.908,3.227,1.623,6.474,3.189,9.815,4.574a21.351,21.351,0,0,0,11.935,1.785c2.759-.458,6.865-1.461,8-4.392.229-.582-.754-.936-.993-.4Z" transform="translate(-160.905 -372.766)" fill="#fff"/>
        </g>
        <g id="XMLID_2700_" transform="translate(136.855)">
          <g id="XMLID_967_" transform="translate(49.162 61.848)">
            <path id="XMLID_981_" d="M376.984,179.774c-4.889,5.843-12.957,13.73-17.54,19.478a16.693,16.693,0,0,0-3.714,10.617c.038,2.864.821,5.251,3.619,4.029,2.024-.878,3.3-1.929,6.254-4.841,2.654-2.616,15.487-14.647,15.487-14.647s2.406-14.78,6.369-15.983,7.342-7.533,7.342-7.533C388.336,170.245,383.18,172.365,376.984,179.774Z" transform="translate(-355.728 -170.784)" fill="#9a4a4d"/>
          </g>
          <g id="XMLID_648_">
            <path id="XMLID_883_" d="M304.383,336.951c.01-.038.029-.076.038-.115l60.086-222.812c.01-.01.01-.01.01-.019l.019-.057a1.719,1.719,0,0,1,.057-.162,3.368,3.368,0,0,1,.43-.9,5.28,5.28,0,0,1,.688-.869,7.726,7.726,0,0,1,3.58-1.89c5.347-1.423,12.842.611,16.747,4.526a6.907,6.907,0,0,1,2.3,4.583,4.028,4.028,0,0,1-.143,1.184l-59.5,220.654-.621,2.311h-.01v.01c-.449,1.728-2.081,3.132-4.726,3.857-5.366,1.413-12.88-.611-16.776-4.526C304.6,340.77,303.906,338.7,304.383,336.951Z" transform="translate(-304.238 -106.174)" fill="url(#linear-gradient-2)"/>
            <g id="XMLID_740_" transform="translate(0.049 4.253)">
              <g id="XMLID_877_" transform="translate(2.058 251.524)">
                <path id="XMLID_882_" d="M306.5,380.631h0l1.509-5.987h0a.984.984,0,0,1,.792-.678,3.191,3.191,0,0,1,2.759.745,1,1,0,0,1,.353.955h0l-1.49,5.977h0a2.088,2.088,0,0,1-.516.869,2.026,2.026,0,0,1-2.874-.01A1.989,1.989,0,0,1,306.5,380.631Z" transform="translate(-306.445 -373.894)" fill="#455a64"/>
                <path id="XMLID_881_" d="M306.45,381.341v-.019c.01-.115.019-.239.038-.353.009-.01,0-.019.009-.019.439,1.232,2.845,2.034,3.877,1.136a.4.4,0,0,1-.038.115.959.959,0,0,1-.038.1,1.721,1.721,0,0,1-.382.535,2.026,2.026,0,0,1-2.874-.019A1.9,1.9,0,0,1,306.45,381.341Z" transform="translate(-306.445 -374.213)" fill="#263238"/>
              </g>
              <path id="XMLID_876_" d="M306.343,368.569a10.935,10.935,0,0,0,9.567,2.587,3.961,3.961,0,0,0,2.416-1.537l8.88-13.759a7.462,7.462,0,0,1-3.886,2.244c-5.366,1.423-12.871-.611-16.776-4.526a7.312,7.312,0,0,1-2.253-4.048l.726,16.337c0,.1.01.22.019.325A4.131,4.131,0,0,0,306.343,368.569Z" transform="translate(-304.29 -121.269)" fill="#e0e0e0"/>
              <path id="XMLID_875_" d="M306.983,361.59a13.631,13.631,0,0,0,11.878,3.208c1.871-.506,3.027-1.509,3.351-2.731.363-1.241-.1-2.7-1.5-4.115a13.524,13.524,0,0,0-11.859-3.218c-1.91.506-3.074,1.518-3.39,2.769C305.121,358.745,305.608,360.215,306.983,361.59Z" transform="translate(-304.338 -121.49)" opacity="0.1"/>
              <g id="XMLID_750_" transform="translate(0 228.261)">
                <g id="XMLID_838_">
                  <path id="XMLID_870_" d="M306.343,368.569a10.935,10.935,0,0,0,9.567,2.587,3.961,3.961,0,0,0,2.416-1.537l8.88-13.759a7.462,7.462,0,0,1-3.886,2.244c-5.366,1.423-12.871-.611-16.776-4.526a7.312,7.312,0,0,1-2.253-4.048l.726,16.337c0,.1.01.22.019.325A4.131,4.131,0,0,0,306.343,368.569Z" transform="translate(-304.29 -349.53)" fill="#e0e0e0"/>
                  <path id="XMLID_869_" d="M306.076,373.574h-.019l-.668-14.9a2.819,2.819,0,0,1-.019-.4c0-1.575,1.213-2.912,3.485-3.514a13.552,13.552,0,0,1,11.83,3.2c1.595,1.6,1.986,3.294,1.318,4.64a.856.856,0,0,0-.048.086l-.229.344-8.173,12.651h-.009a2.255,2.255,0,0,1-1.365.878,6.16,6.16,0,0,1-5.385-1.461A2.186,2.186,0,0,1,306.076,373.574Z" transform="translate(-304.339 -349.752)" fill="#27debf"/>
                  <path id="XMLID_862_" d="M306.076,373.574h-.019l-.668-14.9a2.819,2.819,0,0,1-.019-.4c0-1.575,1.213-2.912,3.485-3.514a13.552,13.552,0,0,1,11.83,3.2c1.595,1.6,1.986,3.294,1.318,4.64a.856.856,0,0,0-.048.086l-.229.344-8.173,12.651h-.009a2.255,2.255,0,0,1-1.365.878,6.16,6.16,0,0,1-5.385-1.461A2.186,2.186,0,0,1,306.076,373.574Z" transform="translate(-304.339 -349.752)" opacity="0.1"/>
                  <path id="XMLID_841_" d="M306.983,361.59a13.631,13.631,0,0,0,11.878,3.208c1.871-.506,3.027-1.509,3.351-2.731.363-1.241-.1-2.7-1.5-4.115a13.524,13.524,0,0,0-11.859-3.218c-1.91.506-3.074,1.518-3.39,2.769C305.121,358.745,305.608,360.215,306.983,361.59Z" transform="translate(-304.338 -349.751)" fill="#27debf"/>
                  <path id="XMLID_840_" d="M306.983,361.59a13.631,13.631,0,0,0,11.878,3.208c1.871-.506,3.027-1.509,3.351-2.731.363-1.241-.1-2.7-1.5-4.115a13.524,13.524,0,0,0-11.859-3.218c-1.91.506-3.074,1.518-3.39,2.769C305.121,358.745,305.608,360.215,306.983,361.59Z" transform="translate(-304.338 -349.751)" fill="#27debf"/>
                  <path id="XMLID_839_" d="M305.455,357.542a3.894,3.894,0,0,1,2.568-2.5,20.046,20.046,0,0,0,13.31,3.666,3.8,3.8,0,0,1,.878,3.4c-.325,1.222-1.47,2.215-3.351,2.731a13.6,13.6,0,0,1-11.878-3.208C305.608,360.244,305.121,358.773,305.455,357.542Z" transform="translate(-304.338 -349.779)" opacity="0.05"/>
                </g>
                <g id="XMLID_834_" transform="translate(1.404 16.528)">
                  <path id="XMLID_835_" d="M306.82,375.653a6.174,6.174,0,0,0,5.395,1.451,2.258,2.258,0,0,0,1.356-.878h.019l3.943-6.111a3.842,3.842,0,0,1-1.976,1.127,9.914,9.914,0,0,1-8.641-2.32,3.691,3.691,0,0,1-1.155-2.081l.325,7.3h.019A2.09,2.09,0,0,0,306.82,375.653Z" transform="translate(-305.76 -366.84)" fill="#27debf"/>
                </g>
              </g>
              <g id="XMLID_743_" transform="translate(51.378 29.267)">
                <path id="XMLID_749_" d="M367.906,142.657a2.147,2.147,0,0,1,1.69-1.384,6.779,6.779,0,0,1,5.92,1.6,2.134,2.134,0,0,1,.764,2.053h0l-9.787,36.149a2.285,2.285,0,0,0-.8-1.824,6.828,6.828,0,0,0-5.958-1.614,2.234,2.234,0,0,0-1.633,1.222Z" transform="translate(-358.1 -141.115)" fill="#fafafa"/>
                <path id="XMLID_744_" d="M369.132,144.7a6.806,6.806,0,0,0,5.929,1.6,2.147,2.147,0,0,0,1.671-1.365,2.1,2.1,0,0,0-.754-2.053,6.73,6.73,0,0,0-5.92-1.6,2.117,2.117,0,0,0-1.69,1.384A2.162,2.162,0,0,0,369.132,144.7Z" transform="translate(-358.562 -141.115)" fill="#e0e0e0"/>
              </g>
              <path id="XMLID_742_" d="M365.546,125.193h0l.029-.105c.01-.048.029-.105.038-.153l2.817-10.388c.029-.115.057-.22.086-.334l.019-.076h.01c.506-1.461,1.929-2.664,4.211-3.265a17.256,17.256,0,0,1,15.067,4.077c1.766,1.776,2.377,3.638,1.938,5.223h0L386.9,130.74c-.01.029-.01.048-.019.076l-.019.086h0c-.468,1.518-1.919,2.759-4.258,3.38a17.256,17.256,0,0,1-15.067-4.077C365.842,128.506,365.212,126.72,365.546,125.193Z" transform="translate(-307.055 -110.463)" fill="#27debf"/>
              <path id="XMLID_741_" d="M365.546,125.193h0l.029-.105c.01-.048.029-.105.038-.153l2.817-10.388c.029-.115.057-.22.086-.334l.019-.076h.01c.506-1.461,1.929-2.664,4.211-3.265a17.256,17.256,0,0,1,15.067,4.077c1.766,1.776,2.377,3.638,1.938,5.223h0L386.9,130.74c-.01.029-.01.048-.019.076l-.019.086h0c-.468,1.518-1.919,2.759-4.258,3.38a17.256,17.256,0,0,1-15.067-4.077C365.842,128.506,365.212,126.72,365.546,125.193Z" transform="translate(-307.055 -110.463)" fill="#114db3" opacity="0.5"/>
            </g>
            <path id="XMLID_739_" d="M309.948,350.83l4.077-15.067,41.7-154.907a.046.046,0,0,1,.019-.057l.086-.325a2.257,2.257,0,0,1,1.633-1.222,6.849,6.849,0,0,1,5.958,1.614,2.273,2.273,0,0,1,.8,1.824.013.013,0,0,1,0,.019l-.115.411L322.4,338.017,318.331,353.1a2.147,2.147,0,0,1-1.671,1.365,6.8,6.8,0,0,1-4.516-.611c-.2-.1-.372-.2-.554-.306a4.721,4.721,0,0,1-.859-.678A2.181,2.181,0,0,1,309.948,350.83Z" transform="translate(-304.494 -109.312)" fill="#455a64"/>
            <path id="XMLID_735_" d="M358.731,182.681a6.807,6.807,0,0,0,5.929,1.6,2.147,2.147,0,0,0,1.671-1.365,2.1,2.1,0,0,0-.754-2.053,6.738,6.738,0,0,0-5.92-1.6,2.117,2.117,0,0,0-1.69,1.384A2.14,2.14,0,0,0,358.731,182.681Z" transform="translate(-306.665 -109.312)" fill="#263238"/>
            <path id="XMLID_716_" d="M309.948,358.852l.621-2.282a20.9,20.9,0,0,0,8.383,2.263l-.621,2.292a2.147,2.147,0,0,1-1.671,1.365,6.8,6.8,0,0,1-4.516-.611,5.169,5.169,0,0,1-1.413-.983A2.181,2.181,0,0,1,309.948,358.852Z" transform="translate(-304.494 -117.334)" fill="#263238"/>
            <path id="XMLID_714_" d="M369.5,119.83c3.9,3.915,11.41,5.939,16.776,4.526,2.645-.716,4.278-2.12,4.726-3.857.516-1.747-.143-3.819-2.12-5.815-3.877-3.943-11.391-5.967-16.747-4.545-2.693.716-4.344,2.148-4.793,3.915C366.866,115.81,367.563,117.882,369.5,119.83Z" transform="translate(-307.084 -106.175)" fill="#e0e0e0"/>
            <path id="XMLID_709_" d="M369.841,118.489c3.9,3.915,11.41,5.939,16.776,4.526,2.645-.716,4.278-2.12,4.726-3.857l.029-.076.64-2.311c.01-.057.019-.086.029-.134.029-.124.048-.239.067-.372a3.007,3.007,0,0,0,.038-.506c0-.105,0-.21-.01-.325a.061.061,0,0,0,0-.057c-.01-.1-.019-.21-.038-.325a5.154,5.154,0,0,0-.4-1.423c-.057-.134-.124-.277-.191-.4a.8.8,0,0,0-.105-.2,2.024,2.024,0,0,0-.2-.344,8.557,8.557,0,0,0-1.356-1.69c-3.9-3.924-11.4-5.948-16.738-4.535a7.77,7.77,0,0,0-3.59,1.9l-.019.019a4.613,4.613,0,0,0-.353.4l-.3.411c-.057.086-.105.181-.153.267l-.1.162a2.294,2.294,0,0,0-.143.353l-.029.076c-.038.115-.086.229-.115.353l-.554,2.015a1.338,1.338,0,0,0-.086.277C367.205,114.469,367.9,116.541,369.841,118.489Z" transform="translate(-307.099 -106.009)" fill="#27debf"/>
            <path id="XMLID_685_" d="M370.531,116.17c3.9,3.915,11.41,5.939,16.766,4.526,2.645-.716,4.277-2.12,4.726-3.848.516-1.747-.143-3.819-2.12-5.815-3.877-3.934-11.381-5.968-16.747-4.545-2.693.716-4.335,2.148-4.793,3.915C367.9,112.141,368.593,114.222,370.531,116.17Z" transform="translate(-307.131 -106.01)" fill="#114db3" opacity="0.3"/>
          </g>
          <g id="XMLID_887_" transform="translate(65.384 20.071)">
            <g id="XMLID_888_">
              <g id="XMLID_889_">
                <g id="XMLID_944_" transform="translate(9.159)">
                  <path id="XMLID_945_" d="M401.473,163.522h0a19.182,19.182,0,0,0,19.182-19.182v-1.06A16.251,16.251,0,0,0,404.4,127.03h-5.843a16.25,16.25,0,0,0-16.251,16.251v1.06A19.16,19.16,0,0,0,401.473,163.522Z" transform="translate(-382.31 -127.03)" fill="#263238"/>
                </g>
                <path id="XMLID_943_" d="M430.208,166.058h0a8.7,8.7,0,0,1-8.708-8.708V140.03h0a8.7,8.7,0,0,1,8.708,8.708Z" transform="translate(-374.923 -127.618)" fill="#263238"/>
                <g id="XMLID_940_" transform="translate(0 215.896)">
                  <path id="XMLID_941_" d="M381.3,363.452a51.07,51.07,0,0,1-7.314,6.369,3.125,3.125,0,0,0-1.012,1.05c-.344.716-.878,2.492,2.387,3.638a12.185,12.185,0,0,0,10.092-.964c2.683-1.681,2.807-5.185,5.347-7.18,1.881-1.48,4.23-1.862,5.748-3.791,1.06-1.346.783-3.132.229-5.347-.6-2.416-.879-4.249-1.68-4.067l.134,1.117c-1,1.595-6.178,2.062-8.479.964C386.746,355.231,382.755,361.858,381.3,363.452Z" transform="translate(-372.718 -353.147)" fill="#263238"/>
                </g>
                <g id="XMLID_938_" transform="translate(4.177 208.967)">
                  <path id="XMLID_939_" d="M379.229,365.387v-.019c.773-.716,1.537-1.451,2.272-2.244a63.212,63.212,0,0,0,4.23-6.225,9.5,9.5,0,0,0,1.8-4.554c.057-2.139-.153-5.948-.153-5.948l7.667-.506.372,8.049h0c.2,1.824-1.308,3.447-3.981,5.738s-6.063,7.667-8.479,9.013-4.144,1.3-5.175.611C376.737,368.586,376.632,368.041,379.229,365.387Z" transform="translate(-377.093 -345.89)" fill="#b16668"/>
                </g>
                <g id="XMLID_936_" transform="translate(25.541 223.563)">
                  <path id="XMLID_937_" d="M408.054,371.482a51.069,51.069,0,0,1-7.314,6.368,3.126,3.126,0,0,0-1.012,1.05c-.344.716-.878,2.492,2.387,3.638a12.185,12.185,0,0,0,10.092-.964c2.683-1.68,2.807-5.185,5.347-7.18,1.881-1.48,4.23-1.862,5.748-3.791,1.06-1.346.783-3.132.229-5.347-.6-2.416-.878-4.249-1.68-4.067l.134,1.117c-1,1.595-6.178,2.062-8.479.964C413.486,363.261,409.5,369.888,408.054,371.482Z" transform="translate(-399.468 -361.177)" fill="#263238"/>
                </g>
                <g id="XMLID_934_" transform="translate(29.711 217.226)">
                  <path id="XMLID_935_" d="M405.979,373.445v-.019c.773-.716,1.537-1.451,2.272-2.244a63.2,63.2,0,0,0,4.23-6.225,10.8,10.8,0,0,0,1.8-4.631c.134-1.881.038-5.786.038-5.786l7.667.038.191,7.419h0c.2,1.824-1.308,3.437-3.982,5.738s-6.063,7.667-8.479,9.013-4.144,1.3-5.175.611C403.477,376.644,403.372,376.1,405.979,373.445Z" transform="translate(-403.836 -354.54)" fill="#b16668"/>
                </g>
                <g id="XMLID_932_" transform="translate(5.017 90.811)">
                  <path id="XMLID_933_" d="M420.9,224.326c6.684,14.6-.917,69.949-.917,69.949.2,2.368,2.291,6.053,2.53,13.291.315,9.29-1.337,43.587-1.337,43.587a9.7,9.7,0,0,1-8.746.172s-7.915-46.566-9.462-58.806c-1.346-10.694-3.934-35.815-3.934-35.815l-5.318,35.757s2.731,5.967,2.874,11.362c.191,7.237-.878,40.818-.878,40.818s-3.237,1.136-8.889.306c0,0-8.049-45.448-8.813-54.118-.449-5.175,3.418-68.688,3.418-68.688Z" transform="translate(-377.972 -222.14)" fill="#1147b0"/>
                </g>
                <g id="XMLID_908_" transform="translate(10.572 107.615)">
                  <path id="XMLID_931_" d="M399.306,257.49l-2.167-11.935s-9.176-1.9-13.348-5.815c0,0,4.363,5.433,10.856,7.209l2.435,10.436-2.406,31.2Z" transform="translate(-383.79 -239.74)" fill="#263238"/>
                </g>
                <g id="XMLID_906_" transform="translate(8.251 41.897)">
                  <path id="XMLID_907_" d="M408.008,171.244h0c5.862.812,9.013,2.1,10.9,7.619,1.241,3.609.907,8.908-.344,12.517l-5.127,14.981a80.281,80.281,0,0,1,7.61,15.659c-14.981,8.364-34.955,3.915-39.462-2.186-.191-1.3,1.022-7.552.659-14.2-.391-7.085-1.528-15.21-.411-19.583,2.062-8.125,7.734-13.424,14.122-15.143Z" transform="translate(-381.359 -170.91)" fill="#05ccf0"/>
                </g>
                <g id="XMLID_903_" transform="translate(11.148 7.753)">
                  <path id="XMLID_904_" d="M388.7,135.15c-2.024,1.193-4.526,6.292-4.287,16.976.21,9.051,3.141,11.286,4.621,11.935s4.316.248,7.075-.21v5.433s-3.819,4.43-3.581,6.922,5.509,3.084,9.09.649a23.161,23.161,0,0,0,5.863-6.139V157.588s1.862,2.492,4.917.468,3.17-7.037,1.394-8.841-5.6-1.232-6.311,1.26c0,0-4.4.162-10.274-3.065A16.509,16.509,0,0,1,388.7,135.15Z" transform="translate(-384.393 -135.15)" fill="#b16668"/>
                </g>
                <g id="XMLID_901_" transform="translate(21.274 21.329)">
                  <path id="XMLID_902_" d="M395,150.5a1.138,1.138,0,1,0,1.194-1.127A1.157,1.157,0,0,0,395,150.5Z" transform="translate(-394.999 -149.369)" fill="#263238"/>
                </g>
                <g id="XMLID_899_" transform="translate(18.325 30.124)">
                  <path id="XMLID_900_" d="M394.555,158.58l-2.645.84a1.36,1.36,0,0,0,1.719.945A1.442,1.442,0,0,0,394.555,158.58Z" transform="translate(-391.91 -158.58)" fill="#9a4a4d"/>
                </g>
                <g id="XMLID_897_" transform="translate(11.708 16.733)">
                  <path id="XMLID_898_" d="M385.209,146.784l2.3-1.594a1.343,1.343,0,0,0-1.91-.391A1.465,1.465,0,0,0,385.209,146.784Z" transform="translate(-384.98 -144.556)" fill="#263238"/>
                </g>
                <g id="XMLID_895_" transform="translate(12.471 20.507)">
                  <path id="XMLID_896_" d="M385.78,149.637a1.138,1.138,0,1,0,1.194-1.127A1.157,1.157,0,0,0,385.78,149.637Z" transform="translate(-385.779 -148.508)" fill="#263238"/>
                </g>
                <g id="XMLID_892_" transform="translate(14.057 20.977)">
                  <path id="XMLID_893_" d="M391.221,149l-.181,6.855-3.6-1.117Z" transform="translate(-387.44 -149)" fill="#9a4a4d"/>
                </g>
                <g id="XMLID_890_" transform="translate(22.86 31.986)">
                  <path id="XMLID_891_" d="M396.66,165c2.912-.382,8.9-2.1,9.834-4.468a6.139,6.139,0,0,1-2.1,3.017c-1.785,1.537-7.734,3.265-7.734,3.265V165Z" transform="translate(-396.66 -160.53)" fill="#9a4a4d"/>
                </g>
              </g>
            </g>
          </g>
          <g id="XMLID_885_" transform="translate(31.619 63.667)">
            <path id="XMLID_886_" d="M347.91,215.436c1.776.668,3.561.716,6,1.862a11.4,11.4,0,0,0,5.242,1.5c2.387.115,9.061-2.731,14.933-5.461,6.922-3.218,14.293-9.052,17.119-12.25,5.757-6.5,10.665-14.627,13.2-18.972,2.091-3.581,4.239-8.775,7.533-9.424,5.767.6,8.116,10.656,4.373,16.862s-10.4,14.332-17.492,21.206c-3.437,3.332-9.739,6.951-18.762,10.808a122.274,122.274,0,0,1-18.218,6.273c-1.8.468-3.084,1.146-6.474,2.311a15.09,15.09,0,0,1-4.3,1.069,19.136,19.136,0,0,1-5.461-.582,13.029,13.029,0,0,1-5.977-3.38,8.087,8.087,0,0,1-2-3.218,5.426,5.426,0,0,1,.124-3.743,1.478,1.478,0,0,1,.439-.63,1.827,1.827,0,0,1,1.356-.162c2.578.372,5.309,1.165,7.9,1.26,2.2.086,3.752-.162,3.475-.5s-1.566-.306-3.237-1.241c-1.585-.9-2.616-2.731-2.034-3.581S346.125,214.768,347.91,215.436Z" transform="translate(-337.355 -172.69)" fill="#b16668"/>
          </g>
          <path id="XMLID_884_" d="M347.952,191.984s2.387-1.9,6.922-1.155c2.2.363,1.356,8.66-5.7,10.98-4.593,1.509-5.528.726-7.008,4.507,0,0-2.769-.573-2.1-4.8a23.645,23.645,0,0,1,5.6-11.706c2.024-2.387,2.158-4.4,3.151-3.724,1.127.773.439,2.74.439,2.74Z" transform="translate(-305.853 -109.622)" fill="#b16668"/>
        </g>
      </g>
    </g>
  </g>
</svg>
