<svg xmlns="http://www.w3.org/2000/svg" width="376.731" height="521.888" viewBox="0 0 376.731 521.888">
  <g id="_956_преобразованный_" data-name="956 [преобразованный]" transform="translate(-0.375)">
    <path id="Path" d="M147.124,94.394,3.374,13.635c-5-2.808-4.371-7.711,1.4-10.954h0c5.771-3.241,14.5-3.593,19.5-.786l143.75,80.759c5,2.808,4.371,7.712-1.4,10.954h0C160.85,96.849,152.122,97.2,147.124,94.394Z" transform="translate(188.379 425.598)" fill="#d9e7f4"/>
    <path id="Path-2" data-name="Path" d="M182.989,89.413,31.857,2.285C26.891-.577,22.381-.648,18.97,1.5l-.007-.034L0,12.432,12.717,14.8c-.039.65-.077,1.3-.077,1.99V372.657c0,14.129,8.605,30.541,19.219,36.659l149.008,85.9c-1.357,4.249-4.244,13.187-4.244,13.187l18.544-10.736-.005,0c4.3-2.213,7.046-7.753,7.046-15.731V126.072C202.206,111.943,193.6,95.531,182.989,89.413Z" transform="translate(174.899 0)" fill="#d9e7f4"/>
    <path id="Path-3" data-name="Path" d="M0,269.976c0,14.193,8.567,30.679,19.134,36.825l148.348,86.291c-1.351,4.269-4.226,13.249-4.226,13.249l18.461-10.784-.005,0c4.282-2.223,7.015-7.788,7.015-15.8V22.278A48.189,48.189,0,0,0,182.652,0L0,106.223Z" transform="translate(188.379 102.067)" fill="#d9e7f4"/>
    <path id="Path-4" data-name="Path" d="M169.593,494.559,19.133,407.765C8.567,401.672,0,385.321,0,371.246V16.743C0,2.668,8.567-3.8,19.133,2.293l150.46,86.794c10.567,6.094,19.133,22.444,19.133,36.519v354.5C188.727,494.184,180.16,500.653,169.593,494.559Z" transform="translate(171.047 13.48)" fill="#d4ecff"/>
    <path id="Path-5" data-name="Path" d="M163.867,89.253,13.8,2.287C8.368-.862,3.476-.641,0,2.224,3.256.652,7.367.953,11.848,3.548L161.911,90.514C172.45,96.62,180.994,113,180.994,127.1V482.311c0,6.83-2.015,11.849-5.28,14.541,4.4-2.126,7.235-7.7,7.235-15.8V125.845C182.95,111.742,174.405,95.361,163.867,89.253Z" transform="translate(176.825 13.48)" fill="#fff"/>
    <path id="Path-6" data-name="Path" d="M160.843,472.04,14.4,388.713C6.449,384.187,0,372.045,0,361.593V12.433C0,1.981,6.449-2.823,14.4,1.7L160.843,85.028c7.955,4.526,14.4,16.668,14.4,27.12V461.309C175.248,471.76,168.8,476.566,160.843,472.04Z" transform="translate(176.825 25.035)" fill="#fff"/>
    <path id="Path-7" data-name="Path" d="M163.352,471.548,15.735,388.162c-8.019-4.529-14.52-16.679-14.52-27.139V11.615C1.215,5.745,3.264,1.658,6.478,0,2.574,1.19,0,5.526,0,12.105V361.514c0,10.459,6.5,22.61,14.52,27.139L162.136,472.04c3.519,1.987,6.745,2.176,9.258.878C169.091,473.618,166.326,473.228,163.352,471.548Z" transform="translate(174.899 25.035)" fill="#5793ce"/>
    <path id="Path-8" data-name="Path" d="M73.178,211.836,0,171.181V0L34.479,19.156c23.947,13.305,38.7,37.893,38.7,64.5V211.836Z" transform="translate(201.86 175.246)" fill="#efefef"/>
    <g id="Group" transform="translate(110.124 158.803)">
      <path id="Path-9" data-name="Path" d="M66.964,2.739l.008.014C59.873-1.5,50.01-.973,39.114,5.348,17.546,17.861,0,48.4,0,73.425v18.06H0l.74.438L71.209,133.58l1.067-21.611.878-8.392L76.89,90.546l.429-1.994,8.012-16.227L91.643,64.4l5.116-6.13,12.466-9.865,1.1-.818,6.13-2.65,8.242-2.153h6.428l7.189,1.265Z" transform="translate(0)" fill="#d4ecff"/>
      <path id="Path-10" data-name="Path" d="M0,83.6l2.284-1.326V0A16.893,16.893,0,0,0,0,5.825Z" transform="translate(75.946 86.156)" fill="#d4ecff"/>
      <path id="Path-11" data-name="Path" d="M71.209,167.7,0,126.475.734,48.587l2.719-7.868L11.7,26.474l9.753-11.622,8.791-7.068,9.506-5.8L56.992,0l9.121,5.19,5.1,7.841,1.607,12.036-.55,130.194Z" transform="translate(75.946 43.285)" fill="#d4ecff"/>
      <path id="Path-12" data-name="Path" d="M22.613,2.744C16.673-.811,8.794-1.008,0,2.718L72.554,44.812l7.781-2.033h6.428l7.189,1.265L22.6,2.73Z" transform="translate(44.361 0.008)" fill="#5793ce"/>
      <g id="Group-2" data-name="Group" transform="translate(25.499 2.049)">
        <path id="Path-13" data-name="Path" d="M11.643,0A45.013,45.013,0,0,0,4.69,3.3C3.1,4.222,1.54,5.252,0,6.36L72.327,48.321l2.475-1.96,1.1-.818,6.13-2.65,2.445-.639Z" transform="translate(8.927 0)" fill="#e9f6ff"/>
        <path id="Path-14" data-name="Path" d="M71.876,49.735l9.839-7.787L9.41,0A70,70,0,0,0,0,8.036Z" transform="translate(0 6.006)" fill="#fff"/>
        <path id="Path-15" data-name="Path" d="M78.228,168.437l-2.284,1.326V29.368C75.945,5.8,59.423-3.78,39.114,8S2.284,48.54,2.284,72.1V91.031L0,92.357V73.43C0,48.4,17.546,17.866,39.114,5.353S78.228,3.019,78.228,28.044Z" transform="translate(45.712 39.176)" fill="#5793ce"/>
      </g>
    </g>
    <path id="Path-16" data-name="Path" d="M13.48,0,9.5,16.2l1.988,26.169L6.451,39.411,0,25.187,5.648,7.209Z" transform="translate(120.977 219.539)" fill="#aedeed"/>
    <g id="Group-3" data-name="Group" transform="translate(194.699 243.259)">
      <path id="Shape" d="M57.031,76.853,2.848,47.626A6.1,6.1,0,0,1,0,42.618V2.789A2.722,2.722,0,0,1,1.269.262a2.532,2.532,0,0,1,2.451.12L57.9,29.609a6.105,6.105,0,0,1,2.846,5.007V74.445a2.723,2.723,0,0,1-1.27,2.527,2.191,2.191,0,0,1-1.052.262A2.967,2.967,0,0,1,57.031,76.853Z" transform="translate(0 0)" fill="#fff" opacity="0.4"/>
      <g id="Group-4" data-name="Group" transform="translate(16.73 23.407)">
        <path id="Path-17" data-name="Path" d="M2.939,25.843l-.382-.206A5.627,5.627,0,0,1,0,21.072V2.093C0,.333,1.144-.475,2.557.287l.382.206A5.627,5.627,0,0,1,5.5,5.057V24.036C5.5,25.8,4.351,26.606,2.939,25.843Z" transform="translate(0 0)" fill="#b2d3ea"/>
        <path id="Path-18" data-name="Path" d="M2.94,17.971l-.382-.206A5.628,5.628,0,0,1,0,13.2V2.093C0,.333,1.144-.475,2.558.287L2.94.492A5.627,5.627,0,0,1,5.5,5.057V16.165C5.5,17.924,4.352,18.733,2.94,17.971Z" transform="translate(10.895 13.75)" fill="#b2d3ea"/>
        <path id="Path-19" data-name="Path" d="M2.939,33.306,2.557,33.1A5.627,5.627,0,0,1,0,28.535V2.093C0,.333,1.144-.475,2.557.287l.382.206A5.627,5.627,0,0,1,5.5,5.057V31.5C5.5,33.26,4.352,34.067,2.939,33.306Z" transform="translate(21.794 4.293)" fill="#396caa"/>
      </g>
    </g>
    <g id="Group-5" data-name="Group" transform="translate(0.376 189.708)">
      <ellipse id="Oval" cx="38.223" cy="21.781" rx="38.223" ry="21.781" transform="translate(16.277 227.785)" fill="#d9e7f4"/>
      <g id="Group-6" data-name="Group" transform="translate(0 0)">
        <path id="Path-20" data-name="Path" d="M0,0S.854,17.359,2.192,29.026,32,20.066,32,20.066V6.783Z" transform="translate(35.741 20.98)" fill="#263238"/>
        <g id="Group-7" data-name="Group" transform="translate(14.997 6.875)">
          <path id="Path-21" data-name="Path" d="M.288,7.082C.715,8.136,8.091,17,15.467,19.215a17.187,17.187,0,0,0,6.777.924A2.2,2.2,0,0,0,24.06,17.2,27.755,27.755,0,0,0,9.909,1.807C-2.6-4.314.288,7.082.288,7.082Z" transform="translate(35.619 223.01)" fill="#263238"/>
          <path id="Path-22" data-name="Path" d="M10.321,0a59.7,59.7,0,0,1,3.635,11.817c.521,3.282-1.3,7.547-2.805,10.373a3.092,3.092,0,0,1-4.783.817A17.459,17.459,0,0,1,.38,11.712C-.475,2.638.38,1.056.38,1.056Z" transform="translate(23.127 233.495)" fill="#263238"/>
          <path id="Path-23" data-name="Path" d="M.428,8.933a170.378,170.378,0,0,0,0,24.106c.962,12.66,4.407,71.87,5.048,86.115,0,0-.321,4.312,8.138,3.362s7.777-5.738,7.777-5.738,11.879-.158,12.254-7.069S45.81,27.184,45.81,0Z" transform="translate(15.253 114.894)" fill="#1147b0"/>
          <g id="Group-8" data-name="Group" transform="translate(0 0)">
            <path id="Path-24" data-name="Path" d="M5.089,0l5.82,8.9,20,23.85a4.458,4.458,0,0,1-3.178,2.793C25.789,35.992,8.965,20.148,1.7,13.195a5.454,5.454,0,0,1-.767-7Z" transform="translate(60.366 64.644)" fill="#ffc2b0"/>
            <path id="Path-25" data-name="Path" d="M0,0S9.246-.237,12.464,12.951,18.2,42.65,15.4,44.022c-8.4,4.119-13.719-.7-13.719-.7Z" transform="translate(54.101 28.127)" fill="#05ccf0"/>
            <path id="Path-26" data-name="Path" d="M48.695.565A7.668,7.668,0,0,0,43.7.293C35.828,2.525,6.213,11.1,1.332,15.221c-5.639,4.757,8.457,31.491,8.254,40.256S8.383,74.575,7.6,84.1s-1.847,14.751,6.05,18.8,21.377,4.238,31.468-3.352,8.261-12.782,7.841-18.293S49.1,51.922,49.4,45.158a25.734,25.734,0,0,0,6.189-7.019c2.635-4.434-2.018-12.584-3.95-17.883s1.089-11.358.491-15.68A4.932,4.932,0,0,0,48.695.565Z" transform="translate(8.174 28.121)" fill="#05ccf0"/>
            <path id="Path-27" data-name="Path" d="M22.311,7.425c.624,4.814-3.851,9.348-10,10.125S.682,15.054.058,10.239,3.908.891,10.054.114,21.685,2.611,22.311,7.425Z" transform="translate(25.091 30.375)" fill="#fff"/>
            <path id="Path-28" data-name="Path" d="M15.947,5.307c.446,3.441-2.751,6.682-7.144,7.236S.489,10.759.042,7.317,2.793.635,7.186.082,15.5,1.865,15.947,5.307Z" transform="translate(28.279 32.896)" fill="#ffc2b0"/>
            <path id="Path-29" data-name="Path" d="M8.31,2.763S2.966-1.577,1.915.621,0,12.251,0,12.251l10.617,2.815L9.005,5.509S11.13,3.731,8.31,2.763Z" transform="translate(31.551 24.142)" fill="#ffc2b0"/>
            <path id="Path-30" data-name="Path" d="M31.676,16.568a15.779,15.779,0,0,1-16.758,14.7A15.721,15.721,0,0,1,.028,14.724,15.779,15.779,0,0,1,16.786.028,15.719,15.719,0,0,1,31.676,16.568Z" transform="translate(24.778 0)" fill="#ffc2b0"/>
            <path id="Path-31" data-name="Path" d="M.27.749C.176,1.24.085,1.77,0,2.309c1.066,5.443,9.319,7.825,9.319,7.825L8.1,2.9s1-.838.718-1.675C5.555.21,1.446-.689.27.749Z" transform="translate(32.455 26.747)" fill="#ea9c92"/>
            <path id="Path-32" data-name="Path" d="M31.676,16.568a15.779,15.779,0,0,1-16.758,14.7A15.721,15.721,0,0,1,.028,14.724,15.779,15.779,0,0,1,16.786.028,15.719,15.719,0,0,1,31.676,16.568Z" transform="translate(24.778 0)" fill="#ffc2b0"/>
            <path id="Path-33" data-name="Path" d="M0,0,1.774,41.867l6.2.631,4.037-37.69Z" transform="translate(1.574 81.872)" fill="#ffc2b0"/>
            <path id="Path-34" data-name="Path" d="M7.838,28.693c-.335-1.458-3.049-2.657-3.464-4.558C2.244,14.382,1.732,0,1.732,0L0,19.646C2,25.473,3.717,30.82,3.645,33.92,3.527,39.064,3.13,44.751,2.666,50.5v.017S9.889,37.633,7.838,28.693Z" transform="translate(14.117 49.679)" fill="#05ccf0"/>
            <path id="Path-35" data-name="Path" d="M10.691,0S5.732,1.871,2.926,16.9-1.979,47,3.024,48.938s9.185,3.4,10.656-.621,2.382-23.4,2.567-30.365S16.7,1.378,10.691,0Z" transform="translate(0 42.486)" fill="#05ccf0"/>
            <path id="Path-36" data-name="Path" d="M7.232.435A13.328,13.328,0,0,1,11.858,3.5a29.621,29.621,0,0,1,3.161,4.19c1.544,2.274,2.847,7.189,1.906,7.8S10.6,7.256,9.729,9.313,9.736,13.27,8.622,13.3,3.639,4.413.593,1.647,7.232.435,7.232.435Z" transform="translate(82.565 95.213)" fill="#ffc2b0"/>
          </g>
          <path id="Path-37" data-name="Path" d="M0,92.387a24.547,24.547,0,0,0,3.394-.347h0L5.721,0Z" transform="translate(36.641 139.287)" fill="#396caa"/>
        </g>
        <g id="Group-9" data-name="Group" transform="translate(0 129.103)">
          <path id="Path-38" data-name="Path" d="M41.978,59.729l-3.3-4.252-34.7-19.83a4.751,4.751,0,0,1-2.011-3.8L2,3.8,0,1.23,1.875.159l0,0A1.282,1.282,0,0,1,3.238.238L42.563,22.71a4.751,4.751,0,0,1,2.011,3.8l-.033,30.538a1.728,1.728,0,0,1-.735,1.629h0Z" transform="translate(0.685 0)" fill="#5793ce"/>
          <path id="Path-39" data-name="Path" d="M17.979,43.648l-2.466-1.409L1.981,19.038,2,3.8,0,1.23,1.875.159l0,0A1.282,1.282,0,0,1,3.238.238L42.563,22.71a4.039,4.039,0,0,1,1.483,1.711Z" transform="translate(0.687 0.002)" fill="#5793ce"/>
          <path id="Path-40" data-name="Path" d="M.885,2.371,0,1.23,1.875.159l0,0A1.282,1.282,0,0,1,3.238.238l.694.4Z" transform="translate(0.687 0.002)" fill="#5793ce"/>
          <path id="Path-41" data-name="Path" d="M4.041,0A4.952,4.952,0,0,1,5.684,3.269L1.842,5.459,0,2.3Z" transform="translate(39.566 22.961)" fill="#5793ce"/>
          <path id="Path-42" data-name="Path" d="M41.377,22.712,2.051.24C.937-.4.035.276.033,1.742L0,32.278a4.751,4.751,0,0,0,2.011,3.8L41.336,58.554c1.113.636,2.016-.036,2.018-1.5l.033-30.538A4.746,4.746,0,0,0,41.377,22.712Z" transform="translate(0 1.071)" fill="#05ccf0"/>
        </g>
        <path id="Path-43" data-name="Path" d="M1.873,16.949,0,15.881V0L1.873,1.066Z" transform="translate(31.425 157.839)" fill="#fff"/>
        <path id="Path-44" data-name="Path" d="M1.873,16.949,0,15.883V0L1.873,1.068Z" transform="translate(27.049 155.346)" fill="#fff"/>
        <path id="Path-45" data-name="Path" d="M1.873,16.949,0,15.883V0L1.873,1.068Z" transform="translate(22.674 152.852)" fill="#fff"/>
        <path id="Path-46" data-name="Path" d="M1.418,5.081s-1.64,9.772-1.392,12.9,1.945,8.293,3.232,8.183S3.3,13.581,5.563,14.822s2.5,3.374,3.525,2.621S7.3,6.025,8.052,1.4,1.418,5.081,1.418,5.081Z" transform="translate(16.978 125.182)" fill="#ffc2b0"/>
        <path id="Path-47" data-name="Path" d="M11.424,8.192c7.951,2.788,9.5,1.087,9.575,1,.073-.473.131-.951.16-1.44a15.407,15.407,0,0,0-.53-5L0,0S3.259,5.328,11.424,8.192Z" transform="translate(50.291 15.695)" fill="#ea9c92"/>
        <path id="Path-48" data-name="Path" d="M36.3,7.855C34.425,6.27,27.664-1.57,15.548.281,7.977,1.437,1.6,6.534.179,18.164A26.519,26.519,0,0,0,7.506,39.422a6.465,6.465,0,0,0,.861-.43c3.034-1.971,3.361-3.055,3.361-3.065l.671-5.934a1.664,1.664,0,0,0-1.511-1.644,3.034,3.034,0,0,1-2.22-1.336c-1.741-2.246-.937-5.748,2.542-5.879a2.662,2.662,0,0,0,2.779-1.95,1.426,1.426,0,0,1,1.856-.955c3.959,1.414,13.716,4.463,19.994,2.707C43.873,18.689,38.175,9.441,36.3,7.855Z" transform="translate(35.723)" fill="#263238"/>
        <path id="Path-49" data-name="Path" d="M4.132,2.336,0,0,1.553,2.5l2.088.762Z" transform="translate(22.508 139.989)" fill="#5793ce"/>
      </g>
    </g>
    <g id="Group-10" data-name="Group" transform="translate(105.077 215.087)">
      <path id="Path-50" data-name="Path" d="M13.5,43.832c18,10.028,47.19,10.026,65.193,0s18-26.284,0-36.312S31.506-2.506,13.5,7.52-4.5,33.806,13.5,43.832Z" transform="translate(0 248.767)" fill="#d9e7f4"/>
      <g id="Group-11" data-name="Group" transform="translate(12.863 28.542)">
        <path id="Path-51" data-name="Path" d="M4.989,9.828A8.449,8.449,0,0,0,.023,18.317a13.8,13.8,0,0,0,.724,4.151c1.022,2.069,4.37,4.91,9.717,2.871S27.683,12.539,28.127,5.5C28.952-7.589,13.444,6.344,4.989,9.828Z" transform="translate(0 222.464)" fill="#263238"/>
        <path id="Path-52" data-name="Path" d="M.83,9.966S-.451,17.509.17,18.893s4.342,4.334,9.839,3.7,21.31-5.9,24.832-15.952C40.3-8.95,4.317,7.806,4.317,7.806Z" transform="translate(35.567 243.968)" fill="#263238"/>
        <path id="Path-53" data-name="Path" d="M51.848,6.964l1.224,117.77a8.323,8.323,0,0,1-6.649,8.165q-.692.113-1.487.181c-3.787.319-5.993-1.248-7.252-2.894a8.427,8.427,0,0,1-1.631-4.755L34.494,75.157,26.715,30.206,15.951,109.762A6.814,6.814,0,0,1,12.993,115a8.465,8.465,0,0,1-4.908,1.283,9.132,9.132,0,0,1-6.526-3.1A6.18,6.18,0,0,1,0,108.923L4.268,61.056,5.856,0Z" transform="translate(0 126.368)" fill="#1147b0"/>
        <path id="Path-54" data-name="Path" d="M1.929,0,0,10.732a4.939,4.939,0,0,0,4.165,4.676c4.238,1.015,5.547-1.624,5.547-1.624L11.629,1.7Z" transform="translate(34.111 27.915)" fill="#ffc2b0"/>
        <path id="Path-55" data-name="Path" d="M31.636,22.037c-3.009,9.193-12.318,14.53-20.794,11.918S-2.065,21.774.942,12.581,13.26-1.949,21.736.663,34.645,12.844,31.636,22.037Z" transform="translate(27.758)" fill="#ffc2b0"/>
        <path id="Path-56" data-name="Path" d="M31.209,4.845c-.294-.114-17.979-11.1-24.517.4C-3.967,23.987,3.83,45.48.025,92.146c-.637,7.809,10.892,12.568,16.344,15.571a33.553,33.553,0,0,0,15.863,4.354c5.526.044,16.125-4.7,15.74-11.667-1.769-32.057,1.168-59.079,3.883-85.3C51.855,15.1,48.463,11.584,31.209,4.845Z" transform="translate(5.335 33.998)" fill="#05ccf0"/>
        <path id="Path-57" data-name="Path" d="M14.641,0,3.877,79.556A6.814,6.814,0,0,1,.919,84.794a8.044,8.044,0,0,1-.919.5C2.234,83.678,8.76,16.9,9.966,9.474S14.641,0,14.641,0Z" transform="translate(12.072 156.574)" fill="#396caa"/>
      </g>
      <path id="Path-58" data-name="Path" d="M5.185,31.184,19.992,2.83,15.346,0,0,21.6Z" transform="translate(101.567 45.913)" fill="#ffc2b0"/>
      <path id="Path-59" data-name="Path" d="M0,31.614,7.2,0,12.94.06,10.786,26.279Z" transform="translate(9.087 15.378)" fill="#ffc2b0"/>
      <path id="Path-60" data-name="Path" d="M10.535,12.066S27.1,18.368,41.325,1.05c1.254-1.525,3.829-1.356,4.57.289,1.28,2.837,2.883,7.125.938,11.152C38.235,30.3,8.891,29.678,1.823,39.659S10.535,12.066,10.535,12.066Z" transform="translate(59.517 65.579)" fill="#05ccf0"/>
      <path id="Path-61" data-name="Path" d="M29.461,24.075s-13.675,1.015-15.642-10.4A84.479,84.479,0,0,1,12.443,2.257,2.36,2.36,0,0,0,9.762.018C6.487.409,1.417,1.353.729,3.47-.3,6.631-2.229,22.136,11.277,45.928,20.127,61.514,29.461,24.075,29.461,24.075Z" transform="translate(8.727 39.371)" fill="#05ccf0"/>
      <path id="Path-62" data-name="Path" d="M0,15.457l.131-3.6a7.205,7.205,0,0,1,1.118-3.6l3.787-6,.989-1.2A2.948,2.948,0,0,1,9.809.427l.871.529A3.417,3.417,0,0,1,12.346,4.1l-1.959,5.13,2.478-.464a.875.875,0,0,1,1.032.684h0a.845.845,0,0,1-.536.937L9.315,11.961,5.641,16.979Z" transform="translate(16.262)" fill="#ffc2b0"/>
      <path id="Path-63" data-name="Path" d="M9.209,17.747l1.732-3.2a7.211,7.211,0,0,0,.872-3.662L11.6,3.865l-.244-1.515A2.852,2.852,0,0,0,8.38,0L7.353.047A3.584,3.584,0,0,0,4.293,1.985L3.369,7.378,1.452,5.795A.9.9,0,0,0,.2,5.9h0A.827.827,0,0,0,.19,6.965l2.711,3.3.7,6.872Z" transform="translate(112.459 31.176)" fill="#ffc2b0"/>
      <path id="Path-64" data-name="Path" d="M2.41,14.187C.97,20.519,9.641,68.282,0,85.749c4.821-1.885,9.587-5.572,9.327-10.287-1.266-22.925-.12-43.269,1.626-62.591C19.2,8.842,32.082,6.438,41.195,0,31.422,3.474,3.695,8.535,2.41,14.187Z" transform="translate(56.844 87.481)" fill="#05ccf0"/>
      <path id="Path-65" data-name="Path" d="M0,2.434,2.455,0S6.494,3.983,9.74,4.673a38.918,38.918,0,0,0,5.815,1.159l1.581,4.206S4.273,9.149,0,2.434Z" transform="translate(43.048 61.919)" fill="#fff"/>
      <path id="Path-66" data-name="Path" d="M23.2,25.881a2.1,2.1,0,0,0,1.692-.847c.672-.937.247-5.249,2.316-5.961,3.235-1.114,10.906,2.792,11.726-8.464C39.358,4.759,36.407,3.2,36.419,0c0,0,.256,1.607-15.346.606S.4,12.972.028,19.34,2.852,36.174,13.517,37.612c1.767.239,9.195-5.523,9-6.279s-2.995-.714-2.589-2.913C20.267,26.588,21.425,25.913,23.2,25.881Z" transform="translate(37.523 24.984)" fill="#263238"/>
    </g>
    <g id="Group-12" data-name="Group" transform="translate(199.987 347.848)">
      <g id="Group-13" data-name="Group" transform="translate(0 0)">
        <path id="Path-67" data-name="Path" d="M48.727,72.35,3.629,45.317c-2-1.2-3.629-4.423-3.629-7.2V3.3C0,.527,1.624-.75,3.629.452l45.1,27.034c2,1.2,3.629,4.423,3.629,7.2V69.5C52.356,72.278,50.731,73.552,48.727,72.35Z" transform="translate(8.917 10.354)" fill="#efefef"/>
        <path id="Path-68" data-name="Path" d="M51.8,27.471,6.7.438A2.238,2.238,0,0,0,4.372.244s0-.031,0-.031L0,2.838S1.937,3.571,3.075,4V38.1c0,2.774,1.624,6,3.629,7.2L49.81,71.141v4L54.228,72.5l-.023-.009a3.394,3.394,0,0,0,1.226-3V34.67C55.429,31.895,53.805,28.673,51.8,27.471Z" transform="translate(1.381 0)" fill="#173d7a"/>
        <path id="Path-69" data-name="Path" d="M48.727,72.35,3.629,45.317c-2-1.2-3.629-4.423-3.629-7.2V3.3C0,.527,1.624-.75,3.629.452l45.1,27.034c2,1.2,3.629,4.423,3.629,7.2V69.5C52.356,72.276,50.731,73.551,48.727,72.35Z" transform="translate(0 2.65)" fill="#5793ce"/>
        <path id="Path-70" data-name="Path" d="M47.906,27.476,2.808.443A2.079,2.079,0,0,0,0,.638a2.639,2.639,0,0,1,1.6.424L46.7,28.1c2,1.2,3.629,4.423,3.629,7.2V70.11a3.905,3.905,0,0,1-.819,2.653c1.2-.1,2.027-1.3,2.027-3.272V34.674C51.535,31.9,49.91,28.678,47.906,27.476Z" transform="translate(0.821 2.66)" fill="#fff"/>
      </g>
      <g id="Group-14" data-name="Group" transform="translate(12.708 30.067)">
        <path id="Path-71" data-name="Path" d="M6.086,5.9c0,2.015-1.362,2.831-3.043,1.824A7.037,7.037,0,0,1,0,2.255C0,.241,1.362-.575,3.043.431A7.033,7.033,0,0,1,6.086,5.9Z" transform="translate(0 0)" fill="#fff"/>
        <path id="Path-72" data-name="Path" d="M6.086,5.9c0,2.015-1.362,2.831-3.043,1.824A7.037,7.037,0,0,1,0,2.255C0,.241,1.362-.575,3.043.431A7.037,7.037,0,0,1,6.086,5.9Z" transform="translate(9.219 5.525)" fill="#fff"/>
        <path id="Path-73" data-name="Path" d="M6.086,5.9c0,2.015-1.362,2.831-3.043,1.824A7.04,7.04,0,0,1,0,2.255C0,.241,1.362-.575,3.043.431A7.043,7.043,0,0,1,6.086,5.9Z" transform="translate(18.438 11.05)" fill="#fff"/>
      </g>
    </g>
    <g id="Group-15" data-name="Group" transform="translate(276.71 347.412)">
      <g id="Group-16" data-name="Group" transform="translate(0 0)">
        <path id="Path-74" data-name="Path" d="M51.893,115.107,3.865,88.256A8.887,8.887,0,0,1,0,81.106V3.278C0,.523,1.729-.745,3.865.449L51.893,27.3a8.887,8.887,0,0,1,3.865,7.15v77.826C55.756,115.035,54.027,116.3,51.893,115.107Z" transform="translate(9.497 10.284)" fill="#efefef"/>
        <path id="Path-75" data-name="Path" d="M55.167,27.286,7.139.435A2.529,2.529,0,0,0,4.656.242s0-.029,0-.029L0,2.82s2.063.728,3.274,1.158V81.091a8.885,8.885,0,0,0,3.865,7.15l45.906,25.664v3.975l4.706-2.624-.025-.009a3.276,3.276,0,0,0,1.305-2.983V34.436A8.887,8.887,0,0,0,55.167,27.286Z" transform="translate(1.469 0)" fill="#787fa7"/>
        <path id="Path-76" data-name="Path" d="M51.893,115.107,3.865,88.256A8.887,8.887,0,0,1,0,81.106V3.278C0,.523,1.729-.745,3.865.449L51.893,27.3a8.887,8.887,0,0,1,3.865,7.15v77.828C55.756,115.033,54.027,116.3,51.893,115.107Z" transform="translate(0 2.632)" fill="#787fa7"/>
        <path id="Path-77" data-name="Path" d="M51.018,27.291,2.991.44A2.33,2.33,0,0,0,0,.634a2.969,2.969,0,0,1,1.7.421L49.732,27.906a8.887,8.887,0,0,1,3.865,7.15v77.826a3.71,3.71,0,0,1-.873,2.635c1.275-.1,2.159-1.288,2.159-3.25V34.441C54.882,31.684,53.152,28.483,51.018,27.291Z" transform="translate(0.874 2.643)" fill="#fff"/>
      </g>
      <g id="Group-17" data-name="Group" transform="translate(14.625 27.801)">
        <path id="Path-78" data-name="Path" d="M14.013,12.679c0,4.327-3.136,6.08-7.006,3.916S0,9.17,0,4.843,3.136-1.237,7.006.927,14.013,8.354,14.013,12.679Z" transform="translate(6.247 0)" fill="#fff"/>
        <path id="Path-79" data-name="Path" d="M23.181,12.19c-.009-.067-.02-.134-.03-.2-.3-1.822-2.081-3.423-3.257-3.018-1.816.627-4.126.319-6.643-1.087a20.506,20.506,0,0,1-6.643-6.34C5.435-.175,3.652-.567,3.354.921c-.011.055-.021.11-.03.167L0,21.521,26.5,36.337Z" transform="translate(0 12.72)" fill="#fff"/>
      </g>
      <g id="Group-18" data-name="Group" transform="translate(10.831 72.18)">
        <path id="Path-80" data-name="Path" d="M32.174,20.233,0,2.245V0L32.174,17.988Z" transform="translate(0 0)" fill="#fff"/>
        <path id="Path-81" data-name="Path" d="M22.459,14.8,0,2.247V0L22.459,12.557Z" transform="translate(0 9.811)" fill="#fff"/>
        <path id="Path-82" data-name="Path" d="M19.43,13.109,0,2.247V0L19.43,10.864Z" transform="translate(0 4.905)" fill="#fff"/>
        <path id="Path-83" data-name="Path" d="M9.715,7.676,0,2.245V0L9.715,5.431Z" transform="translate(22.459 17.463)" fill="#fff"/>
      </g>
    </g>
    <g id="Group-19" data-name="Group" transform="translate(276.71 237.492)">
      <g id="Group-20" data-name="Group" transform="translate(0 0)">
        <path id="Path-84" data-name="Path" d="M51.893,115.107,3.865,88.256A8.887,8.887,0,0,1,0,81.106V3.278C0,.523,1.729-.745,3.865.449L51.893,27.3a8.887,8.887,0,0,1,3.865,7.15v77.828C55.756,115.033,54.027,116.3,51.893,115.107Z" transform="translate(9.497 10.284)" fill="#efefef"/>
        <path id="Path-85" data-name="Path" d="M55.167,27.286,7.139.435A2.529,2.529,0,0,0,4.656.242s0-.031,0-.031L0,2.819s2.063.728,3.274,1.158V81.089a8.885,8.885,0,0,0,3.865,7.15L53.046,113.9v3.974l4.706-2.624-.025-.009a3.276,3.276,0,0,0,1.305-2.983V34.434A8.884,8.884,0,0,0,55.167,27.286Z" transform="translate(1.469 0)" fill="#5793ce"/>
        <path id="Path-86" data-name="Path" d="M51.893,115.105,3.865,88.254A8.887,8.887,0,0,1,0,81.1V3.278C0,.523,1.729-.745,3.865.449L51.893,27.3a8.887,8.887,0,0,1,3.865,7.15v77.828C55.756,115.031,54.027,116.3,51.893,115.105Z" transform="translate(0 2.634)" fill="#d4ecff"/>
        <path id="Path-87" data-name="Path" d="M51.018,27.291,2.991.44A2.33,2.33,0,0,0,0,.634a2.969,2.969,0,0,1,1.7.421L49.732,27.906A8.886,8.886,0,0,1,53.6,35.054V112.88a3.71,3.71,0,0,1-.873,2.635c1.275-.1,2.159-1.288,2.159-3.25V34.439A8.891,8.891,0,0,0,51.018,27.291Z" transform="translate(0.874 2.642)" fill="#fff"/>
      </g>
      <g id="Group-21" data-name="Group" transform="translate(10.903 27.275)">
        <path id="Path-88" data-name="Path" d="M32.176,20.233,0,2.245V0L32.176,17.988Z" transform="translate(0 0)" fill="#5793ce"/>
        <path id="Path-89" data-name="Path" d="M22.461,14.8,0,2.245V0L22.461,12.557Z" transform="translate(0 9.811)" fill="#5793ce"/>
        <path id="Path-90" data-name="Path" d="M19.431,13.109,0,2.245V0L19.431,10.862Z" transform="translate(0 4.905)" fill="#5793ce"/>
        <path id="Path-91" data-name="Path" d="M9.715,7.676,0,2.245V0L9.715,5.431Z" transform="translate(22.461 17.463)" fill="#5793ce"/>
      </g>
      <g id="Group-22" data-name="Group" transform="translate(10.903 46.224)">
        <path id="Path-92" data-name="Path" d="M32.176,20.233,0,2.247V0L32.176,17.988Z" transform="translate(0 0)" fill="#5793ce"/>
        <path id="Path-93" data-name="Path" d="M22.461,14.8,0,2.247V0L22.461,12.557Z" transform="translate(0 9.811)" fill="#5793ce"/>
        <path id="Path-94" data-name="Path" d="M19.431,13.109,0,2.247V0L19.431,10.864Z" transform="translate(0 4.905)" fill="#5793ce"/>
        <path id="Path-95" data-name="Path" d="M9.715,7.678,0,2.245V0L9.715,5.431Z" transform="translate(22.461 17.463)" fill="#5793ce"/>
      </g>
      <g id="Group-23" data-name="Group" transform="translate(10.903 65.172)">
        <path id="Path-96" data-name="Path" d="M32.176,20.235,0,2.247V0L32.176,17.988Z" transform="translate(0 0)" fill="#5793ce"/>
        <path id="Path-97" data-name="Path" d="M22.461,14.8,0,2.245V0L22.461,12.557Z" transform="translate(0 9.813)" fill="#5793ce"/>
        <path id="Path-98" data-name="Path" d="M19.431,13.109,0,2.245V0L19.431,10.862Z" transform="translate(0 4.907)" fill="#5793ce"/>
        <path id="Path-99" data-name="Path" d="M9.715,7.678,0,2.247V0L9.715,5.433Z" transform="translate(22.461 17.463)" fill="#5793ce"/>
      </g>
    </g>
    <g id="Group-24" data-name="Group" transform="translate(202.022 304.932)">
      <path id="Path-100" data-name="Path" d="M21.144,14.143,0,1.968V0L21.144,12.174Z" transform="translate(0.044 0)" fill="#fff"/>
      <path id="Path-101" data-name="Path" d="M9.029,7.167,0,1.968V0L9.029,5.2Z" transform="translate(25.263 14.521)" fill="#fff"/>
      <path id="Path-102" data-name="Path" d="M9.029,7.167,0,1.968V0L9.029,5.2Z" transform="translate(12.887 11.68)" fill="#fff"/>
      <path id="Path-103" data-name="Path" d="M16.209,11.3,0,1.968V0L16.209,9.334Z" transform="translate(25.263 18.806)" fill="#fff"/>
      <path id="Path-104" data-name="Path" d="M23.974,15.77,0,1.967V0L23.974,13.8Z" transform="translate(28.593 25.01)" fill="#fff"/>
      <path id="Path-105" data-name="Path" d="M9.029,7.167,0,1.968V0L9.029,5.2Z" transform="translate(38.178 21.958)" fill="#fff"/>
      <path id="Path-106" data-name="Path" d="M9.029,7.167,0,1.968V0L9.029,5.2Z" transform="translate(0.044 4.286)" fill="#fff"/>
      <path id="Path-107" data-name="Path" d="M24.722,16.2,0,1.968V0L24.722,14.234Z" transform="translate(0 8.547)" fill="#fff"/>
      <path id="Path-108" data-name="Path" d="M14.914,10.554,0,1.968V0L14.914,8.586Z" transform="translate(0.289 12.999)" fill="#fff"/>
    </g>
    <g id="Group-25" data-name="Group" transform="translate(183.983 103.453)">
      <path id="Path-109" data-name="Path" d="M132.9,110.951,13.947,40.1C6.244,35.508,0,23.2,0,12.6H0C0,2.009,6.244-2.861,13.947,1.727L132.9,72.582c7.7,4.588,13.947,16.9,13.947,27.492h0C146.845,110.671,140.6,115.539,132.9,110.951Z" transform="translate(8.623 6.952)" fill="#efefef"/>
      <path id="Path-110" data-name="Path" d="M148.062,100.061c0-10.6-6.244-22.9-13.947-27.492L15.161,1.714C11.576-.421,8.319-.485,5.85,1.1l.01-.036L0,4.593,2.695,4.9a18.281,18.281,0,0,0-1.482,7.687h0c0,10.6,6.244,22.9,13.947,27.492l118.953,70.855a11.89,11.89,0,0,0,4.311,1.624l-.721,2.459,5.779-3.475-.049,0C146.269,109.724,148.062,105.72,148.062,100.061Z" transform="translate(4.48 0)" fill="#787fa7"/>
      <path id="Path-111" data-name="Path" d="M132.9,110.951,13.947,40.1C6.244,35.508,0,23.2,0,12.6H0C0,2.009,6.244-2.861,13.947,1.727L132.9,72.582c7.7,4.588,13.947,16.9,13.947,27.492h0C146.847,110.669,140.6,115.539,132.9,110.951Z" transform="translate(0 3.409)" fill="#787fa7"/>
      <path id="Path-112" data-name="Path" d="M128.942,72.577,9.989,1.722C6.07-.613,2.533-.488,0,1.583,2.4.319,5.465.524,8.806,2.515L127.759,73.371c7.7,4.588,13.947,16.9,13.947,27.492,0,5.2-1.512,9.016-3.958,11.016,3.136-1.65,5.141-5.81,5.141-11.81C142.889,89.474,136.645,77.165,128.942,72.577Z" transform="translate(5.141 2.62)" fill="#fff"/>
    </g>
    <g id="Group-26" data-name="Group" transform="translate(184.018 48.664)">
      <path id="Path-113" data-name="Path" d="M89.977,81.184,14.317,38.776C6.41,34.339,0,22.435,0,12.189H0C0,1.943,6.41-2.767,14.317,1.67L89.977,44.078c7.907,4.437,14.317,16.341,14.317,26.587h0C104.294,80.913,97.884,85.623,89.977,81.184Z" transform="translate(9.459 6.758)" fill="#efefef"/>
      <path id="Path-114" data-name="Path" d="M105.543,70.653c0-10.246-6.41-22.15-14.317-26.587L15.564,1.658c-3.68-2.065-7.024-2.127-9.559-.6l.01-.035L0,4.442l2.766.3a16.8,16.8,0,0,0-1.521,7.434h0c0,10.246,6.41,22.15,14.317,26.587L91.224,81.172a12.641,12.641,0,0,0,4.425,1.569l-.74,2.378,5.931-3.361-.048,0C103.7,80,105.543,76.127,105.543,70.653Z" transform="translate(4.599 0)" fill="#5793ce"/>
      <path id="Path-115" data-name="Path" d="M89.978,81.184,14.317,38.776C6.41,34.339,0,22.435,0,12.189H0C0,1.943,6.41-2.767,14.317,1.67L89.978,44.078C97.886,48.515,104.3,60.419,104.3,70.665h0C104.3,80.911,97.887,85.621,89.978,81.184Z" transform="translate(0 3.298)" fill="#d4ecff"/>
      <path id="Path-116" data-name="Path" d="M85.915,44.073,10.254,1.665C6.231-.593,2.6-.472,0,1.531,2.466.309,5.61.507,9.04,2.433L84.7,44.841c7.907,4.437,14.317,16.341,14.317,26.587,0,5.033-1.552,8.719-4.063,10.654,3.22-1.6,5.277-5.618,5.277-11.421C100.233,60.414,93.824,48.51,85.915,44.073Z" transform="translate(5.277 2.536)" fill="#fff"/>
    </g>
    <g id="Group-27" data-name="Group" transform="translate(213.478 74.46)">
      <path id="Path-117" data-name="Path" d="M29.641,20.527,0,2.279V0L29.641,18.248Z" transform="translate(0 0)" fill="#5793ce"/>
      <path id="Path-118" data-name="Path" d="M20.691,15.016,0,2.279V0L20.691,12.739Z" transform="translate(32.504 19.994)" fill="#5793ce"/>
      <path id="Path-119" data-name="Path" d="M17.9,13.3,0,2.279V0L17.9,11.021Z" transform="translate(0 4.976)" fill="#5793ce"/>
      <path id="Path-120" data-name="Path" d="M8.951,7.788,0,2.279V0L8.951,5.509Z" transform="translate(20.69 17.715)" fill="#5793ce"/>
    </g>
    <g id="Group-28" data-name="Group" transform="translate(256.319 163.704)">
      <path id="Path-121" data-name="Path" d="M29.641,18.742,0,2.079V0L29.641,16.661Z" transform="translate(23.453 13.184)" fill="#fff"/>
      <path id="Path-122" data-name="Path" d="M20.691,13.71,0,2.079V0L20.691,11.629Z" transform="translate(0 0)" fill="#fff"/>
      <path id="Path-123" data-name="Path" d="M17.9,12.141,0,2.081V0L17.9,10.062Z" transform="translate(23.453 17.727)" fill="#fff"/>
      <path id="Path-124" data-name="Path" d="M8.949,7.111,0,2.079V0L8.949,5.03Z" transform="translate(44.144 29.358)" fill="#fff"/>
      <path id="Path-125" data-name="Path" d="M8.949,7.11,0,2.079V0L8.949,5.03Z" transform="translate(11.742 11.112)" fill="#fff"/>
    </g>
    <g id="Group-29" data-name="Group" transform="translate(123.422 195.995)">
      <path id="Path-126" data-name="Path" d="M4.642,4.376,0,1.5.767,0,5.409,2.873Z" transform="translate(5.775 3.625)" fill="#5793ce"/>
      <path id="Path-127" data-name="Path" d="M1.68,2.593l.767-1.5L.684,0C.441.512.233,1.038,0,1.553Z" transform="translate(0 0)" fill="#5793ce"/>
      <path id="Path-128" data-name="Path" d="M4.642,4.376,0,1.5.767,0,5.409,2.874Z" transform="translate(14.51 9.032)" fill="#5793ce"/>
      <path id="Path-129" data-name="Path" d="M4.642,4.374,0,1.5.767,0,5.409,2.873Z" transform="translate(23.245 14.44)" fill="#5793ce"/>
      <path id="Path-130" data-name="Path" d="M4.644,4.376,0,1.5.767,0,5.409,2.873Z" transform="translate(31.98 19.846)" fill="#5793ce"/>
      <path id="Path-131" data-name="Path" d="M4.642,4.376,0,1.5.765,0,5.409,2.874Z" transform="translate(40.716 25.253)" fill="#5793ce"/>
      <path id="Path-132" data-name="Path" d="M4.642,4.376,0,1.5.767,0,5.409,2.873Z" transform="translate(49.451 30.661)" fill="#5793ce"/>
      <path id="Path-133" data-name="Path" d="M4.642,4.376,0,1.5.767,0,5.409,2.874Z" transform="translate(58.186 36.067)" fill="#5793ce"/>
      <path id="Path-134" data-name="Path" d="M4.644,4.374,0,1.5.767,0,5.409,2.873Z" transform="translate(66.921 41.476)" fill="#5793ce"/>
    </g>
    <g id="Group-30" data-name="Group" transform="translate(213.679 211.942)">
      <path id="Path-135" data-name="Path" d="M4.556,4.163,0,1.357.931,0,4.556,2.232Z" transform="translate(0 0)" fill="#5793ce"/>
      <path id="Path-136" data-name="Path" d="M4.556,4.737,0,1.931V0L4.556,2.806Z" transform="translate(8.573 4.706)" fill="#5793ce"/>
      <path id="Path-137" data-name="Path" d="M4.556,4.737,0,1.931V0L4.556,2.806Z" transform="translate(17.146 9.985)" fill="#5793ce"/>
      <path id="Path-138" data-name="Path" d="M4.556,4.737,0,1.931V0L4.556,2.806Z" transform="translate(25.719 15.264)" fill="#5793ce"/>
      <path id="Path-139" data-name="Path" d="M4.556,4.737,0,1.931V0L4.556,2.806Z" transform="translate(34.292 20.543)" fill="#5793ce"/>
      <path id="Path-140" data-name="Path" d="M4.556,4.735,0,1.929V0L4.556,2.8Z" transform="translate(42.863 25.824)" fill="#5793ce"/>
    </g>
    <path id="Path-141" data-name="Path" d="M17.332,13.48,0,2.45V0L17.332,11.033Z" transform="translate(236.524 150.211)" fill="#fff"/>
  </g>
</svg>
