<svg xmlns="http://www.w3.org/2000/svg" xmlns:xlink="http://www.w3.org/1999/xlink" width="483.397" height="406.601" viewBox="0 0 483.397 406.601"><defs><style>.a{fill:#cfe0f2;}.b{fill:#464353;}.c{fill:#6c63ff;}.c,.i{opacity:0.1;}.d,.e,.k,.m,.o{fill:#fff;}.e{stroke:#fff;}.e,.k,.l,.m,.n,.o{stroke-miterlimit:10;}.f,.v{fill:#05ccf0;}.f{opacity:0.5;}.g{fill:#1147b0;}.h{fill:#504f60;}.j{fill:#3f3d56;}.k,.l,.m,.n,.o{stroke:#33313f;}.k,.n,.o{stroke-width:3px;}.l,.n{fill:none;}.l,.m,.o{stroke-linecap:round;}.l,.m{stroke-width:2px;}.p{fill:#33313f;}.q{fill:#65617d;}.r{fill:url(#a);}.s{fill:#db8b8b;}.t{fill:#263238;}.u{fill:#35323e;}</style><linearGradient id="a" x1="14.929" y1="1" x2="14.929" gradientUnits="objectBoundingBox"><stop offset="0" stop-color="gray" stop-opacity="0.251"/><stop offset="0.54" stop-color="gray" stop-opacity="0.122"/><stop offset="1" stop-color="gray" stop-opacity="0.102"/></linearGradient></defs><g transform="translate(-48.339 -38.505)"><ellipse class="a" cx="125.303" cy="18.993" rx="125.303" ry="18.993" transform="translate(48.339 407.119)"/><rect class="b" width="271.183" height="326.565" rx="19.8" transform="translate(260.553 38.505)"/><rect class="c" width="224.396" height="260.679" transform="translate(283.946 71.448)"/><circle class="d" cx="9.549" cy="9.549" r="9.549" transform="translate(386.595 339.766)"/><path class="d" d="M809.191,144.842a4.511,4.511,0,1,1,4.511-4.511A4.511,4.511,0,0,1,809.191,144.842Z" transform="translate(-413.047 -82.727)"/><path class="d" d="M808.931,135.848a4.247,4.247,0,1,1-4.247,4.247,4.247,4.247,0,0,1,4.247-4.247m0-.528a4.748,4.748,0,1,0,3.367,1.4A4.775,4.775,0,0,0,808.931,135.32Z" transform="translate(-412.787 -82.491)"/><rect class="e" width="46.539" height="63.269" rx="4.3" transform="translate(294.372 152.202)"/><rect class="f" width="37.813" height="20.075" rx="7.14" transform="translate(298.735 168.145)"/><rect class="g" width="22.027" height="3.118" rx="1.559" transform="translate(306.628 196.409)"/><rect class="e" width="46.539" height="63.269" rx="4.3" transform="translate(373.052 152.202)"/><rect class="f" width="22.301" height="11.839" rx="1.46" transform="translate(385.292 162.083)"/><rect class="g" width="28.469" height="3.118" rx="1.559" transform="translate(382.031 185.018)"/><rect class="g" width="28.469" height="3.118" rx="1.559" transform="translate(382.031 190.832)"/><rect class="e" width="46.539" height="63.269" rx="4.3" transform="translate(451.378 107.256)"/><rect class="f" width="30.3" height="14.14" rx="1.46" transform="translate(459.498 117.074)"/><rect class="f" width="30.3" height="14.14" rx="1.46" transform="translate(459.498 137.624)"/><rect class="g" width="9.94" height="4.363" rx="2.182" transform="translate(457.076 163.16)"/><rect class="g" width="9.94" height="4.363" rx="2.182" transform="translate(469.68 163.16)"/><rect class="g" width="9.94" height="4.363" rx="2.182" transform="translate(482.285 163.16)"/><rect class="e" width="46.539" height="63.269" rx="4.3" transform="translate(451.267 197.147)"/><rect class="f" width="13.907" height="14.14" rx="1.46" transform="translate(454.86 204.544)"/><rect class="g" width="28.469" height="3.118" rx="1.559" transform="translate(460.305 227.294)"/><rect class="g" width="28.469" height="3.118" rx="1.559" transform="translate(460.305 233.599)"/><rect class="g" width="28.469" height="3.118" rx="1.559" transform="translate(460.305 239.903)"/><path class="e" d="M739.6,377.25l-.712.343-5.772,2.775-.528.248a.285.285,0,0,1-.385-.153.313.313,0,0,1,0-.106v-1.641a.28.28,0,0,0-.28-.28H717.895a.285.285,0,0,1-.285-.28v-2.316a.285.285,0,0,1,.285-.28H731.94a.285.285,0,0,0,.28-.285V373.6a.34.34,0,0,1,0-.105.285.285,0,0,1,.385-.148l.528.248,5.756,2.8.712.348a.28.28,0,0,1,0,.506Z" transform="translate(-371.914 -194.922)"/><path class="e" d="M889.32,353.417l-.464.638-3.777,5.149-.332.459a.29.29,0,0,1-.412.047.253.253,0,0,1-.063-.084l-.77-1.446a.29.29,0,0,0-.385-.121l-12.4,6.6a.28.28,0,0,1-.38-.116l-1.087-2.052a.279.279,0,0,1,.116-.38l12.4-6.59a.28.28,0,0,0,.116-.38l-.786-1.483a.184.184,0,0,1-.032-.1.274.274,0,0,1,.269-.311h.565l6.394-.232.791-.026a.28.28,0,0,1,.237.427Z" transform="translate(-443.534 -185.319)"/><path class="e" d="M889.117,395.245h-7.74a.28.28,0,0,1-.28-.3.239.239,0,0,1,.026-.1l.707-1.483a.28.28,0,0,0-.132-.375l-12.662-6.078a.285.285,0,0,1-.132-.38l1-2.084a.274.274,0,0,1,.375-.132l12.662,6.083a.29.29,0,0,0,.38-.132l.728-1.514a.274.274,0,0,1,.469-.053l.354.438,3.973,5.023.491.623a.28.28,0,0,1-.222.464Z" transform="translate(-443.373 -200.103)"/><path class="h" d="M417.69,606.437l-.042,1.546-2.691,95H410.43l2.221-95,.042-1.783Z" transform="translate(-203.18 -293.774)"/><path class="i" d="M417.69,606.437l-.042,1.546-2.691,95H410.43l2.221-95,.042-1.783Z" transform="translate(-203.18 -293.774)"/><path class="h" d="M423.316,755.137l-3.387-.01-50.359-.106-2.68-.005,1.424-4.405h54.643Z" transform="translate(-182.611 -361.994)"/><path class="i" d="M419.679,606.437l-.042,1.546h-5l.042-1.783Z" transform="translate(-205.169 -293.774)"/><rect class="h" width="8.394" height="3.155" transform="translate(208.026 310.342)"/><path class="i" d="M370.019,750.61l-.448,4.411-2.68-.005,1.424-4.405Z" transform="translate(-182.611 -361.994)"/><path class="h" d="M371.809,602.14l-.142,1.366L360.5,713.684l-5.118-.237,11.771-109.94.132-1.25Z" transform="translate(-177.174 -291.856)"/><path class="i" d="M470.4,755.137l-3.387-.01-.459-4.516h3.487Z" transform="translate(-229.691 -361.994)"/><path class="h" d="M469.289,713.446l-5.123.237L453,603.506l-.137-1.366,4.521.116.132,1.25Z" transform="translate(-223.224 -291.856)"/><rect class="d" width="112.858" height="108.215" transform="translate(154.992 201.648)"/><rect class="d" width="162.499" height="108.215" rx="4.13" transform="translate(130.237 201.648)"/><path class="h" d="M463.33,346.83v26.132h-4.4V346.83a2.2,2.2,0,1,1,4.4,0Z" transform="translate(-249.712 -181.37)"/><rect class="i" width="4.405" height="2.379" transform="translate(209.218 189.212)"/><path class="h" d="M463.516,396.255v8.631H455.66v-8.631a1.055,1.055,0,0,1,1.055-1.055h5.714a1.055,1.055,0,0,1,1.087,1.055Z" transform="translate(-248.167 -205.259)"/><circle class="i" cx="1.667" cy="1.667" r="1.667" transform="translate(209.751 193.734)"/><circle class="j" cx="1.667" cy="1.667" r="1.667" transform="translate(209.751 193.375)"/><rect class="i" width="7.856" height="1.071" transform="translate(207.493 198.556)"/><rect class="i" width="14.287" height="2.379" transform="translate(204.274 199.986)"/><rect class="h" width="14.287" height="2.379" transform="translate(204.274 199.268)"/><path class="i" d="M361.805,596h58.869a3.166,3.166,0,0,1,3.166,3.166H358.65A3.166,3.166,0,0,1,361.805,596Z" transform="translate(-178.719 -288.955)"/><path class="i" d="M377.822,602.256l4.527-.116-.142,1.366H377.69Z" transform="translate(-187.713 -291.856)"/><rect class="i" width="8.394" height="1.308" transform="translate(208.026 310.342)"/><path class="i" d="M457.513,603.506H453l-.137-1.366,4.521.116Z" transform="translate(-223.224 -291.856)"/><path class="h" d="M361.805,597.4h58.869a3.166,3.166,0,0,1,3.166,3.166H358.65a3.166,3.166,0,0,1,3.166-3.166Z" transform="translate(-178.719 -289.616)"/><path class="k" d="M542.843,441.472a.786.786,0,0,1,.9.865,104.62,104.62,0,0,0,.554,22.323c.385,3.371.907,6.938,2.4,9.439a.8.8,0,0,1-.106.981,2.111,2.111,0,0,1-1.467.438l-23.546.132a.786.786,0,0,1-.77-.971c1.894-8.072,1.488-16.883.728-25.256-.375-4.12-.591-6.331,2.485-6.621,3.166-.285,6.331-.417,9.5-.681C534.28,442.057,540.368,441.878,542.843,441.472Z" transform="translate(-278.934 -227.114)"/><path class="k" d="M524.877,533.162a.786.786,0,0,0-.9.865,104.272,104.272,0,0,1-.559,22.323c-.38,3.371-.9,6.938-2.4,9.444a.786.786,0,0,0,.105.976,2.11,2.11,0,0,0,1.467.438l23.547.137a.8.8,0,0,0,.77-.976c-1.894-8.072-1.488-16.883-.728-25.256.375-4.12.591-6.331-2.485-6.621s-6.331-.417-9.5-.681C533.44,533.747,527.351,533.568,524.877,533.162Z" transform="translate(-278.986 -270.429)"/><path class="l" d="M537.02,558.862a69.854,69.854,0,0,1,8.209.1.775.775,0,0,1,.7.686l.259,2.158a.306.306,0,0,1-.063.28.29.29,0,0,1-.2.053c-1.15.032-2.3-.1-3.445,0-.712.058-1.419.2-2.11.274a25.2,25.2,0,0,1-3.514.063,17.7,17.7,0,0,1-4.891-.6s.095-1.789.095-1.957c0-.834-.026-.907.834-.929Z" transform="translate(-284.212 -282.539)"/><path class="l" d="M537.02,574.1a68.71,68.71,0,0,0,8.209-.106.775.775,0,0,0,.7-.686l.259-2.153a.317.317,0,0,0-.063-.285.29.29,0,0,0-.2-.053c-1.15-.032-2.3.105-3.445,0-.712-.053-1.419-.19-2.11-.269a24.414,24.414,0,0,0-3.514-.063,17.7,17.7,0,0,0-4.891.6s.095,1.783.095,1.957c0,.834-.026.9.834.929Z" transform="translate(-284.212 -288.05)"/><path class="l" d="M537.02,584.522a68.71,68.71,0,0,1,8.209.106.775.775,0,0,1,.7.686l.259,2.153a.317.317,0,0,1-.063.285.291.291,0,0,1-.2.053c-1.15.032-2.3-.106-3.445,0-.712.053-1.419.2-2.11.274a25.185,25.185,0,0,1-3.514.058,17.7,17.7,0,0,1-4.891-.6s.095-1.789.095-1.963c0-.833-.026-.9.834-.923Z" transform="translate(-284.212 -294.661)"/><path class="m" d="M543.609,499a3.488,3.488,0,0,1,.232,1.836.275.275,0,0,1-.037.142.285.285,0,0,1-.222.079l-5.012.2s.28-1.477.317-1.583c.174-.6.612-.443,1.177-.475Z" transform="translate(-287.334 -254.295)"/><path class="m" d="M557.954,499a3.488,3.488,0,0,1,.227,1.836.269.269,0,0,1-.032.142.3.3,0,0,1-.222.079l-5.017.2s.285-1.477.322-1.583c.169-.6.607-.443,1.177-.475Z" transform="translate(-294.109 -254.295)"/><path class="n" d="M542.738,451.258l.675,5.8a1.583,1.583,0,0,1-1.44,1.746,75.356,75.356,0,0,1-12.863-.084,1.583,1.583,0,0,1-1.43-1.509,22.528,22.528,0,0,0-.454-3.076c-.174-1.055-.364-2.073.881-2.385a21.577,21.577,0,0,1,4.31-.116q2.448-.048,4.88-.137C537.752,451.5,542.738,451.232,542.738,451.258Z" transform="translate(-281.916 -231.741)"/><path class="n" d="M542.729,484.03l.665-5.8a1.583,1.583,0,0,0-1.44-1.746,75.89,75.89,0,0,0-12.863.079,1.583,1.583,0,0,0-1.43,1.514,22.519,22.519,0,0,1-.454,3.076c-.174,1.055-.364,2.073.881,2.385a21.566,21.566,0,0,0,4.31.116c1.63.032,3.255.074,4.88.137C537.743,483.8,542.729,484.072,542.729,484.03Z" transform="translate(-281.907 -243.546)"/><path class="l" d="M537.462,540.423q-.264,2.9-.332,5.8a27.472,27.472,0,0,1-5.756-.66,1.018,1.018,0,0,1-.944-1.245c-.037-1.2-.67-3.888,1.024-4.057C531.959,540.212,537.457,540.518,537.462,540.423Z" transform="translate(-283.42 -273.786)"/><path class="o" d="M348.579,490.6a1.683,1.683,0,0,1,1.857,1.831,107.669,107.669,0,0,0,.665,21.215c.353,3.113.823,6.389,2.068,8.842a1.382,1.382,0,0,1-1.224,2.015h0l-23.362.137a.929.929,0,0,1-.913-1.129c1.852-8.03,1.446-16.8.691-25.1-.38-4.12-.591-6.331,2.48-6.621,3.166-.28,6.331-.411,9.47-.681C340.982,491.055,345.772,490.907,348.579,490.6Z" transform="translate(-187.694 -250.323)"/><path class="k" d="M425.312,490.351a.839.839,0,0,0-.96.929,104.639,104.639,0,0,1-.565,22.249c-.38,3.371-.9,6.922-2.39,9.428a.834.834,0,0,0,.222,1.092,2.21,2.21,0,0,0,1.34.338l23.483.137a.844.844,0,0,0,.818-1.055c-1.873-8.056-1.472-16.857-.712-25.193.375-4.12.591-6.331-2.48-6.621-3.166-.28-6.331-.411-9.5-.681C433.8,490.926,427.833,490.752,425.312,490.351Z" transform="translate(-231.927 -250.205)"/><line class="m" x2="11.945" y2="15.933" transform="translate(146.899 244.942)"/><line class="m" x1="11.549" y2="17.922" transform="translate(147.294 243.75)"/><line class="m" x2="6.505" y2="8.679" transform="translate(200.201 245.691)"/><line class="m" x1="6.289" y2="9.766" transform="translate(200.418 245.037)"/><path class="l" d="M343.76,539.232a69.942,69.942,0,0,1,8.215.1.786.786,0,0,1,.7.686l.253,2.158a.332.332,0,0,1-.058.285.369.369,0,0,1-.2.053c-1.15.032-2.306-.106-3.45,0-.712.053-1.414.19-2.11.269a25.157,25.157,0,0,1-3.514.063,17.643,17.643,0,0,1-4.886-.6c-.032,0,.095-1.783.095-1.957,0-.834-.032-.9.828-.929Z" transform="translate(-192.915 -273.266)"/><path class="l" d="M438.876,524.132a68.81,68.81,0,0,1,8.215.105.776.776,0,0,1,.7.686l.253,2.153a.332.332,0,0,1-.058.285.3.3,0,0,1-.2.053c-1.15.032-2.306-.106-3.45,0-.712.053-1.414.2-2.11.269a24.421,24.421,0,0,1-3.514.063,17.708,17.708,0,0,1-4.891-.6c-.026,0,.095-1.783.095-1.957,0-.834-.026-.9.834-.929Z" transform="translate(-237.847 -266.132)"/><path class="l" d="M443.136,535.462a69.84,69.84,0,0,0-8.209.1.776.776,0,0,0-.7.686l-.243,2.153a.3.3,0,0,0,.058.285.29.29,0,0,0,.2.053c1.15.032,2.3-.1,3.45,0,.712.053,1.414.2,2.11.274a26.009,26.009,0,0,0,3.514.063,17.657,17.657,0,0,0,4.891-.6c.026,0-.095-1.789-.095-1.957,0-.839.032-.907-.828-.929Z" transform="translate(-237.923 -271.485)"/><path class="n" d="M386.63,527.973s7.761-.4,9.154,0" transform="translate(-215.557 -267.899)"/><path class="n" d="M403.107,520.21s3.382,3.382,3.382,4.179-4.379,3.582-4.379,3.582" transform="translate(-222.87 -264.315)"/><path class="n" d="M482.84,511.36s7.033-3.292,8.473-3.451" transform="translate(-261.007 -258.505)"/><path class="n" d="M495.92,500.58s4.405,1.857,4.706,2.591-2.7,4.97-2.7,4.97" transform="translate(-267.186 -255.042)"/><path class="n" d="M482.7,530.43s7.149,3.034,8.231,4" transform="translate(-260.941 -269.143)"/><path class="n" d="M497.919,530.89s1.583,4.521,1.213,5.239-5.5,1.308-5.5,1.308" transform="translate(-266.105 -269.361)"/><path class="m" d="M530.774,499a3.488,3.488,0,0,1,.227,1.836.271.271,0,0,1-.032.142.3.3,0,0,1-.222.079l-5.017.2s.285-1.477.322-1.583c.169-.6.612-.443,1.177-.475Z" transform="translate(-281.269 -254.295)"/><path class="p" d="M310.3,562.485l1.773-1.651-1.583-.063-.828,1.271Z" transform="translate(-155.576 -272.312)"/><path class="q" d="M286.7,574.9l1.878-2.411.417-.433,5.751-6.025,1.957-2.047.918-.111,1.319-1.308.776.681-1.282,1.5.021.786-2,2.168-5.645,6.131-.364.391-2.269,2.1Z" transform="translate(-144.729 -273.158)"/><path class="p" d="M291.05,575.155l5.751-6.025,1.709,1.667-5.645,6.131Z" transform="translate(-146.784 -276.261)"/><path class="r" d="M288,476.438a25.324,25.324,0,0,1-4.321-5.276c-2.532-3.946-6.764-6.078-9.666-7.138v-1.282l.179-.037-.079-1.192h.079l-.206-3.166v-.026h0l-1.045-15.706s-3.72-10.473,2.891-20.133.412-18.925-5.8-22.549c0,0-2.891-15.3-.411-18.925a107.441,107.441,0,0,0-10.383-5.25c-.058-.19-.106-.38-.153-.58-.069-1.424-.158-2.849-.237-4.273a15.548,15.548,0,0,1,.406-2.195c.079-.3.169-.6.264-.913a15.712,15.712,0,0,0,10.1-14.567,15.3,15.3,0,0,0-.981-5.4,6.79,6.79,0,0,0,.754-1.762,6.971,6.971,0,0,0-.981-5.023c-1.657-3.577-5.788-6.927-8.784-8.167-4.295-1.741-10.758-1.329-15.232-.791-2.511.3-5.376,1.14-6.284,3.44a23.979,23.979,0,0,0-.57,2.638c-.939,3.514-5,5.149-7.5,7.84-2.216,2.374-3.166,5.587-3.9,8.716a79.778,79.778,0,0,0-1.451,27.356c.253,2.11.591,4.194.95,6.284-1.509,2.11-2.87,5.84-2.248,12.319l-4.959,23.351-2.063,13.691a11.924,11.924,0,0,0,3.693,10.467,91.908,91.908,0,0,1,9.349,11.66,27.672,27.672,0,0,0-1.5,9.28c.053,1.435.132,2.823.232,4.142a36.577,36.577,0,0,0,1.583,8.252c.58,5.624,1.725,12.815,3.967,17.411l.823,24.56s-1.24,22.549-3.693,26.976,5.366,41.875,5.366,41.875v5.234l-1.319,3.873-.332-.248c-6.194,7.65,0,10.467,0,10.467s1.688.079,4.384.185a4.938,4.938,0,0,0,2.638,5.455s35.1,1.609,41.3,0,4.543-7.249,1.235-6.859a15.02,15.02,0,0,1-4.944-.644c1.926-2.242.385-5.276-2.073-4.991-3.3.4-10.737-2.522-10.737-2.522l-.037.048a5.531,5.531,0,0,0-.728-.222,82.659,82.659,0,0,1-8.172-2.285c-1.583-3.392-5.276-12.509-2.638-19.579a34.971,34.971,0,0,0,1.583-11.575,131.371,131.371,0,0,1,5.439-36.752l4.954-16.883s7.022-20.539,7.434-26.174l-.026-8.2c5.8,3.693,10.42,2.585,13.364.86a3.166,3.166,0,0,0,.5-5.091ZM232.885,433.7c.142-.591.259-1.235.359-1.915.971,0,1.947,0,2.918-.032a14.863,14.863,0,0,1,1.467,7.914c-2.237-.691-5.582-2.385-4.743-5.941Z" transform="translate(-135.058 -175.223)"/><path class="s" d="M253.823,829.133l-1.583,4.748,5.165,5.165,17.089,3.973,12.319-1.192-.8-4.374h0a5.276,5.276,0,0,0-3.915-3.846c-5.065-1.192-14.72-3.9-16.751-7.676Z" transform="translate(-152.07 -408.739)"/><path class="i" d="M253.823,829.133l-1.583,4.748,5.165,5.165,17.089,3.973,12.319-1.192-.8-4.374h0a5.276,5.276,0,0,0-3.915-3.846c-5.065-1.192-14.72-3.9-16.751-7.676Z" transform="translate(-152.07 -408.739)"/><path class="t" d="M280.458,846.685l-2.385-3.166,2.385-3.693s7.149,2.886,10.33,2.49,4.748,5.165-1.192,6.753-39.738,0-39.738,0-5.962-2.78,0-10.33l5.165,3.973s8.742,4.748,13.116,3.973Z" transform="translate(-149.693 -414.791)"/><path class="s" d="M299.589,852.386l-12.319,1.192L270.181,849.6,265,844.435l.422-1.261.591-1.773.58-1.736,11.523-3.166a7.124,7.124,0,0,0,2.337,2.337c3.741,2.559,10.467,4.411,14.414,5.334.164.042.332.09.491.148a5.233,5.233,0,0,1,3.424,3.693Z" transform="translate(-158.098 -413.733)"/><path class="i" d="M299.589,858.362l-12.319,1.192-17.089-3.978L265,850.411l.422-1.261,4.748,3.646s8.747,4.748,13.116,3.973H295.6l-2.385-3.166,2.142-3.308a5.234,5.234,0,0,1,3.424,3.693Z" transform="translate(-158.098 -419.709)"/><path class="t" d="M293.228,857.236l-2.385-3.166,2.385-3.693s7.154,2.886,10.33,2.49,4.748,5.165-1.187,6.759-39.744,0-39.744,0-5.962-2.786,0-10.336l5.165,3.973s8.747,4.748,13.116,3.978Z" transform="translate(-155.726 -419.775)"/><path class="s" d="M287.122,408.622s-19.073,1.984-16.292-5.962a14.245,14.245,0,0,0,.586-7.017,19.473,19.473,0,0,0-3.366-8.083l17.88,2.78a22.327,22.327,0,0,0-2.422,5.74C281.377,404.517,287.122,408.622,287.122,408.622Z" transform="translate(-159.539 -201.65)"/><path class="u" d="M242.44,599.21s.4,17.089,4.368,25.435l.8,24.238s-1.192,22.259-3.577,26.628,5.165,41.332,5.165,41.332V723.2s12.715,4.748,16.292-.8l-3.577-47.288,1.583-65.569Z" transform="translate(-147.441 -301.635)"/><path class="g" d="M242.43,599.21s.4,17.089,4.368,25.435l.8,24.238s-1.192,22.259-3.577,26.628,5.165,41.332,5.165,41.332V723.2s12.715,4.748,16.292-.8L261.9,675.115l1.583-65.569Z" transform="translate(-147.436 -301.635)"/><path class="v" d="M223.351,495.27l-2.385,6.357-1.984,13.512a11.95,11.95,0,0,0,3.577,10.33c4.748,4.749,11.127,14.7,11.127,14.7l7.55-22.65s-7.55-1.192-6.331-6.358.791-14.7.791-14.7Z" transform="translate(-136.303 -252.533)"/><path class="i" d="M281.39,838.827c-5.1,8.025-13.032,3.477-14.44,2.575l.58-1.736,11.523-3.166A7.122,7.122,0,0,0,281.39,838.827Z" transform="translate(-159.019 -413.733)"/><path class="g" d="M284.682,589.092c-.4,5.561-7.154,25.852-7.154,25.852l-4.748,16.677a132.58,132.58,0,0,0-5.265,36.256,35.411,35.411,0,0,1-1.519,11.422c-3.166,8.742,3.166,20.666,3.166,20.666-5.561,9.935-15.1,3.166-15.1,3.166V696.8s-7.529-34.589-5.54-41.342,2.786-25.04,2.786-25.04v-32.98A37.407,37.407,0,0,1,240.4,573.7c-.095-1.3-.174-2.67-.222-4.089-.322-8.969,5.8-19.479,8.2-23.214.58-.908.939-1.414.939-1.414L284.4,558.9l.079.032v4.363Z" transform="translate(-146.367 -276.017)"/><path class="i" d="M285.93,390.34a22.329,22.329,0,0,0-2.422,5.74,15.522,15.522,0,0,1-12.092-.438,19.474,19.474,0,0,0-3.366-8.083Z" transform="translate(-159.539 -201.651)"/><circle class="s" cx="15.501" cy="15.501" r="15.501" transform="translate(102.945 163.65)"/><path class="i" d="M290.744,563.261l-.174.032C273.909,566.717,253,549.354,253,549.354a20.048,20.048,0,0,0,1.446-2.96c.58-.907.939-1.414.939-1.414L290.459,558.9l.09,1.388Z" transform="translate(-152.429 -276.017)"/><path class="v" d="M272.146,418.409s-22.254-13.512-29.408-7.951L232.8,423.173s-6.358,1.989-5.165,14.7l-4.748,23.051,14.3,3.577s8.347,7.946,1.583,19.473c0,0,21.062,17.484,37.755,13.907l-1.2-18.661s-3.577-10.336,2.78-19.869.4-18.677-5.561-22.254C272.542,437.086,269.761,421.981,272.146,418.409Z" transform="translate(-138.205 -211.833)"/><path class="s" d="M314.86,580.38s8.347,1.583,12.319,7.951a24.72,24.72,0,0,0,4.163,5.2,3.166,3.166,0,0,1-.5,5.023c-3.166,1.9-8.294,3.065-14.773-2.274C304.925,587.138,314.86,580.38,314.86,580.38Z" transform="translate(-179.727 -292.74)"/><path class="i" d="M281.271,440.735s-7.946-.8-9.935,19.869-5.165,25.43-5.165,25.43-1.989,10.731,2.78,17.089S282.86,523.04,282.86,523.04s9.94,2.786,11.924-7.154l-12.319-23.045s-1.984-7.951,2.78-13.512S293.591,436.778,281.271,440.735Z" transform="translate(-158.457 -226.631)"/><path class="v" d="M282.781,438.512s-7.951-.8-9.935,19.869-5.165,25.43-5.165,25.43-1.989,10.742,2.78,17.073,13.907,19.869,13.907,19.869,9.935,2.786,11.924-7.149l-12.319-23.051s-1.989-7.951,2.78-13.512S295.09,434.534,282.781,438.512Z" transform="translate(-159.171 -225.579)"/><path class="i" d="M304.2,467s.791,12.319-2.786,19.078-3.577,15.5,0,20.265" transform="translate(-174.035 -239.178)"/><path class="i" d="M290.09,432.363s-3.166-3.166-12.319-3.577-13.111-3.166-13.111-3.166" transform="translate(-157.938 -219.63)"/><path class="i" d="M248.717,336.379c-2.416.3-5.176,1.124-6.046,3.4a23.354,23.354,0,0,0-.554,2.638c-.9,3.472-4.806,5.086-7.217,7.74-2.11,2.343-3.065,5.513-3.756,8.6a80.791,80.791,0,0,0-1.419,26.981c.776,6.59,2.358,13.074,2.807,19.695s-.369,13.586-3.989,19.146c-1.583,2.4-3.609,4.5-4.711,7.128,2.279,1.847,5.424,2.11,8.357,2.211q5.128.174,10.256,0a10.94,10.94,0,0,0,5.213-1.087,8.078,8.078,0,0,0,2.738-2.933c1.952-3.319,2.448-7.307,2.364-11.159s-.691-7.677-.765-11.528c-.037-2.11.127-4.326,1.335-6.046a19.693,19.693,0,0,1,3.329-3.081c4.258-3.767,5.714-9.813,5.856-15.5s-.791-11.375-.311-17.036c.185-2.221,1.013-4.88,3.2-5.313a11.263,11.263,0,0,0,2.073-.264c1.752-.67,1.583-3.139,2.079-4.944.565-2.031,2.3-3.6,2.78-5.645,1.145-4.806-4.975-10.552-8.969-12.219C259.221,335.434,253,335.851,248.717,336.379Z" transform="translate(-138.649 -177.255)"/><path class="u" d="M247.969,334.88c-2.416.3-5.176,1.124-6.046,3.392a24.272,24.272,0,0,0-.528,2.638c-.9,3.472-4.812,5.086-7.223,7.745-2.11,2.337-3.065,5.508-3.756,8.6a80.9,80.9,0,0,0-1.393,27c.776,6.59,2.358,13.079,2.8,19.7s-.364,13.586-3.983,19.146c-1.583,2.4-3.609,4.5-4.711,7.128,2.279,1.852,5.424,2.11,8.357,2.211q5.128.174,10.256,0a10.878,10.878,0,0,0,5.213-1.087,7.982,7.982,0,0,0,2.733-2.933c1.957-3.319,2.448-7.307,2.369-11.159s-.7-7.676-.765-11.528c-.037-2.11.127-4.326,1.33-6.041a19.491,19.491,0,0,1,3.334-3.081c4.252-3.772,5.714-9.819,5.856-15.5s-.8-11.375-.317-17.036c.19-2.216,1.018-4.88,3.2-5.308a10.832,10.832,0,0,0,2.079-.269c1.752-.67,1.583-3.134,2.079-4.944.559-2.031,2.29-3.593,2.78-5.64,1.145-4.812-4.975-10.552-8.969-12.224C258.489,333.94,252.274,334.347,247.969,334.88Z" transform="translate(-138.319 -176.547)"/></g></svg>