<svg xmlns="http://www.w3.org/2000/svg" width="195.325" height="256.832"><defs><linearGradient id="a" x1=".5" x2=".5" y2="1" gradientUnits="objectBoundingBox"><stop offset="0" stop-color="#102397"/><stop offset="1" stop-color="#00eaf8"/></linearGradient><linearGradient id="b" x1=".5" x2=".5" y2="1" gradientUnits="objectBoundingBox"><stop offset="0" stop-color="#102397"/><stop offset="1" stop-color="#363280"/></linearGradient></defs><g transform="translate(-277.927 -15.803)"><rect data-name="Rectangle 1348" width="111.795" height="51.847" rx="12.97" transform="translate(309.635 70.107)" fill="url(#a)"/><path data-name="Rectangle 1349" opacity=".1" d="M318.547 113.997h93.973v.972h-93.973z"/><path data-name="Rectangle 1350" opacity=".3" d="M318.547 78.208h93.973v35.645h-93.973z"/><circle data-name="Ellipse 5192" cx="12.962" cy="12.962" r="12.962" transform="translate(327.458 83.813)" opacity=".1"/><circle data-name="Ellipse 5193" cx="12.962" cy="12.962" r="12.962" transform="translate(377.685 83.813)" opacity=".1"/><path data-name="Rectangle 1351" fill="#0e38a1" d="M355.811 121.952h19.442v11.344h-19.442z"/><path data-name="Rectangle 1352" transform="translate(325.028 130.056)" fill="url(#a)" d="M0 0h81.011v64.809H0z"/><path data-name="Rectangle 1353" fill="#0d42a6" d="M323.407 207.826h84.252v8.101h-84.252z"/><path data-name="Path 4198" d="M337.18 235.37v37.265h14.582v-48.607H337.18z" fill="#062b56"/><path data-name="Path 4199" d="M380.928 224.028v48.607h14.58v-48.607z" fill="#083d7b"/><path data-name="Path 4200" d="M313.992 144.638v14.986a21.921 21.921 0 00-10.772 5.192 25.484 25.484 0 00-6.413 9.4 47.761 47.761 0 00-3.158 14.353 82.07 82.07 0 00.9 19.256h-16.2a110.6 110.6 0 01.424-23.239 61.672 61.672 0 015.2-18.419c4.694-9.845 11.37-15.187 17.236-18.088a31.833 31.833 0 0112.783-3.441z" fill="#0b57b0"/><path data-name="Rectangle 1354" fill="#062b56" d="M337.18 224.028h14.582v11.342H337.18z"/><path data-name="Rectangle 1355" opacity=".3" d="M337.18 245.091h14.582v14.582H337.18z"/><path data-name="Rectangle 1356" opacity=".3" d="M337.18 267.774h14.582v4.861H337.18z"/><path data-name="Rectangle 1357" opacity=".3" d="M380.925 224.028h14.582v11.342h-14.582z"/><path data-name="Rectangle 1358" opacity=".3" d="M380.925 245.091h14.582v14.582h-14.582z"/><path data-name="Rectangle 1359" opacity=".3" d="M380.925 267.774h14.582v4.861h-14.582z"/><path data-name="Path 4201" d="M313.994 144.638v14.986a21.919 21.919 0 00-10.771 5.192l-2.017-16.734a31.832 31.832 0 0112.788-3.444z" opacity=".3"/><path data-name="Path 4202" d="M296.809 174.218a47.768 47.768 0 00-3.158 14.353l-14.881-3.983a61.673 61.673 0 015.2-18.419z" opacity=".3"/><path data-name="Path 4203" d="M417.073 144.638v14.986a21.918 21.918 0 0110.772 5.192 25.482 25.482 0 016.412 9.4 47.764 47.764 0 013.158 14.353 82.07 82.07 0 01-.9 19.256h16.2a110.593 110.593 0 00-.424-23.239 61.677 61.677 0 00-5.2-18.419c-4.694-9.845-11.37-15.187-17.236-18.088a31.832 31.832 0 00-12.788-3.444z" fill="#0b57b0"/><path data-name="Path 4204" d="M417.073 144.638v14.986a21.918 21.918 0 0110.772 5.192l2.016-16.734a31.832 31.832 0 00-12.788-3.444z" opacity=".3"/><path data-name="Path 4205" d="M434.257 174.218a47.768 47.768 0 013.158 14.353l14.881-3.983a61.677 61.677 0 00-5.2-18.419z" opacity=".3"/><path data-name="Rectangle 1360" opacity=".1" d="M355.811 121.952h19.442v1.343h-19.442z"/><path data-name="Path 4206" d="M407.477 141.602v27.134a5.654 5.654 0 01-1.506-3.846v-19.445a5.645 5.645 0 011.506-3.843z" opacity=".1"/><path data-name="Path 4207" d="M325.315 143.392v20.312a5.648 5.648 0 01-1.51 3.437v-27.186a5.648 5.648 0 011.51 3.437z" opacity=".1"/><path data-name="Rectangle 1361" opacity=".1" d="M329.079 194.866h72.909v.96h-72.909z"/><path data-name="Rectangle 1362" opacity=".1" d="M327.458 215.929h35.644v.744h-35.644z"/><path data-name="Rectangle 1363" opacity=".1" d="M366.345 215.929h35.644v.744h-35.644z"/><path data-name="Rectangle 1364" transform="translate(331.434 22.126)" fill="url(#b)" d="M0 0h5.579v47.981H0z"/><path data-name="Rectangle 1365" transform="translate(395.408 22.126)" fill="url(#b)" d="M0 0h5.579v47.981H0z"/><circle data-name="Ellipse 5194" cx="6.323" cy="6.323" r="6.323" transform="translate(327.715 16.175)" opacity=".1"/><circle data-name="Ellipse 5195" cx="6.323" cy="6.323" r="6.323" transform="translate(327.715 15.803)" fill="url(#b)"/><circle data-name="Ellipse 5196" cx="6.323" cy="6.323" r="6.323" transform="translate(392.061 16.175)" opacity=".1"/><circle data-name="Ellipse 5197" cx="6.323" cy="6.323" r="6.323" transform="translate(392.061 15.803)" fill="url(#b)"/><path data-name="Rectangle 1366" fill="#0e38a1" d="M419.894 72.865l51.404-16.06 1.954 6.251-51.405 16.06z"/></g></svg>