<svg xmlns="http://www.w3.org/2000/svg" width="748.486" height="297.113"><g transform="translate(-12.223)"><g data-name="Group 1275" transform="translate(12.223 84.743)" opacity=".1"><path data-name="Path 4375" d="M36.632 148.053a9.953 9.953 0 01-1.315 5.04 10.316 10.316 0 010 10.079 9.262 9.262 0 01.993 2.443 184.85 184.85 0 01-12.249-18.319 9.771 9.771 0 011.286-4.3 9.953 9.953 0 01-1.315-5.04 10.365 10.365 0 01.594-3.505 8.709 8.709 0 01.721-1.535 5.477 5.477 0 019.97 0 9.069 9.069 0 01.7 1.486 10.434 10.434 0 01.611 3.554 9.953 9.953 0 01-1.315 5.04 9.954 9.954 0 011.319 5.057z" fill="#3f3d56"/><ellipse data-name="Ellipse 5207" cx="6.298" cy="8.248" rx="6.298" ry="8.248" transform="translate(24.032 119.651)" fill="#3f3d56"/><ellipse data-name="Ellipse 5208" cx="6.298" cy="8.248" rx="6.298" ry="8.248" transform="translate(24.032 109.572)" fill="#3f3d56"/><path data-name="Path 4376" d="M60.372 67.479a30.035 30.035 0 01-6.46 18.657A30.177 30.177 0 0136 134.404c-.725.147-1.461.261-2.206.35a30.483 30.483 0 01-6.92.037q-1.148-.122-2.267-.338a29.84 29.84 0 01-9.363-3.424 300.647 300.647 0 01-14.171-34.11 30.039 30.039 0 015.41-10.768 30.2 30.2 0 01-4.885-28.337l22.911 7.69L3.023 54.342a30.3 30.3 0 013.44-5.5 30.177 30.177 0 1149.84-33.768l-22.15 16.283L58.171 18.9a30.214 30.214 0 01-.578 23.908l-17.912-.134 16.552 2.717a30.3 30.3 0 01-2.349 3.452 30.043 30.043 0 016.488 18.636z" fill="#6c63ff"/><path data-name="Path 4377" d="M60.372 104.808a30.184 30.184 0 01-24.347 29.61c-.73.147-1.466.262-2.211.351a30.488 30.488 0 01-6.92.037q-1.148-.122-2.267-.338a29.839 29.839 0 01-9.363-3.424A300.637 300.637 0 011.073 96.918a30.039 30.039 0 015.41-10.768 30.055 30.055 0 01-6.46-18.673c0-3.387 57.936 13.523 53.89 18.657a30.035 30.035 0 016.459 18.674z" opacity=".1"/></g><path data-name="Path 4362" d="M168.863 37.981A100.4 100.4 0 0048.227 24.396c38.665 13.841 81.328 14.35 120.636 13.585z" fill="#6c63ff" opacity=".1"/><path data-name="Path 4363" d="M392.959 262.765l-42.223-73.133a1.343 1.343 0 00-2.333 0l-42.223 73.133a1.343 1.343 0 001.164 2.035h12.6a1.352 1.352 0 011.348 1.348v15.608a1.348 1.348 0 001.343 1.348h16.434a1.348 1.348 0 001.347-1.348v-7.543a1.343 1.343 0 011.343-1.343h15.624a1.348 1.348 0 011.348 1.343v7.543a1.347 1.347 0 001.347 1.348h16.43a1.347 1.347 0 001.347-1.348v-15.624a1.347 1.347 0 011.348-1.347h12.6a1.348 1.348 0 001.164-2.019zm-58.881 8.093a1.343 1.343 0 01-.953.407h-5.915a1.348 1.348 0 010-2.695h5.927a1.347 1.347 0 01.953 2.3zm38.787 0a1.343 1.343 0 01-.953.407h-5.911a1.348 1.348 0 010-2.695h5.935a1.347 1.347 0 01.953 2.3z" fill="#3f3d56" opacity=".27"/><path data-name="Path 4364" d="M131.98 263.409l-42.223-73.133a1.347 1.347 0 00-2.333 0l-36.47 63.168a111.407 111.407 0 0015.262 15.758h5.943a1.348 1.348 0 110 2.695h-2.508a65.252 65.252 0 009.77 6.078v-3.114a1.347 1.347 0 011.347-1.347h15.624a1.347 1.347 0 011.343 1.347v7.539a1.311 1.311 0 00.126.566 1.348 1.348 0 001.221.782h16.434a1.319 1.319 0 001.071-.542 1.294 1.294 0 00.273-.814v-15.616a1.347 1.347 0 011.347-1.347h12.6a1.347 1.347 0 001.176-2.023zm-27.906 6.188a1.344 1.344 0 01.953-.407h5.927a1.348 1.348 0 010 2.695h-5.931a1.347 1.347 0 01-.953-2.3zm-26.522-27.063a1.347 1.347 0 01-1.347-1.347v-10.235a1.347 1.347 0 011.347-1.347h22.084a1.347 1.347 0 011.343 1.347v10.234a1.347 1.347 0 01-1.343 1.347z" fill="#6c63ff" opacity=".27"/><path data-name="Path 4365" d="M579.159 133.109h-52.25v-11.3a2.7 2.7 0 00-2.7-2.7h-15.346v-12.038a1.7 1.7 0 00-1.7-1.7h-19.766a1.7 1.7 0 00-1.7 1.7v12.038h-18.039a2.7 2.7 0 00-2.7 2.7v11.3h-49.827a.55.55 0 00-.546.55v150.022a.55.55 0 00.545.55h33.112a.55.55 0 00.55-.55v-20.184a.554.554 0 01.55-.55h13.984a.554.554 0 01.55.55v20.183a.55.55 0 00.545.55h65.439a.554.554 0 00.549-.55v-20.183a.55.55 0 01.545-.55h13.988a.55.55 0 01.549.55v20.183a.554.554 0 00.55.55h33.112a.554.554 0 00.549-.55V133.661a.554.554 0 00-.549-.55zM442.866 255.938a.545.545 0 01-.546.545h-20.451a.545.545 0 01-.55-.545v-6.973a.549.549 0 01.55-.55h20.452a.55.55 0 01.545.55zm0-18.05a.545.545 0 01-.546.55h-20.451a.546.546 0 01-.55-.55v-6.979a.545.545 0 01.55-.55h20.452a.546.546 0 01.546.55zm0-18.046a.55.55 0 01-.546.55h-20.451a.55.55 0 01-.55-.55v-6.986a.549.549 0 01.55-.55h20.452a.55.55 0 01.545.55zm0-18.05a.546.546 0 01-.546.55h-20.451a.546.546 0 01-.55-.55v-6.969a.545.545 0 01.55-.55h20.452a.546.546 0 01.546.55zm0-18.046a.55.55 0 01-.546.55h-20.451a.55.55 0 01-.55-.55v-6.986a.545.545 0 01.55-.546h20.452a.545.545 0 01.546.546zm0-18.046a.545.545 0 01-.546.545h-20.451a.545.545 0 01-.55-.545v-6.991a.549.549 0 01.55-.55h20.452a.55.55 0 01.545.55zm0-18.05a.545.545 0 01-.546.55h-20.451a.546.546 0 01-.55-.55v-6.969a.546.546 0 01.55-.55h20.452a.546.546 0 01.546.55zm48.488 108.285a.545.545 0 01-.55.545h-20.451a.55.55 0 01-.55-.545v-6.969a.554.554 0 01.55-.55h20.452a.55.55 0 01.549.55zm0-18.05a.546.546 0 01-.55.55h-20.451a.55.55 0 01-.55-.55v-6.976a.55.55 0 01.55-.55h20.452a.545.545 0 01.549.55zm0-18.046a.55.55 0 01-.55.55h-20.451a.554.554 0 01-.55-.55v-6.982a.554.554 0 01.55-.55h20.452a.549.549 0 01.549.55zm0-18.05a.546.546 0 01-.55.55h-20.451a.55.55 0 01-.55-.55v-6.965a.55.55 0 01.55-.55h20.452a.545.545 0 01.549.55zm0-18.046a.55.55 0 01-.55.55h-20.451a.554.554 0 01-.55-.55v-6.981a.55.55 0 01.55-.546h20.452a.545.545 0 01.549.546zm0-18.046a.546.546 0 01-.55.546h-20.451a.55.55 0 01-.55-.546v-6.988a.554.554 0 01.55-.55h20.452a.549.549 0 01.549.55zm0-18.05a.546.546 0 01-.55.55h-20.451a.55.55 0 01-.55-.55v-6.965a.55.55 0 01.55-.55h20.452a.546.546 0 01.549.55zm33.133 108.285a.546.546 0 01-.55.546h-20.452a.55.55 0 01-.55-.546v-6.965a.554.554 0 01.549-.55h20.452a.55.55 0 01.549.55zm0-18.05a.546.546 0 01-.55.55h-20.452a.549.549 0 01-.549-.55v-6.973a.549.549 0 01.549-.55h20.452a.545.545 0 01.549.55zm0-18.046a.55.55 0 01-.55.55h-20.452a.554.554 0 01-.549-.55v-6.977a.554.554 0 01.549-.55h20.452a.55.55 0 01.549.55zm0-18.05a.546.546 0 01-.55.55h-20.452a.549.549 0 01-.549-.55v-6.961a.549.549 0 01.549-.55h20.452a.545.545 0 01.549.55zm0-18.046a.55.55 0 01-.55.55h-20.452a.554.554 0 01-.549-.55v-6.977a.549.549 0 01.549-.546h20.452a.545.545 0 01.549.546zm0-18.046a.546.546 0 01-.55.545h-20.452a.55.55 0 01-.55-.546v-6.984a.554.554 0 01.549-.55h20.452a.55.55 0 01.549.55zm0-18.05a.546.546 0 01-.55.55h-20.452a.55.55 0 01-.549-.55v-6.961a.55.55 0 01.549-.55h20.452a.546.546 0 01.549.55zm48.488 108.285a.55.55 0 01-.549.545h-20.453a.546.546 0 01-.55-.545v-6.961a.55.55 0 01.55-.55h20.453a.554.554 0 01.55.55zm0-18.05a.55.55 0 01-.549.55h-20.453a.546.546 0 01-.55-.55v-6.97a.546.546 0 01.55-.55h20.453a.55.55 0 01.55.55zm0-18.046a.554.554 0 01-.549.55h-20.453a.55.55 0 01-.55-.55v-6.973a.55.55 0 01.55-.55h20.453a.554.554 0 01.55.55zm0-18.05a.55.55 0 01-.549.55h-20.453a.546.546 0 01-.55-.55v-6.957a.546.546 0 01.55-.55h20.453a.55.55 0 01.55.55zm0-18.046a.554.554 0 01-.549.55h-20.453a.55.55 0 01-.55-.55v-6.973a.546.546 0 01.55-.546h20.453a.55.55 0 01.55.546zm0-18.046a.55.55 0 01-.546.558h-20.456a.545.545 0 01-.55-.545v-6.995a.55.55 0 01.55-.55h20.453a.554.554 0 01.55.55zm0-18.05a.55.55 0 01-.549.55h-20.453a.545.545 0 01-.55-.55v-6.957a.546.546 0 01.55-.55h20.453a.55.55 0 01.55.55z" fill="#1147b0" opacity=".27"/><path data-name="Path 4366" d="M150.076 91.374a11.761 11.761 0 00-6.827.741 10.059 10.059 0 01-8.235-.02 11.488 11.488 0 00-9.64.191 6 6 0 01-2.776.692c-3.908 0-7.161-3.936-7.836-9.131a7.494 7.494 0 001.954-2.1c2.292-3.692 5.842-6.066 9.827-6.066s7.49 2.345 9.77 6a7.535 7.535 0 006.493 3.566h.1c3.144-.008 5.839 2.488 7.17 6.127z" fill="#6c63ff" opacity=".1"/><path data-name="Path 4367" d="M161.963 75.071l-6.318 4.006 3.835-6.973a6.245 6.245 0 00-3.823-1.364h-.1a7.4 7.4 0 01-1.311-.1L152.113 72l.92-1.669a7.613 7.613 0 01-3.745-2.85l-3.835 2.443 2.414-4.413a11.218 11.218 0 00-8.585-4.34c-3.985 0-7.535 2.369-9.827 6.062a7.348 7.348 0 01-6.513 3.5h-.216c-4.4 0-7.967 4.987-7.967 11.142s3.566 11.142 7.967 11.142a5.948 5.948 0 002.776-.7 11.488 11.488 0 019.64-.187 10.059 10.059 0 008.2 0 11.484 11.484 0 019.558.183 5.963 5.963 0 002.744.68c4.4 0 7.967-4.991 7.967-11.142a14.151 14.151 0 00-1.648-6.78z" fill="#6c63ff" opacity=".27"/><path data-name="Path 4368" d="M337.742 165.655a8.268 8.268 0 00-4.779.517 7.03 7.03 0 01-5.74 0 8.044 8.044 0 00-6.75.134 4.184 4.184 0 01-1.942.484c-2.736 0-5.011-2.756-5.483-6.391a5.321 5.321 0 001.368-1.474 7.69 7.69 0 0113.727-.049 5.268 5.268 0 004.543 2.5h.073c2.158-.012 4.043 1.735 4.983 4.279z" fill="#6c63ff" opacity=".1"/><path data-name="Path 4369" d="M346.055 154.257l-4.421 2.8 2.683-4.885a4.372 4.372 0 00-2.675-.953h-.069a5.247 5.247 0 01-.916-.069l-1.5.949.643-1.164a5.369 5.369 0 01-2.622-1.991l-2.691 1.693 1.693-3.082a7.816 7.816 0 00-6.009-3.041 8.221 8.221 0 00-6.88 4.246 5.138 5.138 0 01-4.547 2.443h-.134c-3.078 0-5.577 3.489-5.577 7.8s2.5 7.8 5.577 7.8a4.184 4.184 0 001.942-.484 8.028 8.028 0 016.75-.13 7.071 7.071 0 005.74 0 8.04 8.04 0 016.688.13 4.213 4.213 0 001.921.472c3.082 0 5.577-3.489 5.577-7.8a9.914 9.914 0 00-1.173-4.734z" fill="#6c63ff" opacity=".27"/><path data-name="Path 4370" d="M96.185 139.602a8.272 8.272 0 014.779.517 7.018 7.018 0 005.736 0 8.044 8.044 0 016.75.134 4.2 4.2 0 001.942.484c2.736 0 5.015-2.756 5.488-6.391a5.265 5.265 0 01-1.368-1.474 7.69 7.69 0 00-13.735-.065 5.292 5.292 0 01-4.551 2.5h-.069c-2.167.004-4.056 1.751-4.972 4.295z" fill="#6c63ff" opacity=".1"/><path data-name="Path 4371" d="M87.848 128.204l4.421 2.793-2.687-4.885a4.38 4.38 0 012.675-.953h.073a5.3 5.3 0 00.916-.069l1.5.948-.643-1.164a5.377 5.377 0 002.626-1.991l2.683 1.7-1.7-3.082a7.855 7.855 0 016.013-3.041 8.221 8.221 0 016.88 4.246 5.134 5.134 0 004.547 2.443h.147c3.082 0 5.577 3.489 5.577 7.8s-2.5 7.8-5.577 7.8a4.209 4.209 0 01-1.942-.484 8.028 8.028 0 00-6.75-.13 7.063 7.063 0 01-5.736 0 8.048 8.048 0 00-6.693.13 4.2 4.2 0 01-1.921.472c-3.078 0-5.577-3.489-5.577-7.8a9.912 9.912 0 011.168-4.733z" fill="#6c63ff" opacity=".1"/><path data-name="Path 4372" d="M88.068 284.984c5.512 3.5 13.454-.041 19 3.407 1.433.887 2.589 2.194 4.071 3a13.154 13.154 0 005.895 1.221c16.943.655 34.171-4.071 50.69-.252 4.62 1.067 9.139 2.8 13.873 3.053 8.178.444 16.015-3.546 24.2-3.766 12.416-.334 24.616 7.975 36.6 4.7 3.941-1.079 7.556-3.379 11.622-3.766 4.531-.407 8.887 1.567 13.291 2.719 15.62 4.071 31.887-2.524 48.036-3.016 10.531-.322 20.961 1.974 31.484 2.5a188.028 188.028 0 0022.455-.672c2.85-.2 5.834-.444 8.219-2.007s3.851-4.922 2.377-7.364z" fill="#3f3d56"/><path data-name="Path 4373" d="M88.068 284.984c5.512 3.5 13.454-.041 19 3.407 1.433.887 2.589 2.194 4.071 3a13.154 13.154 0 005.895 1.221c16.943.655 34.171-4.071 50.69-.252 4.62 1.067 9.139 2.8 13.873 3.053 8.178.444 16.015-3.546 24.2-3.766 12.416-.334 24.616 7.975 36.6 4.7 3.941-1.079 7.556-3.379 11.622-3.766 4.531-.407 8.887 1.567 13.291 2.719 15.62 4.071 31.887-2.524 48.036-3.016 10.531-.322 20.961 1.974 31.484 2.5a188.028 188.028 0 0022.455-.672c2.85-.2 5.834-.444 8.219-2.007s3.851-4.922 2.377-7.364z" opacity=".1"/><path data-name="Path 4374" d="M88.068 282.949c11.678 3.5 28.5-.041 40.259 3.407 3.036.887 5.485 2.194 8.625 3a55.63 55.63 0 0012.488 1.221c35.9.655 72.394-4.071 107.393-.252 9.789 1.067 19.362 2.8 29.392 3.053 17.327.444 33.929-3.546 51.273-3.766 26.3-.334 52.153 7.975 77.534 4.7 8.349-1.079 16.007-3.379 24.623-3.766 9.6-.407 18.827 1.567 28.159 2.719 33.092 4.071 67.556-2.524 101.769-3.017 22.312-.322 44.408 1.974 66.7 2.5 15.852.375 31.738-.151 47.573-.672 6.037-.2 12.359-.444 17.413-2.007s8.159-4.922 5.037-7.364z" fill="#3f3d56"/><path data-name="Path 4382" d="M135.042 271.848l7.792-4.584a18.781 18.781 0 00-3.985-4.767l-14.7 4.572 11.521-6.77a18.726 18.726 0 00-27.728 16.426c0 10.34 8.382 10.7 18.726 10.7s18.726-.358 18.726-10.7a18.641 18.641 0 00-1.608-7.6z" fill="#1147b0"/><path data-name="Path 4383" d="M137.02 281.899a14.551 14.551 0 00-2.76-2.166 12.851 12.851 0 00-4.547-2.219 34.094 34.094 0 00-4.478-.13 10.446 10.446 0 01-6.843-3.135 21.382 21.382 0 00-3.179-3.293 6.994 6.994 0 00-4.767-.875 11.853 11.853 0 00-1.409.289 18.665 18.665 0 00-1.107 6.355c0 10.34 8.382 10.7 18.726 10.7 5.019 0 9.575-.085 12.937-1.352l-.562-1.05a14.818 14.818 0 00-2.011-3.122z" opacity=".1"/><circle data-name="Ellipse 5209" cx="14.553" cy="14.553" r="14.553" transform="translate(207.308 61.071)" fill="#3f3d56"/><path data-name="Path 4384" d="M213.418 188.835c1.5 10.539-.33 21.286-3.183 31.541a23.422 23.422 0 01-2.1 5.549 59.173 59.173 0 01-3.558 4.8c-2.443 3.362-3.875 7.328-5.215 11.252a317.38 317.38 0 00-9.29 33.1 2.267 2.267 0 000 1.412c.354.814 1.429.92 2.312.916l11.423-.061c.407-.782-.346-1.628-.814-2.378-1.628-2.532-.065-5.821 1.372-8.471a91.083 91.083 0 008.052-20.354 55.183 55.183 0 012.687-8.846c1.535-3.411 3.941-6.346 5.895-9.538a79.885 79.885 0 005.573-11.777c2.3-5.61 4.612-11.289 5.516-17.281.851-5.626.431-11.358-.122-17.02a1.075 1.075 0 00-1.246-1.221l-15.327-.79c-3.159-.163-3.908-.855-3.428 2.247.327 2.32 1.119 4.575 1.453 6.92z" fill="#3f3d56"/><path data-name="Path 4385" d="M213.418 188.835c1.5 10.539-.33 21.286-3.183 31.541a23.422 23.422 0 01-2.1 5.549 59.173 59.173 0 01-3.558 4.8c-2.443 3.362-3.875 7.328-5.215 11.252a317.38 317.38 0 00-9.29 33.1 2.267 2.267 0 000 1.412c.354.814 1.429.92 2.312.916l11.423-.061c.407-.782-.346-1.628-.814-2.378-1.628-2.532-.065-5.821 1.372-8.471a91.083 91.083 0 008.052-20.354 55.183 55.183 0 012.687-8.846c1.535-3.411 3.941-6.346 5.895-9.538a79.885 79.885 0 005.573-11.777c2.3-5.61 4.612-11.289 5.516-17.281.851-5.626.431-11.358-.122-17.02a1.075 1.075 0 00-1.246-1.221l-15.327-.79c-3.159-.163-3.908-.855-3.428 2.247.327 2.32 1.119 4.575 1.453 6.92z" fill="#1147b0"/><path data-name="Path 4386" d="M216.43 163.212c-3.114 4.478-6.379 9.632-5.345 14.993.786 4.071 3.888 7.226 6.815 10.177 11.7 11.748 23.2 24.8 27.185 40.9 1.026 4.16 1.523 8.431 2.406 12.62 1.6 7.613 4.478 14.891 7.328 22.125l7.637 19.276a11.545 11.545 0 0011.032-7.328 4.831 4.831 0 01-2.894-1.86c-3.257-4.506-3.924-10.3-4.759-15.8-.924-6.074-2.158-12.1-3.4-18.119l-5.471-26.64c-.631-3.073-1.262-6.151-2.084-9.18-3.183-11.732-9.216-22.8-10.149-34.928-.138-1.783-.224-3.741-1.433-5.064-1.27-1.4-3.354-1.628-5.239-1.738-7.621-.488-14.2-1.233-21.629.566z" fill="#1147b0"/><path data-name="Path 4387" d="M195.86 274.807a12.156 12.156 0 00-2.532-.326 5.26 5.26 0 00-4.136 2.259 10.281 10.281 0 00-1.111 2.443l-1.1 3.167a3.522 3.522 0 00-.159 2.85 3.02 3.02 0 001.482 1.144c2.67 1.189 5.7 1.254 8.589 1.539 2.825.277 5.626.773 8.414 1.294.961.183 1.917.366 2.89.464a34.442 34.442 0 006.538-.2l2.243-.216a8.078 8.078 0 002.206-.407 2.781 2.781 0 001.628-1.462c.554-1.372-.635-3-2.088-3.281-.59-.114-1.221-.061-1.8-.138a8.5 8.5 0 01-1.97-.59 39.293 39.293 0 01-8.292-4.042c-.7-.493-1.433-1.181-1.356-2.035a4.152 4.152 0 01.362-1.054 3.851 3.851 0 00.033-2.724c-.138-.374-.407-.769-.786-.814-1.075-.13-.944 1.437-1.1 2.035-.216.814-.607.887-1.372.814-2.202-.195-4.401-.305-6.583-.72z" fill="#263238"/><path data-name="Path 4388" d="M260.127 285.745a7.186 7.186 0 001.555 4.376 3.4 3.4 0 001.107.892 4.445 4.445 0 002.035.322 16.3 16.3 0 005.654-1.144 16.149 16.149 0 011.954-.737 21.932 21.932 0 012.54-.366c3.367-.484 6.322-2.471 9.575-3.476a20.129 20.129 0 002.85-.936 13.059 13.059 0 003.35-2.617 6.012 6.012 0 002.2-5.544 1.055 1.055 0 00-.1-.574.855.855 0 00-.366-.289 5.314 5.314 0 00-3.257-.053 57.874 57.874 0 01-12.025.444 1.746 1.746 0 01-1.848-1.054l-1.527-2.442c-.436-.7-1.128-1.5-1.917-1.262a1.562 1.562 0 00-.863 1.628 8.7 8.7 0 01.1 1.97 2.69 2.69 0 01-1.3 1.693 8.319 8.319 0 01-2.035.782c-2.247.635-4.861 1.356-6.6 3.008-1.277 1.17-1.159 3.796-1.082 5.379z" fill="#263238"/><path data-name="Path 4389" d="M259.337 124.239a9.431 9.431 0 002.223-2.418 9.857 9.857 0 00.948-3.342l.639-4.038c.354-2.227.769-4.584 2.255-6.281s4.445-2.3 5.956-.627a5.224 5.224 0 011.083 2.7 19.679 19.679 0 01-4.812 16.283c-1.828 2-4.071 3.595-6 5.488-1.685 1.628-3.147 3.5-4.7 5.268a64.9 64.9 0 01-12.811 11.195c.057-3.029.444-6.277 0-9.286-.33-2.174-1.221-3.346.883-4.767 4.879-3.32 9.809-6.324 14.336-10.175z" fill="#fbbebe"/><path data-name="Path 4390" d="M218.287 94.448a7.447 7.447 0 01-2.85 5.63q7.608 2.662 15.009 5.87a5.2 5.2 0 01-1.286-3.639 18.371 18.371 0 012.809-9.811 2.381 2.381 0 00.46-1.295c-.057-.961-1.2-1.4-2.133-1.628a52.46 52.46 0 00-9.737-1.413c-1.4-.045-3.069-.489-2.752 1.3a19.654 19.654 0 01.48 4.986z" fill="#fbbebe"/><circle data-name="Ellipse 5210" cx="11.899" cy="11.899" r="11.899" transform="translate(216.198 71.81)" fill="#fbbebe"/><path data-name="Path 4391" d="M239.879 115.848a14.4 14.4 0 00-1.51-2.532 52.671 52.671 0 00-7.14-8.756 44.447 44.447 0 00-6.778-4.979 15.383 15.383 0 00-4.242-2.035 16.6 16.6 0 00-2.723-.37l-3.09-.252a2.528 2.528 0 00-.814.024 1.755 1.755 0 00-1.042 2.1 5.159 5.159 0 001.376 2.166c.138 6.306-2.666 12.526-3.045 18.824-.664 11.012 6.057 21.254 6.595 32.274a3.481 3.481 0 01-.155 1.478c-.09.228-.224.436-.326.659a6.442 6.442 0 00-.362 2.239 11.374 11.374 0 01-3.35 7.173 4.979 4.979 0 001.889 1.441 34.07 34.07 0 004.23 1.01c3.6 1.05 7.287 2.109 11.028 1.885a9.732 9.732 0 00.851-3.2c.529-.33 1.14.375 1.221.993s-.037 1.339.407 1.787a1.676 1.676 0 001.547.309 68.39 68.39 0 006.717-1.575 12.529 12.529 0 016.811-.024 1.822 1.822 0 00-.106-1.995 8.917 8.917 0 01-1.071-1.828 4.106 4.106 0 01-.13-1.2c0-3.481.716-7 .037-10.413-.2-1-.517-1.978-.721-2.984a25.738 25.738 0 01-.293-5.952c.053-1.991-.187-4.144-.228-6.163a19.651 19.651 0 00-.163-2.5c-.138-.867-.407-1.714-.48-2.589-.22-2.223.676-4.429.541-6.66-.226-3.392-4.163-5.232-5.481-8.355z" fill="#05ccf0"/><path data-name="Path 4392" d="M213.023 114.253c-2.882 7.645-4.291 15.754-5.7 23.806l-3.256 18.915a91.517 91.517 0 00-1.816 16.145 17.283 17.283 0 01-.3 4.543c-.521 1.93-1.816 3.538-2.8 5.292a17.415 17.415 0 00-1.873 11.777c.334 1.689 1.246 3.607 2.96 3.8 1.409.155 2.626-.965 3.448-2.121 1.889-2.65 2.825-5.85 3.664-9a203.583 203.583 0 005.646-31.382 30.569 30.569 0 01.566-3.989 28.314 28.314 0 011.376-3.973q1.868-4.633 3.741-9.265c2.878-7.136 5.773-14.3 9.725-20.908-3.908-1.124-7.975-2.442-11.883-3.554a10.731 10.731 0 00-3.498-.086z" fill="#fbbebe"/><path data-name="Path 4393" d="M219.797 120.061a44.721 44.721 0 00-8.357-.476 1.8 1.8 0 01-1.124-.293c-.566-.484-.326-1.392-.041-2.08l1.352-3.257a4.739 4.739 0 011.083-1.8 4.592 4.592 0 012.569-.871 23.274 23.274 0 018.9.346 10.644 10.644 0 016.872 5.325 3.624 3.624 0 01.073 3.562c-1.058 1.518-3.432 3.216-5.2 2.385-2.126-1.005-3.75-2.336-6.127-2.841z" fill="#05ccf0"/><path data-name="Path 4394" d="M234.342 65.227a12.017 12.017 0 00-6.635 1.913 14.553 14.553 0 00-14.289-3.346 8.317 8.317 0 10-9.607 9.624 14.553 14.553 0 1027.934 8.178 13.027 13.027 0 002.609.265c5.74 0 10.4-3.725 10.4-8.317s-4.68-8.317-10.412-8.317z" fill="#3f3d56"/><path data-name="Path 4395" d="M236.415 77.701a12.658 12.658 0 01-2.609-.265 14.482 14.482 0 01-1.906 4.189 13.068 13.068 0 002.443.236c5.365 0 9.77-3.257 10.336-7.425a11.469 11.469 0 01-8.264 3.265z" opacity=".1"/><path data-name="Path 4396" d="M219.781 88.097a14.574 14.574 0 01-13.914-18.84 8.317 8.317 0 01-6.876-8.191 8.176 8.176 0 01.134-1.49 8.317 8.317 0 004.665 13.841 14.553 14.553 0 1027.8 8.622 14.525 14.525 0 01-11.809 6.058z" opacity=".1"/><rect data-name="Rectangle 1517" width=".273" height="2.255" rx=".136" transform="rotate(35.51 -39.114 481.93)" fill="#3a3768"/><rect data-name="Rectangle 1518" width=".155" height=".741" rx=".077" transform="rotate(35.51 -31.808 468.622)" fill="#3a3768"/><rect data-name="Rectangle 1519" width=".171" height="1.29" rx=".085" transform="rotate(35.51 -33.935 467.928)" fill="#3a3768"/><rect data-name="Rectangle 1520" width=".163" height="1.303" rx=".081" transform="rotate(35.51 -36.658 467.068)" fill="#3a3768"/><rect data-name="Rectangle 1521" width="9.151" height="18.6" rx="2.52" transform="rotate(35.51 -29.022 470.954)" fill="#3a3768"/><rect data-name="Rectangle 1522" width="9.151" height="18.6" rx="2.52" transform="rotate(35.51 -29.022 470.954)" opacity=".1"/><rect data-name="Rectangle 1523" width="9.151" height="18.6" rx="2.52" transform="rotate(35.51 -28.025 469.986)" fill="#3a3768"/><path data-name="Path 4397" d="M273.943 108.663l-.851-.611-.073.1a.594.594 0 01-.814.142l-2.719-1.942a.6.6 0 01-.138-.834l.073-.1-.814-.57a.725.725 0 00-1.014.167l-9.4 13.169a.729.729 0 00.167 1.014l5.349 3.814a.725.725 0 001.014-.171l9.4-13.165a.724.724 0 00-.179-1.014z" fill="#1147b0"/><rect data-name="Rectangle 1524" width="1.278" height=".261" rx=".13" transform="rotate(35.51 -30.744 475.47)" fill="#e6e8ec"/><circle data-name="Ellipse 5211" cx=".147" cy=".147" r=".147" transform="translate(271.607 107.21)" fill="#e6e8ec"/><path data-name="Path 4398" d="M271.794 5.671a27.275 27.275 0 00-27.275 27.275c0 15.062 28.577 64.946 28.577 64.946s25.972-49.864 25.972-64.946a27.275 27.275 0 00-27.274-27.275zm0 45.463a5.92 5.92 0 110 .012z" fill="#6c63ff"/><path data-name="Path 4399" d="M271.794 5.671a27.275 27.275 0 00-27.275 27.275c0 15.062 28.577 64.946 28.577 64.946s25.972-49.864 25.972-64.946a27.275 27.275 0 00-27.274-27.275zm0 45.463a5.92 5.92 0 110 .012z" fill="#05ccf0" opacity=".31"/><path data-name="Path 4400" d="M271.794 0a27.275 27.275 0 00-27.275 27.275c0 15.062 28.577 70.629 28.577 70.629s25.972-55.559 25.972-70.625A27.276 27.276 0 00271.79 0zm0 45.463a14.289 14.289 0 1114.289-14.289 14.289 14.289 0 01-14.289 14.289z" fill="#1147b0"/><path data-name="Path 4401" d="M760.159 131.109h-52.25v-11.3a2.7 2.7 0 00-2.7-2.7h-15.346v-12.038a1.7 1.7 0 00-1.7-1.7h-19.766a1.7 1.7 0 00-1.7 1.7v12.038c-19.531 0-20.741 1.21-70.564 14a.55.55 0 00-.546.55v150.022a.55.55 0 00.545.55h33.112a.55.55 0 00.55-.55v-20.184a.554.554 0 01.55-.55h13.982a.554.554 0 01.55.55v20.183a.55.55 0 00.545.55h65.439a.554.554 0 00.549-.55v-20.183a.55.55 0 01.545-.55h13.988a.55.55 0 01.549.55v20.183a.554.554 0 00.55.55h33.112a.554.554 0 00.549-.55V131.661a.554.554 0 00-.549-.55zM623.866 253.938a.545.545 0 01-.546.545h-20.451a.545.545 0 01-.55-.545v-6.973a.549.549 0 01.55-.55h20.452a.55.55 0 01.545.55zm0-18.05a.545.545 0 01-.546.55h-20.451a.546.546 0 01-.55-.55v-6.979a.545.545 0 01.55-.55h20.452a.546.546 0 01.546.55zm0-18.046a.55.55 0 01-.546.55h-20.451a.55.55 0 01-.55-.55v-6.986a.549.549 0 01.55-.55h20.452a.55.55 0 01.545.55zm0-18.05a.546.546 0 01-.546.55h-20.451a.546.546 0 01-.55-.55v-6.969a.545.545 0 01.55-.55h20.452a.545.545 0 01.387.161c.102.103.159.243.158 7.357zm0-18.046a.55.55 0 01-.546.55h-20.451a.55.55 0 01-.55-.55v-6.986a.545.545 0 01.55-.546h20.452c.305 0 .545.244.545 7.531zm0-18.046a.545.545 0 01-.546.545h-20.451a.545.545 0 01-.55-.545v-6.991a.549.549 0 01.55-.55h20.452a.55.55 0 01.545.55zm-.158-17.662a.545.545 0 01-.387.161c-20.6 0-20.738-.056-20.842-.16a.546.546 0 01-.16-.39c0-7.115.056-7.256.16-7.359a.546.546 0 01.39-.16h20.452a.545.545 0 01.387.161c.102.103.102 7.643 0 7.746zm48.646 107.9a.546.546 0 01-.161.387c-.1.1-21.388-.085-21.39-.387 0-7.272.247-7.517.55-7.519 20.755-.004 21.001.242 21.001 7.515zm-.16-17.66c-.1.1-.244.161-20.842.16-.3 0-.3-8.076 20.452-8.076a.545.545 0 01.39.16c.104.098.104 7.648 0 7.751zm.16-18.436a.55.55 0 01-.55.55h-20.451c-.3 0-.547-.247-.55-7.531.002-.308 21.551-.309 21.551 6.976zm0-18.05a.546.546 0 01-.55.55h-20.451a.55.55 0 01-.55-.55c0-7.273 21.552-7.116 21.551-.005zm0-18.046a.55.55 0 01-.55.55c-20.755 0-20.754-8.076 0-8.076a.545.545 0 01.549.546zm0-18.046a.546.546 0 01-.55.546c-20.754 0-20.755-8.074 0-8.076a.549.549 0 01.549.55zm0-18.05a.546.546 0 01-.55.55c-20.582 0-11.851-8.064 0-8.064a.546.546 0 01.549.55zm33.133 108.285a.546.546 0 01-.55.546h-20.452a.55.55 0 01-.55-.546v-6.965a.554.554 0 01.549-.55h20.452a.55.55 0 01.549.55zm0-18.05a.546.546 0 01-.55.55h-20.452a.549.549 0 01-.549-.55v-6.976a.549.549 0 01.549-.55h20.452a.545.545 0 01.549.55zm0-18.046a.55.55 0 01-.55.55h-20.452a.554.554 0 01-.549-.55v-6.977a.554.554 0 01.549-.55h20.452a.55.55 0 01.549.55zm0-18.05a.546.546 0 01-.55.55h-20.452a.549.549 0 01-.549-.55v-6.961a.549.549 0 01.549-.55h20.452a.545.545 0 01.549.55zm0-18.046a.55.55 0 01-.55.55h-20.452a.554.554 0 01-.549-.55v-6.977a.549.549 0 01.549-.546h20.452a.545.545 0 01.549.546zm0-18.046a.546.546 0 01-.55.545h-20.452a.55.55 0 01-.55-.546v-6.987a.554.554 0 01.549-.55h20.452a.55.55 0 01.549.55zm0-18.05a.546.546 0 01-.55.55h-20.452a.55.55 0 01-.549-.55v-6.961a.55.55 0 01.549-.55h20.452a.546.546 0 01.549.55zm48.488 108.285a.55.55 0 01-.549.545h-20.453a.546.546 0 01-.55-.545v-6.961a.55.55 0 01.55-.55h20.453a.554.554 0 01.55.55zm0-18.05a.55.55 0 01-.549.55h-20.453a.546.546 0 01-.55-.55v-6.973a.546.546 0 01.55-.55h20.453a.55.55 0 01.55.55zm0-18.046a.554.554 0 01-.549.55h-20.453a.55.55 0 01-.55-.55v-6.973a.55.55 0 01.55-.55h20.453a.554.554 0 01.55.55zm0-18.05a.55.55 0 01-.549.55h-20.453a.546.546 0 01-.55-.55v-6.957a.546.546 0 01.55-.55h20.453a.55.55 0 01.55.55zm0-18.046a.554.554 0 01-.549.55h-20.453a.55.55 0 01-.55-.55v-6.973a.546.546 0 01.55-.546h20.453a.55.55 0 01.55.546zm0-18.046a.55.55 0 01-.546.558h-20.456a.545.545 0 01-.55-.545v-6.998a.55.55 0 01.55-.55h20.453a.554.554 0 01.55.55zm0-18.05a.55.55 0 01-.549.55h-20.453a.545.545 0 01-.55-.55v-6.957a.546.546 0 01.55-.55h20.453a.55.55 0 01.55.55z" fill="#05ccf0" opacity=".27"/></g></svg>