<svg xmlns="http://www.w3.org/2000/svg" width="376.731" height="521.888"><g data-name="956 [преобразованный]"><path d="M335.128 519.992l-143.75-80.759c-5-2.808-4.371-7.711 1.4-10.954 5.771-3.241 14.5-3.593 19.5-.786l143.75 80.759c5 2.808 4.371 7.712-1.4 10.954-5.774 3.241-14.502 3.592-19.5.786z" fill="#d9e7f4"/><path data-name="Path" d="M357.513 89.413L206.381 2.285c-4.966-2.862-9.476-2.933-12.887-.785l-.007-.034-18.963 10.966 12.717 2.368c-.039.65-.077 1.3-.077 1.99v355.867c0 14.129 8.605 30.541 19.219 36.659l149.008 85.9c-1.357 4.249-4.244 13.187-4.244 13.187l18.544-10.736h-.005c4.3-2.213 7.046-7.753 7.046-15.731V126.072c-.002-14.129-8.608-30.541-19.219-36.659z" fill="#d9e7f4"/><path data-name="Path" d="M188.004 372.043c0 14.193 8.567 30.679 19.134 36.825l148.348 86.291c-1.351 4.269-4.226 13.249-4.226 13.249l18.461-10.784h-.005c4.282-2.223 7.015-7.788 7.015-15.8V124.345a48.189 48.189 0 00-6.075-22.278L188.004 208.29z" fill="#d9e7f4"/><path data-name="Path" d="M340.265 508.039l-150.46-86.794c-10.566-6.093-19.133-22.444-19.133-36.519V30.223c0-14.075 8.567-20.543 19.133-14.45l150.46 86.794c10.567 6.094 19.133 22.444 19.133 36.519v354.5c.001 14.078-8.566 20.547-19.133 14.453z" fill="#d4ecff"/><path data-name="Path" d="M340.317 102.733L190.25 15.767c-5.432-3.149-10.324-2.928-13.8-.063 3.256-1.572 7.367-1.271 11.848 1.324l150.063 86.966c10.539 6.106 19.083 22.486 19.083 36.586v355.211c0 6.83-2.015 11.849-5.28 14.541 4.4-2.126 7.235-7.7 7.235-15.8V139.325c.001-14.103-8.544-30.484-19.082-36.592z" fill="#fff"/><path data-name="Path" d="M337.293 497.075L190.85 413.748c-7.951-4.526-14.4-16.668-14.4-27.12V37.468c0-10.452 6.449-15.256 14.4-10.733l146.443 83.328c7.955 4.526 14.4 16.668 14.4 27.12v349.161c.005 10.451-6.443 15.257-14.4 10.731z" fill="#fff"/><path data-name="Path" d="M337.876 496.583l-147.617-83.386c-8.019-4.529-14.52-16.679-14.52-27.139V36.65c0-5.87 2.049-9.957 5.263-11.615-3.904 1.19-6.478 5.526-6.478 12.105v349.409c0 10.459 6.5 22.61 14.52 27.139l147.616 83.387c3.519 1.987 6.745 2.176 9.258.878-2.303.7-5.068.31-8.042-1.37z" fill="#5793ce"/><path data-name="Path" d="M274.663 387.082l-73.178-40.655V175.246l34.479 19.156c23.947 13.305 38.7 37.893 38.7 64.5v128.18z" fill="#efefef"/><path data-name="Path" d="M176.713 161.542l.008.014c-7.099-4.253-16.962-3.726-27.858 2.595-21.568 12.513-39.114 43.052-39.114 68.077v18.06l.74.438 70.469 41.657 1.067-21.611.878-8.392 3.736-13.031.429-1.994 8.012-16.227 6.312-7.925 5.116-6.13 12.466-9.865 1.1-.818 6.13-2.65 8.242-2.153h6.428l7.189 1.265z" fill="#d4ecff"/><path data-name="Path" d="M185.695 328.559l2.284-1.326v-82.274a16.893 16.893 0 00-2.284 5.825z" fill="#d4ecff"/><path data-name="Path" d="M256.904 369.788l-71.209-41.225.734-77.888 2.719-7.868 8.247-14.245 9.753-11.622 8.791-7.068 9.506-5.8 17.242-1.984 9.121 5.19 5.1 7.841 1.607 12.036-.55 130.194z" fill="#d4ecff"/><path data-name="Path" d="M176.723 161.555c-5.94-3.555-13.819-3.752-22.613-.026l72.554 42.094 7.781-2.033h6.428l7.189 1.265-71.352-41.314z" fill="#5793ce"/><g data-name="Group"><path data-name="Path" d="M155.818 160.852a45.013 45.013 0 00-6.953 3.3 57.122 57.122 0 00-4.69 3.06l72.327 41.961 2.475-1.96 1.1-.818 6.13-2.65 2.445-.639z" fill="#e9f6ff"/><path data-name="Path" d="M207.124 216.593l9.839-7.787-72.305-41.948a70 70 0 00-9.41 8.036z" fill="#fff"/><path data-name="Path" d="M259.188 368.465l-2.284 1.326V229.396c.001-23.568-16.521-33.148-36.83-21.368s-36.83 40.54-36.83 64.1v18.931l-2.284 1.326v-18.927c0-25.03 17.546-55.564 39.114-68.077s39.114-2.334 39.114 22.691z" fill="#5793ce"/></g><path data-name="Path" d="M134.082 219.539l-3.98 16.2 1.988 26.169-5.037-2.958-6.451-14.224 5.648-17.978z" fill="#aedeed"/><g data-name="Group"><path d="M251.355 320.112l-54.183-29.227a6.1 6.1 0 01-2.848-5.008v-39.829a2.722 2.722 0 011.269-2.527 2.532 2.532 0 012.451.12l54.18 29.227a6.105 6.105 0 012.846 5.007v39.829a2.723 2.723 0 01-1.27 2.527 2.191 2.191 0 01-1.052.262 2.967 2.967 0 01-1.393-.381z" fill="#fff" opacity=".4"/><g data-name="Group"><path data-name="Path" d="M213.993 292.509l-.382-.206a5.627 5.627 0 01-2.557-4.565v-18.979c0-1.76 1.144-2.568 2.557-1.806l.382.206a5.627 5.627 0 012.561 4.564v18.979c0 1.764-1.149 2.57-2.561 1.807zm10.896 5.878l-.382-.206a5.628 5.628 0 01-2.558-4.565v-11.107c0-1.76 1.144-2.568 2.558-1.806l.382.205a5.627 5.627 0 012.56 4.565v11.108c0 1.759-1.148 2.568-2.56 1.806z" fill="#b2d3ea"/><path data-name="Path" d="M235.787 304.265l-.382-.206a5.627 5.627 0 01-2.557-4.565v-26.442c0-1.76 1.144-2.568 2.557-1.806l.382.206a5.627 5.627 0 012.561 4.564v26.443c0 1.76-1.148 2.567-2.561 1.806z" fill="#396caa"/></g></g><g data-name="Group" transform="translate(.001 189.708)"><ellipse cx="38.223" cy="21.781" rx="38.223" ry="21.781" transform="translate(16.277 227.785)" fill="#d9e7f4"/><g data-name="Group"><path data-name="Path" d="M35.741 20.98s.854 17.359 2.192 29.026 29.808-8.96 29.808-8.96V27.763z" fill="#263238"/><g data-name="Group"><path data-name="Path" d="M50.904 236.967c.427 1.054 7.803 9.918 15.179 12.133a17.187 17.187 0 006.777.924 2.2 2.2 0 001.816-2.939 27.755 27.755 0 00-14.151-15.393c-12.509-6.121-9.621 5.275-9.621 5.275zm-2.459 3.403a59.7 59.7 0 013.635 11.817c.521 3.282-1.3 7.547-2.805 10.373a3.092 3.092 0 01-4.783.817 17.459 17.459 0 01-5.988-11.295c-.855-9.074 0-10.656 0-10.656z" fill="#263238"/><path data-name="Path" d="M30.678 130.702a170.378 170.378 0 000 24.106c.962 12.66 4.407 71.87 5.048 86.115 0 0-.321 4.312 8.138 3.362s7.777-5.738 7.777-5.738 11.879-.158 12.254-7.069S76.06 148.953 76.06 121.769z" fill="#1147b0"/><g data-name="Group"><path data-name="Path" d="M80.452 71.519l5.82 8.9 20 23.85a4.458 4.458 0 01-3.178 2.793c-1.942.449-18.766-15.395-26.031-22.348a5.454 5.454 0 01-.767-7z" fill="#ffc2b0"/><path data-name="Path" d="M69.098 35.002s9.246-.237 12.464 12.951 5.736 29.699 2.936 31.071c-8.4 4.119-13.719-.7-13.719-.7z" fill="#05ccf0"/><path data-name="Path" d="M71.866 35.561a7.668 7.668 0 00-4.995-.272c-7.872 2.232-37.487 10.807-42.368 14.928-5.639 4.757 8.457 31.491 8.254 40.256s-1.203 19.098-1.986 28.623-1.847 14.751 6.05 18.8 21.377 4.238 31.468-3.352 8.261-12.782 7.841-18.293-3.859-29.333-3.559-36.097a25.734 25.734 0 006.189-7.019c2.635-4.434-2.018-12.584-3.95-17.883s1.089-11.358.491-15.68a4.932 4.932 0 00-3.435-4.011z" fill="#05ccf0"/><path data-name="Path" d="M62.399 44.675c.624 4.814-3.851 9.348-10 10.125s-11.629-2.496-12.253-7.311 3.85-9.348 9.996-10.125 11.631 2.497 12.257 7.311z" fill="#fff"/><path data-name="Path" d="M59.223 45.078c.446 3.441-2.751 6.682-7.144 7.236s-8.314-1.784-8.761-5.226 2.751-6.682 7.144-7.235 8.314 1.783 8.761 5.225z" fill="#ffc2b0"/><path data-name="Path" d="M54.858 33.78s-5.344-4.34-6.395-2.142-1.915 11.63-1.915 11.63l10.617 2.815-1.612-9.557s2.125-1.778-.695-2.746z" fill="#ffc2b0"/><path data-name="Path" d="M71.451 23.443a15.779 15.779 0 01-16.758 14.7 15.721 15.721 0 01-14.89-16.544A15.779 15.779 0 0156.561 6.903a15.719 15.719 0 0114.89 16.54z" fill="#ffc2b0"/><path data-name="Path" d="M47.722 34.371a48.971 48.971 0 00-.27 1.56c1.066 5.443 9.319 7.825 9.319 7.825l-1.219-7.234s1-.838.718-1.675c-3.263-1.015-7.372-1.914-8.548-.476z" fill="#ea9c92"/><path data-name="Path" d="M71.451 23.443a15.779 15.779 0 01-16.758 14.7 15.721 15.721 0 01-14.89-16.544A15.779 15.779 0 0156.561 6.903a15.719 15.719 0 0114.89 16.54zm-54.88 65.304l1.774 41.867 6.2.631 4.037-37.69z" fill="#ffc2b0"/><path data-name="Path" d="M36.952 85.247c-.335-1.458-3.049-2.657-3.464-4.558-2.13-9.753-2.642-24.135-2.642-24.135L29.114 76.2c2 5.827 3.717 11.174 3.645 14.274-.118 5.144-.515 10.831-.979 16.58v.017s7.223-12.884 5.172-21.824z" fill="#05ccf0"/><path data-name="Path" d="M25.688 49.361s-4.959 1.871-7.765 16.9-4.905 30.1.098 32.038 9.185 3.4 10.656-.621 2.382-23.4 2.567-30.365.453-16.574-5.556-17.952z" fill="#05ccf0"/><path data-name="Path" d="M104.794 102.523a13.328 13.328 0 014.626 3.065 29.621 29.621 0 013.161 4.19c1.544 2.274 2.847 7.189 1.906 7.8s-6.325-8.234-7.196-6.177.007 3.957-1.107 3.987-4.983-8.887-8.029-11.653 6.639-1.212 6.639-1.212z" fill="#ffc2b0"/></g><path data-name="Path" d="M51.638 238.549a24.547 24.547 0 003.394-.347l2.327-92.04z" fill="#396caa"/></g><g data-name="Group"><path data-name="Path" d="M42.663 188.832l-3.3-4.252-34.7-19.83a4.751 4.751 0 01-2.011-3.8l.033-28.047-2-2.57 1.875-1.071a1.282 1.282 0 011.363.079l39.325 22.472a4.751 4.751 0 012.011 3.8l-.033 30.538a1.728 1.728 0 01-.735 1.629z" fill="#5793ce"/><path data-name="Path" d="M18.666 172.753l-2.466-1.409-13.532-23.201.019-15.238-2-2.57 1.875-1.071a1.282 1.282 0 011.363.079l39.325 22.472a4.039 4.039 0 011.483 1.711z" fill="#5793ce"/><path data-name="Path" d="M1.572 131.476l-.885-1.141 1.875-1.071a1.282 1.282 0 011.363.079l.694.4zm42.035 20.588a4.952 4.952 0 011.643 3.269l-3.842 2.19-1.842-3.159z" fill="#5793ce"/><path data-name="Path" d="M41.377 152.886L2.051 130.414c-1.114-.64-2.016.036-2.018 1.502L0 162.452a4.751 4.751 0 002.011 3.8l39.325 22.476c1.113.636 2.016-.036 2.018-1.5l.033-30.538a4.746 4.746 0 00-2.01-3.804z" fill="#05ccf0"/></g><path data-name="Path" d="M33.298 174.788l-1.873-1.068v-15.881l1.873 1.066zm-4.376-2.493l-1.873-1.066v-15.883l1.873 1.068zm-4.375-2.494l-1.873-1.066v-15.883l1.873 1.068z" fill="#fff"/><path data-name="Path" d="M18.396 130.263s-1.64 9.772-1.392 12.9 1.945 8.293 3.232 8.183.042-12.583 2.305-11.342 2.5 3.374 3.525 2.621-1.788-11.418-1.036-16.043-6.634 3.681-6.634 3.681z" fill="#ffc2b0"/><path data-name="Path" d="M61.715 23.887c7.951 2.788 9.5 1.087 9.575 1 .073-.473.131-.951.16-1.44a15.407 15.407 0 00-.53-5l-20.629-2.752s3.259 5.328 11.424 8.192z" fill="#ea9c92"/><path data-name="Path" d="M72.023 7.855C70.148 6.27 63.387-1.57 51.271.281 43.7 1.437 37.323 6.534 35.902 18.164a26.519 26.519 0 007.327 21.258 6.465 6.465 0 00.861-.43c3.034-1.971 3.361-3.055 3.361-3.065l.671-5.934a1.664 1.664 0 00-1.511-1.644 3.034 3.034 0 01-2.22-1.336c-1.741-2.246-.937-5.748 2.542-5.879a2.662 2.662 0 002.779-1.95 1.426 1.426 0 011.856-.955c3.959 1.414 13.716 4.463 19.994 2.707 8.034-2.247 2.336-11.495.461-13.081z" fill="#263238"/><path data-name="Path" d="M26.64 142.325l-4.132-2.336 1.553 2.5 2.088.762z" fill="#5793ce"/></g></g><g data-name="Group"><path data-name="Path" d="M118.202 507.686c18 10.028 47.19 10.026 65.193 0s18-26.284 0-36.312-47.187-10.026-65.193 0-18 26.286 0 36.312z" fill="#d9e7f4"/><g data-name="Group"><path data-name="Path" d="M122.554 475.921a8.449 8.449 0 00-4.966 8.489 13.8 13.8 0 00.724 4.151c1.022 2.069 4.37 4.91 9.717 2.871s17.219-12.8 17.663-19.839c.825-13.089-14.683.844-23.138 4.328zm31.408 21.642s-1.281 7.543-.66 8.927 4.342 4.334 9.839 3.7 21.31-5.9 24.832-15.952c5.459-15.591-30.524 1.165-30.524 1.165z" fill="#263238"/><path data-name="Path" d="M169.413 376.961l1.224 117.77a8.323 8.323 0 01-6.649 8.165q-.692.113-1.487.181c-3.787.319-5.993-1.248-7.252-2.894a8.427 8.427 0 01-1.631-4.755l-1.559-50.274-7.779-44.951-10.764 79.556a6.814 6.814 0 01-2.958 5.238 8.465 8.465 0 01-4.908 1.283 9.132 9.132 0 01-6.526-3.1 6.18 6.18 0 01-1.559-4.26l4.268-47.867 1.588-61.056z" fill="#1147b0"/><path data-name="Path" d="M153.605 271.544l-1.929 10.732a4.939 4.939 0 004.165 4.676c4.238 1.015 5.547-1.624 5.547-1.624l1.917-12.084z" fill="#ffc2b0"/><path data-name="Path" d="M176.959 265.666c-3.009 9.193-12.318 14.53-20.794 11.918s-12.907-12.181-9.9-21.374 12.318-14.53 20.794-11.918 12.909 12.181 9.9 21.374z" fill="#ffc2b0"/><path data-name="Path" d="M154.109 282.472c-.294-.114-17.979-11.1-24.517.4-10.659 18.742-2.862 40.235-6.667 86.901-.637 7.809 10.892 12.568 16.344 15.571a33.553 33.553 0 0015.863 4.354c5.526.044 16.125-4.7 15.74-11.667-1.769-32.057 1.168-59.079 3.883-85.3 0-.004-3.392-3.52-20.646-10.259z" fill="#05ccf0"/><path data-name="Path" d="M144.278 400.203l-10.764 79.556a6.814 6.814 0 01-2.958 5.238 8.044 8.044 0 01-.919.5c2.234-1.616 8.76-68.394 9.966-75.82s4.675-9.474 4.675-9.474z" fill="#396caa"/></g><path data-name="Path" d="M211.454 292.184l14.807-28.354-4.646-2.83-15.346 21.6zm-97.665-30.105l7.2-31.614 5.74.06-2.154 26.219z" fill="#ffc2b0"/><path data-name="Path" d="M174.754 292.732s16.565 6.302 30.79-11.016c1.254-1.525 3.829-1.356 4.57.289 1.28 2.837 2.883 7.125.938 11.152-8.598 17.809-37.942 17.187-45.01 27.168s8.712-27.593 8.712-27.593zm-31.864-14.199s-13.675 1.015-15.642-10.4a84.479 84.479 0 01-1.376-11.418 2.36 2.36 0 00-2.681-2.239c-3.275.391-8.345 1.335-9.033 3.452-1.029 3.161-2.958 18.666 10.548 42.458 8.85 15.586 18.184-21.853 18.184-21.853z" fill="#05ccf0"/><path data-name="Path" d="M120.964 230.544l.131-3.6a7.205 7.205 0 011.118-3.6l3.787-6 .989-1.2a2.948 2.948 0 013.784-.63l.871.529a3.417 3.417 0 011.666 3.144l-1.959 5.13 2.478-.464a.875.875 0 011.032.684.845.845 0 01-.536.937l-4.046 1.574-3.674 5.018zM226.37 264.01l1.732-3.2a7.211 7.211 0 00.872-3.662l-.213-7.02-.244-1.515a2.852 2.852 0 00-2.976-2.35l-1.027.047a3.584 3.584 0 00-3.06 1.938l-.924 5.393-1.917-1.583a.9.9 0 00-1.252.105.827.827 0 00-.01 1.065l2.711 3.3.7 6.872z" fill="#ffc2b0"/><path data-name="Path" d="M163.956 316.755c-1.44 6.332 7.231 54.095-2.41 71.562 4.821-1.885 9.587-5.572 9.327-10.287-1.266-22.925-.12-43.269 1.626-62.591 8.247-4.029 21.129-6.433 30.242-12.871-9.773 3.474-37.5 8.535-38.785 14.187z" fill="#05ccf0"/><path data-name="Path" d="M147.75 279.44l2.455-2.434s4.039 3.983 7.285 4.673a38.918 38.918 0 005.815 1.159l1.581 4.206s-12.863-.889-17.136-7.604z" fill="#fff"/><path data-name="Path" d="M165.425 265.952a2.1 2.1 0 001.692-.847c.672-.937.247-5.249 2.316-5.961 3.235-1.114 10.906 2.792 11.726-8.464.424-5.85-2.527-7.409-2.515-10.609 0 0 .256 1.607-15.346.606s-20.673 12.366-21.045 18.734 2.824 16.834 13.489 18.272c1.767.239 9.195-5.523 9-6.279s-2.995-.714-2.589-2.913c.339-1.832 1.497-2.507 3.272-2.539z" fill="#263238"/></g><g data-name="Group"><g data-name="Group"><path data-name="Path" d="M257.256 430.552l-45.098-27.033c-2-1.2-3.629-4.423-3.629-7.2v-34.817c0-2.773 1.624-4.05 3.629-2.848l45.1 27.034c2 1.2 3.629 4.423 3.629 7.2v34.814c-.002 2.778-1.627 4.052-3.631 2.85z" fill="#efefef"/><path data-name="Path" d="M252.793 375.319l-45.1-27.033a2.238 2.238 0 00-2.328-.194v-.031l-4.372 2.625 3.075 1.162v34.1c0 2.774 1.624 6 3.629 7.2l43.106 25.841v4l4.418-2.641-.023-.009a3.394 3.394 0 001.226-3v-34.821c-.002-2.775-1.626-5.997-3.631-7.199z" fill="#173d7a"/><path data-name="Path" d="M248.339 422.848l-45.098-27.033c-2-1.2-3.629-4.423-3.629-7.2v-34.817c0-2.773 1.624-4.05 3.629-2.848l45.1 27.034c2 1.2 3.629 4.423 3.629 7.2v34.814c-.002 2.776-1.627 4.051-3.631 2.85z" fill="#5793ce"/><path data-name="Path" d="M248.339 377.984l-45.098-27.033a2.079 2.079 0 00-2.808.195 2.639 2.639 0 011.6.424l45.1 27.038c2 1.2 3.629 4.423 3.629 7.2v34.81a3.905 3.905 0 01-.819 2.653c1.2-.1 2.027-1.3 2.027-3.272v-34.817c-.002-2.774-1.627-5.996-3.631-7.198z" fill="#fff"/></g><g data-name="Group"><path data-name="Path" d="M218.406 383.815c0 2.015-1.362 2.831-3.043 1.824a7.037 7.037 0 01-3.043-5.469c0-2.014 1.362-2.83 3.043-1.824a7.033 7.033 0 013.043 5.469zm9.219 5.525c0 2.015-1.362 2.831-3.043 1.824a7.037 7.037 0 01-3.043-5.469c0-2.014 1.362-2.83 3.043-1.824a7.037 7.037 0 013.043 5.469zm9.219 5.525c0 2.015-1.362 2.831-3.043 1.824a7.04 7.04 0 01-3.043-5.469c0-2.014 1.362-2.83 3.043-1.824a7.043 7.043 0 013.043 5.469z" fill="#fff"/></g></g><g data-name="Group"><g data-name="Group"><path data-name="Path" d="M337.725 472.803l-48.028-26.851a8.887 8.887 0 01-3.865-7.15v-77.828c0-2.755 1.729-4.023 3.865-2.829l48.028 26.851a8.887 8.887 0 013.865 7.15v77.826c-.002 2.759-1.731 4.024-3.865 2.831z" fill="#efefef"/><path data-name="Path" d="M332.971 374.698l-48.028-26.851a2.529 2.529 0 00-2.483-.193v-.029l-4.656 2.607s2.063.728 3.274 1.158v77.113a8.885 8.885 0 003.865 7.15l45.906 25.664v3.975l4.706-2.624-.025-.009a3.276 3.276 0 001.305-2.983v-77.828a8.887 8.887 0 00-3.864-7.15z" fill="#787fa7"/><path data-name="Path" d="M328.228 465.151L280.2 438.3a8.887 8.887 0 01-3.865-7.15v-77.828c0-2.755 1.729-4.023 3.865-2.829l48.028 26.851a8.887 8.887 0 013.865 7.15v77.828c-.002 2.755-1.731 4.022-3.865 2.829z" fill="#787fa7"/><path data-name="Path" d="M328.227 377.346L280.2 350.495a2.33 2.33 0 00-2.991.194 2.969 2.969 0 011.7.421l48.032 26.851a8.887 8.887 0 013.865 7.15v77.826a3.71 3.71 0 01-.873 2.635c1.275-.1 2.159-1.288 2.159-3.25v-77.826c-.001-2.757-1.731-5.958-3.865-7.15z" fill="#fff"/></g><g data-name="Group"><path data-name="Path" d="M311.22 387.892c0 4.327-3.136 6.08-7.006 3.916s-7.007-7.425-7.007-11.752 3.136-6.08 7.006-3.916 7.007 7.427 7.007 11.752zm2.921 12.231c-.009-.067-.02-.134-.03-.2-.3-1.822-2.081-3.423-3.257-3.018-1.816.627-4.126.319-6.643-1.087a20.506 20.506 0 01-6.643-6.34c-1.173-1.72-2.956-2.112-3.254-.624-.011.055-.021.11-.03.167l-3.324 20.433 26.5 14.816z" fill="#fff"/></g><g data-name="Group"><path data-name="Path" d="M319.34 439.825l-32.174-17.988v-2.245l32.174 17.988zm-9.715 4.378l-22.459-12.553v-2.247l22.459 12.557zm-3.029-6.597l-19.43-10.862v-2.247l19.43 10.864zm12.744 7.125l-9.715-5.431v-2.245l9.715 5.431z" fill="#fff"/></g></g><g data-name="Group"><g data-name="Group"><path data-name="Path" d="M337.725 362.883l-48.028-26.851a8.887 8.887 0 01-3.865-7.15v-77.828c0-2.755 1.729-4.023 3.865-2.829l48.028 26.851a8.887 8.887 0 013.865 7.15v77.828c-.002 2.755-1.731 4.022-3.865 2.829z" fill="#efefef"/><path data-name="Path" d="M332.971 264.778l-48.028-26.851a2.529 2.529 0 00-2.483-.193v-.031l-4.656 2.608s2.063.728 3.274 1.158v77.112a8.885 8.885 0 003.865 7.15l45.907 25.661v3.974l4.706-2.624-.025-.009a3.276 3.276 0 001.305-2.983v-77.824a8.884 8.884 0 00-3.865-7.148z" fill="#5793ce"/><path data-name="Path" d="M328.228 355.231L280.2 328.38a8.887 8.887 0 01-3.865-7.154v-77.822c0-2.755 1.729-4.023 3.865-2.829l48.028 26.851a8.887 8.887 0 013.865 7.15v77.828c-.002 2.753-1.731 4.022-3.865 2.827z" fill="#d4ecff"/><path data-name="Path" d="M328.227 267.425L280.2 240.574a2.33 2.33 0 00-2.991.194 2.969 2.969 0 011.7.421l48.032 26.851a8.886 8.886 0 013.868 7.148v77.826a3.71 3.71 0 01-.873 2.635c1.275-.1 2.159-1.288 2.159-3.25v-77.826a8.891 8.891 0 00-3.868-7.148z" fill="#fff"/></g><g data-name="Group"><path data-name="Path" d="M319.414 285l-32.176-17.988v-2.245l32.176 17.988zm-9.715 4.378l-22.461-12.555v-2.245l22.461 12.557zm-3.03-6.597l-19.431-10.864v-2.245l19.431 10.862zm12.745 7.125l-9.715-5.431v-2.245l9.715 5.431z" fill="#5793ce"/></g><g data-name="Group"><path data-name="Path" d="M319.414 303.949l-32.176-17.986v-2.247l32.176 17.988zm-9.715 4.378l-22.461-12.553v-2.247l22.461 12.557zm-3.03-6.597l-19.431-10.862v-2.247l19.431 10.864zm12.745 7.127l-9.715-5.433v-2.245l9.715 5.431z" fill="#5793ce"/></g><g data-name="Group"><path data-name="Path" d="M319.414 322.899l-32.176-17.988v-2.247l32.176 17.988zm-9.715 4.378l-22.461-12.555v-2.245l22.461 12.557zm-3.03-6.597l-19.431-10.864v-2.245l19.431 10.862zm12.745 7.125l-9.715-5.431v-2.247l9.715 5.433z" fill="#5793ce"/></g></g><g data-name="Group"><path data-name="Path" d="M222.835 319.075L201.691 306.9v-1.968l21.144 12.174zm13.104 7.545l-9.029-5.199v-1.968l9.029 5.2zm-12.376-2.841l-9.029-5.199v-1.968l9.029 5.2zm19.556 11.259l-16.209-9.332v-1.968l16.209 9.334zm11.095 10.674l-23.974-13.803v-1.967l23.974 13.8zm-5.36-11.655l-9.029-5.199v-1.968l9.029 5.2zm-38.134-17.672l-9.029-5.199v-1.968l9.029 5.2zm15.649 13.294l-24.722-14.232v-1.968l24.722 14.234zm-9.519-1.194l-14.914-8.586v-1.968l14.914 8.586z" fill="#fff"/></g><g data-name="Group"><path data-name="Path" d="M325.131 221.356l-118.953-70.851c-7.703-4.592-13.947-16.9-13.947-27.5 0-10.591 6.244-15.461 13.947-10.873l118.953 70.855c7.7 4.588 13.947 16.9 13.947 27.492-.002 10.597-6.247 15.465-13.947 10.877z" fill="#efefef"/><path data-name="Path" d="M336.15 203.514c0-10.6-6.244-22.9-13.947-27.492l-118.954-70.855c-3.585-2.135-6.842-2.199-9.311-.614l.01-.036-5.86 3.529 2.695.307a18.281 18.281 0 00-1.482 7.687c0 10.6 6.244 22.9 13.947 27.492l118.953 70.855a11.89 11.89 0 004.311 1.624l-.721 2.459 5.779-3.475h-.049c2.836-1.818 4.629-5.822 4.629-11.481z" fill="#787fa7"/><path data-name="Path" d="M316.508 217.813l-118.953-70.851c-7.703-4.592-13.947-16.9-13.947-27.5 0-10.591 6.244-15.461 13.947-10.873l118.953 70.855c7.7 4.588 13.947 16.9 13.947 27.492 0 10.595-6.247 15.465-13.947 10.877z" fill="#787fa7"/><path data-name="Path" d="M317.691 178.65l-118.953-70.855c-3.919-2.335-7.456-2.21-9.989-.139 2.4-1.264 5.465-1.059 8.806.932l118.953 70.856c7.7 4.588 13.947 16.9 13.947 27.492 0 5.2-1.512 9.016-3.958 11.016 3.136-1.65 5.141-5.81 5.141-11.81 0-10.595-6.244-22.904-13.947-27.492z" fill="#fff"/></g><g data-name="Group"><path data-name="Path" d="M283.079 136.606l-75.66-42.408c-7.907-4.437-14.317-16.341-14.317-26.587 0-10.246 6.41-14.956 14.317-10.519l75.66 42.408c7.907 4.437 14.317 16.341 14.317 26.587 0 10.248-6.41 14.958-14.317 10.519z" fill="#efefef"/><path data-name="Path" d="M293.785 119.317c0-10.246-6.41-22.15-14.317-26.587l-75.662-42.408c-3.68-2.065-7.024-2.127-9.559-.6l.01-.035-6.015 3.419 2.766.3a16.8 16.8 0 00-1.521 7.434c0 10.246 6.41 22.15 14.317 26.587l75.662 42.409a12.641 12.641 0 004.425 1.569l-.74 2.378 5.931-3.361h-.048c2.908-1.758 4.751-5.631 4.751-11.105z" fill="#5793ce"/><path data-name="Path" d="M273.621 133.146L197.96 90.738c-7.907-4.437-14.317-16.341-14.317-26.587 0-10.246 6.41-14.956 14.317-10.519l75.661 42.408c7.908 4.437 14.322 16.341 14.322 26.587 0 10.246-6.413 14.956-14.322 10.519z" fill="#d4ecff"/><path data-name="Path" d="M274.835 95.273l-75.661-42.408c-4.023-2.258-7.654-2.137-10.254-.134 2.466-1.222 5.61-1.024 9.04.902l75.66 42.408c7.907 4.437 14.317 16.341 14.317 26.587 0 5.033-1.552 8.719-4.063 10.654 3.22-1.6 5.277-5.618 5.277-11.421.002-10.247-6.407-22.151-14.316-26.588z" fill="#fff"/></g><g data-name="Group"><path data-name="Path" d="M242.744 94.987l-29.641-18.248V74.46l29.641 18.248zm23.554 14.483l-20.691-12.737v-2.279l20.691 12.739zm-35.295-16.734l-17.9-11.021v-2.279l17.9 11.021zm11.741 7.227l-8.951-5.509v-2.279l8.951 5.509z" fill="#5793ce"/></g><g data-name="Group"><path data-name="Path" d="M309.038 195.63l-29.641-16.663v-2.079l29.641 16.661zm-32.403-18.216l-20.691-11.631v-2.079l20.691 11.629zm20.662 16.158l-17.9-10.06v-2.081l17.9 10.062zm11.74 6.601l-8.949-5.032v-2.079l8.949 5.03zm-32.402-18.247l-8.949-5.031v-2.079l8.949 5.03z" fill="#fff"/></g><g data-name="Group"><path data-name="Path" d="M133.464 203.996l-4.642-2.876.767-1.5 4.642 2.873zm-8.737-5.408l.767-1.5-1.763-1.093c-.243.512-.451 1.038-.684 1.553zm17.472 10.815l-4.642-2.876.767-1.5 4.642 2.874zm8.735 5.406l-4.642-2.874.767-1.5 4.642 2.873zm8.737 5.408l-4.644-2.876.767-1.5 4.642 2.873zm8.734 5.407l-4.642-2.876.765-1.5 4.644 2.874zm8.735 5.408l-4.642-2.876.767-1.5 4.642 2.873zm8.735 5.406l-4.642-2.876.767-1.5 4.642 2.874zm8.737 5.407l-4.644-2.874.767-1.5 4.642 2.873z" fill="#5793ce"/></g><g data-name="Group"><path data-name="Path" d="M217.86 216.105l-4.556-2.806.931-1.357 3.625 2.232zm8.573 5.28l-4.556-2.806v-1.931l4.556 2.806zm8.573 5.279l-4.556-2.806v-1.931l4.556 2.806zm8.573 5.279l-4.556-2.806v-1.931l4.556 2.806zm8.573 5.279l-4.556-2.806v-1.931l4.556 2.806zm8.571 5.279l-4.556-2.806v-1.929l4.556 2.8z" fill="#5793ce"/></g><path data-name="Path" d="M253.481 163.691l-17.332-11.03v-2.45l17.332 11.033z" fill="#fff"/></g></svg>