<svg xmlns="http://www.w3.org/2000/svg" width="626.309" height="521.095"><defs><linearGradient id="b" x1=".453" y1=".971" x2=".613" y2=".032" gradientUnits="objectBoundingBox"><stop offset="0" stop-color="#05d0f2"/><stop offset="1" stop-color="#1238a9"/></linearGradient><linearGradient id="c" x1=".776" y1=".122" x2=".16" y2=".977" gradientUnits="objectBoundingBox"><stop offset="0" stop-color="#1053b6"/><stop offset="1" stop-color="#05caef"/></linearGradient><filter id="a" x="0" y="155.269" width="626.309" height="365.826" filterUnits="userSpaceOnUse"><feOffset dy="3"/><feGaussianBlur stdDeviation="24.5" result="blur"/><feFlood flood-color="#c2e8f7"/><feComposite operator="in" in2="blur"/><feComposite in="SourceGraphic"/></filter></defs><g data-name="2905211"><g transform="translate(.001 -.001)" filter="url(#a)"><path data-name="Floor_11_" d="M100.885 429.758c93.586 42.727 245.326 42.727 338.923 0s93.585-112.008 0-154.735-245.337-42.727-338.923 0-93.597 112.008 0 154.735z" transform="translate(42.81 -17.21)" fill="url(#b)"/></g><ellipse cx="45.849" cy="26.467" rx="45.849" ry="26.467" fill="#e0e0e0" transform="translate(437.895 316.429)"/><path d="M189.787 110.326c-4.488 2.6-8.144 9.558-8.144 15.554 0 5.337 2.912 8.106 6.712 6.808v113.295l-41.3-86.648a7.326 7.326 0 01-.086-5.29c10.426-24.128 18.122-51.311 20.748-79.2a6.334 6.334 0 012.769-4.354l38.574-22.275a1.738 1.738 0 012.807 1.442c2.588 24.128 9.978 42.03 19.984 54.07a5.923 5.923 0 011.06 4.974 941298.632 941298.632 0 00-41.7 135.62v-113.3a20.255 20.255 0 006.712-14.551c-.001-6.001-3.639-8.742-8.136-6.145z" fill="#27debf"/><path d="M251.812 119.617l-41.7 135.62-2.845-1.652v3.3l-18.911-10.9-41.3-86.648a7.326 7.326 0 01-.086-5.29c10.426-24.128 18.122-51.311 20.748-79.2a6.334 6.334 0 012.769-4.354l38.574-22.275a5.562 5.562 0 015.032 0l13.864 8a6.4 6.4 0 012.807 4.344c2.588 24.137 9.978 42.04 19.984 54.08a5.9 5.9 0 011.064 4.975z" fill="#27debf"/><path d="M216.827 127.38c0 5.347-2.893 11.458-6.712 14.551v113.3l-2.845-1.652V143.583c-3.819 1.3-6.712-1.451-6.712-6.789 0-6 3.638-12.966 8.144-15.563 4.487-2.597 8.125.162 8.125 6.149z" opacity=".15"/><path d="M251.81 119.617l-41.7 135.62V141.931c3.819-3.094 6.712-9.195 6.712-14.551 0-5.987-3.638-8.746-8.125-6.149s-8.144 9.558-8.144 15.563c0 5.337 2.893 8.1 6.712 6.789v113.3l-41.3-86.629a7.277 7.277 0 01-.086-5.29c10.426-24.128 18.132-51.311 20.757-79.21a6.334 6.334 0 012.769-4.354l38.564-22.266a1.731 1.731 0 012.8 1.442c2.587 24.137 9.978 42.04 19.984 54.08a5.87 5.87 0 011.057 4.961z" fill="#05caef"/><path d="M187.41 83.525a5.568 5.568 0 00-.783 2.225c-2.616 27.9-10.331 55.082-20.757 79.21a6.993 6.993 0 00-.439 2.893l-18.9-10.913a7.11 7.11 0 01.439-2.912c10.436-24.128 18.132-51.311 20.748-79.2a5.535 5.535 0 01.792-2.234z" fill="#114db3" opacity=".25"/><path d="M230.701 60.162a1.68 1.68 0 00-2.721-1.031l-38.575 22.275a5.724 5.724 0 00-1.986 2.129l-18.9-10.923a5.984 5.984 0 011.976-2.12l38.579-22.274a5.6 5.6 0 015.051 0l13.854 8a6.436 6.436 0 012.722 3.944z" fill="#114db3" opacity=".15"/><path d="M159.244 35.9l61.1-35.28a5.562 5.562 0 015.032 0l13.864 8.011a5.565 5.565 0 012.521 4.363v26.917a5.565 5.565 0 01-2.521 4.363l-61.1 35.28a5.562 5.562 0 01-5.032 0l-13.864-8.011a5.565 5.565 0 01-2.521-4.363V40.264a5.565 5.565 0 012.521-4.364z" fill="#114db3"/><path d="M241.738 12.584c-.172-1.3-1.232-1.776-2.5-1.05l-61.088 35.27a4.974 4.974 0 00-1.776 1.881l-18.916-10.913a5.166 5.166 0 011.8-1.881L220.338.602a5.562 5.562 0 015.032 0l13.868 8.01a5.7 5.7 0 012.5 3.972z" fill="#fff" opacity=".4"/><path d="M177.738 79.745c-.019.01-.038.01-.057.019-.048.01-.1.038-.153.048a.487.487 0 01-.162.067.8.8 0 01-.248.067c-.1.019-.2.048-.306.067-.057.01-.124.019-.21.038-.143.019-.286.048-.43.057a5.323 5.323 0 01-3.074-.573l-13.864-8a5.565 5.565 0 01-2.521-4.363V40.245a5.067 5.067 0 01.735-2.473l18.915 10.913a5.011 5.011 0 00-.745 2.473v26.925c0 1.136.573 1.8 1.394 1.8a1.266 1.266 0 00.363-.048 1.365 1.365 0 00.363-.09zm29.532 177.134l-18.915-10.904-41.286-86.638a6.5 6.5 0 01-.535-2.387l18.9 10.913a6.45 6.45 0 00.535 2.4zm2.845-114.948v113.3l-2.845-1.652V143.583c-3.819 1.3-6.712-1.451-6.712-6.789 0-.124 0-.248.01-.372z" opacity=".15"/><g transform="translate(101.459 105.133)" fill="#1240ad"><path d="M195.992 4.22c0-3.074-2.158-4.325-4.822-2.788a10.661 10.661 0 00-4.822 8.354c0 2.492 1.423 3.752 3.38 3.342-2.721 56.916-42.555 123.99-91.155 152.042-24.147 13.94-46.785 16.232-63.742 6.445-16.012-9.242-25.226-28.272-26.2-53.851a10.794 10.794 0 003.447-7.3c0-3.074-2.158-4.325-4.822-2.788a10.661 10.661 0 00-4.822 8.355c0 2.626 1.575 3.905 3.7 3.265 1.3 25.77 10.923 45.009 27.422 54.538a48.528 48.528 0 0024.6 6.33c12.823 0 27.021-4.287 41.715-12.766 49.716-28.7 90.391-97.657 92.5-155.69a10.886 10.886 0 003.621-7.488z"/><path d="M191.17 107.854a10.8 10.8 0 00-4.631 6.77L11.82 215.498c-.621-1.891-2.425-2.483-4.573-1.241a10.661 10.661 0 00-4.822 8.355c0 3.075 2.158 4.325 4.822 2.788a10.831 10.831 0 004.688-7l174.6-100.808c.563 2.024 2.416 2.693 4.631 1.413a10.661 10.661 0 004.822-8.355c.003-3.085-2.154-4.333-4.818-2.796zm-177.182 5.318a6.865 6.865 0 11-6.865-6.865 6.866 6.866 0 016.865 6.865z"/><circle cx="6.865" cy="6.865" r="6.865" transform="translate(0 212.825)"/><path d="M198.417 113.612a6.865 6.865 0 11-6.865-6.865 6.866 6.866 0 016.865 6.865zm-.63-106.747A6.865 6.865 0 11190.922 0a6.866 6.866 0 016.865 6.865z"/></g><path d="M398.929 357.878c-1.413 3.122-6.6 3.848-9.605 3.943-4.583.153-8.8-1.91-12.871-3.762-2.864-1.3-5.643-2.788-8.469-4.182-2.8-1.375-5.633-2.988-8.7-3.676-3.657-.821-10.083-1.222-11.353 3.428-1.375 5.022 5.519 9.242 8.765 11.658 3.16 2.349 7.705 5.07 9.29 8.908 1.929 4.669-4.411 6.139-7.753 6.321-9.491.506-18.819-2.607-27.546-6.006-12.517-4.879-24.978-10.226-38.077-13.386-10.952-2.645-28-5.27-34.335 6.922-.124.239.267.7.43.42 6.865-11.267 22.581-8.937 33.4-6.321 13.243 3.2 25.808 8.641 38.469 13.549 8.469 3.275 17.358 6.13 26.534 5.967 4.192-.076 12.651-1.852 10.035-7.934-1.356-3.16-4.583-5.5-7.218-7.524-3.246-2.492-6.922-4.793-9.481-8.049-1.633-2.072-2.148-5.1.64-6.55 2.377-1.232 5.662-.812 8.154-.2 3.819.936 7.438 3.141 10.932 4.908 3.227 1.623 6.474 3.189 9.815 4.574a21.351 21.351 0 0011.935 1.785c2.759-.458 6.865-1.461 8-4.392.229-.582-.754-.936-.993-.4z" fill="#fff"/><path d="M465.527 165.83c-4.889 5.843-12.957 13.73-17.54 19.478a16.693 16.693 0 00-3.714 10.617c.038 2.864.821 5.251 3.619 4.029 2.024-.878 3.3-1.929 6.254-4.841 2.654-2.616 15.487-14.647 15.487-14.647s2.406-14.78 6.369-15.983 7.342-7.533 7.342-7.533c-6.465-.649-11.621 1.471-17.817 8.88z" fill="#9a4a4d"/><path d="M304.383 336.951c.01-.038.029-.076.038-.115l60.086-222.812c.01-.01.01-.01.01-.019l.019-.057a1.719 1.719 0 01.057-.162 3.368 3.368 0 01.43-.9 5.28 5.28 0 01.688-.869 7.726 7.726 0 013.58-1.89c5.347-1.423 12.842.611 16.747 4.526a6.907 6.907 0 012.3 4.583 4.028 4.028 0 01-.143 1.184l-59.5 220.654-.621 2.311h-.01v.01c-.449 1.728-2.081 3.132-4.726 3.857-5.366 1.413-12.88-.611-16.776-4.526-1.962-1.956-2.656-4.026-2.179-5.775z" transform="translate(90.871 -11.182)" fill="url(#c)"/><path d="M397.271 357.506l1.509-5.987a.984.984 0 01.792-.678 3.191 3.191 0 012.759.745 1 1 0 01.353.955l-1.49 5.977a2.088 2.088 0 01-.516.869 2.026 2.026 0 01-2.874-.01 1.989 1.989 0 01-.533-1.871z" fill="#455a64"/><path d="M397.221 357.897v-.019c.01-.115.019-.239.038-.353.009-.01 0-.019.009-.019.439 1.232 2.845 2.034 3.877 1.136a.4.4 0 01-.038.115.959.959 0 01-.038.1 1.721 1.721 0 01-.382.535 2.026 2.026 0 01-2.874-.019 1.9 1.9 0 01-.592-1.476z" fill="#263238"/><path d="M397.211 346.545a10.935 10.935 0 009.567 2.587 3.961 3.961 0 002.416-1.537l8.88-13.759a7.462 7.462 0 01-3.886 2.244c-5.366 1.423-12.871-.611-16.776-4.526a7.312 7.312 0 01-2.253-4.048l.726 16.337c0 .1.01.22.019.325a4.131 4.131 0 001.307 2.377z" fill="#e0e0e0"/><path d="M397.803 339.345a13.631 13.631 0 0011.878 3.208c1.871-.506 3.027-1.509 3.351-2.731.363-1.241-.1-2.7-1.5-4.115a13.524 13.524 0 00-11.859-3.218c-1.91.506-3.074 1.518-3.39 2.769-.342 1.242.145 2.712 1.52 4.087z" opacity=".1"/><path d="M397.211 346.545a10.935 10.935 0 009.567 2.587 3.961 3.961 0 002.416-1.537l8.88-13.759a7.462 7.462 0 01-3.886 2.244c-5.366 1.423-12.871-.611-16.776-4.526a7.312 7.312 0 01-2.253-4.048l.726 16.337c0 .1.01.22.019.325a4.131 4.131 0 001.307 2.377z" fill="#e0e0e0"/><path d="M396.895 351.328h-.019l-.668-14.9a2.819 2.819 0 01-.019-.4c0-1.575 1.213-2.912 3.485-3.514a13.552 13.552 0 0111.83 3.2c1.595 1.6 1.986 3.294 1.318 4.64a.856.856 0 00-.048.086l-.229.344-8.173 12.651h-.009a2.255 2.255 0 01-1.365.878 6.16 6.16 0 01-5.385-1.461 2.186 2.186 0 01-.718-1.524z" fill="#27debf"/><path d="M396.895 351.328h-.019l-.668-14.9a2.819 2.819 0 01-.019-.4c0-1.575 1.213-2.912 3.485-3.514a13.552 13.552 0 0111.83 3.2c1.595 1.6 1.986 3.294 1.318 4.64a.856.856 0 00-.048.086l-.229.344-8.173 12.651h-.009a2.255 2.255 0 01-1.365.878 6.16 6.16 0 01-5.385-1.461 2.186 2.186 0 01-.718-1.524z" opacity=".1"/><path d="M397.803 339.345a13.631 13.631 0 0011.878 3.208c1.871-.506 3.027-1.509 3.351-2.731.363-1.241-.1-2.7-1.5-4.115a13.524 13.524 0 00-11.859-3.218c-1.91.506-3.074 1.518-3.39 2.769-.342 1.242.145 2.712 1.52 4.087z" fill="#27debf"/><path d="M397.803 339.345a13.631 13.631 0 0011.878 3.208c1.871-.506 3.027-1.509 3.351-2.731.363-1.241-.1-2.7-1.5-4.115a13.524 13.524 0 00-11.859-3.218c-1.91.506-3.074 1.518-3.39 2.769-.342 1.242.145 2.712 1.52 4.087z" fill="#27debf"/><path d="M396.275 335.269a3.894 3.894 0 012.568-2.5 20.046 20.046 0 0013.31 3.666 3.8 3.8 0 01.878 3.4c-.325 1.222-1.47 2.215-3.351 2.731a13.6 13.6 0 01-11.878-3.208c-1.374-1.387-1.861-2.858-1.527-4.089z" opacity=".05"/><path d="M397.622 352.847a6.174 6.174 0 005.395 1.451 2.258 2.258 0 001.356-.878h.019l3.943-6.111a3.842 3.842 0 01-1.976 1.127 9.914 9.914 0 01-8.641-2.32 3.691 3.691 0 01-1.155-2.081l.325 7.3h.019a2.09 2.09 0 00.715 1.512z" fill="#27debf"/><path d="M456.342 130.054a2.147 2.147 0 011.69-1.384 6.779 6.779 0 015.92 1.6 2.134 2.134 0 01.764 2.053l-9.787 36.149a2.285 2.285 0 00-.8-1.824 6.828 6.828 0 00-5.958-1.614 2.234 2.234 0 00-1.633 1.222z" fill="#fafafa"/><path d="M457.106 132.097a6.806 6.806 0 005.929 1.6 2.147 2.147 0 001.671-1.365 2.1 2.1 0 00-.754-2.053 6.73 6.73 0 00-5.92-1.6 2.117 2.117 0 00-1.69 1.384 2.162 2.162 0 00.764 2.034z" fill="#e0e0e0"/><path d="M453.649 113.975l.029-.105c.01-.048.029-.105.038-.153l2.817-10.388.086-.334.019-.076h.01c.506-1.461 1.929-2.664 4.211-3.265a17.256 17.256 0 0115.067 4.077c1.766 1.776 2.377 3.638 1.938 5.223l-2.861 10.568c-.01.029-.01.048-.019.076l-.019.086c-.468 1.518-1.919 2.759-4.258 3.38a17.256 17.256 0 01-15.067-4.077c-1.695-1.699-2.325-3.485-1.991-5.012z" fill="#27debf"/><path d="M453.649 113.975l.029-.105c.01-.048.029-.105.038-.153l2.817-10.388.086-.334.019-.076h.01c.506-1.461 1.929-2.664 4.211-3.265a17.256 17.256 0 0115.067 4.077c1.766 1.776 2.377 3.638 1.938 5.223l-2.861 10.568c-.01.029-.01.048-.019.076l-.019.086c-.468 1.518-1.919 2.759-4.258 3.38a17.256 17.256 0 01-15.067-4.077c-1.695-1.699-2.325-3.485-1.991-5.012z" fill="#114db3" opacity=".5"/><path d="M400.563 336.51l4.077-15.067 41.7-154.907a.046.046 0 01.019-.057l.086-.325a2.257 2.257 0 011.633-1.222 6.849 6.849 0 015.958 1.614 2.273 2.273 0 01.8 1.824.013.013 0 010 .019l-.115.411-41.706 154.897-4.069 15.083a2.147 2.147 0 01-1.671 1.365 6.8 6.8 0 01-4.516-.611c-.2-.1-.372-.2-.554-.306a4.721 4.721 0 01-.859-.678 2.181 2.181 0 01-.783-2.04z" fill="#455a64"/><path d="M447.175 168.361a6.807 6.807 0 005.929 1.6 2.147 2.147 0 001.671-1.365 2.1 2.1 0 00-.754-2.053 6.738 6.738 0 00-5.92-1.6 2.117 2.117 0 00-1.69 1.384 2.14 2.14 0 00.764 2.034zM400.563 336.51l.621-2.282a20.9 20.9 0 008.383 2.263l-.621 2.292a2.147 2.147 0 01-1.671 1.365 6.8 6.8 0 01-4.516-.611 5.169 5.169 0 01-1.413-.983 2.181 2.181 0 01-.783-2.044z" fill="#263238"/><path d="M457.525 108.647c3.9 3.915 11.41 5.939 16.776 4.526 2.645-.716 4.278-2.12 4.726-3.857.516-1.747-.143-3.819-2.12-5.815-3.877-3.943-11.391-5.967-16.747-4.545-2.693.716-4.344 2.148-4.793 3.915-.476 1.756.221 3.828 2.158 5.776z" fill="#e0e0e0"/><path d="M457.851 107.472c3.9 3.915 11.41 5.939 16.776 4.526 2.645-.716 4.278-2.12 4.726-3.857l.029-.076.64-2.311c.01-.057.019-.086.029-.134.029-.124.048-.239.067-.372a3.007 3.007 0 00.038-.506c0-.105 0-.21-.01-.325a.061.061 0 000-.057c-.01-.1-.019-.21-.038-.325a5.154 5.154 0 00-.4-1.423 4.76 4.76 0 00-.191-.4.8.8 0 00-.105-.2 2.024 2.024 0 00-.2-.344 8.557 8.557 0 00-1.356-1.69c-3.9-3.924-11.4-5.948-16.738-4.535a7.77 7.77 0 00-3.59 1.9l-.019.019a4.613 4.613 0 00-.353.4l-.3.411c-.057.086-.105.181-.153.267l-.1.162a2.294 2.294 0 00-.143.353l-.029.076c-.038.115-.086.229-.115.353l-.554 2.015a1.338 1.338 0 00-.086.277c-.461 1.776.234 3.848 2.175 5.796z" fill="#27debf"/><path d="M458.509 105.152c3.9 3.915 11.41 5.939 16.766 4.526 2.645-.716 4.277-2.12 4.726-3.848.516-1.747-.143-3.819-2.12-5.815-3.877-3.934-11.381-5.968-16.747-4.545-2.693.716-4.335 2.148-4.793 3.915-.463 1.738.23 3.819 2.168 5.767z" fill="#114db3" opacity=".3"/><path d="M488.815 151.555a19.182 19.182 0 0019.182-19.182v-1.06a16.251 16.251 0 00-16.255-16.25h-5.843a16.25 16.25 0 00-16.251 16.251v1.06a19.16 19.16 0 0019.167 19.181z" fill="#263238"/><path d="M515.778 153.503a8.7 8.7 0 01-8.708-8.708v-17.32a8.7 8.7 0 018.708 8.708zm-46.703 187.761a51.07 51.07 0 01-7.314 6.369 3.125 3.125 0 00-1.012 1.05c-.344.716-.878 2.492 2.387 3.638a12.185 12.185 0 0010.092-.964c2.683-1.681 2.807-5.185 5.347-7.18 1.881-1.48 4.23-1.862 5.748-3.791 1.06-1.346.783-3.132.229-5.347-.6-2.416-.879-4.249-1.68-4.067l.134 1.117c-1 1.595-6.178 2.062-8.479.964-.006-.01-3.997 6.617-5.452 8.211z" fill="#263238"/><path d="M466.806 343.527v-.019a41.728 41.728 0 002.272-2.244 63.212 63.212 0 004.23-6.225 9.5 9.5 0 001.8-4.554c.057-2.139-.153-5.948-.153-5.948l7.667-.506.372 8.049c.2 1.824-1.308 3.447-3.981 5.738s-6.063 7.667-8.479 9.013-4.144 1.3-5.175.611c-1.045-.716-1.15-1.261 1.447-3.915z" fill="#b16668"/><path d="M494.62 348.931a51.069 51.069 0 01-7.314 6.368 3.126 3.126 0 00-1.012 1.05c-.344.716-.878 2.492 2.387 3.638a12.185 12.185 0 0010.092-.964c2.683-1.68 2.807-5.185 5.347-7.18 1.881-1.48 4.23-1.862 5.748-3.791 1.06-1.346.783-3.132.229-5.347-.6-2.416-.878-4.249-1.68-4.067l.134 1.117c-1 1.595-6.178 2.062-8.479.964-.02-.009-4.006 6.618-5.452 8.212z" fill="#263238"/><path d="M492.347 351.194v-.019a41.728 41.728 0 002.272-2.244 63.2 63.2 0 004.23-6.225 10.8 10.8 0 001.8-4.631c.134-1.881.038-5.786.038-5.786l7.667.038.191 7.419c.2 1.824-1.308 3.437-3.982 5.738s-6.063 7.667-8.479 9.013-4.144 1.3-5.175.611c-1.064-.715-1.169-1.259 1.438-3.914z" fill="#b16668"/><path d="M508.438 208.06c6.684 14.6-.917 69.949-.917 69.949.2 2.368 2.291 6.053 2.53 13.291.315 9.29-1.337 43.587-1.337 43.587a9.7 9.7 0 01-8.746.172s-7.915-46.566-9.462-58.806c-1.346-10.694-3.934-35.815-3.934-35.815l-5.318 35.757s2.731 5.967 2.874 11.362c.191 7.237-.878 40.818-.878 40.818s-3.237 1.136-8.889.306c0 0-8.049-45.448-8.813-54.118-.449-5.175 3.418-68.688 3.418-68.688z" fill="#1147b0"/><path d="M486.581 240.428l-2.167-11.935s-9.176-1.9-13.348-5.815c0 0 4.363 5.433 10.856 7.209l2.435 10.436-2.406 31.2z" fill="#263238"/><path d="M495.393 157.294c5.862.812 9.013 2.1 10.9 7.619 1.241 3.609.907 8.908-.344 12.517l-5.127 14.981a80.281 80.281 0 017.61 15.659c-14.981 8.364-34.955 3.915-39.462-2.186-.191-1.3 1.022-7.552.659-14.2-.391-7.085-1.528-15.21-.411-19.583 2.062-8.125 7.734-13.424 14.122-15.143z" fill="#05ccf0"/><path d="M475.948 122.816c-2.024 1.193-4.526 6.292-4.287 16.976.21 9.051 3.141 11.286 4.621 11.935s4.316.248 7.075-.21v5.433s-3.819 4.43-3.581 6.922 5.509 3.084 9.09.649a23.161 23.161 0 005.863-6.139v-13.128s1.862 2.492 4.917.468 3.17-7.037 1.394-8.841-5.6-1.232-6.311 1.26c0 0-4.4.162-10.274-3.065a16.509 16.509 0 01-8.507-12.26z" fill="#b16668"/><path d="M481.768 137.523a1.138 1.138 0 101.194-1.127 1.157 1.157 0 00-1.194 1.127z" fill="#263238"/><path d="M481.463 145.187l-2.645.84a1.36 1.36 0 001.719.945 1.442 1.442 0 00.926-1.785z" fill="#9a4a4d"/><path d="M472.43 134.024l2.3-1.594a1.343 1.343 0 00-1.91-.391 1.465 1.465 0 00-.39 1.985zm.535 2.675a1.138 1.138 0 101.194-1.127 1.157 1.157 0 00-1.194 1.127z" fill="#263238"/><path d="M478.331 136.04l-.181 6.855-3.6-1.117zm5.022 15.479c2.912-.382 8.9-2.1 9.834-4.468a6.139 6.139 0 01-2.1 3.017c-1.785 1.537-7.734 3.265-7.734 3.265v-1.814z" fill="#9a4a4d"/><path d="M437.283 201.405c1.776.668 3.561.716 6 1.862a11.4 11.4 0 005.242 1.5c2.387.115 9.061-2.731 14.933-5.461 6.922-3.218 14.293-9.052 17.119-12.25 5.757-6.5 10.665-14.627 13.2-18.972 2.091-3.581 4.239-8.775 7.533-9.424 5.767.6 8.116 10.656 4.373 16.862s-10.4 14.332-17.492 21.206c-3.437 3.332-9.739 6.951-18.762 10.808a122.274 122.274 0 01-18.218 6.273c-1.8.468-3.084 1.146-6.474 2.311a15.09 15.09 0 01-4.3 1.069 19.136 19.136 0 01-5.461-.582 13.029 13.029 0 01-5.977-3.38 8.087 8.087 0 01-2-3.218 5.426 5.426 0 01.124-3.743 1.478 1.478 0 01.439-.63 1.827 1.827 0 011.356-.162c2.578.372 5.309 1.165 7.9 1.26 2.2.086 3.752-.162 3.475-.5s-1.566-.306-3.237-1.241c-1.585-.9-2.616-2.731-2.034-3.581s.476-.675 2.261-.007zm-.075-24.051s2.387-1.9 6.922-1.155c2.2.363 1.356 8.66-5.7 10.98-4.593 1.509-5.528.726-7.008 4.507 0 0-2.769-.573-2.1-4.8a23.645 23.645 0 015.6-11.706c2.024-2.387 2.158-4.4 3.151-3.724 1.127.773.439 2.74.439 2.74z" fill="#b16668"/></g></svg>