<svg xmlns="http://www.w3.org/2000/svg" width="12.656" height="10.019"><defs><style>.b{fill:#444445}</style></defs><path d="M12.636 5.107a.264.264 0 00-.057-.287L7.832.074a.264.264 0 00-.373.373l4.3 4.3H.264a.264.264 0 000 .527h11.492l-4.3 4.3a.264.264 0 00.366.379l.006-.006 4.746-4.746a.264.264 0 00.062-.094z" fill="#2196f3"/><path class="b" d="M7.646 10.017a.264.264 0 01-.187-.45l4.56-4.559L7.459.449a.264.264 0 01.373-.373l4.746 4.746a.264.264 0 010 .373L7.835 9.94a.263.263 0 01-.189.077z"/><path class="b" d="M12.392 5.27H.264a.264.264 0 110-.527h12.128a.264.264 0 110 .527z"/></svg>