<svg xmlns="http://www.w3.org/2000/svg" width="303" height="303"><defs><linearGradient id="b" x1=".5" y1="1.513" x2=".5" y2=".008" gradientUnits="objectBoundingBox"><stop offset="0" stop-color="#fff"/><stop offset="1" stop-color="#dae9f9"/></linearGradient><linearGradient id="c" x1=".5" y1="-4.955" x2=".557" y2="10.112" gradientUnits="objectBoundingBox"><stop offset="0" stop-color="#102397"/><stop offset="1" stop-color="#00eaf8"/></linearGradient><filter id="a" x="0" y="0" width="303" height="303" filterUnits="userSpaceOnUse"><feOffset dy="2"/><feGaussianBlur stdDeviation="22.5" result="blur"/><feFlood flood-opacity=".161"/><feComposite operator="in" in2="blur"/><feComposite in="SourceGraphic"/></filter></defs><g data-name="Group 1460"><g filter="url(#a)"><rect data-name="Rectangle 1288" width="168" height="168" rx="4" transform="translate(67.5 65.5)" fill="#f6f9fd"/></g><rect data-name="Icon bg" width="110.011" height="110.011" rx="15" transform="translate(96.5 94.5)" fill="url(#b)"/><g data-name="Group 893" transform="translate(136.501 129.501)" fill="url(#c)"><path data-name="Path 3868" d="M20.442 16.014H22v-1.336a1.26 1.26 0 00-1.175-1.329H8.942a1.26 1.26 0 00-1.175 1.329v1.336h12.675z"/><path data-name="Path 3869" d="M10.255 31.282h11.254c-.682-3.677-1.332-7.183-2.068-11.161h-9.124l-1.241 6.706c-.431 2.33-.856 4.623-1.3 7.046h14.218l-.359-1.934h-11.38a.329.329 0 110-.657z"/><path data-name="Path 3870" d="M20.05 18.071a.793.793 0 00.79-.794v-.786H8.919v.786a.8.8 0 00.794.794H20.05z"/><path data-name="Rectangle 1292" d="M10.343 18.591h9.074v1.58h-9.074z"/><path data-name="Path 3871" d="M20.407 11.193H9.356v1.66h11.051z"/><path data-name="Rectangle 1293" d="M12.602 10.144h4.555v.481h-4.555z"/><path data-name="Path 3872" d="M17.153 8.678a5.168 5.168 0 01-.829.288l-.036.009c-.069.017-.138.034-.208.048l-.089.017c-.055.01-.11.021-.165.029l-.137.018-.124.016c-.06.006-.121.01-.181.014l-.086.007q-.135.007-.271.007c-.1 0-.2 0-.294-.009l-.1-.008c-.062 0-.125-.01-.187-.017l-.126-.016-.155-.024-.141-.025-.126-.027a5.1 5.1 0 01-.625-.181l-.025-.009a4.822 4.822 0 01-.21-.083l-.035-.015a4.725 4.725 0 01-.4-.19V9.58h4.55v-.9z"/><path data-name="Path 3873" d="M14.109 8.93q.213.043.432.066h.044q.083.008.166.013h.056c.07 0 .14.005.21.005.091 0 .182 0 .273-.009l.084-.006q.1-.007.19-.019l.095-.012c.062-.009.123-.019.185-.031s.109-.021.163-.033.1-.022.148-.035l.172-.049.052-.016a4.513 4.513 0 10-2.271.118z"/><path data-name="Path 3874" d="M23.517 36.183H6.241a1.839 1.839 0 00-1.755 1.909V40h20.787v-1.908a1.839 1.839 0 00-1.756-1.909z"/><path data-name="Path 3875" d="M6.923 33.946v1.58h15.914v-1.58H6.923z"/><path data-name="Path 3876" d="M20.76 21.107a.328.328 0 00.464 0l2.314-2.321h5.893a.329.329 0 000-.657h-6.03a.328.328 0 00-.232.1l-2.41 2.418a.329.329 0 00.001.46z"/><path data-name="Path 3877" d="M29.432 26.351h-5.893l-2.314-2.314a.328.328 0 00-.465.464l2.41 2.41a.328.328 0 00.232.1h6.03a.329.329 0 100-.657z"/><path data-name="Path 3878" d="M.328 18.785H6.22l2.314 2.321a.328.328 0 10.465-.464l-2.41-2.418a.328.328 0 00-.232-.1H.328a.329.329 0 100 .657z"/><path data-name="Path 3879" d="M.328 27.008h6.029a.328.328 0 00.232-.1l2.41-2.41a.328.328 0 10-.464-.464l-2.314 2.314H.328a.329.329 0 000 .657z"/><path data-name="Path 3880" d="M29.432 19.457H27.97a.328.328 0 00-.328.328v1.461a.328.328 0 00.328.328h1.462a.328.328 0 00.328-.328v-1.461a.328.328 0 00-.328-.328zm-.328 1.461v-.8z"/><path data-name="Path 3881" d="M29.432 27.434H27.97a.328.328 0 00-.328.328v1.461a.328.328 0 00.328.328h1.462a.328.328 0 00.328-.328v-1.461a.328.328 0 00-.328-.328zm-.328 1.461v-.8z"/><path data-name="Path 3882" d="M.328 21.575h1.461a.328.328 0 00.328-.328v-1.461a.328.328 0 00-.328-.328H.328a.328.328 0 00-.328.328v1.461a.328.328 0 00.328.328zm1.133-1.461v.8-.8z"/><path data-name="Path 3883" d="M1.789 27.434H.328a.328.328 0 00-.328.328v1.461a.328.328 0 00.328.328h1.461a.328.328 0 00.328-.328v-1.461a.328.328 0 00-.328-.328zm-.328 1.461v-.8z"/></g></g></svg>