<svg xmlns="http://www.w3.org/2000/svg" width="557.859" height="345.79"><defs><style>.a,.i{fill:#385b71}.a,.e{opacity:.1}.b{fill:#d6d6e3}.c{fill:#aebee1}.d{fill:#535461}.f{fill:#e3edf9}.g{fill:#f8b9bf}.h{fill:#d9dfe8}.k{fill:#263238}.l{fill:#1147b0}.m{fill:#05ccf0}</style></defs><g transform="translate(-66.326 -74.137)"><path class="a" d="M531.545 120.419h30.589v46.306h-30.589z"/><path class="a" d="M534.77 124.696h24.642v37.299H534.77zm-58.95-31.89h46.979v46.306H475.82z"/><path class="a" d="M480.694 97.016h37.845v37.299h-37.845z"/><path class="b" d="M212.685 236.003h14.67v163.934h-14.67z"/><path class="c" d="M586.085 274.394V123.177a15.9 15.9 0 0115.9-15.889 15.9 15.9 0 0115.867 15.889v183.011a15.9 15.9 0 01-15.9 15.9h-98.455a15.9 15.9 0 01-15.9-15.9 15.9 15.9 0 0115.9-15.9h66.691a15.9 15.9 0 0015.9-15.9z"/><path class="d" d="M586.085 274.394V123.177a15.9 15.9 0 0115.9-15.889 15.9 15.9 0 0115.867 15.889v183.011a15.9 15.9 0 01-15.9 15.9h-98.455a15.9 15.9 0 01-15.9-15.9 15.9 15.9 0 0115.9-15.9h66.691a15.9 15.9 0 0015.9-15.9z"/><path class="b" d="M487.623 306.728a15.9 15.9 0 0115.874-15.047h66.691a15.9 15.9 0 0015.9-15.9V124.57a15.9 15.9 0 0115.131-15.889v198.047z"/><path class="c" d="M104.418 278.489V127.272a15.9 15.9 0 00-15.859-15.9 15.9 15.9 0 00-15.9 15.9v183.01a15.9 15.9 0 0015.9 15.934h98.447a15.9 15.9 0 0015.9-15.9 15.9 15.9 0 00-15.9-15.9h-66.684a15.9 15.9 0 01-15.9-15.934z"/><path class="d" d="M104.418 278.489V127.272a15.9 15.9 0 00-15.859-15.9 15.9 15.9 0 00-15.9 15.9v183.01a15.9 15.9 0 0015.9 15.934h98.447a15.9 15.9 0 0015.9-15.9 15.9 15.9 0 00-15.9-15.9h-66.684a15.9 15.9 0 01-15.9-15.934z"/><path class="b" d="M183.285 310.86a15.9 15.9 0 00-15.874-15.044h-66.685a15.9 15.9 0 01-15.9-15.9V128.702a15.9 15.9 0 00-15.115-15.874V310.86zm281.786-75.334h14.67v167.757h-14.67z"/><path class="e" d="M212.685 249.692h14.67v12.119h-14.67zm252.386 0h14.67v12.119h-14.67zm-205.813-86.589q-.352 3.875-.89 7.855h-2.072v-7.855z"/><path class="d" d="M315.963 240.318a4.526 4.526 0 01-4.242 4.833h-44.773v-4.668h37.254a2.341 2.341 0 001.8-3.5l-33.78-68.713a2.992 2.992 0 00-2.618-1.691h-16.712v-7.854h21.1a2.1 2.1 0 011.833 1.182l38.728 74.808a12.719 12.719 0 011.406 5.6z"/><path class="d" d="M239.126 235.347l-.613 1.032-5.738-3.83 17.752-136.5h4.571s.187.628.494 1.825c3.059 11.796 18.088 78.607-16.466 137.473z"/><path class="e" d="M255.886 97.872l-16.458 137.475-.613 1.032-5.738-3.83 17.752-136.5h4.571s.179.649.486 1.823z"/><path class="b" d="M228.325 235.384l16.84-140.6 10.77 1.29-16.84 140.6z"/><path class="f" d="M197.892 234.674a1.287 1.287 0 01-1.279 1.279h-1.915a1.279 1.279 0 01-1.279-1.279.619.619 0 010-.15 1.279 1.279 0 011.264-1.122h1.915a1.287 1.287 0 011.234.972 1.185 1.185 0 01.06.3zm4.998 0a1.287 1.287 0 01-1.279 1.279h-1.914a1.279 1.279 0 01-1.279-1.279 1.253 1.253 0 01.052-.352 1.2 1.2 0 01.322-.546 1.249 1.249 0 01.9-.374h1.915a1.287 1.287 0 011.175.748 1.318 1.318 0 01.108.524z"/><path class="f" d="M207.334 234.674a1.287 1.287 0 01-1.279 1.279h-1.915a1.279 1.279 0 01-1.279-1.279 1.214 1.214 0 01.112-.531 1.3 1.3 0 011.16-.748h1.915a1.272 1.272 0 011.279 1.279zm5.006 0a1.287 1.287 0 01-1.279 1.279h-1.915a1.279 1.279 0 01-1.047-2.012l.15-.165a1.249 1.249 0 01.9-.374h1.915a1.287 1.287 0 01.928.411 1.234 1.234 0 01.348.861z"/><path class="e" d="M197.855 234.305a1.177 1.177 0 01.037.307 1.287 1.287 0 01-1.279 1.279h-1.915a1.279 1.279 0 01-1.279-1.279.62.62 0 010-.15zm4.931-.189a1.317 1.317 0 01.1.5 1.287 1.287 0 01-1.279 1.279h-1.91a1.279 1.279 0 01-1.279-1.279 1.254 1.254 0 01.052-.352z"/><path class="e" d="M207.147 233.956a1.276 1.276 0 01-1.085 1.953h-1.915a1.279 1.279 0 01-1.279-1.279 1.213 1.213 0 01.112-.531zm5.193.692a1.287 1.287 0 01-1.279 1.279h-1.915a1.279 1.279 0 01-1.047-2.012l3.89-.135a1.234 1.234 0 01.351.868z"/><path class="b" d="M225.137 239.479h-36.993v-1.683a2.88 2.88 0 012.783-2.88l29.669-1.025a4.4 4.4 0 014.548 4.391z"/><path class="d" d="M376.058 240.318a4.526 4.526 0 004.242 4.833h44.8v-4.668h-37.3a2.341 2.341 0 01-1.8-3.5l33.783-68.711a2.992 2.992 0 012.618-1.691h16.72v-7.856h-21.096a2.1 2.1 0 00-1.8 1.175l-38.728 74.808a12.715 12.715 0 00-1.439 5.61z"/><path class="d" d="M453.19 235.347l.613 1.032 5.738-3.83L441.79 96.047h-4.571s-.187.628-.494 1.825c-3.067 11.798-18.126 78.609 16.465 137.475z"/><path class="e" d="M436.469 97.872l16.458 137.475.613 1.032 5.738-3.83-17.744-136.5h-4.571s-.187.649-.494 1.823z"/><path class="b" d="M436.39 96.064l10.77-1.29 16.84 140.6-10.77 1.29z"/><path class="f" d="M494.606 234.674a1.287 1.287 0 001.279 1.279h1.915a1.279 1.279 0 001.279-1.279.619.619 0 000-.15 1.28 1.28 0 00-1.265-1.122h-1.915a1.286 1.286 0 00-1.234.972 1.177 1.177 0 00-.059.3zm-4.999 0a1.287 1.287 0 001.279 1.279h1.915a1.279 1.279 0 001.279-1.279 1.264 1.264 0 00-.052-.352 1.2 1.2 0 00-.322-.546 1.249 1.249 0 00-.9-.374h-1.953a1.287 1.287 0 00-1.175.748 1.317 1.317 0 00-.071.524z"/><path class="f" d="M485.163 234.674a1.287 1.287 0 001.279 1.279h1.911a1.279 1.279 0 001.279-1.279 1.219 1.219 0 00-.112-.531 1.3 1.3 0 00-1.16-.748h-1.907a1.272 1.272 0 00-1.279 1.279zm-5.005 0a1.286 1.286 0 001.279 1.279h1.915a1.279 1.279 0 001.047-2.012l-.15-.165a1.248 1.248 0 00-.9-.374h-1.915a1.287 1.287 0 00-.928.411 1.234 1.234 0 00-.348.861z"/><path class="e" d="M494.643 234.305a1.181 1.181 0 00-.037.307 1.286 1.286 0 001.279 1.279h1.915a1.279 1.279 0 001.279-1.279.626.626 0 000-.15zm-4.931-.189a1.318 1.318 0 00-.1.5 1.287 1.287 0 001.279 1.279h1.915a1.279 1.279 0 001.279-1.279 1.256 1.256 0 00-.052-.352z"/><path class="e" d="M485.351 233.956a1.275 1.275 0 001.085 1.953h1.915a1.279 1.279 0 001.279-1.279 1.212 1.212 0 00-.112-.531zm-5.193.692a1.286 1.286 0 001.279 1.279h1.915a1.279 1.279 0 001.047-2.012l-3.89-.135a1.235 1.235 0 00-.351.868z"/><path class="b" d="M467.104 239.479h36.993v-1.683a2.88 2.88 0 00-2.783-2.88l-29.669-1.025a4.4 4.4 0 00-4.548 4.391z"/><path class="g" d="M506.001 217.212l-3.329 13.465s-2.992-.673-7.481-1.825c-15.2-3.935-47.264-13.383-34.412-20.318 11.079-5.985 27.395-.165 37.082 4.376 3.546 1.668 6.209 3.164 7.4 3.868.501.284.74.434.74.434z"/><path class="e" d="M503.815 220.519l-2.394 9.725s-2.992-.673-7.481-1.825l2.7-15.942c3.546 1.668 6.209 3.164 7.4 3.868z"/><path class="h" d="M503.724 231.15l-9.291-2.3 2.888-17.026 7.428 1.833z"/><path class="e" d="M503.548 231.083l-4.01-.987 1.511-17.37 3.523.868z"/><path class="i" d="M565.37 163.407s-17.842-10.309-25.771 19.263-8.678 43.194-8.678 43.194l-56.345-11.266-1.788 20.58s60.243 19.45 67.821 18.036 32.167-42.641 32.167-42.641 22.353-31.95-7.406-47.166z"/><g opacity=".1"><path class="e" d="M475.714 223.172l-2.394 9.725s-2.992-.673-7.481-1.825l2.7-15.942c3.546 1.668 6.209 3.164 7.4 3.868z"/><path d="M475.721 233.817l-9.291-2.3 2.888-17.026 7.428 1.833z"/><path class="e" d="M475.722 233.817l-4.01-.987 1.511-17.37 3.523.868z"/><path d="M565.371 164.043s-17.842-10.309-25.771 19.263-8.678 43.194-8.678 43.194l-56.345-11.266-1.788 20.58s60.243 19.45 67.821 18.036 32.167-42.641 32.167-42.641 22.353-31.95-7.406-47.166z"/></g><path class="k" d="M481.016 365.672l-23 13.248s-29.8 3.651-9.949 10.608 66.01-.307 66.01-.307-2.566-20.737-6.142-23.632-26.919.083-26.919.083z"/><path class="l" d="M541.544 225.484s-11.446 5.985-31.778 11.154c-11.917 2.992-26.834 5.117-37.142 6.329a26.789 26.789 0 00-22.832 19.173 17.084 17.084 0 00-.262 9.276c3.389 11.842-1.668 108.105-1.668 108.105l34.935 3.232s-4.765-17.737 2.469-26.677-1.212-76.985-1.212-76.985 12.658-5.237 50.48-5.581c35.04 8.977 49.478-29.377 44.069-40.127s-37.059-7.899-37.059-7.899z"/><path class="k" d="M490.291 372.611l-23 13.248s-29.789 3.621-9.949 10.608 66.011-.307 66.011-.307-2.566-20.737-6.142-23.632-26.92.083-26.92.083z"/><path class="l" d="M545.285 280.155c-37.823.344-50.48 5.581-50.48 5.581s8.446 68.075 1.212 76.985-2.469 26.677-2.469 26.677l-34.936-3.232s.06-1.137.157-3.172c.838-16.727 4.526-94.378 1.5-104.933a17.086 17.086 0 01.262-9.246 26.8 26.8 0 0122.82-19.217c10.3-1.2 25.218-3.3 37.135-6.329l.584-.15c19.974-5.132 31.195-11 31.195-11s31.651-2.843 37.06 7.907a12.716 12.716 0 011.107 5.424c.269 14.5-14.618 42.538-45.147 34.705z"/><path class="g" d="M519.79 231.412l-1.279 13.84s-3.075-.217-7.645-.7c-15.612-1.623-48.73-6.187-37.022-14.962 10.069-7.541 27.066-4.249 37.322-1.2 3.74 1.122 6.613 2.207 7.892 2.723.47.187.732.299.732.299zm65.727-76.077s-4.683 3.666-10.406 7.69c-6.276 1.421-13.563 2.6-18.814 3.359 1.878-5.985.748-12.717-1.369-18.62a70.087 70.087 0 00-9.388-17.266l31.659-9.881c-2.484 6.291-1.362 13.465.748 19.7a64.971 64.971 0 007.57 15.018z"/><path class="e" d="M518.178 235.085l-.92 9.942s-3.075-.217-7.645-.7l.3-16.166c3.74 1.122 6.613 2.207 7.892 2.723z"/><path class="h" d="M519.595 245.617l-9.531-.883.314-17.266 7.623.7z"/><path class="e" d="M585.516 153.767s-4.683 3.666-10.406 7.69c-6.276 1.421-13.563 2.6-18.814 3.359 1.878-5.985.748-12.717-1.369-18.62 7.735-2.244 18.8-5.147 23.026-7.481a64.965 64.965 0 007.563 15.052z"/><path class="h" d="M579.188 138.955s5.3 12.022 8.633 17.453-38.766 10.473-38.766 10.473-4.369-15.134-2.281-16.869 28.891-7.541 32.414-11.057z"/><path class="e" d="M590.491 256.878a37.875 37.875 0 01-6.553 8.483c-18.6 17.67-49.082-.748-62.839-10.817 19.974-5.132 31.2-11 31.2-11s31.651-2.843 37.06 7.907a12.717 12.717 0 011.137 5.431z"/><path class="m" d="M584.058 272.419c-21.141 20.079-57.6-6.508-67.432-14.341a74.016 74.016 0 01-2.484-2.057c3.883-3.636 7.294-11.341 9.994-20.767a182.226 182.226 0 005.439-27.514 102.113 102.113 0 0116.1-44.01c1.144-1.721 2.244-3.329 3.389-4.735 7.982-10.151 21.4-16.6 21.4-16.6 28.307-8.274 32.115 33.716 31.36 34.928s6.808 71.748-17.766 95.096z"/><path class="e" d="M586.795 213.891s-18.2 44.436-25.479 46.972c-4.167 1.444-26.422-1.294-44.69-3.905a74.016 74.016 0 01-2.484-2.057c3.883-3.636 7.294-11.341 9.994-20.767l23.527 1.122s-1.309-13.57 2.147-44 22.614-22.891 22.614-22.891c31.697 10.613 14.371 45.526 14.371 45.526z"/><path class="e" d="M519.86 245.593l-4.114-.381-1.093-17.393 3.613.329z"/><path class="m" d="M571.967 166.696s-19.158-7.533-22.615 22.891-2.147 44-2.147 44l-57.4-2.745 1.294 20.617s62.472 10.256 69.751 7.728 25.48-46.972 25.48-46.972 17.305-34.911-14.363-45.519z"/><path class="e" d="M573.256 132.84c-.838-4.548 3.913-4.488 5.618-8.767l-31.659 9.882a69.868 69.868 0 015.865 9.329 26.267 26.267 0 005.035.972c7.548.718 9.904-6.71 15.141-11.416z"/><circle class="g" cx="26.153" cy="26.153" r="26.153" transform="rotate(-84.72 343.494 -219.418)"/><path class="e" d="M533.016 97.2c.322 2.723 3.194 4.384 5.865 5s5.566.643 7.907 2.072c3.74 2.3 4.75 7.421 4.279 11.82-.262 2.484-.636 5.528 1.4 6.972a5.421 5.421 0 002.095.748 19.644 19.644 0 006.448.224 9.17 9.17 0 013.74-.1c1.96.569 3.12 2.633 3.5 4.631s.172 4.077.479 6.089a12.642 12.642 0 009.964 10.279 5.483 5.483 0 003.516-.314c1.421-.748 2.147-2.341 2.76-3.83l4.489-10.742a83.679 83.679 0 005.132-14.857 41.831 41.831 0 00-1.788-23.146c-1.062-2.813-2.528-5.633-5.02-7.324-4.99-3.389-11.969-1.047-17.64-2.992-1.878-.651-3.568-1.758-5.439-2.424-4.047-1.444-8.618-.681-12.515 1.137s-7.047 4.683-10.473 7.294c-2.969 2.311-9.26 4.757-8.699 9.463z"/><path class="k" d="M533.704 96.708c.322 2.723 3.194 4.384 5.865 5s5.566.643 7.907 2.072c3.741 2.3 4.75 7.421 4.279 11.82-.262 2.484-.636 5.528 1.4 6.972a5.421 5.421 0 002.095.748 19.647 19.647 0 006.448.224 9.169 9.169 0 013.74-.1c1.96.568 3.12 2.633 3.5 4.631s.172 4.077.479 6.089a12.642 12.642 0 009.964 10.279 5.483 5.483 0 003.516-.314c1.422-.748 2.147-2.341 2.76-3.83l4.488-10.742a83.668 83.668 0 005.132-14.857 41.83 41.83 0 00-1.788-23.146c-1.062-2.813-2.528-5.633-5.02-7.324-4.99-3.389-11.969-1.047-17.64-2.992-1.878-.651-3.568-1.758-5.438-2.424-4.047-1.444-8.618-.681-12.516 1.137s-7.047 4.683-10.473 7.294c-2.96 2.313-9.251 4.757-8.698 9.463z"/><path class="e" d="M555.369 183.902s-9.987 38.8-19.929 42.386-5.551 4.608-5.551 4.608"/><path class="b" d="M544.986 304.25h10.855v71.344h-10.855z"/><path class="e" d="M544.986 310.064h10.855v5.289h-10.855z"/><path class="b" d="M523.269 309.929v1.5a3.508 3.508 0 003.508 3.509h47.264a3.508 3.508 0 003.509-3.509v-1.5a3.509 3.509 0 00-3.509-3.509h-47.264a3.508 3.508 0 00-3.508 3.509z"/><path class="e" d="M524.077 308.286h52.672a3.493 3.493 0 00-2.708-1.279h-47.263a3.494 3.494 0 00-2.701 1.279z"/><rect class="b" width="89.179" height="8.528" rx="4.264" transform="translate(505.831 368.666)"/><circle class="d" cx="5.431" cy="5.431" r="5.431" transform="translate(584.537 375.822)"/><circle class="d" cx="5.431" cy="5.431" r="5.431" transform="translate(528.649 375.822)"/><circle class="d" cx="5.431" cy="5.431" r="5.431" transform="translate(544.986 375.822)"/><rect class="b" width="85.304" height="13.181" rx="6.591" transform="translate(538.881 233.237)"/><path class="e" d="M555.841 369.321s-4.264 4.212-10.855 0m79.199-129.788v1.04a5.424 5.424 0 01-5.423 5.424h-74.457a5.424 5.424 0 01-5.424-5.424v-1.04z"/><path class="b" d="M495.021 233.012h14.67v186.915h-14.67z"/><path class="e" d="M495.021 249.692h14.67v12.119h-14.67z"/><path class="b" d="M111.467 308.598h10.855v71.344h-10.855z"/><path class="e" d="M111.467 314.507h10.855v5.289h-10.855z"/><path class="b" d="M145.798 314.373v1.5a3.508 3.508 0 01-3.508 3.508H95.025a3.508 3.508 0 01-3.508-3.508v-1.5a3.509 3.509 0 013.508-3.479h47.264a3.508 3.508 0 013.508 3.508z"/><path class="e" d="M144.928 312.731h-52.68a3.493 3.493 0 012.708-1.242h47.264a3.493 3.493 0 012.708 1.242z"/><rect class="b" width="89.179" height="8.528" rx="4.264" transform="translate(75.638 373.089)"/><circle class="d" cx="5.431" cy="5.431" r="5.431" transform="translate(95.119 380.242)"/><circle class="d" cx="5.431" cy="5.431" r="5.431" transform="translate(145.745 380.242)"/><circle class="d" cx="5.431" cy="5.431" r="5.431" transform="translate(111.46 380.242)"/><path class="e" d="M111.467 373.75s4.264 4.212 10.855 0"/><path d="M354.309 192.727s-12.179-22.136-7.728-41.376a38.278 38.278 0 00-2.132-24.118 64.363 64.363 0 00-5.708-10.276" fill="none" stroke="#535461" stroke-miterlimit="10" stroke-width="2"/><path class="i" d="M342.812 109.708c.636 2.9-2.768 12.471-2.768 12.471s-7.1-7.256-7.743-10.159a5.379 5.379 0 1110.473-2.312zm10.585 12.657c-1.04 2.783-9.1 8.977-9.1 8.977s-2.02-9.949-.972-12.717a5.379 5.379 0 1110.077 3.74zm4.932 24.526c-2.3 1.878-12.381 3.142-12.381 3.142s3.284-9.605 5.588-11.483a5.379 5.379 0 116.793 8.341zm-.362 18.81c-1.953 2.244-11.67 5.192-11.67 5.192s1.608-10.024 3.561-12.261a5.379 5.379 0 118.1 7.069z"/><path class="i" d="M334.681 133.249c2.529 1.563 12.68 1.5 12.68 1.5s-4.489-9.1-7.017-10.668a5.379 5.379 0 10-5.663 9.141zm-.048 22.48c2.88.748 12.553-2.334 12.553-2.334s-7.01-7.346-9.89-8.079a5.379 5.379 0 00-2.663 10.413zm2.76 21.537c2.708 1.212 12.77-.18 12.77-.18s-5.67-8.423-8.378-9.635a5.38 5.38 0 00-4.391 9.822zm5.419-67.558c.636 2.9-2.768 12.471-2.768 12.471s-7.1-7.256-7.743-10.159a5.379 5.379 0 1110.473-2.312z"/><path class="i" d="M353.397 122.365c-1.04 2.783-9.1 8.977-9.1 8.977s-2.02-9.949-.972-12.717a5.379 5.379 0 1110.077 3.74zm4.932 24.526c-2.3 1.878-12.381 3.142-12.381 3.142s3.284-9.605 5.588-11.483a5.379 5.379 0 116.793 8.341zm-.362 18.81c-1.953 2.244-11.67 5.192-11.67 5.192s1.608-10.024 3.561-12.261a5.379 5.379 0 118.1 7.069z"/><path class="i" d="M334.681 133.249c2.529 1.563 12.68 1.5 12.68 1.5s-4.489-9.1-7.017-10.668a5.379 5.379 0 10-5.663 9.141zm-.048 22.48c2.88.748 12.553-2.334 12.553-2.334s-7.01-7.346-9.89-8.079a5.379 5.379 0 00-2.663 10.413zm2.76 21.537c2.708 1.212 12.77-.18 12.77-.18s-5.67-8.423-8.378-9.635a5.38 5.38 0 00-4.391 9.822z"/><path class="i" d="M348.942 245.015a12.822 12.822 0 01-12.8-13.63l3.583-56.779h18.433l3.583 56.779a12.822 12.822 0 01-12.8 13.63z"/><path class="k" d="M130.852 111.015a26.931 26.931 0 11-26.931-26.931 26.931 26.931 0 0126.931 26.931zm63.683 257.87l22.4 14.214s29.616 4.96 9.471 11.042-65.928-3.217-65.928-3.217 3.479-20.6 7.182-23.333 26.875 1.294 26.875 1.294z"/><path d="M122.053 225.167s11.169 6.486 31.255 12.545c11.775 3.553 26.587 6.3 36.821 7.967a26.789 26.789 0 0121.956 20.2 17.086 17.086 0 01-.142 9.246c-3.9 11.685-3.112 108.075-3.112 108.075l-35.04 1.683s5.543-17.513-1.287-26.759 4.608-76.85 4.608-76.85-12.411-5.79-50.189-7.8c-35.407 7.481-48.132-31.532-42.252-42.035s37.382-6.272 37.382-6.272z" fill="#2f465f"/><path class="l" d="M121.008 222.719s11.169 6.486 31.255 12.545c11.775 3.553 26.587 6.3 36.821 7.967a26.789 26.789 0 0121.956 20.2 17.086 17.086 0 01-.142 9.246c-3.9 11.685-3.112 108.075-3.112 108.075l-35.04 1.683s5.543-17.513-1.287-26.759 4.608-76.85 4.608-76.85-12.411-5.79-50.189-7.8c-35.407 7.481-48.132-31.532-42.252-42.035s37.382-6.272 37.382-6.272z"/><path class="k" d="M184.938 375.406l22.4 14.214s29.616 4.96 9.471 11.042-65.931-3.22-65.931-3.22 3.479-20.6 7.182-23.333 26.878 1.297 26.878 1.297z"/><path class="l" d="M116.853 279.662c37.778 2.012 50.189 7.8 50.189 7.8s-3.583 65.7 1.5 75.257c5.424 10.144-4.848 28.352-4.848 28.352l35.037-1.685v-3.172c-.1-16.742-.359-94.483 3.12-104.9a17.086 17.086 0 00.142-9.246 26.8 26.8 0 00-21.956-20.2c-10.241-1.661-25.046-4.406-36.821-7.96l-.576-.18c-19.727-5.985-30.671-12.366-30.671-12.366s-23.333-1.616-29.175 8.887c-.748 1.362-3.972 4.04-4.107 6.2-.876 14.473 7.36 39.699 38.166 33.213z"/><path class="g" d="M161.727 233.151l.666 13.884s3.082-.082 7.675-.359c15.672-.935 48.962-4.032 37.651-13.316-9.725-7.982-26.856-5.439-37.232-2.843-3.808.958-6.733 1.915-8 2.371-.498.166-.76.263-.76.263zm-76.695-79.55s4.488 3.868 10.054 8.147c6.209 1.691 13.465 3.194 18.65 4.189-1.608-6.1-.18-12.717 2.192-18.545a70.088 70.088 0 0110.144-16.839l-31.195-11.274c2.207 6.4.748 13.54-1.623 19.652a64.971 64.971 0 01-8.222 14.67z"/><path class="e" d="M163.054 236.897l.479 9.972s3.082-.082 7.675-.359l.419-16.166c-3.808.958-6.733 1.915-8 2.371z"/><path class="h" d="M161.223 247.356l9.553-.456.449-17.266-7.645.367z"/><path class="m" d="M81.973 270.676c20.2 21 57.864-3.957 67.993-11.348 1.646-1.2 2.566-1.945 2.566-1.945-3.74-3.808-9.725-7.331-12.022-16.869a207.217 207.217 0 01-4.443-29.564c-.621-7.892 7.533-22.921 5.177-30.417s-12.059-9.957-16.136-16.742c-1.07-1.765-2.132-3.426-3.179-4.877-7.526-10.473-20.64-17.528-20.64-17.528-27.941-9.538-30.133 30.365-29.437 31.606s-2.499 45.229 10.121 97.684z"/><path class="e" d="M81.031 211.998s16.226 45.2 23.385 48.049c4.1 1.631 26.46-.127 44.818-1.93 1.646-1.2 2.566-1.945 2.566-1.945-3.74-3.808-6.785-11.655-9.074-21.186l-23.557.082s1.908-13.465-.2-44.054-21.586-23.862-21.586-23.862c-32.115 9.208-16.352 44.846-16.352 44.846zm80.341 35.346l4.122-.195 1.858-17.333-3.628.172z"/><path class="m" d="M97.192 165.495s19.45-6.68 21.582 23.864.224 44.055.224 44.055l57.468-.209-2.207 20.542s-62.839 7.481-70.02 4.646-23.388-48.041-23.388-48.041-15.782-35.646 16.341-44.857z"/><path class="e" d="M97.489 131.684c1.04-4.488-3.74-4.631-5.237-8.977l31.21 11.221a69.865 69.865 0 00-6.269 9.059 26.269 26.269 0 01-5.072.748c-7.586.372-9.613-7.128-14.632-12.051z"/><circle class="g" cx="26.153" cy="26.153" r="26.153" transform="rotate(-2.75 1993.953 -1736.807)"/><path class="e" d="M98.378 184.997s8.274 39.192 18.044 43.194 5.341 4.855 5.341 4.855m8.399-25.415s-6.912 2.162-14.962-8.169"/><circle class="k" cx="11.969" cy="11.969" r="11.969" transform="translate(90.055 74.137)"/><path class="k" d="M93.617 92.25a11.969 11.969 0 010-16.375c-.194.157-.389.314-.569.486a11.972 11.972 0 0016.4 17.445c.187-.172.352-.359.516-.539a11.969 11.969 0 01-16.347-1.017z"/><path class="k" d="M100.454 95.801a11.969 11.969 0 01-12.6-10.473v.748a11.97 11.97 0 0023.894-1.5 6.358 6.358 0 00-.082-.748 11.969 11.969 0 01-11.212 11.973z"/><path class="e" d="M122.978 93.46c2.79 1.376 5.985 1.758 8.977 2.626s6.045 2.454 7.361 5.281c.965 2.08.853 4.541 1.863 6.6 1.451 2.992 4.8 4.369 7.885 5.543-2.648 3.553-8.334 2.588-12.044.172s-6.9-5.985-11.221-6.92a10.533 10.533 0 00-11.079 4.93 26.6 26.6 0 00-2.184 6.793c-1.5 6.074-4.488 12.119-9.725 15.568s-13.039 3.426-17.146-1.294c-2.394-2.753-3.194-6.5-3.9-10.077a20.472 20.472 0 01-.576-5.094c.239-4.294 3.1-7.952 5.985-11.139 3.4-3.74 7.025-7.331 10.645-10.9 3.127-3.082 6.733-8.3 11.446-8.67 5.424-.436 9.262 4.404 13.713 6.581z"/><path class="k" d="M122.337 92.819c2.79 1.376 5.985 1.758 8.977 2.626s6.045 2.454 7.361 5.281c.965 2.08.853 4.541 1.863 6.6 1.451 2.992 4.8 4.369 7.885 5.543-2.648 3.553-8.334 2.588-12.044.172s-6.9-5.985-11.221-6.92a10.533 10.533 0 00-11.079 4.93 26.608 26.608 0 00-2.184 6.793c-1.5 6.074-4.488 12.119-9.725 15.568s-13.039 3.426-17.146-1.294c-2.394-2.753-3.194-6.5-3.9-10.077a20.473 20.473 0 01-.576-5.094c.239-4.294 3.1-7.952 5.985-11.139 3.4-3.74 7.025-7.331 10.645-10.9 3.127-3.082 6.733-8.3 11.446-8.67 5.424-.436 9.262 4.404 13.713 6.581z"/><rect class="b" width="85.304" height="13.181" rx="6.591" transform="translate(66.326 237.672)"/><path class="e" d="M66.326 243.981v1.04a5.424 5.424 0 005.424 5.424h74.456a5.424 5.424 0 005.424-5.424v-1.04z"/><path class="b" d="M182.735 233.015h14.67v186.893h-14.67z"/><path class="e" d="M182.735 249.692h14.67v12.119h-14.67z"/><path class="b" d="M148.602 237.213h387.82v24.238h-387.82z"/></g></svg>