<svg xmlns="http://www.w3.org/2000/svg" width="483.397" height="406.601"><defs><linearGradient id="a" x1="14.929" y1="1" x2="14.929" gradientUnits="objectBoundingBox"><stop offset="0" stop-color="gray" stop-opacity=".251"/><stop offset=".54" stop-color="gray" stop-opacity=".122"/><stop offset="1" stop-color="gray" stop-opacity=".102"/></linearGradient><style>.i{opacity:.1}.d,.e,.k,.m{fill:#fff}.e{stroke:#fff}.e,.k,.l,.m,.n{stroke-miterlimit:10}.f,.v{fill:#05ccf0}.f{opacity:.5}.g{fill:#1147b0}.h{fill:#504f60}.k,.l,.m,.n{stroke:#33313f}.k,.n{stroke-width:3px}.l,.n{fill:none}.l,.m{stroke-linecap:round;stroke-width:2px}.p{fill:#33313f}.s{fill:#db8b8b}.t{fill:#263238}.u{fill:#35323e}</style></defs><g transform="translate(-48.339 -38.505)"><ellipse cx="125.303" cy="18.993" rx="125.303" ry="18.993" transform="translate(48.339 407.119)" fill="#cfe0f2"/><rect width="271.183" height="326.565" rx="19.8" transform="translate(260.553 38.505)" fill="#464353"/><path opacity=".1" fill="#6c63ff" d="M283.946 71.448h224.396v260.679H283.946z"/><circle class="d" cx="9.549" cy="9.549" r="9.549" transform="translate(386.595 339.766)"/><path class="d" d="M396.144 62.115a4.511 4.511 0 114.511-4.511 4.511 4.511 0 01-4.511 4.511z"/><path class="d" d="M396.144 53.357a4.247 4.247 0 11-4.247 4.247 4.247 4.247 0 014.247-4.247m0-.528a4.748 4.748 0 103.367 1.4 4.775 4.775 0 00-3.367-1.4z"/><rect class="e" width="46.539" height="63.269" rx="4.3" transform="translate(294.372 152.202)"/><rect class="f" width="37.813" height="20.075" rx="7.14" transform="translate(298.735 168.145)"/><rect class="g" width="22.027" height="3.118" rx="1.559" transform="translate(306.628 196.409)"/><rect class="e" width="46.539" height="63.269" rx="4.3" transform="translate(373.052 152.202)"/><rect class="f" width="22.301" height="11.839" rx="1.46" transform="translate(385.292 162.083)"/><rect class="g" width="28.469" height="3.118" rx="1.559" transform="translate(382.031 185.018)"/><rect class="g" width="28.469" height="3.118" rx="1.559" transform="translate(382.031 190.832)"/><rect class="e" width="46.539" height="63.269" rx="4.3" transform="translate(451.378 107.256)"/><rect class="f" width="30.3" height="14.14" rx="1.46" transform="translate(459.498 117.074)"/><rect class="f" width="30.3" height="14.14" rx="1.46" transform="translate(459.498 137.624)"/><rect class="g" width="9.94" height="4.363" rx="2.182" transform="translate(457.076 163.16)"/><rect class="g" width="9.94" height="4.363" rx="2.182" transform="translate(469.68 163.16)"/><rect class="g" width="9.94" height="4.363" rx="2.182" transform="translate(482.285 163.16)"/><rect class="e" width="46.539" height="63.269" rx="4.3" transform="translate(451.267 197.147)"/><rect class="f" width="13.907" height="14.14" rx="1.46" transform="translate(454.86 204.544)"/><rect class="g" width="28.469" height="3.118" rx="1.559" transform="translate(460.305 227.294)"/><rect class="g" width="28.469" height="3.118" rx="1.559" transform="translate(460.305 233.599)"/><rect class="g" width="28.469" height="3.118" rx="1.559" transform="translate(460.305 239.903)"/><path class="e" d="M367.686 182.328l-.712.343-5.772 2.775-.528.248a.285.285 0 01-.385-.153.313.313 0 010-.106v-1.641a.28.28 0 00-.28-.28h-14.028a.285.285 0 01-.285-.28v-2.316a.285.285 0 01.285-.28h14.045a.285.285 0 00.28-.285v-1.675a.34.34 0 010-.105.285.285 0 01.385-.148l.528.248 5.756 2.8.712.348a.28.28 0 010 .506zm78.1-14.23l-.464.638-3.777 5.149-.332.459a.29.29 0 01-.412.047.253.253 0 01-.063-.084l-.77-1.446a.29.29 0 00-.385-.121l-12.4 6.6a.28.28 0 01-.38-.116l-1.087-2.052a.279.279 0 01.116-.38l12.4-6.59a.28.28 0 00.116-.38l-.786-1.483a.184.184 0 01-.032-.1.274.274 0 01.269-.311h.565l6.394-.232.791-.026a.28.28 0 01.237.427zm-.042 27.044h-7.74a.28.28 0 01-.28-.3.239.239 0 01.026-.1l.707-1.483a.28.28 0 00-.132-.375l-12.662-6.078a.285.285 0 01-.132-.38l1-2.084a.274.274 0 01.375-.132l12.662 6.083a.29.29 0 00.38-.132l.728-1.514a.274.274 0 01.469-.053l.354.438 3.973 5.023.491.623a.28.28 0 01-.222.464z"/><path class="h" d="M214.51 312.663l-.042 1.546-2.691 95h-4.527l2.221-95 .042-1.783z"/><path class="i" d="M214.51 312.663l-.042 1.546-2.691 95h-4.527l2.221-95 .042-1.783z"/><path class="h" d="M240.705 393.143l-3.387-.01-50.359-.106-2.68-.005 1.424-4.405h54.643z"/><path class="i" d="M214.51 312.663l-.042 1.546h-5l.042-1.783z"/><path class="h" d="M208.026 310.342h8.394v3.155h-8.394z"/><path class="i" d="M187.408 388.616l-.448 4.411-2.68-.005 1.424-4.405z"/><path class="h" d="M194.635 310.284l-.142 1.366-11.167 110.178-5.118-.237 11.771-109.94.132-1.25z"/><path class="i" d="M240.709 393.143l-3.387-.01-.459-4.516h3.487z"/><path class="h" d="M246.065 421.59l-5.123.237-11.166-110.177-.137-1.366 4.521.116.132 1.25z"/><path class="d" d="M154.992 201.648H267.85v108.215H154.992z"/><rect class="d" width="162.499" height="108.215" rx="4.13" transform="translate(130.237 201.648)"/><path class="h" d="M213.618 165.46v26.132h-4.4V165.46a2.2 2.2 0 114.4 0z"/><path class="i" d="M209.218 189.212h4.405v2.379h-4.405z"/><path class="h" d="M215.349 190.996v8.631h-7.856v-8.631a1.055 1.055 0 011.055-1.055h5.714a1.055 1.055 0 011.087 1.055z"/><circle class="i" cx="1.667" cy="1.667" r="1.667" transform="translate(209.751 193.734)"/><circle cx="1.667" cy="1.667" r="1.667" transform="translate(209.751 193.375)" fill="#3f3d56"/><path class="i" d="M207.493 198.556h7.856v1.071h-7.856zm-3.219 1.43h14.287v2.379h-14.287z"/><path class="h" d="M204.274 199.268h14.287v2.379h-14.287z"/><path class="i" d="M183.086 307.045h58.869a3.166 3.166 0 013.166 3.166h-65.19a3.166 3.166 0 013.155-3.166zm7.023 3.355l4.527-.116-.142 1.366h-4.517zm17.917-.058h8.394v1.308h-8.394zm26.263 1.308h-4.513l-.137-1.366 4.521.116z"/><path class="h" d="M183.086 307.784h58.869a3.166 3.166 0 013.166 3.166h-65.19a3.166 3.166 0 013.166-3.166z"/><path class="k" d="M263.909 214.358a.786.786 0 01.9.865 104.62 104.62 0 00.554 22.323c.385 3.371.907 6.938 2.4 9.439a.8.8 0 01-.106.981 2.111 2.111 0 01-1.467.438l-23.546.132a.786.786 0 01-.77-.971c1.894-8.072 1.488-16.883.728-25.256-.375-4.12-.591-6.331 2.485-6.621 3.166-.285 6.331-.417 9.5-.681.759-.064 6.847-.243 9.322-.649zm-18.018 48.375a.786.786 0 00-.9.865 104.272 104.272 0 01-.559 22.323c-.38 3.371-.9 6.938-2.4 9.444a.786.786 0 00.105.976 2.11 2.11 0 001.467.438l23.547.137a.8.8 0 00.77-.976c-1.894-8.072-1.488-16.883-.728-25.256.375-4.12.591-6.331-2.485-6.621s-6.331-.417-9.5-.681c-.754-.064-6.843-.243-9.317-.649z"/><path class="l" d="M252.808 276.323a69.854 69.854 0 018.209.1.775.775 0 01.7.686l.259 2.158a.306.306 0 01-.063.28.29.29 0 01-.2.053c-1.15.032-2.3-.1-3.445 0-.712.058-1.419.2-2.11.274a25.2 25.2 0 01-3.514.063 17.7 17.7 0 01-4.891-.6s.095-1.789.095-1.957c0-.834-.026-.907.834-.929zm0 9.727a68.71 68.71 0 008.209-.106.775.775 0 00.7-.686l.259-2.153a.317.317 0 00-.063-.285.29.29 0 00-.2-.053c-1.15-.032-2.3.105-3.445 0-.712-.053-1.419-.19-2.11-.269a24.414 24.414 0 00-3.514-.063 17.7 17.7 0 00-4.891.6s.095 1.783.095 1.957c0 .834-.026.9.834.929zm0 3.811a68.71 68.71 0 018.209.106.775.775 0 01.7.686l.259 2.153a.317.317 0 01-.063.285.291.291 0 01-.2.053c-1.15.032-2.3-.106-3.445 0-.712.053-1.419.2-2.11.274a25.185 25.185 0 01-3.514.058 17.7 17.7 0 01-4.891-.6s.095-1.789.095-1.963c0-.833-.026-.9.834-.923z"/><path class="m" d="M256.275 244.705a3.488 3.488 0 01.232 1.836.275.275 0 01-.037.142.285.285 0 01-.222.079l-5.012.2s.28-1.477.317-1.583c.174-.6.612-.443 1.177-.475zm7.57 0a3.488 3.488 0 01.227 1.836.269.269 0 01-.032.142.3.3 0 01-.222.079l-5.017.2s.285-1.477.322-1.583c.169-.6.607-.443 1.177-.475z"/><path class="n" d="M260.822 219.517l.675 5.8a1.583 1.583 0 01-1.44 1.746 75.356 75.356 0 01-12.863-.084 1.583 1.583 0 01-1.43-1.509 22.528 22.528 0 00-.454-3.076c-.174-1.055-.364-2.073.881-2.385a21.577 21.577 0 014.31-.116q2.448-.048 4.88-.137c.455.003 5.441-.265 5.441-.239zm0 20.967l.665-5.8a1.583 1.583 0 00-1.44-1.746 75.89 75.89 0 00-12.863.079 1.583 1.583 0 00-1.43 1.514 22.519 22.519 0 01-.454 3.076c-.174 1.055-.364 2.073.881 2.385a21.566 21.566 0 004.31.116c1.63.032 3.255.074 4.88.137.465.009 5.451.281 5.451.239z"/><path class="l" d="M254.042 266.637q-.264 2.9-.332 5.8a27.472 27.472 0 01-5.756-.66 1.018 1.018 0 01-.944-1.245c-.037-1.2-.67-3.888 1.024-4.057.505-.049 6.003.257 6.008.162z"/><path d="M160.885 240.277a1.683 1.683 0 011.857 1.831 107.669 107.669 0 00.665 21.215c.353 3.113.823 6.389 2.068 8.842a1.382 1.382 0 01-1.224 2.015h0l-23.362.137a.929.929 0 01-.913-1.129c1.852-8.03 1.446-16.8.691-25.1-.38-4.12-.591-6.331 2.48-6.621 3.166-.28 6.331-.411 9.47-.681.671-.054 5.461-.202 8.268-.509z" stroke-linecap="round" stroke-width="3" stroke="#33313f" stroke-miterlimit="10" fill="#fff"/><path class="k" d="M193.385 240.146a.839.839 0 00-.96.929 104.639 104.639 0 01-.565 22.249c-.38 3.371-.9 6.922-2.39 9.428a.834.834 0 00.222 1.092 2.21 2.21 0 001.34.338l23.483.137a.844.844 0 00.818-1.055c-1.873-8.056-1.472-16.857-.712-25.193.375-4.12.591-6.331-2.48-6.621-3.166-.28-6.331-.411-9.5-.681-.768-.048-6.735-.222-9.256-.623z"/><path class="m" d="M146.899 244.942l11.945 15.933m-.001-17.125l-11.549 17.922m52.907-15.981l6.505 8.679m.001-9.333l-6.289 9.766"/><path class="l" d="M150.845 265.966a69.942 69.942 0 018.215.1.786.786 0 01.7.686l.253 2.158a.332.332 0 01-.058.285.369.369 0 01-.2.053c-1.15.032-2.306-.106-3.45 0-.712.053-1.414.19-2.11.269a25.157 25.157 0 01-3.514.063 17.643 17.643 0 01-4.886-.6c-.032 0 .095-1.783.095-1.957 0-.834-.032-.9.828-.929zM201.029 258a68.81 68.81 0 018.215.105.776.776 0 01.7.686l.253 2.153a.332.332 0 01-.058.285.3.3 0 01-.2.053c-1.15.032-2.306-.106-3.45 0-.712.053-1.414.2-2.11.269a24.421 24.421 0 01-3.514.063 17.708 17.708 0 01-4.891-.6c-.026 0 .095-1.783.095-1.957 0-.834-.026-.9.834-.929zm4.184 5.977a69.84 69.84 0 00-8.209.1.776.776 0 00-.7.686l-.243 2.153a.3.3 0 00.058.285.29.29 0 00.2.053c1.15.032 2.3-.1 3.45 0 .712.053 1.414.2 2.11.274a26.009 26.009 0 003.514.063 17.657 17.657 0 004.891-.6c.026 0-.095-1.789-.095-1.957 0-.839.032-.907-.828-.929z"/><path class="n" d="M171.073 260.074s7.761-.4 9.154 0m.01-4.179s3.382 3.382 3.382 4.179-4.379 3.582-4.379 3.582m42.593-10.801s7.033-3.292 8.473-3.451"/><path class="n" d="M228.734 245.538s4.405 1.857 4.706 2.591-2.7 4.97-2.7 4.97m-8.981 8.188s7.149 3.034 8.231 4"/><path class="n" d="M231.814 261.529s1.583 4.521 1.213 5.239-5.5 1.308-5.5 1.308"/><path class="m" d="M249.505 244.705a3.488 3.488 0 01.227 1.836.271.271 0 01-.032.142.3.3 0 01-.222.079l-5.017.2s.285-1.477.322-1.583c.169-.6.612-.443 1.177-.475z"/><path class="p" d="M154.724 290.173l1.773-1.651-1.583-.063-.828 1.271z"/><path d="M141.971 301.742l1.878-2.411.417-.433 5.751-6.025 1.957-2.047.918-.111 1.319-1.308.776.681-1.282 1.5.021.786-2 2.168-5.645 6.131-.364.391-2.269 2.1z" fill="#65617d"/><path class="p" d="M144.266 298.894l5.751-6.025 1.709 1.667-5.645 6.131z"/><path d="M288 476.438a25.324 25.324 0 01-4.321-5.276c-2.532-3.946-6.764-6.078-9.666-7.138v-1.282l.179-.037-.079-1.192h.079l-.206-3.166v-.026l-1.045-15.706s-3.72-10.473 2.891-20.133.412-18.925-5.8-22.549c0 0-2.891-15.3-.411-18.925a107.441 107.441 0 00-10.383-5.25 9.097 9.097 0 01-.153-.58c-.069-1.424-.158-2.849-.237-4.273a15.548 15.548 0 01.406-2.195c.079-.3.169-.6.264-.913a15.712 15.712 0 0010.1-14.567 15.3 15.3 0 00-.981-5.4 6.79 6.79 0 00.754-1.762 6.971 6.971 0 00-.981-5.023c-1.657-3.577-5.788-6.927-8.784-8.167-4.295-1.741-10.758-1.329-15.232-.791-2.511.3-5.376 1.14-6.284 3.44a23.979 23.979 0 00-.57 2.638c-.939 3.514-5 5.149-7.5 7.84-2.216 2.374-3.166 5.587-3.9 8.716a79.778 79.778 0 00-1.451 27.356c.253 2.11.591 4.194.95 6.284-1.509 2.11-2.87 5.84-2.248 12.319l-4.959 23.351-2.063 13.691a11.924 11.924 0 003.693 10.467 91.908 91.908 0 019.349 11.66 27.672 27.672 0 00-1.5 9.28c.053 1.435.132 2.823.232 4.142a36.577 36.577 0 001.583 8.252c.58 5.624 1.725 12.815 3.967 17.411l.823 24.56s-1.24 22.549-3.693 26.976 5.366 41.875 5.366 41.875v5.234l-1.319 3.873-.332-.248c-6.194 7.65 0 10.467 0 10.467s1.688.079 4.384.185a4.938 4.938 0 002.638 5.455s35.1 1.609 41.3 0 4.543-7.249 1.235-6.859a15.02 15.02 0 01-4.944-.644c1.926-2.242.385-5.276-2.073-4.991-3.3.4-10.737-2.522-10.737-2.522l-.037.048a5.531 5.531 0 00-.728-.222 82.659 82.659 0 01-8.172-2.285c-1.583-3.392-5.276-12.509-2.638-19.579a34.971 34.971 0 001.583-11.575 131.371 131.371 0 015.439-36.752l4.954-16.883s7.022-20.539 7.434-26.174l-.026-8.2c5.8 3.693 10.42 2.585 13.364.86a3.166 3.166 0 00.5-5.091zM232.885 433.7c.142-.591.259-1.235.359-1.915.971 0 1.947 0 2.918-.032a14.863 14.863 0 011.467 7.914c-2.237-.691-5.582-2.385-4.743-5.941z" transform="translate(-135.058 -175.223)" fill="url(#a)"/><path class="s" d="M101.753 420.394l-1.583 4.748 5.165 5.165 17.089 3.973 12.319-1.192-.8-4.374a5.276 5.276 0 00-3.915-3.846c-5.065-1.192-14.72-3.9-16.751-7.676z"/><path class="i" d="M101.753 420.394l-1.583 4.748 5.165 5.165 17.089 3.973 12.319-1.192-.8-4.374a5.276 5.276 0 00-3.915-3.846c-5.065-1.192-14.72-3.9-16.751-7.676z"/><path class="t" d="M130.765 431.894l-2.385-3.166 2.385-3.693s7.149 2.886 10.33 2.49 4.748 5.165-1.192 6.753-39.738 0-39.738 0-5.962-2.78 0-10.33l5.165 3.973s8.742 4.748 13.116 3.973z"/><path class="s" d="M141.491 438.653l-12.319 1.192-17.089-3.978-5.181-5.165.422-1.261.591-1.773.58-1.736 11.523-3.166a7.124 7.124 0 002.337 2.337c3.741 2.559 10.467 4.411 14.414 5.334.164.042.332.09.491.148a5.233 5.233 0 013.424 3.693z"/><path class="i" d="M141.491 438.653l-12.319 1.192-17.089-3.978-5.181-5.165.422-1.261 4.748 3.646s8.747 4.748 13.116 3.973h12.314l-2.385-3.166 2.142-3.308a5.234 5.234 0 013.424 3.693z"/><path class="t" d="M137.502 437.461l-2.385-3.166 2.385-3.693s7.154 2.886 10.33 2.49 4.748 5.165-1.187 6.759-39.744 0-39.744 0-5.962-2.786 0-10.336l5.165 3.973s8.747 4.748 13.116 3.978z"/><path class="s" d="M127.583 206.972s-19.073 1.984-16.292-5.962a14.245 14.245 0 00.586-7.017 19.473 19.473 0 00-3.366-8.083l17.88 2.78a22.327 22.327 0 00-2.422 5.74c-2.131 8.437 3.614 12.542 3.614 12.542z"/><path class="u" d="M94.999 297.575s.4 17.089 4.368 25.435l.8 24.238s-1.192 22.259-3.577 26.628 5.165 41.332 5.165 41.332v6.357s12.715 4.748 16.292-.8l-3.577-47.288 1.583-65.569z"/><path class="g" d="M94.994 297.575s.4 17.089 4.368 25.435l.8 24.238s-1.192 22.259-3.577 26.628 5.165 41.332 5.165 41.332v6.357s12.715 4.748 16.292-.8l-3.578-47.285 1.583-65.569z"/><path class="v" d="M87.048 242.737l-2.385 6.357-1.984 13.512a11.95 11.95 0 003.577 10.33c4.748 4.749 11.127 14.7 11.127 14.7l7.55-22.65s-7.55-1.192-6.331-6.358.791-14.7.791-14.7z"/><path class="i" d="M122.371 425.094c-5.1 8.025-13.032 3.477-14.44 2.575l.58-1.736 11.523-3.166a7.122 7.122 0 002.337 2.327z"/><path class="g" d="M138.315 313.075c-.4 5.561-7.154 25.852-7.154 25.852l-4.748 16.677a132.58 132.58 0 00-5.265 36.256 35.411 35.411 0 01-1.519 11.422c-3.166 8.742 3.166 20.666 3.166 20.666-5.561 9.935-15.1 3.166-15.1 3.166v-6.331s-7.529-34.589-5.54-41.342 2.786-25.04 2.786-25.04v-32.98a37.407 37.407 0 01-10.908-23.738c-.095-1.3-.174-2.67-.222-4.089-.322-8.969 5.8-19.479 8.2-23.214.58-.908.939-1.414.939-1.414l35.083 13.917.079.032v4.363z"/><path class="i" d="M126.391 188.689a22.329 22.329 0 00-2.422 5.74 15.522 15.522 0 01-12.092-.438 19.474 19.474 0 00-3.366-8.083z"/><circle class="s" cx="15.501" cy="15.501" r="15.501" transform="translate(102.945 163.65)"/><path class="i" d="M138.315 287.244l-.174.032c-16.661 3.424-37.57-13.939-37.57-13.939a20.048 20.048 0 001.446-2.96c.58-.907.939-1.414.939-1.414l35.074 13.92.09 1.388z"/><path class="v" d="M133.941 206.576s-22.254-13.512-29.408-7.951l-9.938 12.715s-6.358 1.989-5.165 14.7l-4.748 23.051 14.3 3.577s8.347 7.946 1.583 19.473c0 0 21.062 17.484 37.755 13.907l-1.2-18.661s-3.577-10.336 2.78-19.869.4-18.677-5.561-22.254c-.002-.011-2.783-15.116-.398-18.688z"/><path class="s" d="M135.133 287.64s8.347 1.583 12.319 7.951a24.72 24.72 0 004.163 5.2 3.166 3.166 0 01-.5 5.023c-3.166 1.9-8.294 3.065-14.773-2.274-11.144-9.142-1.209-15.9-1.209-15.9z"/><path class="i" d="M122.814 214.104s-7.946-.8-9.935 19.869-5.165 25.43-5.165 25.43-1.989 10.731 2.78 17.089 13.909 19.917 13.909 19.917 9.94 2.786 11.924-7.154l-12.319-23.045s-1.984-7.951 2.78-13.512 8.346-42.551-3.974-38.594z"/><path class="v" d="M123.61 212.933s-7.951-.8-9.935 19.869-5.165 25.43-5.165 25.43-1.989 10.742 2.78 17.073 13.907 19.869 13.907 19.869 9.935 2.786 11.924-7.149l-12.319-23.051s-1.989-7.951 2.78-13.512 8.337-42.507-3.972-38.529z"/><path class="i" d="M130.165 227.822s.791 12.319-2.786 19.078-3.577 15.5 0 20.265m4.773-54.432s-3.166-3.166-12.319-3.577-13.111-3.166-13.111-3.166"/><path class="i" d="M110.068 159.124c-2.416.3-5.176 1.124-6.046 3.4a23.354 23.354 0 00-.554 2.638c-.9 3.472-4.806 5.086-7.217 7.74-2.11 2.343-3.065 5.513-3.756 8.6a80.791 80.791 0 00-1.419 26.981c.776 6.59 2.358 13.074 2.807 19.695s-.369 13.586-3.989 19.146c-1.583 2.4-3.609 4.5-4.711 7.128 2.279 1.847 5.424 2.11 8.357 2.211q5.128.174 10.256 0a10.94 10.94 0 005.213-1.087 8.078 8.078 0 002.738-2.933c1.952-3.319 2.448-7.307 2.364-11.159s-.691-7.677-.765-11.528c-.037-2.11.127-4.326 1.335-6.046a19.693 19.693 0 013.329-3.081c4.258-3.767 5.714-9.813 5.856-15.5s-.791-11.375-.311-17.036c.185-2.221 1.013-4.88 3.2-5.313a11.263 11.263 0 002.073-.264c1.752-.67 1.583-3.139 2.079-4.944.565-2.031 2.3-3.6 2.78-5.645 1.145-4.806-4.975-10.552-8.969-12.219-4.146-1.729-10.367-1.312-14.65-.784z"/><path class="u" d="M109.65 158.333c-2.416.3-5.176 1.124-6.046 3.392a24.272 24.272 0 00-.528 2.638c-.9 3.472-4.812 5.086-7.223 7.745-2.11 2.337-3.065 5.508-3.756 8.6a80.9 80.9 0 00-1.393 27c.776 6.59 2.358 13.079 2.8 19.7s-.364 13.586-3.983 19.146c-1.583 2.4-3.609 4.5-4.711 7.128 2.279 1.852 5.424 2.11 8.357 2.211q5.128.174 10.256 0a10.878 10.878 0 005.213-1.087 7.982 7.982 0 002.733-2.933c1.957-3.319 2.448-7.307 2.369-11.159s-.7-7.676-.765-11.528c-.037-2.11.127-4.326 1.33-6.041a19.491 19.491 0 013.334-3.081c4.252-3.772 5.714-9.819 5.856-15.5s-.8-11.375-.317-17.036c.19-2.216 1.018-4.88 3.2-5.308a10.832 10.832 0 002.079-.269c1.752-.67 1.583-3.134 2.079-4.944.559-2.031 2.29-3.593 2.78-5.64 1.145-4.812-4.975-10.552-8.969-12.224-4.175-1.75-10.39-1.343-14.695-.81z"/></g></svg>