<svg xmlns="http://www.w3.org/2000/svg" xmlns:xlink="http://www.w3.org/1999/xlink" width="430.506" height="256.83"><defs><linearGradient id="b" x1=".5" x2=".5" y2="1" gradientUnits="objectBoundingBox"><stop offset="0" stop-color="#102397"/><stop offset="1" stop-color="#00eaf8"/></linearGradient><linearGradient id="a" x1=".409" y1=".938" x2=".409" y2=".047" gradientUnits="objectBoundingBox"><stop offset="0" stop-color="gray" stop-opacity=".251"/><stop offset=".54" stop-color="gray" stop-opacity=".122"/><stop offset="1" stop-color="gray" stop-opacity=".102"/></linearGradient><linearGradient id="c" x1=".493" y1="1.008" x2=".493" y2="-.026" xlink:href="#a"/></defs><g transform="translate(-38.621)"><path data-name="Path 4230" d="M307.484 226.747s1 15.049-1 17.558c0 0 44.145 8.026 49.664 5.518s3.01-6.521 0-8.027-18.06-7.023-20.066-17.558c0 0 6.521-3.01-14.548 1s-14.05 1.509-14.05 1.509z" fill="#dc9ba3"/><path data-name="Path 4231" d="M307.484 226.747s1 15.049-1 17.558c0 0 44.145 8.026 49.664 5.518s3.01-6.521 0-8.027-18.06-7.023-20.066-17.558c0 0 6.521-3.01-14.548 1s-14.05 1.509-14.05 1.509z" fill="#263238" opacity=".88"/><path data-name="Path 4232" d="M134.432 16.424l-.191.091a61.929 61.929 0 00-23.076 18.856c-3.421 4.529-7.625 8.847-11.623 9.561-8.879 1.57-74.169 69.687-58.5 133.084s107.1 66.014 107.1 66.014 19.444 3.306 30.6 9.919a20.581 20.581 0 0017.432 1.681c13.284-4.74 35.116-11.615 44.958-9.5 14.623 3.145 139.961-49.251 139.961-49.251s-52.232-50.323-129.01-49.251c0 0-121.174-84.879-117-119.985z" fill="#6c63ff"/><path data-name="Path 4233" d="M134.432 16.424l-.191.091a61.929 61.929 0 00-23.076 18.856c-3.421 4.529-7.625 8.847-11.623 9.561-8.879 1.57-74.169 69.687-58.5 133.084s107.1 66.014 107.1 66.014 19.444 3.306 30.6 9.919a20.581 20.581 0 0017.432 1.681c13.284-4.74 35.116-11.615 44.958-9.5 14.623 3.145 139.961-49.251 139.961-49.251s-52.232-50.323-129.01-49.251c0 0-121.174-84.879-117-119.985z" opacity=".14"/><path data-name="Path 4234" d="M366.339 199.24L353.8 211.318s-9.531 18.621-18.059 20.13-71.241 66.934-56.188 127.829 102.839 63.411 102.839 63.411 18.27 3.105 29.02 9.321a20.821 20.821 0 0017.412 1.706c12.787-4.529 33.5-11.026 42.856-9.013 14.046 3.02 134.443-47.306 134.443-47.306s-50.165-48.313-123.908-47.306c0 0-116.383-81.528-112.37-115.247z" transform="translate(-231.817 -182.936)" fill="url(#b)"/><ellipse data-name="Ellipse 5202" cx="39.56" cy="72.017" rx="39.56" ry="72.017" transform="rotate(-45 208.141 -39.114)" opacity=".1"/><path data-name="Path 4235" d="M134.837 80.298s5.518 9.03 2.007 26.588 9.03 17.558 9.03 17.558h25.083l8.528-22.073-12.04 1s-8.026-2.007-4.515-20.568z" fill="#ffd2d9"/><path data-name="Path 4236" d="M210.165 59.106c-3.838 12.215-8.648 27.089-11.217 35.025l-1.826 5.609-16.554-17.056s.727-1.691 1.816-4.058c2.423-5.247 6.642-13.81 8.719-14.5 0 0-23.076-1.5-30.1 4.013s-5.017-15.05-5.017-15.05 13.545-1 18.561-4.013 32.106-6.02 32.106-6.02 9.03-1.511 3.512 16.05z" fill="#ffd2d9"/><path data-name="Path 4237" d="M119.244 211.052s42.64-19.565 57.69-16.555" opacity=".1"/><path data-name="Path 4238" d="M75.327 164.806s51.67-2.007 79.762 16.053" opacity=".1"/><path data-name="Path 4239" d="M100.912 185.396s40.634-10.033 62.2-6.521" opacity=".1"/><path data-name="Path 4240" d="M361.186 207.183l-3.511 25.584-9.03-1s-.547-.5-1.475-1.344c-2.433-2.142-7.495-6.341-12.34-8.628a15.123 15.123 0 00-5.247-1.565l10.033-15.05a55.42 55.42 0 007.49 2.217 36.145 36.145 0 008.066.953 14.722 14.722 0 006.014-1.167z" fill="#ffd2d9"/><path data-name="Path 4241" d="M335.837 225.242c-4.515 4.013-25.082-4.515-28.594 8.528l-3.231-12.371-9.948-38.07-1.37-5.242-8.287-.356-95.1-4.058-5.4-.221-2.839-.12 3.767-1.866 25.083-12.431s9.03-.632 21.5-2.343c18.892-2.589 45.65-7.65 60.76-16.715 25.083-15.05 34.614 35.617 34.614 35.617s3.813 12.857 6.722 25.524a142.92 142.92 0 013.01 16.585c.422 3.857.292 6.671-.687 7.539z" fill="#e9e9ef"/><path data-name="Path 4242" d="M335.841 225.242c-4.515 4.013-25.083-4.515-28.594 8.528l-3.23-12.371-9.948-38.07-1.369-5.242-8.528-.5-91.9-5.674-5.674-.351-1.746-.105-2.262-.14 27.34-12.291s9.03-.632 21.5-2.343c18.892-2.589 45.65-7.65 60.76-16.715 25.083-15.05 34.614 35.617 34.614 35.617s3.812 12.857 6.722 25.524a142.879 142.879 0 013 16.582c.423 3.869.293 6.683-.685 7.551z" fill="#1147b0"/><path data-name="Path 4243" d="M347.074 207.393l-8.779 10.294-3.512 4.1a15.12 15.12 0 00-5.247-1.565l10.033-15.05a55.48 55.48 0 007.505 2.217z" opacity=".1"/><path data-name="Path 4244" d="M346.349 206.18l-9.817 11.508-4.731 5.548v1.5c-5.789 1.334-23.833-2.468-27.812-3.341-.5-.105-.783-.17-.783-.17-11.538.5-54.178-24.581-54.178-24.581s-46.654 8.027-69.228 6.02c-12.607-1.124-16.138-5.684-16.8-9.5a9.894 9.894 0 01.747-5.553l20.136-14.167 2.674-1.881 4.269-3.01s7.42-1.681 16.845-3.763c14.723-3.246 34.348-7.465 38.321-7.77 6.522-.5 23.076 5.016 32.607 16.053a28.171 28.171 0 005.518 4.515l.261.171c2.679 1.776 5.98 3.667 9.657 5.6 12.145 6.4 28.333 13.264 39.465 17.774a772.087 772.087 0 0012.849 5.047z" fill="#1147b0"/><path data-name="Path 4245" d="M361.201 207.183l-3.512 25.584-9.03-1s-.547-.5-1.475-1.344c2.007.045 5.3-.532 5.99-4.675 0 0-3.476-12.165 2.007-17.4a14.722 14.722 0 006.02-1.165z" opacity=".1"/><path data-name="Path 4246" d="M354.284 225.739s-5.017-17.558 6.522-19.564l19.063 7.525 22.073 1.505s5.764 9.411-3.476 19.945a28.378 28.378 0 01-20.066 9.531l-24.12 1.129-7.525-15.551s6.526 1.504 7.529-4.52z" fill="#3c3e45"/><path data-name="Path 4247" d="M231.197 156.463c-2.508.737-12.983 3.863-23.7 8.107a131.969 131.969 0 00-15.441 7.118 75.958 75.958 0 00-2.96 1.761 25.527 25.527 0 00-6.471 5.418c-6.191 8.026-15.285 12.32-19.81 14.081a9.894 9.894 0 01.747-5.553l20.121-14.162-2.839-.12 3.768-1.866-2.263-.141 27.34-12.29s9.043-.632 21.508-2.353z" opacity=".1"/><path data-name="Path 4248" d="M198.988 94.221l-1.826 5.609-16.555-17.057s.727-1.69 1.816-4.058c2.092 4.44 12.085 12.18 16.565 15.506z" opacity=".1"/><path data-name="Path 4249" d="M138.826 102.72a29.161 29.161 0 01-1.294-5.232l-21.571 7.525s-14.8 11.287-13.294 35.868c0 0 18.31-6.772 26.337 1.254l.166 1.415a65.214 65.214 0 0017.683 37.313c4.013 4.189 7.75 8.914 9.742 13.444 0 0 14.046-4.013 22.574-15.05s49.162-22.574 49.162-22.574-21.571.5-24.581-7.023-13.043-23.577-9.536-36.12 5.518-16.554 5.518-16.554-20.568-14.548-19.063-19.063l-13.043 15.05-6.012 2.01a9.632 9.632 0 01.707 3.667c.319 13.633-18.925 16.917-23.495 4.07z" fill="#05ccf0"/><path data-name="Path 4263" d="M162.154 89.364a51.964 51.964 0 01.763-5.588l-28.093-2.509s1.947 1.68 2.794 7.951c3.3 1.956 7.143 4.59 11.252 4.59a21.973 21.973 0 0013.284-4.444z" opacity=".1"/><circle data-name="Ellipse 5203" cx="22.073" cy="22.073" r="22.073" transform="translate(127.035 48.833)" fill="#ffd2d9"/><path data-name="Path 4264" d="M132.789 76.637h3.01v-8.528l3.01-9.03s15.05-7.023 22.073-5.518l5.518 5.017s1.5-12.04-7.525-16.555-25.083-2.508-29.1 1-10.535 9.531-5.518 26.086l1.505 4.013s6.024-2.003 7.027 3.515z" fill="#844f6e"/><g data-name="Group 1262" opacity=".05"><path data-name="Path 4265" d="M171.504 88.508l1.646-.547 7.595-8.744a2.137 2.137 0 01-.05-1.289z"/><path data-name="Path 4266" d="M160.944 104.686a11.338 11.338 0 006.888-11.036 4.593 4.593 0 00-.05-.843l-.16.181-6.02 2.007a9.635 9.635 0 01.707 3.667 11.991 11.991 0 01-1.365 6.024z"/><path data-name="Path 4267" d="M219.462 156.271c-12.571 4.374-29.6 11.262-34.774 17.969-.125.166-.256.321-.386.5 13.775-9.446 44.03-18.059 44.03-18.059a78.2 78.2 0 01-8.87-.41z"/><path data-name="Path 4268" d="M162.114 189.29c-2.007-4.515-5.754-9.255-9.742-13.444a65.214 65.214 0 01-17.683-37.313l-.166-1.415c-8.026-8.026-26.337-1.254-26.337-1.254-.953-15.591 4.65-25.83 8.874-31.238l-1.1.386s-14.8 11.287-13.294 35.868c0 0 18.31-6.772 26.337 1.254l.166 1.415a65.216 65.216 0 0017.683 37.313c4.013 4.189 7.75 8.914 9.742 13.444 0 0 12.225-3.512 20.788-12.923a51.932 51.932 0 01-15.27 7.906z"/></g><path data-name="Path 4269" d="M156.823 130.618s-24.079 34.614-36.621 44.647-16.053-4.515-16.053-4.515v-32.106l22.073-2.508.236 3.045.266 3.476 20.566-22.072s20.568-18.561 24.581-7.525-15.048 17.558-15.048 17.558z" fill="#ffd2d9"/><path data-name="Path 4270" d="M126.433 139.154a47.788 47.788 0 01-9.531 4.229c-4.741 1.46-10.174-.075-12.792-1v-3.747l22.069-2.512z" opacity=".1"/><path data-name="Path 4271" d="M103.67 135.346l-1.319 5.373s7.841 3.657 14.362 1.65a57.033 57.033 0 0012.541-6.02c1-.5-4.013-6.02-4.013-6.02z" fill="#05ccf0"/><path data-name="Path 4272" d="M248.795 196.714a40.752 40.752 0 0111.036-6.02 39.425 39.425 0 0010.535-5.518" opacity=".1"/><path data-name="Path 4273" d="M401.944 215.209l-.823-.055c1.194 3.01 2.92 10.429-4.158 18.511a28.38 28.38 0 01-20.066 9.531l-23.362 1.094.748 1.54 24.124-1.144a28.379 28.379 0 0020.066-9.531c9.235-10.531 3.471-19.946 3.471-19.946z" fill="#fff" opacity=".2"/><path data-name="Path 4274" d="M287.875 241.044h-.075c.065 1.184.18 3.627.2 6.311.021-2.358-.05-4.676-.125-6.311z" fill="#0f0" opacity=".05"/><path data-name="Path 4275" d="M316.535 236.71q.105.457.236.9c.492-.283 1.199-.815-.236-.9z" fill="#0f0" opacity=".05"/><path data-name="Path 4276" d="M356.144 248.318c-5.142 2.338-43.809-4.47-49.067-5.413a3.913 3.913 0 01-.6 1.4s44.145 8.026 49.663 5.518c2.839-1.289 3.552-2.98 3.166-4.515-.285 1.068-1.23 2.132-3.162 3.01z" fill="#fff" opacity=".2"/><path data-name="Path 4277" d="M287.799 241.052c-.025-.5-.045-.758-.045-.758s-2.554.911.045.758z" fill="#0f0" opacity=".05"/><rect data-name="Rectangle 1367" width="34.614" height="17.056" rx="4.08" transform="translate(136.087 59.885)" opacity=".1"/><rect data-name="Rectangle 1368" width="14.548" height="6.521" rx="2.44" transform="translate(122.989 65.412)" opacity=".1"/><rect data-name="Rectangle 1369" width="34.614" height="17.056" rx="4.08" transform="translate(136.087 59.381)" fill="#7679b4"/><rect data-name="Rectangle 1370" width="30.541" height="15.05" rx="4.08" transform="translate(140.135 60.386)" fill="#565388"/><rect data-name="Rectangle 1371" width="14.548" height="6.521" rx="2.44" transform="translate(122.989 64.908)" fill="#565388"/><path data-name="Path 4278" d="M163.133 60.188a34.187 34.187 0 0012.732-13.654 3.078 3.078 0 00.472-2.107c-.356-1.365-2.137-1.605-3.421-2.192-2.393-1.1-3.4-3.873-4.971-5.985a11.969 11.969 0 00-11.7-4.515c-2.287.462-4.4 1.6-6.712 1.936-4.976.727-10.4-2.288-14.874 0-2.037 1.048-3.416 3.01-4.63 4.966-3.045 4.871-6.863 10.033-4.094 15.747 1.59 3.266 4.129 5.975 7.7 6.928s7.7.161 11.322-.236c2.985-.321 6.11-1 9.115-.687 3.508.381 5.705 1.816 9.061-.201z" opacity=".1"/><path data-name="Path 4279" d="M163.133 59.185a34.187 34.187 0 0012.732-13.654 3.079 3.079 0 00.472-2.107c-.356-1.364-2.137-1.605-3.421-2.192-2.393-1.1-3.4-3.873-4.971-5.985a11.97 11.97 0 00-11.7-4.515c-2.287.462-4.4 1.6-6.712 1.936-4.976.727-10.4-2.288-14.874 0-2.037 1.048-3.416 3.01-4.63 4.966-3.045 4.871-6.863 10.033-4.094 15.747 1.59 3.266 4.129 5.975 7.7 6.928s7.7.161 11.322-.236c2.985-.321 6.11-1 9.115-.687 3.508.381 5.705 1.816 9.061-.201z" fill="#844f6e"/><path data-name="Path 4280" d="M469.127 117.01l-218.213 39V39L469.127 0z" fill="#6c63ff" opacity=".2"/><path data-name="Path 4281" d="M423.919 13.502l40.358-6.958.587 18.085-41.427 6.925z" fill="#6c63ff" opacity=".2"/><g data-name="Group 1263" transform="translate(299.734 32.562)" opacity=".2"><path data-name="Path 4282" d="M45.685 81.908a15.044 15.044 0 014.174-.346c8.252.145 16.815.953 24.912-1.505 4.3-1.294 8.157-3.431 12.591-4.349 7.525-1.55 15.049.712 22.449-1.174 1.505-.386 3.346-.928 4.415-.346 1.239.672.361 2.418 1.871 2.859a7.13 7.13 0 011.4.321c.551.321.205 1-.346 1.44-3.356 2.724-10.184.913-14.387 3.115-.933.5-1.635 1.134-2.508 1.655a18.9 18.9 0 01-4.359 1.605l-23.342 6.521a113.872 113.872 0 01-17.031 3.828c-5.779.687-11.774.406-16.008-1.555a4.247 4.247 0 01-2.1-1.64c-1.639-3.314 2.455-8.887 8.269-10.429z" fill="#252223" opacity=".1"/><path data-name="Path 4283" d="M25.093 35.692l19.529 15.44 19.529 15.436-32.075 6.064L0 78.692l12.546-21.5z" fill="#6c63ff" opacity=".3"/><path data-name="Path 4284" d="M45.4 32.121l19.529 15.436 19.529 15.441-32.076 6.06-32.076 6.065 12.547-21.5z" fill="#6c63ff" opacity=".3"/><path data-name="Path 4285" d="M75.604 0L37.915 71.8l71.48-13.91 26.412-4.991z" fill="#6c63ff"/><path data-name="Path 4286" d="M135.802 52.89l-26.411 5L75.604 0z" opacity=".1"/><path data-name="Path 4287" d="M920.848 291.7a2.052 2.052 0 00-2.177-1.5s.5-3.943-7.625-2.353a2.072 2.072 0 00-3.215-.652l-.346-1.831s-4.455 2.553.266 6.2l.567 3.01a.941.941 0 00.071.221.949.949 0 01.06.171c.216.878 1.8 7.836-1.8 10.214-3.858 2.584-6.065-5.378-6.065-5.378-2.508-10.4-7.284-10.359-8.417-10.193-.135 0-.276.03-.417.04-.532.03-2.182.622-2.814 6.617-.757 7.194-3.512 5.4-3.512 5.4-6.175-3.366-10.534-.421-10.534-.421-10.715 6.3-1.605 18.12.276 20.362-.707 3.567-2.137 9.852-3.512 10.113-1.946.366-5.588 7.2 4.274 17.824l2.624-.5s-8.112-10.595-1.726-15.867a8.278 8.278 0 01-.5 1.129c-3.577 6.115 8.593 13.484 8.593 13.484l2.92-.552-6.742-8.493c-2.679-3.512 2.317-6.381 2.317-6.381 5.914-4.946 2.87-10.916 2.87-10.916l13.805-2.609c-1.706 3.772-4.214 13.043 4.124 25.253l1.946-.366-1.59-14.809s.5-3.185 3.883-7.991c1.344 6.02 4.194 16.409 8.5 20.758l2.819-.532s-3.436-9.858-3.512-13.545c-.035-1.5-.1-2.985-.236-4.47l-.7-7.766a6.657 6.657 0 002.96-6.948l-2.594-13.474a1.42 1.42 0 011.2-1.676l3.326-.451a.833.833 0 00.637-1.109z" transform="translate(-825.373 -258.416)" fill="url(#a)"/><path data-name="Path 4288" d="M81.93 58.046s3.12 18.591 9.225 24.751l2.769-.5s-3.371-9.677-3.462-13.284a64.292 64.292 0 00-.23-4.389l-1.134-12.541z" fill="#535461"/><path data-name="Path 4289" d="M81.93 58.046s3.12 18.591 9.225 24.751l2.769-.5s-3.371-9.677-3.462-13.284a64.292 64.292 0 00-.23-4.389l-1.134-12.541z" opacity=".05"/><path data-name="Path 4290" d="M50.581 60.71s-2.007 11.944-3.9 12.305-5.488 7.068 4.2 17.5l2.578-.5s-8.929-11.658-.436-16.429c-.009.011 1.471-9.961-2.442-12.876z" fill="#535461"/><path data-name="Path 4291" d="M50.581 60.71s-2.007 11.944-3.9 12.305-5.488 7.068 4.2 17.5l2.578-.5s-8.929-11.658-.436-16.429c-.009.011 1.471-9.961-2.442-12.876z" opacity=".05"/><path data-name="Path 4292" d="M82.697 36.576l-.557-2.94c-4.63-3.572-.261-6.08-.261-6.08l.6 3.15c10.971-3.16 10.384 1.6 10.384 1.6A2.007 2.007 0 0195 33.766a.818.818 0 01-.662 1.084l-3.266.446a1.394 1.394 0 00-1.184 1.645l2.543 13.228a6.636 6.636 0 01-1.334 5.423 7.5 7.5 0 01-4.861 2.583l-25.2 4.766s3.01 5.864-2.819 10.715c0 0-4.906 2.8-2.278 6.266l6.617 8.337-2.864.542s-11.944-7.234-8.432-13.239a12 12 0 00-.808-12.11s-12.24-13.5-.587-20.357c0 0 4.3-2.889 10.359.416 0 0 2.7 1.761 3.446-5.3.617-5.884 2.237-6.466 2.759-6.5a1.4 1.4 0 00.406-.04c1.114-.161 5.814-.2 8.267 10.008 0 0 2.167 7.8 5.945 5.3 3.537-2.333 2.006-9.165 1.771-10.033a.947.947 0 00-.06-.166.933.933 0 01-.055-.211z" fill="#535461"/><path data-name="Path 4293" d="M75.583 58.553s-7.755 10.76 3.055 26.588l1.911-.361-1.56-14.548s.923-6.105 9.3-14.116z" fill="#535461"/><circle data-name="Ellipse 5204" cx="2.042" cy="2.042" r="2.042" transform="rotate(-10.7 196.993 -418.696)" fill="#535461"/><path data-name="Path 4294" d="M899.578 290.726c2.358-3.587.953-3.823.04-4.766-.622-.642-5.849-.888-9.1-.978-.07-.251-.181-.672-.311-1.184 0 0-.261-.943-.381-1.605h.206L890 282l4.013-.216c3.426-.141 3.592-1.5 3.592-1.5.08-2.343-3.787-.1-3.787-.1-.768.376-2.8.1-4.395-.216a8.77 8.77 0 01-.075-1 7.578 7.578 0 00-.1-1.55 2.5 2.5 0 00-.5-1.214 20.472 20.472 0 00-4.043-3.692 6.96 6.96 0 01.241-2.634 3.2 3.2 0 001.686-3.406 3.076 3.076 0 00-.311-.883 2.763 2.763 0 00-.612-3.476 2.374 2.374 0 00-.341-.256 3.155 3.155 0 00-2.192-.5 5.718 5.718 0 00-2.378.973 6.461 6.461 0 01-2.684 1.385 10.971 10.971 0 00-2.192.055 3.042 3.042 0 00-1.666 2.147 4.28 4.28 0 01-1.36 2.4 7.111 7.111 0 01-2.383.652 3.512 3.512 0 00-2.533 2.122 2.317 2.317 0 00.913 2.654 1.85 1.85 0 00.431.236 3.7 3.7 0 01.5.2.416.416 0 01.165.276.886.886 0 01-.085.4 2.124 2.124 0 00.145 1.691 1.088 1.088 0 00.417.451.753.753 0 00.165.105c.587.256 1.314-.321 1.9-.06h.045a4.1 4.1 0 01.582.808 1.666 1.666 0 00.5.421 2.458 2.458 0 001.731.371 6.1 6.1 0 002.152-.863c.888-.5 1.856-1.2 1.927-2.192.04-.607-.276-1.194-.2-1.8a1.651 1.651 0 01.336-.788 6.137 6.137 0 00-.106 1.545 8.217 8.217 0 00.151 1.249 8.874 8.874 0 001.144 3.045 13.249 13.249 0 011.65 3.948 5.376 5.376 0 01.03 1.866 7.747 7.747 0 00-.2 2.895c.055.441.2.446.2.446h.035a2.247 2.247 0 00.783 1.59c4.54 1.876 13.775-.783 13.775-.783-1.866.657-3.2 5.769-3.2 5.769a7.158 7.158 0 01-1.355 3.06c-1-.151-2.187.973-3.08 1.63l-.075.05a.738.738 0 00-.13 1.1l3.552 3.893c2.047 1.45 3.226 1.545 3.557 1.134.216-.271.07-.752-.432-1.219-1.214-1.129-1.038-4.791-1-5.1a77.33 77.33 0 014.675-8.393z" transform="translate(-824.626 -246.436)" fill="url(#c)"/><path data-name="Path 4295" d="M60.6 22.976a7.086 7.086 0 00-.351 4.415l-3.848-2.042s1.224-.331.968-3.246z" fill="#f9d5c6"/><path data-name="Path 4296" d="M63.178 38.705s10.209.145 11.077 1.069 2.2 1.169 0 4.65-4.626 8.481-4.626 8.481l-2.6-1.189a6.887 6.887 0 001.791-3.6s1.234-4.981 3.01-5.608c0 0-8.714 2.538-13.043.682a2.5 2.5 0 01-.617-2.749c.539-1.879 5.008-1.736 5.008-1.736z" fill="#353535"/><path data-name="Path 4297" d="M57.509 25.439s-2.548-.627-2.363 3.281a8.752 8.752 0 001.214 4.013c.828 1.415 2.006 3.848 1.661 5.869-.5 3.06 0 3.065 0 3.065l1.3-.793a11.3 11.3 0 015.834-1.656h.607a37.712 37.712 0 01-1.249-6.341 3.863 3.863 0 00-.557-2.508c-1.736-2.246-5.228-4.935-6.447-4.93z" opacity=".1"/><path data-name="Path 4298" d="M57.474 25.258s-2.549-.627-2.363 3.281a8.753 8.753 0 001.214 4.013c.828 1.415 2.007 3.848 1.661 5.869-.5 3.06 0 3.065 0 3.065l1.3-.793a11.3 11.3 0 015.834-1.655h.607a37.738 37.738 0 01-1.246-6.343 3.864 3.864 0 00-.557-2.508c-1.743-2.255-5.231-4.929-6.45-4.929z" fill="#409cd6"/><path data-name="Path 4299" d="M56.526 28.388a1.836 1.836 0 013.01-.682 4.6 4.6 0 01.923 1.425c1.209 2.739 2.127 4.445 2.127 4.445a14.605 14.605 0 012.292.532c.115.938.266 1.911.266 1.911l-3.256.16-4.46-5.287a2.555 2.555 0 01-.902-2.504z" opacity=".1"/><path data-name="Path 4300" d="M56.486 28.193a1.836 1.836 0 013.01-.682 4.592 4.592 0 01.923 1.425c1.209 2.739 2.127 4.445 2.127 4.445s4.9 1.349 6.165.712c0 0 3.642-2.172 3.582.115 0 0-.145 1.314-3.386 1.43l-7.053.346-4.46-5.287a2.59 2.59 0 01-.908-2.504z" fill="#f9d5c6"/><path data-name="Path 4301" d="M57.073 23.388c.1-.457.311-.281.241-1.084l3.231.873a7.451 7.451 0 00-.331 1 3.472 3.472 0 01-1 .186c-.716.147-1.534-.635-2.141-.975z" opacity=".1"/><circle data-name="Ellipse 5205" cx="3.11" cy="3.11" r="3.11" transform="rotate(-10.7 127.88 -285.09)" fill="#f9d5c6"/><path data-name="Path 4302" d="M60.063 20.522c-.552.03-1.154-.146-1.62.146a1.775 1.775 0 00-.5 1.711 4.875 4.875 0 01.215 1.866c-.2.808-1 1.3-1.706 1.731s-1.5 1-1.58 1.816c-.065.587.236 1.164.2 1.756-.06.968-.968 1.635-1.811 2.127a5.609 5.609 0 01-2.007.828 2.1 2.1 0 01-1.981-.722c-.226-.311-.361-.727-.712-.888-.552-.261-1.239.3-1.791.05a1 1 0 01-.441-.467 2.132 2.132 0 01-.146-1.645.886.886 0 00.075-.386c-.045-.316-.431-.421-.732-.537a2.262 2.262 0 01-1.174-2.744 3.285 3.285 0 012.383-2.057 6.669 6.669 0 002.247-.622 4.084 4.084 0 001.269-2.333 2.886 2.886 0 011.56-2.082 9.839 9.839 0 012.072-.04 5.759 5.759 0 002.508-1.334 5.246 5.246 0 012.242-.938 2.844 2.844 0 012.288.652c1.384 1.258 1.47 3.987-.858 4.112z" opacity=".1"/><path data-name="Path 4303" d="M59.947 20.447c-.552.03-1.154-.145-1.62.145a1.776 1.776 0 00-.5 1.711 4.872 4.872 0 01.216 1.866c-.2.808-1 1.3-1.706 1.731s-1.5 1-1.58 1.816c-.065.587.236 1.164.2 1.756-.06.968-.968 1.635-1.811 2.127a5.6 5.6 0 01-2.006.828 2.1 2.1 0 01-1.977-.712c-.226-.311-.361-.727-.712-.888-.552-.261-1.239.3-1.791.05a1 1 0 01-.441-.467 2.131 2.131 0 01-.146-1.645.881.881 0 00.075-.386c-.045-.316-.431-.421-.732-.537a2.262 2.262 0 01-1.174-2.744 3.285 3.285 0 012.383-2.057 6.665 6.665 0 002.247-.622 4.083 4.083 0 001.269-2.333 2.885 2.885 0 011.56-2.082 9.832 9.832 0 012.072-.04 5.76 5.76 0 002.508-1.334 5.247 5.247 0 012.242-.938 2.844 2.844 0 012.287.652c1.379 1.251 1.465 3.973-.863 4.103z" fill="#2f302f"/><path data-name="Path 4304" d="M60.861 28.313s-4.013.261-3.672 3.065-1.395-3.2-1.395-3.2l1.56-1.681 2.227.271z" opacity=".1"/><path data-name="Path 4305" d="M60.754 28.233s-4.013.261-3.672 3.065-1.395-3.2-1.395-3.2l1.56-1.681 2.227.271z" fill="#409cd6"/><path data-name="Path 4306" d="M64.457 53.777l3.381 3.818c1.946 1.425 3.06 1.5 3.371 1.129.2-.261.06-.732-.417-1.189-1.209-1.154-1-5.017-1-5.017a2.358 2.358 0 01-2.252-1.455c-.958-.15-2.062.938-2.9 1.57l-.07.05a.732.732 0 00-.105 1.094z" fill="#409cd6"/><path data-name="Path 4307" d="M69.794 52.528s-1.926.266-2.252-1.455a2.418 2.418 0 002.252 1.455z" opacity=".1"/><path data-name="Path 4308" d="M64.457 53.777l3.381 3.818c1.947 1.425 3.06 1.5 3.371 1.129-.973-.3-3.727-1.5-6.567-6.075l-.07.05a.733.733 0 00-.115 1.079z" opacity=".1"/><path data-name="Path 4309" d="M9.105 83.655s-8.945 8 11.438 13.84c0 0 2.659-8.388-3.045-13.735a6.22 6.22 0 00-8.257-.241z" fill="#6c63ff"/><path data-name="Path 4310" d="M9.19 83.505s9.9 4.961 11.352 13.991" fill="none" stroke="#535461" stroke-miterlimit="10"/><path data-name="Path 4311" d="M19.981 97.578s-5.192-10.143-2.93-18.757a17.262 17.262 0 00-.642-10.926 29.008 29.008 0 00-2.453-4.71" fill="none" stroke="#535461" stroke-miterlimit="10" stroke-width="2"/><path data-name="Path 4312" d="M15.347 57.775c.251 1.314-1.415 5.583-1.415 5.583s-3.105-3.366-3.351-4.68a2.425 2.425 0 014.766-.9z" fill="#6c63ff"/><path data-name="Path 4313" d="M20.668 64.321c-.5 1.239-4.219 3.918-4.219 3.918s-.777-4.515-.271-5.754a2.437 2.437 0 014.515 1.836z" fill="#6c63ff"/><path data-name="Path 4314" d="M22.85 76.813c-1.064.813-5.623 1.254-5.623 1.254s1.61-4.289 2.668-5.1a2.424 2.424 0 112.95 3.848z" fill="#6c63ff"/><path data-name="Path 4315" d="M22.374 86.631c-.908 1-5.328 2.182-5.328 2.182s.858-4.515 1.771-5.478a2.426 2.426 0 013.557 3.3z" fill="#6c63ff"/><path data-name="Path 4316" d="M11.493 69.438c1.119.737 5.694.858 5.694.858s-1.9-4.164-3.01-4.906a2.426 2.426 0 00-2.674 4.048z" fill="#6c63ff"/><path data-name="Path 4317" d="M11.081 80.941c1.289.371 5.689-.888 5.689-.888s-3.06-3.406-4.349-3.778a2.425 2.425 0 00-1.34 4.66z" fill="#6c63ff"/><path data-name="Path 4318" d="M12.2 92.163c1.2.582 5.759.09 5.759.09s-2.443-3.873-3.647-4.455a2.426 2.426 0 00-2.112 4.369z" fill="#6c63ff"/><path data-name="Path 4319" d="M15.347 57.775c.251 1.314-1.415 5.583-1.415 5.583s-3.105-3.366-3.351-4.68a2.425 2.425 0 014.766-.9z" opacity=".25"/><path data-name="Path 4320" d="M20.668 64.321c-.5 1.239-4.219 3.918-4.219 3.918s-.777-4.515-.271-5.754a2.437 2.437 0 014.515 1.836z" opacity=".25"/><path data-name="Path 4321" d="M22.85 76.813c-1.064.813-5.623 1.254-5.623 1.254s1.61-4.289 2.668-5.1a2.424 2.424 0 112.95 3.848z" opacity=".25"/><path data-name="Path 4322" d="M22.374 86.631c-.908 1-5.328 2.182-5.328 2.182s.858-4.515 1.771-5.478a2.426 2.426 0 013.557 3.3z" opacity=".25"/><path data-name="Path 4323" d="M11.493 69.438c1.119.737 5.694.858 5.694.858s-1.9-4.164-3.01-4.906a2.426 2.426 0 00-2.674 4.048z" opacity=".25"/><path data-name="Path 4324" d="M11.081 80.941c1.289.371 5.689-.888 5.689-.888s-3.06-3.406-4.349-3.778a2.425 2.425 0 00-1.34 4.66z" opacity=".25"/><path data-name="Path 4325" d="M12.2 92.163c1.2.582 5.759.09 5.759.09s-2.443-3.873-3.647-4.455a2.426 2.426 0 00-2.112 4.369z" opacity=".25"/><path data-name="Path 4326" d="M29.758 99.502s-5.192-10.143-2.93-18.757a17.261 17.261 0 00-.637-10.9 29.025 29.025 0 00-2.453-4.711" fill="none" stroke="#535461" stroke-miterlimit="10" stroke-width="2"/><path data-name="Path 4327" d="M25.148 59.692c.251 1.314-1.415 5.583-1.415 5.583s-3.105-3.366-3.351-4.68a2.425 2.425 0 114.766-.9z" fill="#6c63ff"/><path data-name="Path 4328" d="M30.465 66.238c-.5 1.239-4.219 3.918-4.219 3.918s-.778-4.515-.271-5.754a2.437 2.437 0 114.515 1.836z" fill="#6c63ff"/><path data-name="Path 4329" d="M32.647 78.73c-1.063.813-5.623 1.254-5.623 1.254s1.61-4.289 2.668-5.1a2.424 2.424 0 012.95 3.848z" fill="#6c63ff"/><path data-name="Path 4330" d="M32.171 88.551c-.908 1-5.328 2.182-5.328 2.182s.858-4.515 1.771-5.478a2.426 2.426 0 113.557 3.3z" fill="#6c63ff"/><path data-name="Path 4331" d="M21.29 71.355c1.119.737 5.694.858 5.694.858s-1.9-4.164-3.01-4.906a2.426 2.426 0 00-2.674 4.048z" fill="#6c63ff"/><path data-name="Path 4332" d="M20.879 82.853c1.289.371 5.689-.888 5.689-.888s-3.06-3.406-4.349-3.777a2.425 2.425 0 10-1.339 4.66z" fill="#6c63ff"/><path data-name="Path 4333" d="M22.014 94.08c1.2.582 5.759.09 5.759.09s-2.443-3.873-3.647-4.455a2.426 2.426 0 10-2.112 4.369z" fill="#6c63ff"/><path data-name="Path 4334" d="M50.486 6.797l-.883.166a.628.628 0 00-.236-1.234l-7.149 1.349a.628.628 0 10.236 1.234l.883-.166a.628.628 0 10.236 1.234l-1.234.236a.628.628 0 10.236 1.234l7.149-1.349a.628.628 0 10-.236-1.234l1.234-.236a.628.628 0 00-.236-1.234z" fill="#252223" opacity=".1"/><path data-name="Path 4335" d="M37.538 19.075l-.883.165a.628.628 0 00-.236-1.234l-7.164 1.349a.628.628 0 00.236 1.234l.883-.166a.628.628 0 00.236 1.234l-1.234.236a.628.628 0 00.236 1.234l7.168-1.35a.628.628 0 10-.236-1.234l1.234-.236a.628.628 0 00-.236-1.234z" fill="#252223" opacity=".1"/><path data-name="Path 4336" d="M110.664 3.391l-.883.166a.628.628 0 00-.235-1.234l-7.144 1.364a.628.628 0 00.236 1.234l.883-.166a.628.628 0 10.236 1.234l-1.259.206a.628.628 0 00.236 1.234l7.149-1.349a.628.628 0 10-.236-1.234l1.234-.236a.628.628 0 10-.236-1.234z" fill="#252223" opacity=".1"/><circle data-name="Ellipse 5206" cx="6.657" cy="6.657" r="6.657" transform="rotate(-10.7 76.885 -32.667)" fill="#6c63ff" opacity=".3"/><path data-name="Path 4337" d="M54.901 53.446a29.905 29.905 0 014.906 5.578c1.56 2.624 1.064 3.511 1.064 3.511" opacity=".05"/></g></g></svg>