<?xml version="1.0" encoding="utf-8"?>
<!-- Generator: Adobe Illustrator 24.3.0, SVG Export Plug-In . SVG Version: 6.00 Build 0)  -->
<svg version="1.1" id="Layer_1" xmlns="http://www.w3.org/2000/svg" xmlns:xlink="http://www.w3.org/1999/xlink" x="0px" y="0px"
	 viewBox="0 0 1920 940.1" style="enable-background:new 0 0 1920 940.1;" xml:space="preserve">
<style type="text/css">
	.st0{fill:#8941BB;}
	.st1{fill:none;}
	.st2{fill:none;stroke:#8941BB;}
</style>
<circle id="Ellipse_33" class="st0" cx="316" cy="288" r="8"/>
<circle id="Ellipse_92" class="st0" cx="332" cy="649" r="8"/>
<circle id="Ellipse_91" class="st0" cx="155" cy="469" r="8"/>
<circle id="Ellipse_52" class="st0" cx="660" cy="340" r="8"/>
<circle id="Ellipse_40" class="st0" cx="585" cy="696" r="8"/>
<circle id="Ellipse_42" class="st0" cx="708" cy="595" r="8"/>
<circle id="Ellipse_36" class="st0" cx="630" cy="812" r="8"/>
<circle id="Ellipse_45" class="st0" cx="716" cy="280" r="8"/>
<circle id="Ellipse_68" class="st0" cx="989" cy="686" r="8"/>
<circle id="Ellipse_60" class="st0" cx="1352" cy="712" r="8"/>
<circle id="Ellipse_55" class="st0" cx="660" cy="316" r="5"/>
<circle id="Ellipse_79" class="st0" cx="842" cy="311" r="5"/>
<circle id="Ellipse_51" class="st0" cx="809" cy="210" r="8"/>
<circle id="Ellipse_66" class="st0" cx="925" cy="630" r="8"/>
<circle id="Ellipse_34" class="st0" cx="420" cy="359" r="27"/>
<circle id="Ellipse_35" class="st0" cx="340" cy="265" r="4"/>
<circle id="Ellipse_69" class="st0" cx="1009" cy="669" r="4"/>
<circle id="Ellipse_38" class="st0" cx="625" cy="735" r="5"/>
<circle id="Ellipse_47" class="st0" cx="688" cy="219" r="5"/>
<circle id="Ellipse_82" class="st0" cx="1287" cy="254" r="5"/>
<circle id="Ellipse_84" class="st0" cx="1452" cy="280" r="5"/>
<circle id="Ellipse_86" class="st0" cx="1388" cy="283" r="8"/>
<circle id="Ellipse_85" class="st0" cx="1437" cy="311" r="5"/>
<circle id="Ellipse_83" class="st0" cx="1269" cy="337" r="5"/>
<circle id="Ellipse_80" class="st0" cx="865" cy="321" r="5"/>
<circle id="Ellipse_50" class="st0" cx="827" cy="213" r="5"/>
<circle id="Ellipse_67" class="st0" cx="945" cy="715" r="5"/>
<circle id="Ellipse_61" class="st0" cx="1332" cy="720" r="5"/>
<circle id="Ellipse_62" class="st0" cx="1308" cy="582" r="5"/>
<circle id="Ellipse_48" class="st0" cx="837" cy="207" r="3"/>
<circle id="Ellipse_49" class="st0" cx="819" cy="221" r="3"/>
<circle id="Ellipse_54" class="st0" cx="1180" cy="488" r="3"/>
<circle id="Ellipse_70" class="st0" cx="1193" cy="518" r="3"/>
<circle id="Ellipse_71" class="st0" cx="1206" cy="530" r="3"/>
<circle id="Ellipse_72" class="st0" cx="1264" cy="485" r="3"/>
<circle id="Ellipse_73" class="st0" cx="1246" cy="457" r="3"/>
<circle id="Ellipse_75" class="st0" cx="1324" cy="474" r="3"/>
<circle id="Ellipse_77" class="st0" cx="1374" cy="389" r="3"/>
<circle id="Ellipse_74" class="st0" cx="1347" cy="451" r="3"/>
<circle id="Ellipse_43" class="st0" cx="625" cy="562" r="5"/>
<circle id="Ellipse_58" class="st0" cx="447" cy="254" r="5"/>
<circle id="Ellipse_44" class="st0" cx="572" cy="618" r="5"/>
<circle id="Ellipse_39" class="st0" cx="577" cy="678" r="5"/>
<circle id="Ellipse_37" class="st0" cx="642" cy="704" r="26"/>
<circle id="Ellipse_46" class="st0" cx="775" cy="228" r="26"/>
<circle id="Ellipse_81" class="st0" cx="1111" cy="280" r="26"/>
<circle id="Ellipse_57" class="st0" cx="545" cy="324" r="52"/>
<circle id="Ellipse_88" class="st0" cx="1224" cy="202" r="29"/>
<circle id="Ellipse_89" class="st0" cx="287" cy="739" r="14"/>
<circle id="Ellipse_90" class="st0" cx="133" cy="434" r="14"/>
<circle id="Ellipse_64" class="st0" cx="965" cy="582" r="40"/>
<circle id="Ellipse_59" class="st0" cx="1432" cy="678" r="61"/>
<circle id="Ellipse_53" class="st0" cx="622" cy="298" r="18"/>
<circle id="Ellipse_78" class="st0" cx="985" cy="380" r="12"/>
<circle id="Ellipse_63" class="st0" cx="1470" cy="590" r="18"/>
<circle id="Ellipse_56" class="st0" cx="538" cy="272" r="18"/>
<circle id="Ellipse_65" class="st0" cx="1015" cy="623" r="18"/>
<circle id="Ellipse_76" class="st0" cx="1370" cy="341" r="18"/>
<circle id="Ellipse_87" class="st0" cx="1710" cy="261" r="7"/>
<circle id="Ellipse_41" class="st0" cx="557.5" cy="561.5" r="46.5"/>
<circle class="st1" cx="1710" cy="261" r="45"/>
<circle class="st2" cx="1710" cy="261" r="44.5"/>
<circle class="st1" cx="1710" cy="261" r="29"/>
<circle class="st2" cx="1710" cy="261" r="28.5"/>
<circle class="st1" cx="287" cy="739" r="45"/>
<circle class="st2" cx="287" cy="739" r="44.5"/>
<circle class="st1" cx="287" cy="739" r="29"/>
<circle class="st2" cx="287" cy="739" r="28.5"/>
<circle class="st1" cx="545" cy="321" r="127"/>
<circle class="st2" cx="545" cy="321" r="126.5"/>
<circle class="st1" cx="545" cy="321" r="82"/>
<circle class="st2" cx="545" cy="321" r="81.5"/>
<circle class="st1" cx="340" cy="265" r="27"/>
<circle class="st2" cx="340" cy="265" r="26.5"/>
<circle class="st1" cx="340" cy="265" r="18"/>
<circle class="st2" cx="340" cy="265" r="17.5"/>
<circle class="st1" cx="1432" cy="678" r="212"/>
<circle class="st2" cx="1432" cy="678" r="211.5"/>
<circle class="st1" cx="1432" cy="678" r="141"/>
<circle class="st2" cx="1432" cy="678" r="140.5"/>
</svg>
