<svg xmlns="http://www.w3.org/2000/svg" width="30.277" height="21.288" viewBox="0 0 30.277 21.288">
  <path id="FontAwsome_youtube_" data-name="FontAwsome (youtube)" d="M44.577,67.331A3.8,3.8,0,0,0,41.9,64.637C39.539,64,30.071,64,30.071,64s-9.468,0-11.829.637a3.8,3.8,0,0,0-2.677,2.694,42.834,42.834,0,0,0,0,14.67,3.748,3.748,0,0,0,2.677,2.651c2.361.637,11.829.637,11.829.637s9.468,0,11.829-.637A3.748,3.748,0,0,0,44.577,82a42.835,42.835,0,0,0,0-14.67Zm-17.6,11.837v-9l7.913,4.5-7.913,4.5Z" transform="translate(-14.933 -64)" fill="#fff"/>
</svg>
