<svg xmlns="http://www.w3.org/2000/svg" width="405.114" height="512"><g fill="#fff"><path data-name="Path 2" d="M386.994 301.781l-173.781 173.8V10.667a10.667 10.667 0 00-21.334 0v464.917L18.098 301.781a10.667 10.667 0 00-15.083 15.082l192 192a10.667 10.667 0 0015.085.019l.019-.019 192-192a10.667 10.667 0 00-15.083-15.083z"/><path data-name="Path 3" d="M202.546 512a10.663 10.663 0 01-7.552-3.115l-192-192A10.667 10.667 0 0118.076 301.8l184.469 184.45L386.993 301.8a10.667 10.667 0 0115.083 15.083l-192 192a10.664 10.664 0 01-7.53 3.117z"/><path data-name="Path 4" d="M202.546 512a10.667 10.667 0 01-10.667-10.667V10.667a10.667 10.667 0 0121.334 0v490.667A10.667 10.667 0 01202.546 512z"/></g></svg>