<svg xmlns="http://www.w3.org/2000/svg" width="26.211" height="21.288" viewBox="0 0 26.211 21.288">
  <path id="FontAwsome_twitter_" data-name="FontAwsome (twitter)" d="M23.517,53.387c.017.233.017.466.017.7A15.18,15.18,0,0,1,8.249,69.37,15.181,15.181,0,0,1,0,66.959a11.116,11.116,0,0,0,1.3.066,10.759,10.759,0,0,0,6.669-2.3A5.381,5.381,0,0,1,2.944,61a6.774,6.774,0,0,0,1.015.083A5.682,5.682,0,0,0,5.372,60.9a5.373,5.373,0,0,1-4.308-5.272v-.066a5.41,5.41,0,0,0,2.428.682,5.38,5.38,0,0,1-1.663-7.185,15.27,15.27,0,0,0,11.077,5.621,6.064,6.064,0,0,1-.133-1.231,5.377,5.377,0,0,1,9.3-3.676,10.576,10.576,0,0,0,3.409-1.3,5.357,5.357,0,0,1-2.362,2.96,10.769,10.769,0,0,0,3.093-.832A11.548,11.548,0,0,1,23.517,53.387Z" transform="translate(0 -48.082)" fill="#fff"/>
</svg>
