<svg xmlns="http://www.w3.org/2000/svg" width="405.114" height="512" viewBox="0 0 405.114 512">
  <g id="down-arrow" transform="translate(-53.443)">
    <path id="Path_2" data-name="Path 2" d="M440.437,301.781l-173.781,173.8V10.667a10.667,10.667,0,0,0-21.334,0V475.584L71.541,301.781a10.667,10.667,0,0,0-15.083,15.082l192,192a10.667,10.667,0,0,0,15.085.019l.019-.019,192-192a10.667,10.667,0,0,0-15.083-15.083Z" fill="#fff"/>
    <path id="Path_3" data-name="Path 3" d="M255.989,512a10.663,10.663,0,0,1-7.552-3.115l-192-192A10.667,10.667,0,0,1,71.519,301.8L255.988,486.25,440.436,301.8a10.667,10.667,0,0,1,15.083,15.083l-192,192A10.664,10.664,0,0,1,255.989,512Z" fill="#fff"/>
    <path id="Path_4" data-name="Path 4" d="M255.989,512a10.667,10.667,0,0,1-10.667-10.667V10.667a10.667,10.667,0,0,1,21.334,0V501.334A10.667,10.667,0,0,1,255.989,512Z" fill="#fff"/>
  </g>
</svg>
