<svg xmlns="http://www.w3.org/2000/svg" xmlns:xlink="http://www.w3.org/1999/xlink" width="195.325" height="256.832" viewBox="0 0 195.325 256.832">
  <defs>
    <linearGradient id="linear-gradient" x1="0.5" x2="0.5" y2="1" gradientUnits="objectBoundingBox">
      <stop offset="0" stop-color="#102397"/>
      <stop offset="1" stop-color="#00eaf8"/>
    </linearGradient>
    <linearGradient id="linear-gradient-3" x1="0.5" x2="0.5" y2="1" gradientUnits="objectBoundingBox">
      <stop offset="0" stop-color="#102397"/>
      <stop offset="1" stop-color="#363280"/>
    </linearGradient>
  </defs>
  <g id="undraw_Firmware_jw6u" transform="translate(-277.927 -15.803)">
    <rect id="Rectangle_1348" data-name="Rectangle 1348" width="111.795" height="51.847" rx="12.97" transform="translate(309.635 70.107)" fill="url(#linear-gradient)"/>
    <rect id="Rectangle_1349" data-name="Rectangle 1349" width="93.973" height="0.972" transform="translate(318.547 113.997)" opacity="0.1"/>
    <rect id="Rectangle_1350" data-name="Rectangle 1350" width="93.973" height="35.645" transform="translate(318.547 78.208)" opacity="0.3"/>
    <circle id="Ellipse_5192" data-name="Ellipse 5192" cx="12.962" cy="12.962" r="12.962" transform="translate(327.458 83.813)" opacity="0.1"/>
    <circle id="Ellipse_5193" data-name="Ellipse 5193" cx="12.962" cy="12.962" r="12.962" transform="translate(377.685 83.813)" opacity="0.1"/>
    <rect id="Rectangle_1351" data-name="Rectangle 1351" width="19.442" height="11.344" transform="translate(355.811 121.952)" fill="#0e38a1"/>
    <rect id="Rectangle_1352" data-name="Rectangle 1352" width="81.011" height="64.809" transform="translate(325.028 130.056)" fill="url(#linear-gradient)"/>
    <rect id="Rectangle_1353" data-name="Rectangle 1353" width="84.252" height="8.101" transform="translate(323.407 207.826)" fill="#0d42a6"/>
    <path id="Path_4198" data-name="Path 4198" d="M720.689,335.718v37.265h14.582V324.376H720.689Z" transform="translate(-383.509 -100.348)" fill="#062b56"/>
    <path id="Path_4199" data-name="Path 4199" d="M780.8,324.376v48.607H795.38V324.376Z" transform="translate(-399.872 -100.348)" fill="#083d7b"/>
    <path id="Path_4200" data-name="Path 4200" d="M713,280.656v14.986a21.921,21.921,0,0,0-10.772,5.192,25.484,25.484,0,0,0-6.413,9.4,47.761,47.761,0,0,0-3.158,14.353,82.07,82.07,0,0,0,.9,19.256h-16.2a110.6,110.6,0,0,1,.424-23.239,61.672,61.672,0,0,1,5.2-18.419c4.694-9.845,11.37-15.187,17.236-18.088A31.833,31.833,0,0,1,713,280.656Z" transform="translate(-399.008 -136.018)" fill="#0b57b0"/>
    <rect id="Rectangle_1354" data-name="Rectangle 1354" width="14.582" height="11.342" transform="translate(337.18 224.028)" fill="#062b56"/>
    <rect id="Rectangle_1355" data-name="Rectangle 1355" width="14.582" height="14.582" transform="translate(337.18 245.091)" opacity="0.3"/>
    <rect id="Rectangle_1356" data-name="Rectangle 1356" width="14.582" height="4.861" transform="translate(337.18 267.774)" opacity="0.3"/>
    <rect id="Rectangle_1357" data-name="Rectangle 1357" width="14.582" height="11.342" transform="translate(380.925 224.028)" opacity="0.3"/>
    <rect id="Rectangle_1358" data-name="Rectangle 1358" width="14.582" height="14.582" transform="translate(380.925 245.091)" opacity="0.3"/>
    <rect id="Rectangle_1359" data-name="Rectangle 1359" width="14.582" height="4.861" transform="translate(380.925 267.774)" opacity="0.3"/>
    <path id="Path_4201" data-name="Path 4201" d="M721.709,280.656v14.986a21.919,21.919,0,0,0-10.771,5.192L708.921,284.1A31.832,31.832,0,0,1,721.709,280.656Z" transform="translate(-407.715 -136.018)" opacity="0.3"/>
    <path id="Path_4202" data-name="Path 4202" d="M696.132,318.29a47.768,47.768,0,0,0-3.158,14.353l-14.881-3.983a61.673,61.673,0,0,1,5.2-18.419Z" transform="translate(-399.323 -144.072)" opacity="0.3"/>
    <path id="Path_4203" data-name="Path 4203" d="M868.128,280.656v14.986a21.918,21.918,0,0,1,10.772,5.192,25.482,25.482,0,0,1,6.412,9.4,47.764,47.764,0,0,1,3.158,14.353,82.07,82.07,0,0,1-.9,19.256h16.2a110.593,110.593,0,0,0-.424-23.239,61.677,61.677,0,0,0-5.2-18.419c-4.694-9.845-11.37-15.187-17.236-18.088a31.832,31.832,0,0,0-12.788-3.444Z" transform="translate(-451.055 -136.018)" fill="#0b57b0"/>
    <path id="Path_4204" data-name="Path 4204" d="M868.128,280.656v14.986a21.918,21.918,0,0,1,10.772,5.192l2.016-16.734a31.832,31.832,0,0,0-12.788-3.444Z" transform="translate(-451.055 -136.018)" opacity="0.3"/>
    <path id="Path_4205" data-name="Path 4205" d="M891.74,318.29a47.768,47.768,0,0,1,3.158,14.353l14.881-3.983a61.677,61.677,0,0,0-5.2-18.419Z" transform="translate(-457.483 -144.072)" opacity="0.3"/>
    <rect id="Rectangle_1360" data-name="Rectangle 1360" width="19.442" height="1.343" transform="translate(355.811 121.952)" opacity="0.1"/>
    <path id="Path_4206" data-name="Path 4206" d="M854.38,276.485v27.134a5.654,5.654,0,0,1-1.506-3.846V280.328a5.645,5.645,0,0,1,1.506-3.843Z" transform="translate(-446.903 -134.883)" opacity="0.1"/>
    <path id="Path_4207" data-name="Path 4207" d="M741.484,277.658V297.97a5.648,5.648,0,0,1-1.51,3.437V274.221A5.648,5.648,0,0,1,741.484,277.658Z" transform="translate(-416.169 -134.266)" opacity="0.1"/>
    <rect id="Rectangle_1361" data-name="Rectangle 1361" width="72.909" height="0.96" transform="translate(329.079 194.866)" opacity="0.1"/>
    <rect id="Rectangle_1362" data-name="Rectangle 1362" width="35.644" height="0.744" transform="translate(327.458 215.929)" opacity="0.1"/>
    <rect id="Rectangle_1363" data-name="Rectangle 1363" width="35.644" height="0.744" transform="translate(366.345 215.929)" opacity="0.1"/>
    <rect id="Rectangle_1364" data-name="Rectangle 1364" width="5.579" height="47.981" transform="translate(331.434 22.126)" fill="url(#linear-gradient-3)"/>
    <rect id="Rectangle_1365" data-name="Rectangle 1365" width="5.579" height="47.981" transform="translate(395.408 22.126)" fill="url(#linear-gradient-3)"/>
    <circle id="Ellipse_5194" data-name="Ellipse 5194" cx="6.323" cy="6.323" r="6.323" transform="translate(327.715 16.175)" opacity="0.1"/>
    <circle id="Ellipse_5195" data-name="Ellipse 5195" cx="6.323" cy="6.323" r="6.323" transform="translate(327.715 15.803)" fill="url(#linear-gradient-3)"/>
    <circle id="Ellipse_5196" data-name="Ellipse 5196" cx="6.323" cy="6.323" r="6.323" transform="translate(392.061 16.175)" opacity="0.1"/>
    <circle id="Ellipse_5197" data-name="Ellipse 5197" cx="6.323" cy="6.323" r="6.323" transform="translate(392.061 15.803)" fill="url(#linear-gradient-3)"/>
    <rect id="Rectangle_1366" data-name="Rectangle 1366" width="53.855" height="6.55" transform="translate(419.894 72.865) rotate(-17.351)" fill="#0e38a1"/>
  </g>
</svg>
