<svg id="Layer_1" data-name="Layer 1" xmlns="http://www.w3.org/2000/svg" viewBox="0 0 50 50"><defs><style>.cls-1{fill:#fff}</style></defs><path class="cls-1" d="M935 565v-50h50v50zm25-1c12.71 0 24-11.21 24-23.93s-11.18-24-23.93-24-24 11.19-24 23.94S947.24 564 960 564z" transform="translate(-935 -515)"/><path d="M960 564c-12.74 0-24-11.25-23.94-24s11.27-24 24-23.94S984 527.3 984 540s-11.31 24-24 24zm.25-16.9l10.49-10.92-6-.4V526c-3.27.14-7.3-.74-8.25.59-1.68 2.34-1.46 6-2 9.11l-4.34.62zM948 550c1.34 1.88 2 3.65 2.71 3.67 6.31.23 12.63.21 18.94 0 .71 0 1.39-1.38 2.08-2.12-.7-.53-1.39-1.51-2.09-1.53-6.74-.02-13.53-.02-21.64-.02z" transform="translate(-935 -515)"/><path class="cls-1" d="M960.23 547.06l-10.09-10.7 4.34-.62c.58-3.08.36-6.77 2-9.11 1-1.33 5-.45 8.25-.59v9.7l6 .4zM948 550c8.07 0 14.86 0 21.64.07.7 0 1.39 1 2.09 1.53-.69.74-1.37 2.1-2.08 2.12-6.31.16-12.63.18-18.94 0-.71-.05-1.33-1.82-2.71-3.72z" transform="translate(-935 -515)"/></svg>