<svg xmlns="http://www.w3.org/2000/svg" width="26.211" height="21.288"><path data-name="FontAwsome (twitter)" d="M23.517 5.305c.017.233.017.466.017.7A15.18 15.18 0 018.249 21.288 15.181 15.181 0 010 18.877a11.116 11.116 0 001.3.066 10.759 10.759 0 006.669-2.3 5.381 5.381 0 01-5.025-3.725 6.774 6.774 0 001.015.083 5.682 5.682 0 001.413-.183 5.373 5.373 0 01-4.308-5.272V7.48a5.41 5.41 0 002.428.682A5.38 5.38 0 011.829.977a15.27 15.27 0 0011.077 5.621 6.064 6.064 0 01-.133-1.231 5.377 5.377 0 019.3-3.676 10.576 10.576 0 003.409-1.3 5.357 5.357 0 01-2.362 2.96 10.769 10.769 0 003.093-.832 11.548 11.548 0 01-2.696 2.786z" fill="#fff"/></svg>