<svg id="Icon_contact" data-name="Icon/contact" xmlns="http://www.w3.org/2000/svg" width="24" height="24" viewBox="0 0 24 24">
  <rect id="padding" width="24" height="24" rx="2" fill="#fff" opacity="0"/>
  <path id="phone" d="M17.323,13.619v2.135a1.423,1.423,0,0,1-1.552,1.423,14.085,14.085,0,0,1-6.142-2.185,13.879,13.879,0,0,1-4.27-4.27A14.085,14.085,0,0,1,3.174,4.551,1.423,1.423,0,0,1,4.59,3H6.725A1.423,1.423,0,0,1,8.149,4.224a9.139,9.139,0,0,0,.5,2,1.423,1.423,0,0,1-.32,1.5l-.9.9a11.388,11.388,0,0,0,4.27,4.27l.9-.9a1.423,1.423,0,0,1,1.5-.32,9.139,9.139,0,0,0,2,.5,1.423,1.423,0,0,1,1.224,1.445Z" transform="translate(1.644 1.808)" fill="none" stroke="#fff" stroke-linecap="round" stroke-linejoin="round" stroke-width="2"/>
</svg>
