<svg data-name="Icon/contact" xmlns="http://www.w3.org/2000/svg" width="24" height="24"><path d="M18.967 15.427v2.135a1.423 1.423 0 01-1.552 1.423 14.085 14.085 0 01-6.142-2.185 13.879 13.879 0 01-4.27-4.27 14.085 14.085 0 01-2.185-6.171 1.423 1.423 0 011.416-1.551h2.135a1.423 1.423 0 011.424 1.224 9.139 9.139 0 00.5 2 1.423 1.423 0 01-.32 1.5l-.9.9a11.388 11.388 0 004.27 4.27l.9-.9a1.423 1.423 0 011.5-.32 9.139 9.139 0 002 .5 1.423 1.423 0 011.224 1.445z" fill="none" stroke="#fff" stroke-linecap="round" stroke-linejoin="round" stroke-width="2"/></svg>