<svg xmlns="http://www.w3.org/2000/svg" width="21.289" height="21.288" viewBox="0 0 21.289 21.288">
  <path id="FontAwsome_linkedin-in_" data-name="FontAwsome (linkedin-in)" d="M4.765,21.3H.352V7.085H4.765ZM2.556,5.146a2.568,2.568,0,1,1,2.556-2.58A2.578,2.578,0,0,1,2.556,5.146ZM21.284,21.3h-4.4V14.38c0-1.649-.033-3.764-2.295-3.764-2.295,0-2.646,1.792-2.646,3.645V21.3H7.53V7.085h4.233V9.024h.062A4.638,4.638,0,0,1,16,6.729c4.467,0,5.288,2.941,5.288,6.762V21.3Z" transform="translate(0 -0.01)" fill="#fff"/>
</svg>
