<svg xmlns="http://www.w3.org/2000/svg" width="17.669" height="17.67" viewBox="0 0 17.669 17.67">
  <g id="Group_6" data-name="Group 6" transform="translate(-136 -418.33)">
    <g id="Group_5" data-name="Group 5">
      <g id="Group_4" data-name="Group 4" transform="translate(136 418.33)">
        <g id="Group_3" data-name="Group 3" transform="translate(0 0)">
          <g id="Group_2" data-name="Group 2">
            <g id="Group_1" data-name="Group 1" transform="translate(0 0)">
              <path id="Path_1" data-name="Path 1" d="M6.332,184.312,4.25,186.394a2.209,2.209,0,0,1-3.124-3.123l4.165-4.165a2.208,2.208,0,0,1,3.123,0,.736.736,0,0,0,1.041-1.041,3.681,3.681,0,0,0-5.205,0L.085,182.23a3.681,3.681,0,0,0,5.206,5.205l2.082-2.082a.736.736,0,1,0-1.041-1.041Z" transform="translate(0.993 -170.844)"/>
              <path id="Path_2" data-name="Path 2" d="M199.938.078a3.681,3.681,0,0,0-5.206,0l-2.5,2.5a.736.736,0,0,0,1.041,1.041l2.5-2.5A2.209,2.209,0,0,1,198.9,4.242l-4.581,4.581a2.208,2.208,0,0,1-3.123,0,.736.736,0,1,0-1.041,1.041,3.681,3.681,0,0,0,5.205,0l4.581-4.581A3.681,3.681,0,0,0,199.938.078Z" transform="translate(-183.347 1)"/>
            </g>
          </g>
        </g>
      </g>
    </g>
  </g>
</svg>
