<svg xmlns="http://www.w3.org/2000/svg" width="17.669" height="17.67"><g data-name="Group 6"><g data-name="Group 5"><g data-name="Group 4"><g data-name="Group 3"><g data-name="Group 2"><g data-name="Group 1"><path data-name="Path 1" d="M7.325 13.468L5.243 15.55a2.209 2.209 0 01-3.124-3.123l4.165-4.165a2.208 2.208 0 013.123 0 .736.736 0 001.041-1.041 3.681 3.681 0 00-5.205 0l-4.165 4.165a3.681 3.681 0 005.206 5.205l2.082-2.082a.736.736 0 10-1.041-1.041z"/><path data-name="Path 2" d="M16.591 1.078a3.681 3.681 0 00-5.206 0l-2.5 2.5a.736.736 0 001.041 1.041l2.5-2.5a2.21 2.21 0 013.127 3.123l-4.581 4.581a2.208 2.208 0 01-3.123 0 .736.736 0 10-1.041 1.041 3.681 3.681 0 005.205 0l4.581-4.581a3.681 3.681 0 00-.003-5.205z"/></g></g></g></g></g></g></svg>