<svg xmlns="http://www.w3.org/2000/svg" xmlns:xlink="http://www.w3.org/1999/xlink" width="17.672" height="24" viewBox="0 0 17.672 24"><defs><style>.a{fill:url(#a);}</style><linearGradient id="a" x1="0.5" x2="0.5" y2="1" gradientUnits="objectBoundingBox"><stop offset="0" stop-color="#102397"/><stop offset="1" stop-color="#00eaf8"/></linearGradient></defs><g transform="translate(-12.883)"><path class="a" d="M21.718,0a8.846,8.846,0,0,0-8.835,8.836,8.619,8.619,0,0,0,.773,3.607,55.711,55.711,0,0,0,7.69,11.387.492.492,0,0,0,.745,0,55.738,55.738,0,0,0,7.691-11.387,8.615,8.615,0,0,0,.773-3.607A8.847,8.847,0,0,0,21.718,0Zm0,13.425a4.59,4.59,0,1,1,4.59-4.59A4.6,4.6,0,0,1,21.718,13.425Z" transform="translate(0)"/></g></svg>