<svg xmlns="http://www.w3.org/2000/svg" width="12.656" height="10.019" viewBox="0 0 12.656 10.019"><defs><style>.a{fill:#2196f3;}.b{fill:#444445;}</style></defs><g transform="translate(0.001)"><path class="a" d="M12.636,58.44a.264.264,0,0,0-.057-.287L7.832,53.407a.264.264,0,0,0-.373.373l4.3,4.3H.264a.264.264,0,0,0,0,.527H11.756l-4.3,4.3a.264.264,0,0,0,.366.379l.006-.006,4.746-4.746A.264.264,0,0,0,12.636,58.44Z" transform="translate(-0.001 -53.333)"/><path class="b" d="M298.911,63.371a.264.264,0,0,1-.187-.45l4.56-4.559-4.56-4.559a.264.264,0,0,1,.373-.373l4.746,4.746a.264.264,0,0,1,0,.373L299.1,63.294A.263.263,0,0,1,298.911,63.371Z" transform="translate(-291.266 -53.354)"/><path class="b" d="M12.392,245.74H.264a.264.264,0,1,1,0-.527H12.392a.264.264,0,1,1,0,.527Z" transform="translate(-0.001 -240.47)"/></g></svg>