<svg xmlns="http://www.w3.org/2000/svg" width="131.104" height="144" viewBox="0 0 131.104 144">
  <path id="Shape" d="M366.348,417.762a80.093,80.093,0,0,0-2.316-19.631c-6.836-22.186-27.444-39.2-53.012-43.081a110.136,110.136,0,0,0-12.359-.825,71.149,71.149,0,0,0-37.9,11.424,58.99,58.99,0,0,0-.038,97.123,71.053,71.053,0,0,0,36.758,11.433c-.03,14.137-.093,23.991-.212,24.019.244,0,66.345-25.455,69.078-80.391C366.349,417.809,366.348,417.787,366.348,417.762Z" transform="translate(-235.245 -354.225)" fill="#632e8e"/>
</svg>
