<svg xmlns="http://www.w3.org/2000/svg" xmlns:xlink="http://www.w3.org/1999/xlink" width="303" height="303" viewBox="0 0 303 303">
  <defs>
    <filter id="Rectangle_1288" x="0" y="0" width="303" height="303" filterUnits="userSpaceOnUse">
      <feOffset dy="2" input="SourceAlpha"/>
      <feGaussianBlur stdDeviation="22.5" result="blur"/>
      <feFlood flood-opacity="0.161"/>
      <feComposite operator="in" in2="blur"/>
      <feComposite in="SourceGraphic"/>
    </filter>
    <linearGradient id="linear-gradient" x1="0.5" y1="1.513" x2="0.5" y2="0.008" gradientUnits="objectBoundingBox">
      <stop offset="0" stop-color="#fff"/>
      <stop offset="1" stop-color="#dae9f9"/>
    </linearGradient>
    <linearGradient id="linear-gradient-2" x1="0.5" y1="-4.955" x2="0.557" y2="10.112" gradientUnits="objectBoundingBox">
      <stop offset="0" stop-color="#102397"/>
      <stop offset="1" stop-color="#00eaf8"/>
    </linearGradient>
  </defs>
  <g id="Group_1460" data-name="Group 1460" transform="translate(-115.5 -1310.5)">
    <g transform="matrix(1, 0, 0, 1, 115.5, 1310.5)" filter="url(#Rectangle_1288)">
      <rect id="Rectangle_1288-2" data-name="Rectangle 1288" width="168" height="168" rx="4" transform="translate(67.5 65.5)" fill="#f6f9fd"/>
    </g>
    <g id="Icon" transform="translate(211.584 1404.584)">
      <rect id="Icon_bg" data-name="Icon bg" width="110.011" height="110.011" rx="15" transform="translate(0.416 0.416)" fill="url(#linear-gradient)"/>
    </g>
    <g id="A_-_132_x2C__Chess_x2C__laptop_x2C__strategy_x2C__game" transform="translate(153.914 1396.25)">
      <g id="Group_893" data-name="Group 893" transform="translate(98.087 43.751)">
        <path id="Path_3868" data-name="Path 3868" d="M188.3,188.675h1.558v-1.336a1.26,1.26,0,0,0-1.175-1.329H176.8a1.26,1.26,0,0,0-1.175,1.329v1.336H188.3Z" transform="translate(-167.858 -172.661)" fill="url(#linear-gradient-2)"/>
        <path id="Path_3869" data-name="Path 3869" d="M187.492,275.03h11.254c-.682-3.677-1.332-7.183-2.068-11.161h-9.124c-.436,2.356-.841,4.547-1.241,6.706-.431,2.33-.856,4.623-1.3,7.046h14.218l-.359-1.934H187.492a.328.328,0,1,1,0-.657Z" transform="translate(-177.237 -243.748)" fill="url(#linear-gradient-2)"/>
        <path id="Path_3870" data-name="Path 3870" d="M207.587,220.764a.793.793,0,0,0,.79-.794v-.786H196.456v.786a.8.8,0,0,0,.794.794h10.337Z" transform="translate(-187.537 -202.693)" fill="url(#linear-gradient-2)"/>
        <rect id="Rectangle_1292" data-name="Rectangle 1292" width="9.074" height="1.58" transform="translate(10.343 18.591)" fill="url(#linear-gradient-2)"/>
        <path id="Path_3871" data-name="Path 3871" d="M211.874,162.84H200.823V164.5h11.051Z" transform="translate(-191.467 -151.647)" fill="url(#linear-gradient-2)"/>
        <rect id="Rectangle_1293" data-name="Rectangle 1293" width="4.555" height="0.481" transform="translate(12.602 10.144)" fill="url(#linear-gradient-2)"/>
        <path id="Path_3872" data-name="Path 3872" d="M237.8,134.551a5.168,5.168,0,0,1-.829.288l-.036.009c-.069.017-.138.034-.208.048l-.089.017c-.055.01-.11.021-.165.029s-.091.012-.137.018l-.124.016c-.06.006-.121.01-.181.014l-.086.007q-.135.007-.271.007c-.1,0-.2,0-.294-.009l-.1-.008c-.062,0-.125-.01-.187-.017l-.126-.016-.155-.024-.141-.025-.126-.027a5.1,5.1,0,0,1-.625-.181l-.025-.009c-.071-.026-.141-.054-.21-.083l-.035-.015c-.136-.058-.271-.12-.4-.19v1.053H237.8v-.9Z" transform="translate(-220.647 -125.873)" fill="url(#linear-gradient-2)"/>
        <path id="Path_3873" data-name="Path 3873" d="M216.017,52.681h0q.213.043.432.066l.044,0q.083.008.166.013l.056,0c.07,0,.14.005.21.005.091,0,.182,0,.273-.009l.084-.006q.1-.007.19-.019l.095-.012c.062-.009.123-.019.185-.031s.109-.021.163-.033.1-.022.148-.035.115-.032.172-.049l.052-.016a4.513,4.513,0,1,0-2.271.118Z" transform="translate(-201.908 -43.751)" fill="url(#linear-gradient-2)"/>
        <path id="Path_3874" data-name="Path 3874" d="M161.925,430.122H144.649a1.839,1.839,0,0,0-1.755,1.909v1.908h20.787v-1.908A1.839,1.839,0,0,0,161.925,430.122Z" transform="translate(-138.408 -393.939)" fill="url(#linear-gradient-2)"/>
        <path id="Path_3875" data-name="Path 3875" d="M167.234,407.782v1.58h15.914v-1.58H167.234Z" transform="translate(-160.311 -373.836)" fill="url(#linear-gradient-2)"/>
        <path id="Path_3876" data-name="Path 3876" d="M323.152,240.052a.328.328,0,0,0,.464,0l2.314-2.321h5.893a.328.328,0,0,0,0-.657h-6.03a.328.328,0,0,0-.232.1l-2.41,2.418A.329.329,0,0,0,323.152,240.052Z" transform="translate(-302.392 -218.945)" fill="url(#linear-gradient-2)"/>
        <path id="Path_3877" data-name="Path 3877" d="M331.824,301.473h-5.893l-2.314-2.314a.328.328,0,0,0-.465.464l2.41,2.41a.328.328,0,0,0,.232.1h6.03a.328.328,0,1,0,0-.657Z" transform="translate(-302.392 -275.122)" fill="url(#linear-gradient-2)"/>
        <path id="Path_3878" data-name="Path 3878" d="M98.415,237.732h5.892l2.314,2.321a.328.328,0,1,0,.465-.464l-2.41-2.418a.328.328,0,0,0-.232-.1H98.415a.328.328,0,1,0,0,.657Z" transform="translate(-98.087 -218.947)" fill="url(#linear-gradient-2)"/>
        <path id="Path_3879" data-name="Path 3879" d="M98.417,302.129h6.029a.328.328,0,0,0,.232-.1l2.41-2.41a.328.328,0,1,0-.464-.464l-2.314,2.314H98.417a.328.328,0,0,0,0,.657Z" transform="translate(-98.089 -275.121)" fill="url(#linear-gradient-2)"/>
        <path id="Path_3880" data-name="Path 3880" d="M394.544,250.917h-1.462a.328.328,0,0,0-.328.328v1.461a.328.328,0,0,0,.328.328h1.462a.328.328,0,0,0,.328-.328v-1.461A.328.328,0,0,0,394.544,250.917Zm-.328,1.461h0v-.8h0Z" transform="translate(-365.112 -231.46)" fill="url(#linear-gradient-2)"/>
        <path id="Path_3881" data-name="Path 3881" d="M394.544,335.848h-1.462a.328.328,0,0,0-.328.328v1.461a.328.328,0,0,0,.328.328h1.462a.328.328,0,0,0,.328-.328v-1.461A.328.328,0,0,0,394.544,335.848Zm-.328,1.461h0v-.8h0Z" transform="translate(-365.112 -308.414)" fill="url(#linear-gradient-2)"/>
        <path id="Path_3882" data-name="Path 3882" d="M98.416,253.035h1.461a.328.328,0,0,0,.328-.328v-1.461a.328.328,0,0,0-.328-.328H98.416a.328.328,0,0,0-.328.328v1.461A.328.328,0,0,0,98.416,253.035Zm1.133-1.461v.8h0v-.8Z" transform="translate(-98.088 -231.46)" fill="url(#linear-gradient-2)"/>
        <path id="Path_3883" data-name="Path 3883" d="M99.877,335.848H98.416a.328.328,0,0,0-.328.328v1.461a.328.328,0,0,0,.328.328h1.461a.328.328,0,0,0,.328-.328v-1.461A.328.328,0,0,0,99.877,335.848Zm-.328,1.461h0v-.8h0Z" transform="translate(-98.088 -308.414)" fill="url(#linear-gradient-2)"/>
      </g>
    </g>
  </g>
</svg>
