<svg xmlns="http://www.w3.org/2000/svg" width="557.859" height="345.79" viewBox="0 0 557.859 345.79"><defs><style>.a,.i{fill:#385b71;}.a,.e,.j{opacity:0.1;}.b{fill:#d6d6e3;}.c{fill:#aebee1;}.d{fill:#535461;}.f{fill:#e3edf9;}.g{fill:#f8b9bf;}.h{fill:#d9dfe8;}.k{fill:#263238;}.l{fill:#1147b0;}.m{fill:#05ccf0;}.n{fill:none;stroke:#535461;stroke-miterlimit:10;stroke-width:2px;}.o{fill:#2f465f;}</style></defs><g transform="translate(-66.326 -74.137)"><rect class="a" width="30.589" height="46.306" transform="translate(531.545 120.419)"/><rect class="a" width="24.642" height="37.299" transform="translate(534.77 124.696)"/><rect class="a" width="46.979" height="46.306" transform="translate(475.82 92.806)"/><rect class="a" width="37.845" height="37.299" transform="translate(480.694 97.016)"/><rect class="b" width="14.67" height="163.934" transform="translate(212.685 236.003)"/><path class="c" d="M987.375,438.106V286.889a15.9,15.9,0,0,1,15.9-15.889h0a15.9,15.9,0,0,1,15.867,15.889V469.9a15.9,15.9,0,0,1-15.9,15.9H904.787a15.9,15.9,0,0,1-15.9-15.9h0a15.9,15.9,0,0,1,15.9-15.9h66.691a15.9,15.9,0,0,0,15.9-15.9Z" transform="translate(-401.29 -163.712)"/><path class="d" d="M987.375,438.106V286.889a15.9,15.9,0,0,1,15.9-15.889h0a15.9,15.9,0,0,1,15.867,15.889V469.9a15.9,15.9,0,0,1-15.9,15.9H904.787a15.9,15.9,0,0,1-15.9-15.9h0a15.9,15.9,0,0,1,15.9-15.9h66.691a15.9,15.9,0,0,0,15.9-15.9Z" transform="translate(-401.29 -163.712)"/><path class="b" d="M888.92,469.047A15.9,15.9,0,0,1,904.794,454h66.691a15.9,15.9,0,0,0,15.9-15.9V286.889A15.9,15.9,0,0,1,1002.516,271V469.047Z" transform="translate(-401.297 -162.319)"/><path class="c" d="M221.506,444.924V293.707a15.9,15.9,0,0,0-15.859-15.9h0a15.9,15.9,0,0,0-15.9,15.9V476.717a15.9,15.9,0,0,0,15.9,15.934h98.447a15.9,15.9,0,0,0,15.9-15.9h0a15.9,15.9,0,0,0-15.9-15.9H237.41a15.9,15.9,0,0,1-15.9-15.934Z" transform="translate(-117.088 -166.435)"/><path class="d" d="M221.506,444.924V293.707a15.9,15.9,0,0,0-15.859-15.9h0a15.9,15.9,0,0,0-15.9,15.9V476.717a15.9,15.9,0,0,0,15.9,15.934h98.447a15.9,15.9,0,0,0,15.9-15.9h0a15.9,15.9,0,0,0-15.9-15.9H237.41a15.9,15.9,0,0,1-15.9-15.934Z" transform="translate(-117.088 -166.435)"/><path class="b" d="M325.574,475.872A15.9,15.9,0,0,0,309.7,460.828H243.015a15.9,15.9,0,0,1-15.9-15.9V293.714A15.9,15.9,0,0,0,212,277.84l0,198.032Z" transform="translate(-142.289 -165.012)"/><rect class="b" width="14.67" height="167.757" transform="translate(465.071 235.526)"/><rect class="e" width="14.67" height="12.119" transform="translate(212.685 249.692)"/><rect class="e" width="14.67" height="12.119" transform="translate(465.071 249.692)"/><path class="e" d="M497.172,337.92q-.352,3.875-.89,7.855H494.21V337.92Z" transform="translate(-237.914 -174.817)"/><path class="d" d="M557.281,419.523a4.526,4.526,0,0,1-4.242,4.833H508.266v-4.668h37.254a2.341,2.341,0,0,0,1.8-3.5L513.54,347.475a2.992,2.992,0,0,0-2.618-1.691H494.21V337.93h21.1a2.1,2.1,0,0,1,1.833,1.182l38.728,74.808a12.719,12.719,0,0,1,1.406,5.6Z" transform="translate(-241.318 -179.205)"/><path class="d" d="M466.461,383.43l-.613,1.032-5.738-3.83,17.752-136.5h4.571s.187.628.494,1.825C485.986,257.753,501.015,324.564,466.461,383.43Z" transform="translate(-227.335 -148.083)"/><path class="e" d="M482.919,245.955,466.461,383.43l-.613,1.032-5.738-3.83,17.752-136.5h4.571S482.612,244.781,482.919,245.955Z" transform="translate(-227.033 -148.083)"/><rect class="b" width="141.604" height="10.847" transform="translate(228.325 235.384) rotate(-83.17)"/><path class="f" d="M402.322,446.642a1.287,1.287,0,0,1-1.279,1.279h-1.915a1.279,1.279,0,0,1-1.279-1.279.619.619,0,0,1,0-.15,1.279,1.279,0,0,1,1.264-1.122h1.915a1.287,1.287,0,0,1,1.234.972A1.185,1.185,0,0,1,402.322,446.642Z" transform="translate(-204.43 -211.968)"/><path class="f" d="M409.993,446.642a1.287,1.287,0,0,1-1.279,1.279H406.8a1.279,1.279,0,0,1-1.279-1.279,1.253,1.253,0,0,1,.052-.352,1.2,1.2,0,0,1,.322-.546,1.249,1.249,0,0,1,.9-.374h1.915a1.287,1.287,0,0,1,1.175.748A1.318,1.318,0,0,1,409.993,446.642Z" transform="translate(-207.103 -211.968)"/><path class="f" d="M416.813,446.639a1.287,1.287,0,0,1-1.279,1.279h-1.915a1.279,1.279,0,0,1-1.279-1.279,1.214,1.214,0,0,1,.112-.531,1.3,1.3,0,0,1,1.16-.748h1.915a1.272,1.272,0,0,1,1.279,1.279Z" transform="translate(-209.479 -211.965)"/><path class="f" d="M424.494,446.642a1.287,1.287,0,0,1-1.279,1.279H421.3a1.279,1.279,0,0,1-1.047-2.012l.15-.165a1.249,1.249,0,0,1,.9-.374h1.915a1.287,1.287,0,0,1,.928.411A1.234,1.234,0,0,1,424.494,446.642Z" transform="translate(-212.154 -211.968)"/><path class="e" d="M402.285,446.66a1.177,1.177,0,0,1,.037.307,1.287,1.287,0,0,1-1.279,1.279h-1.915a1.279,1.279,0,0,1-1.279-1.279.62.62,0,0,1,0-.15Z" transform="translate(-204.43 -212.355)"/><path class="e" d="M409.889,446.39a1.317,1.317,0,0,1,.1.5,1.287,1.287,0,0,1-1.279,1.279H406.8a1.279,1.279,0,0,1-1.279-1.279,1.254,1.254,0,0,1,.052-.352Z" transform="translate(-207.103 -212.274)"/><path class="e" d="M416.629,446.16a1.276,1.276,0,0,1-1.085,1.953h-1.915a1.279,1.279,0,0,1-1.279-1.279,1.213,1.213,0,0,1,.112-.531Z" transform="translate(-209.482 -212.204)"/><path class="e" d="M424.494,446.778a1.287,1.287,0,0,1-1.279,1.279H421.3a1.279,1.279,0,0,1-1.047-2.012l3.89-.135A1.234,1.234,0,0,1,424.494,446.778Z" transform="translate(-212.154 -212.13)"/><path class="b" d="M428.883,452.007H391.89v-1.683a2.88,2.88,0,0,1,2.783-2.88l29.669-1.025a4.4,4.4,0,0,1,4.548,4.391Z" transform="translate(-203.746 -212.528)"/><path class="d" d="M685.31,419.523a4.526,4.526,0,0,0,4.242,4.833h44.8v-4.668h-37.3a2.341,2.341,0,0,1-1.8-3.5l33.783-68.711a2.992,2.992,0,0,1,2.618-1.691h16.72V337.93H727.277a2.1,2.1,0,0,0-1.8,1.175l-38.728,74.808A12.715,12.715,0,0,0,685.31,419.523Z" transform="translate(-309.252 -179.205)"/><path class="d" d="M787.71,383.43l.613,1.032,5.738-3.83L776.31,244.13h-4.571s-.187.628-.494,1.825C768.178,257.753,753.119,324.564,787.71,383.43Z" transform="translate(-334.52 -148.083)"/><path class="e" d="M773.23,245.955,789.688,383.43l.613,1.032,5.738-3.83-17.744-136.5h-4.571S773.537,244.781,773.23,245.955Z" transform="translate(-336.761 -148.083)"/><rect class="b" width="10.847" height="141.604" transform="translate(436.39 96.064) rotate(-6.83)"/><path class="f" d="M860,446.642a1.287,1.287,0,0,0,1.279,1.279h1.915a1.279,1.279,0,0,0,1.279-1.279.619.619,0,0,0,0-.15,1.28,1.28,0,0,0-1.265-1.122h-1.915a1.286,1.286,0,0,0-1.234.972A1.177,1.177,0,0,0,860,446.642Z" transform="translate(-365.394 -211.968)"/><path class="f" d="M852.329,446.642a1.287,1.287,0,0,0,1.279,1.279h1.915a1.279,1.279,0,0,0,1.279-1.279,1.264,1.264,0,0,0-.052-.352,1.2,1.2,0,0,0-.322-.546,1.249,1.249,0,0,0-.9-.374h-1.953a1.287,1.287,0,0,0-1.175.748A1.317,1.317,0,0,0,852.329,446.642Z" transform="translate(-362.722 -211.968)"/><path class="f" d="M845.51,446.639a1.287,1.287,0,0,0,1.279,1.279H848.7a1.279,1.279,0,0,0,1.279-1.279,1.219,1.219,0,0,0-.112-.531,1.3,1.3,0,0,0-1.16-.748H846.8a1.272,1.272,0,0,0-1.279,1.279Z" transform="translate(-360.347 -211.965)"/><path class="f" d="M837.83,446.642a1.286,1.286,0,0,0,1.279,1.279h1.915a1.279,1.279,0,0,0,1.047-2.012l-.15-.165a1.248,1.248,0,0,0-.9-.374h-1.915a1.287,1.287,0,0,0-.928.411A1.234,1.234,0,0,0,837.83,446.642Z" transform="translate(-357.672 -211.968)"/><path class="e" d="M860.037,446.66a1.181,1.181,0,0,0-.037.307,1.286,1.286,0,0,0,1.279,1.279h1.915a1.279,1.279,0,0,0,1.279-1.279.626.626,0,0,0,0-.15Z" transform="translate(-365.394 -212.355)"/><path class="e" d="M852.435,446.39a1.318,1.318,0,0,0-.1.5,1.287,1.287,0,0,0,1.279,1.279h1.915a1.279,1.279,0,0,0,1.279-1.279,1.256,1.256,0,0,0-.052-.352Z" transform="translate(-362.723 -212.274)"/><path class="e" d="M845.695,446.16a1.275,1.275,0,0,0,1.085,1.953h1.915a1.279,1.279,0,0,0,1.279-1.279,1.212,1.212,0,0,0-.112-.531Z" transform="translate(-360.344 -212.204)"/><path class="e" d="M837.83,446.778a1.286,1.286,0,0,0,1.279,1.279h1.915a1.279,1.279,0,0,0,1.047-2.012l-3.89-.135a1.235,1.235,0,0,0-.351.868Z" transform="translate(-357.672 -212.13)"/><path class="b" d="M822.487,452.007H859.48v-1.683a2.88,2.88,0,0,0-2.783-2.88l-29.669-1.025a4.4,4.4,0,0,0-4.548,4.391Z" transform="translate(-355.383 -212.528)"/><path class="g" d="M858.02,416.578l-3.329,13.465s-2.992-.673-7.481-1.825c-15.2-3.935-47.264-13.383-34.412-20.318,11.079-5.985,27.395-.165,37.082,4.376,3.546,1.668,6.209,3.164,7.4,3.868C857.781,416.428,858.02,416.578,858.02,416.578Z" transform="translate(-352.019 -199.366)"/><path class="e" d="M869.675,422.732l-2.394,9.725s-2.992-.673-7.481-1.825l2.7-15.942c3.546,1.668,6.209,3.164,7.4,3.868Z" transform="translate(-365.86 -202.213)"/><path class="h" d="M830.181,414.423l-9.291-2.3,2.888-17.026,7.428,1.833Z" transform="translate(-326.457 -183.273)"/><path class="e" d="M831.96,414.748l-4.01-.987,1.511-17.37,3.523.868Z" transform="translate(-328.412 -183.665)"/><path class="i" d="M961.672,344.814s-17.842-10.309-25.771,19.263-8.678,43.194-8.678,43.194l-56.345-11.266-1.788,20.58s60.243,19.45,67.821,18.036,32.167-42.641,32.167-42.641S991.431,360.03,961.672,344.814Z" transform="translate(-396.302 -181.407)"/><g class="j" transform="translate(465.839 162.304)"><path class="e" d="M869.675,422.732l-2.394,9.725s-2.992-.673-7.481-1.825l2.7-15.942c3.546,1.668,6.209,3.164,7.4,3.868Z" transform="translate(-859.8 -361.864)"/><path d="M830.181,414.423l-9.291-2.3,2.888-17.026,7.428,1.833Z" transform="translate(-820.299 -342.91)"/><path class="e" d="M831.96,414.748l-4.01-.987,1.511-17.37,3.523.868Z" transform="translate(-822.077 -343.235)"/><path d="M961.672,345.814s-17.842-10.309-25.771,19.263-8.678,43.194-8.678,43.194l-56.345-11.266-1.788,20.58s60.243,19.45,67.821,18.036,32.167-42.641,32.167-42.641S991.431,361.03,961.672,345.814Z" transform="translate(-862.14 -344.075)"/></g><path class="k" d="M827.756,651.246l-23,13.248s-29.8,3.651-9.949,10.608,66.01-.307,66.01-.307-2.566-20.737-6.142-23.632S827.756,651.246,827.756,651.246Z" transform="translate(-346.74 -285.574)"/><path class="l" d="M929.452,452.885s-11.446,5.985-31.778,11.154c-11.917,2.992-26.834,5.117-37.142,6.329A26.789,26.789,0,0,0,837.7,489.541a17.084,17.084,0,0,0-.262,9.276c3.389,11.842-1.668,108.105-1.668,108.105l34.935,3.232s-4.765-17.737,2.469-26.677-1.212-76.985-1.212-76.985,12.658-5.237,50.48-5.581c35.04,8.977,49.478-29.377,44.069-40.127S929.452,452.885,929.452,452.885Z" transform="translate(-387.908 -227.401)"/><path class="k" d="M842.178,662l-23,13.248s-29.789,3.621-9.949,10.608,66.011-.307,66.011-.307-2.566-20.737-6.142-23.632S842.178,662,842.178,662Z" transform="translate(-351.887 -289.389)"/><path class="l" d="M936.813,511.657c-37.823.344-50.48,5.581-50.48,5.581s8.446,68.075,1.212,76.985-2.469,26.677-2.469,26.677l-34.936-3.232s.06-1.137.157-3.172c.838-16.727,4.526-94.378,1.5-104.933a17.086,17.086,0,0,1,.262-9.246A26.8,26.8,0,0,1,874.879,481.1c10.3-1.2,25.218-3.3,37.135-6.329l.584-.15c19.974-5.132,31.195-11,31.195-11s31.651-2.843,37.06,7.907a12.716,12.716,0,0,1,1.107,5.424C982.229,491.452,967.342,519.49,936.813,511.657Z" transform="translate(-391.528 -231.502)"/><path class="g" d="M879.27,440.626l-1.279,13.84s-3.075-.217-7.645-.7c-15.612-1.623-48.73-6.187-37.022-14.962,10.069-7.541,27.066-4.249,37.322-1.2,3.74,1.122,6.613,2.207,7.892,2.723C879.008,440.514,879.27,440.626,879.27,440.626Z" transform="translate(-359.48 -209.214)"/><path class="g" d="M1006.318,310.148s-4.683,3.666-10.406,7.69c-6.276,1.421-13.563,2.6-18.814,3.359,1.878-5.985.748-12.717-1.369-18.62a70.087,70.087,0,0,0-9.388-17.266L998,275.43c-2.484,6.291-1.362,13.465.748,19.7A64.971,64.971,0,0,0,1006.318,310.148Z" transform="translate(-420.801 -154.813)"/><path class="e" d="M892.206,445.67l-.92,9.942s-3.075-.217-7.645-.7l.3-16.166c3.74,1.122,6.613,2.207,7.892,2.723Z" transform="translate(-374.028 -210.585)"/><path class="h" d="M854.311,437.218l-9.531-.883.314-17.266,7.623.7Z" transform="translate(-334.716 -191.601)"/><path class="e" d="M1009.479,316.771s-4.683,3.666-10.406,7.69c-6.276,1.421-13.563,2.6-18.814,3.359,1.878-5.985.748-12.717-1.369-18.62,7.735-2.244,18.8-5.147,23.026-7.481A64.965,64.965,0,0,0,1009.479,316.771Z" transform="translate(-423.963 -163.004)"/><path class="h" d="M1000.214,302.22s5.3,12.022,8.633,17.453-38.766,10.473-38.766,10.473-4.369-15.134-2.281-16.869S996.691,305.736,1000.214,302.22Z" transform="translate(-421.026 -163.265)"/><path class="e" d="M1003.062,476.954a37.875,37.875,0,0,1-6.553,8.483c-18.6,17.67-49.082-.748-62.839-10.817,19.974-5.132,31.2-11,31.2-11s31.651-2.843,37.06,7.907a12.717,12.717,0,0,1,1.137,5.431Z" transform="translate(-412.571 -220.076)"/><path class="m" d="M994.286,447.061c-21.141,20.079-57.6-6.508-67.432-14.341-1.593-1.272-2.484-2.057-2.484-2.057,3.883-3.636,7.294-11.341,9.994-20.767a182.226,182.226,0,0,0,5.439-27.514,102.113,102.113,0,0,1,16.1-44.01c1.144-1.721,2.244-3.329,3.389-4.735,7.982-10.151,21.4-16.6,21.4-16.6,28.307-8.274,32.115,33.716,31.36,34.928S1018.86,423.713,994.286,447.061Z" transform="translate(-410.228 -174.642)"/><path class="e" d="M997.023,398.869s-18.2,44.436-25.479,46.972c-4.167,1.444-26.422-1.294-44.69-3.905-1.593-1.272-2.484-2.057-2.484-2.057,3.883-3.636,7.294-11.341,9.994-20.767l23.527,1.122s-1.309-13.57,2.147-44,22.614-22.891,22.614-22.891C1014.349,363.956,997.023,398.869,997.023,398.869Z" transform="translate(-410.228 -184.978)"/><path class="e" d="M855.767,437.344l-4.114-.381L850.56,419.57l3.613.329Z" transform="translate(-335.907 -191.751)"/><path class="m" d="M974,350.722s-19.158-7.533-22.615,22.891-2.147,44-2.147,44l-57.4-2.745,1.294,20.617s62.472,10.256,69.751,7.728,25.48-46.972,25.48-46.972S1005.668,361.33,974,350.722Z" transform="translate(-402.033 -184.026)"/><path class="e" d="M994.621,287.827c-.838-4.548,3.913-4.488,5.618-8.767l-31.659,9.882a69.868,69.868,0,0,1,5.865,9.329,26.267,26.267,0,0,0,5.035.972C987.028,299.961,989.384,292.533,994.621,287.827Z" transform="translate(-421.365 -154.987)"/><circle class="g" cx="26.153" cy="26.153" r="26.153" transform="translate(530.372 142.81) rotate(-84.72)"/><path class="e" d="M949.588,229.72c.322,2.723,3.194,4.384,5.865,5s5.566.643,7.907,2.072c3.74,2.3,4.75,7.421,4.279,11.82-.262,2.484-.636,5.528,1.4,6.972a5.421,5.421,0,0,0,2.095.748,19.644,19.644,0,0,0,6.448.224,9.17,9.17,0,0,1,3.74-.1c1.96.569,3.12,2.633,3.5,4.631s.172,4.077.479,6.089a12.642,12.642,0,0,0,9.964,10.279,5.483,5.483,0,0,0,3.516-.314c1.421-.748,2.147-2.341,2.76-3.83l4.489-10.742a83.679,83.679,0,0,0,5.132-14.857,41.831,41.831,0,0,0-1.788-23.146c-1.062-2.813-2.528-5.633-5.02-7.324-4.99-3.389-11.969-1.047-17.64-2.992-1.878-.651-3.568-1.758-5.439-2.424-4.047-1.444-8.618-.681-12.515,1.137s-7.047,4.683-10.473,7.294C955.318,222.568,949.027,225.014,949.588,229.72Z" transform="translate(-416.572 -132.52)"/><path class="k" d="M950.508,228.95c.322,2.723,3.194,4.384,5.865,5s5.566.643,7.907,2.072c3.741,2.3,4.75,7.421,4.279,11.82-.262,2.484-.636,5.528,1.4,6.972a5.421,5.421,0,0,0,2.095.748,19.647,19.647,0,0,0,6.448.224,9.169,9.169,0,0,1,3.74-.1c1.96.568,3.12,2.633,3.5,4.631s.172,4.077.479,6.089a12.642,12.642,0,0,0,9.964,10.279,5.483,5.483,0,0,0,3.516-.314c1.422-.748,2.147-2.341,2.76-3.83l4.488-10.742a83.668,83.668,0,0,0,5.132-14.857,41.83,41.83,0,0,0-1.788-23.146c-1.062-2.813-2.528-5.633-5.02-7.324-4.99-3.389-11.969-1.047-17.64-2.992-1.878-.651-3.568-1.758-5.438-2.424-4.047-1.444-8.618-.681-12.516,1.137s-7.047,4.683-10.473,7.294C956.246,221.8,949.955,224.244,950.508,228.95Z" transform="translate(-416.804 -132.242)"/><path class="e" d="M970.574,373.34s-9.987,38.8-19.929,42.386-5.551,4.608-5.551,4.608" transform="translate(-415.205 -189.438)"/><rect class="b" width="10.855" height="71.344" transform="translate(544.986 304.25)"/><rect class="e" width="10.855" height="5.289" transform="translate(544.986 310.064)"/><path class="b" d="M936.57,561.639v1.5a3.508,3.508,0,0,0,3.508,3.509h47.264a3.508,3.508,0,0,0,3.509-3.509v-1.5a3.509,3.509,0,0,0-3.509-3.509H940.078A3.508,3.508,0,0,0,936.57,561.639Z" transform="translate(-413.301 -251.71)"/><path class="e" d="M937.65,559.409h52.672a3.493,3.493,0,0,0-2.708-1.279H940.351A3.494,3.494,0,0,0,937.65,559.409Z" transform="translate(-413.573 -251.123)"/><rect class="b" width="89.179" height="8.528" rx="4.264" transform="translate(505.831 368.666)"/><circle class="d" cx="5.431" cy="5.431" r="5.431" transform="translate(584.537 375.822)"/><circle class="d" cx="5.431" cy="5.431" r="5.431" transform="translate(528.649 375.822)"/><circle class="d" cx="5.431" cy="5.431" r="5.431" transform="translate(544.986 375.822)"/><rect class="b" width="85.304" height="13.181" rx="6.591" transform="translate(538.881 233.237)"/><path class="e" d="M976.455,653.5s-4.264,4.212-10.855,0" transform="translate(-420.614 -284.179)"/><path class="e" d="M1042.744,455.17v1.04a5.424,5.424,0,0,1-5.423,5.424H962.864a5.424,5.424,0,0,1-5.424-5.424v-1.04Z" transform="translate(-418.559 -215.637)"/><rect class="b" width="14.67" height="186.915" transform="translate(495.021 233.012)"/><rect class="e" width="14.67" height="12.119" transform="translate(495.021 249.692)"/><rect class="b" width="10.855" height="71.344" transform="translate(111.467 308.598)"/><rect class="e" width="10.855" height="5.289" transform="translate(111.467 314.507)"/><path class="b" d="M297.891,568.479v1.5a3.508,3.508,0,0,1-3.508,3.508H247.118a3.508,3.508,0,0,1-3.508-3.508v-1.5A3.509,3.509,0,0,1,247.118,565h47.264a3.508,3.508,0,0,1,3.508,3.508Z" transform="translate(-152.093 -254.106)"/><path class="e" d="M297.36,566.242H244.68A3.493,3.493,0,0,1,247.388,565h47.264A3.493,3.493,0,0,1,297.36,566.242Z" transform="translate(-152.432 -253.511)"/><rect class="b" width="89.179" height="8.528" rx="4.264" transform="translate(75.638 373.089)"/><circle class="d" cx="5.431" cy="5.431" r="5.431" transform="translate(95.119 380.242)"/><circle class="d" cx="5.431" cy="5.431" r="5.431" transform="translate(145.745 380.242)"/><circle class="d" cx="5.431" cy="5.431" r="5.431" transform="translate(111.46 380.242)"/><path class="e" d="M272.64,660.32s4.264,4.212,10.855,0" transform="translate(-161.173 -286.57)"/><path class="n" d="M637.568,347.7s-12.179-22.136-7.728-41.376a38.278,38.278,0,0,0-2.132-24.118A64.363,64.363,0,0,0,622,271.93" transform="translate(-283.259 -154.973)"/><path class="i" d="M621.992,254.131c.636,2.9-2.768,12.471-2.768,12.471s-7.1-7.256-7.743-10.159a5.379,5.379,0,1,1,10.473-2.312Z" transform="translate(-279.18 -144.423)"/><path class="i" d="M638.448,272.109c-1.04,2.783-9.1,8.977-9.1,8.977s-2.02-9.949-.972-12.717a5.379,5.379,0,1,1,10.077,3.74Z" transform="translate(-285.051 -149.744)"/><path class="i" d="M645.331,308.224c-2.3,1.878-12.381,3.142-12.381,3.142s3.284-9.605,5.588-11.483a5.379,5.379,0,1,1,6.793,8.341Z" transform="translate(-287.002 -161.333)"/><path class="i" d="M645.02,337.537c-1.953,2.244-11.67,5.192-11.67,5.192s1.608-10.024,3.561-12.261a5.379,5.379,0,1,1,8.1,7.069Z" transform="translate(-287.053 -171.836)"/><path class="i" d="M614.3,287.2c2.529,1.563,12.68,1.5,12.68,1.5s-4.489-9.1-7.017-10.668a5.379,5.379,0,1,0-5.663,9.141Z" transform="translate(-279.619 -153.951)"/><path class="i" d="M613.708,321.143c2.88.748,12.553-2.334,12.553-2.334s-7.01-7.346-9.89-8.079a5.379,5.379,0,0,0-2.663,10.413Z" transform="translate(-279.075 -165.414)"/><path class="i" d="M618.257,354.387c2.708,1.212,12.77-.18,12.77-.18s-5.67-8.423-8.378-9.635a5.38,5.38,0,0,0-4.391,9.822Z" transform="translate(-280.864 -177.121)"/><path class="i" d="M621.992,254.131c.636,2.9-2.768,12.471-2.768,12.471s-7.1-7.256-7.743-10.159a5.379,5.379,0,1,1,10.473-2.312Z" transform="translate(-279.18 -144.423)"/><path class="i" d="M638.448,272.109c-1.04,2.783-9.1,8.977-9.1,8.977s-2.02-9.949-.972-12.717a5.379,5.379,0,1,1,10.077,3.74Z" transform="translate(-285.051 -149.744)"/><path class="i" d="M645.331,308.224c-2.3,1.878-12.381,3.142-12.381,3.142s3.284-9.605,5.588-11.483a5.379,5.379,0,1,1,6.793,8.341Z" transform="translate(-287.002 -161.333)"/><path class="i" d="M645.02,337.537c-1.953,2.244-11.67,5.192-11.67,5.192s1.608-10.024,3.561-12.261a5.379,5.379,0,1,1,8.1,7.069Z" transform="translate(-287.053 -171.836)"/><path class="i" d="M614.3,287.2c2.529,1.563,12.68,1.5,12.68,1.5s-4.489-9.1-7.017-10.668a5.379,5.379,0,1,0-5.663,9.141Z" transform="translate(-279.619 -153.951)"/><path class="i" d="M613.708,321.143c2.88.748,12.553-2.334,12.553-2.334s-7.01-7.346-9.89-8.079a5.379,5.379,0,0,0-2.663,10.413Z" transform="translate(-279.075 -165.414)"/><path class="i" d="M618.257,354.387c2.708,1.212,12.77-.18,12.77-.18s-5.67-8.423-8.378-9.635a5.38,5.38,0,0,0-4.391,9.822Z" transform="translate(-280.864 -177.121)"/><path class="i" d="M631.871,431.579h0a12.822,12.822,0,0,1-12.8-13.63l3.583-56.779h18.433l3.583,56.779a12.822,12.822,0,0,1-12.8,13.63Z" transform="translate(-282.929 -186.564)"/><path class="k" d="M274.862,245.931A26.931,26.931,0,1,1,247.931,219,26.931,26.931,0,0,1,274.862,245.931Z" transform="translate(-144.01 -134.916)"/><path class="k" d="M385.53,655.954l22.4,14.214s29.616,4.96,9.471,11.042-65.928-3.217-65.928-3.217,3.479-20.6,7.182-23.333S385.53,655.954,385.53,655.954Z" transform="translate(-190.995 -287.069)"/><path class="o" d="M272.948,452.616s11.169,6.486,31.255,12.545c11.775,3.553,26.587,6.3,36.821,7.967a26.789,26.789,0,0,1,21.956,20.2,17.086,17.086,0,0,1-.142,9.246c-3.9,11.685-3.112,108.075-3.112,108.075l-35.04,1.683s5.543-17.513-1.287-26.759,4.608-76.85,4.608-76.85-12.411-5.79-50.189-7.8c-35.407,7.481-48.132-31.532-42.252-42.035S272.948,452.616,272.948,452.616Z" transform="translate(-150.895 -227.449)"/><g transform="translate(82.248 221.875)"><path class="l" d="M272.948,452.616s11.169,6.486,31.255,12.545c11.775,3.553,26.587,6.3,36.821,7.967a26.789,26.789,0,0,1,21.956,20.2,17.086,17.086,0,0,1-.142,9.246c-3.9,11.685-3.112,108.075-3.112,108.075l-35.04,1.683s5.543-17.513-1.287-26.759,4.608-76.85,4.608-76.85-12.411-5.79-50.189-7.8c-35.407,7.481-48.132-31.532-42.252-42.035S272.948,452.616,272.948,452.616Z" transform="translate(-234.188 -451.772)"/></g><path class="k" d="M370.61,666.064l22.4,14.214s29.616,4.96,9.471,11.042S336.55,688.1,336.55,688.1s3.479-20.6,7.182-23.333S370.61,666.064,370.61,666.064Z" transform="translate(-185.672 -290.658)"/><path class="l" d="M264.766,511.276c37.778,2.012,50.189,7.8,50.189,7.8s-3.583,65.7,1.5,75.257c5.424,10.144-4.848,28.352-4.848,28.352L346.644,621v-3.172c-.1-16.742-.359-94.483,3.12-104.9a17.086,17.086,0,0,0,.142-9.246,26.8,26.8,0,0,0-21.956-20.2c-10.241-1.661-25.046-4.406-36.821-7.96l-.576-.18c-19.727-5.985-30.671-12.366-30.671-12.366s-23.333-1.616-29.175,8.887c-.748,1.362-3.972,4.04-4.107,6.2C225.724,492.536,233.96,517.762,264.766,511.276Z" transform="translate(-147.913 -231.614)"/><path class="g" d="M351.81,443.856l.666,13.884s3.082-.082,7.675-.359c15.672-.935,48.962-4.032,37.651-13.316-9.725-7.982-26.856-5.439-37.232-2.843-3.808.958-6.733,1.915-8,2.371C352.072,443.759,351.81,443.856,351.81,443.856Z" transform="translate(-190.083 -210.705)"/><path class="g" d="M233,307.732s4.488,3.868,10.054,8.147c6.209,1.691,13.465,3.194,18.65,4.189-1.608-6.1-.18-12.717,2.192-18.545a70.088,70.088,0,0,1,10.144-16.839L242.845,273.41c2.207,6.4.748,13.54-1.623,19.652A64.971,64.971,0,0,1,233,307.732Z" transform="translate(-147.968 -154.131)"/><path class="e" d="M352.06,448.623l.479,9.972s3.082-.082,7.675-.359l.419-16.166c-3.808.958-6.733,1.915-8,2.371Z" transform="translate(-189.006 -211.726)"/><path class="h" d="M309.62,440.082l9.553-.456.449-17.266-7.645.367Z" transform="translate(-148.397 -192.726)"/><path class="m" d="M224.087,444.545c20.2,21,57.864-3.957,67.993-11.348,1.646-1.2,2.566-1.945,2.566-1.945-3.74-3.808-9.725-7.331-12.022-16.869a207.217,207.217,0,0,1-4.443-29.564c-.621-7.892,7.533-22.921,5.177-30.417s-12.059-9.957-16.136-16.742c-1.07-1.765-2.132-3.426-3.179-4.877-7.526-10.473-20.64-17.528-20.64-17.528-27.941-9.538-30.133,30.365-29.437,31.606S211.467,392.09,224.087,444.545Z" transform="translate(-142.114 -173.869)"/><path class="e" d="M225.948,396.446s16.226,45.2,23.385,48.049c4.1,1.631,26.46-.127,44.818-1.93,1.646-1.2,2.566-1.945,2.566-1.945-3.74-3.808-6.785-11.655-9.074-21.186l-23.557.082s1.908-13.465-.2-44.054S242.3,351.6,242.3,351.6C210.185,360.808,225.948,396.446,225.948,396.446Z" transform="translate(-144.917 -184.448)"/><path class="e" d="M309.62,440.148l4.122-.195L315.6,422.62l-3.628.172Z" transform="translate(-148.248 -192.804)"/><path class="m" d="M243.041,349s19.45-6.68,21.582,23.864.224,44.055.224,44.055l57.468-.209-2.207,20.542s-62.839,7.481-70.02,4.646S226.7,393.857,226.7,393.857,210.918,358.211,243.041,349Z" transform="translate(-145.849 -183.505)"/><path class="e" d="M249.037,285.977c1.04-4.488-3.74-4.631-5.237-8.977l31.21,11.221a69.865,69.865,0,0,0-6.269,9.059,26.269,26.269,0,0,1-5.072.748C256.083,298.4,254.056,290.9,249.037,285.977Z" transform="translate(-151.548 -154.293)"/><circle class="g" cx="26.153" cy="26.153" r="26.153" transform="translate(85.625 93.666) rotate(-2.75)"/><path class="e" d="M253,375.14s8.274,39.192,18.044,43.194,5.341,4.855,5.341,4.855" transform="translate(-154.622 -190.143)"/><path class="e" d="M293.542,401.979s-6.912,2.162-14.962-8.169" transform="translate(-163.38 -194.348)"/><circle class="k" cx="11.969" cy="11.969" r="11.969" transform="translate(90.055 74.137)"/><path class="k" d="M216.3,220.935a11.969,11.969,0,0,1,0-16.375c-.194.157-.389.314-.569.486a11.971,11.971,0,0,0,16.4,17.445c.187-.172.352-.359.516-.539A11.969,11.969,0,0,1,216.3,220.935Z" transform="translate(-122.683 -128.685)"/><path class="k" d="M222.658,228.459a11.969,11.969,0,0,1-12.6-10.473v.748a11.97,11.97,0,0,0,23.894-1.5,6.358,6.358,0,0,0-.082-.748A11.969,11.969,0,0,1,222.658,228.459Z" transform="translate(-122.204 -132.658)"/><path class="e" d="M269.875,229.684c2.79,1.376,5.985,1.758,8.977,2.626s6.045,2.454,7.361,5.281c.965,2.08.853,4.541,1.863,6.6,1.451,2.992,4.8,4.369,7.885,5.543-2.648,3.553-8.334,2.588-12.044.172s-6.9-5.985-11.221-6.92a10.533,10.533,0,0,0-11.079,4.93,26.6,26.6,0,0,0-2.184,6.793c-1.5,6.074-4.488,12.119-9.725,15.568s-13.039,3.426-17.146-1.294c-2.394-2.753-3.194-6.5-3.9-10.077a20.472,20.472,0,0,1-.576-5.094c.239-4.294,3.1-7.952,5.985-11.139,3.4-3.74,7.025-7.331,10.645-10.9,3.127-3.082,6.733-8.3,11.446-8.67C261.586,222.667,265.424,227.507,269.875,229.684Z" transform="translate(-146.897 -136.224)"/><path class="k" d="M268.875,228.684c2.79,1.376,5.985,1.758,8.977,2.626s6.045,2.454,7.361,5.281c.965,2.08.853,4.541,1.863,6.6,1.451,2.992,4.8,4.369,7.885,5.543-2.648,3.553-8.334,2.588-12.044.172s-6.9-5.985-11.221-6.92a10.533,10.533,0,0,0-11.079,4.93,26.608,26.608,0,0,0-2.184,6.793c-1.5,6.074-4.488,12.119-9.725,15.568s-13.039,3.426-17.146-1.294c-2.394-2.753-3.194-6.5-3.9-10.077a20.473,20.473,0,0,1-.576-5.094c.239-4.294,3.1-7.952,5.985-11.139,3.4-3.74,7.025-7.331,10.645-10.9,3.127-3.082,6.733-8.3,11.446-8.67C260.586,221.667,264.424,226.507,268.875,228.684Z" transform="translate(-146.538 -135.865)"/><rect class="b" width="85.304" height="13.181" rx="6.591" transform="translate(66.326 237.672)"/><path class="e" d="M181.28,462v1.04a5.424,5.424,0,0,0,5.424,5.424H261.16a5.424,5.424,0,0,0,5.424-5.424V462Z" transform="translate(-114.954 -218.019)"/><rect class="b" width="14.67" height="186.893" transform="translate(182.735 233.015)"/><rect class="e" width="14.67" height="12.119" transform="translate(182.735 249.692)"/><rect class="b" width="387.82" height="24.238" transform="translate(148.602 237.213)"/></g></svg>