<svg xmlns="http://www.w3.org/2000/svg" xmlns:xlink="http://www.w3.org/1999/xlink" width="430.506" height="256.83" viewBox="0 0 430.506 256.83">
  <defs>
    <linearGradient id="linear-gradient" x1="0.5" x2="0.5" y2="1" gradientUnits="objectBoundingBox">
      <stop offset="0" stop-color="#102397"/>
      <stop offset="1" stop-color="#00eaf8"/>
    </linearGradient>
    <linearGradient id="linear-gradient-2" x1="0.409" y1="0.938" x2="0.409" y2="0.047" gradientUnits="objectBoundingBox">
      <stop offset="0" stop-color="gray" stop-opacity="0.251"/>
      <stop offset="0.54" stop-color="gray" stop-opacity="0.122"/>
      <stop offset="1" stop-color="gray" stop-opacity="0.102"/>
    </linearGradient>
    <linearGradient id="linear-gradient-3" x1="0.493" y1="1.008" x2="0.493" y2="-0.026" xlink:href="#linear-gradient-2"/>
  </defs>
  <g id="undraw_virtual_reality_y5ig" transform="translate(-38.621)">
    <path id="Path_4230" data-name="Path 4230" d="M796.744,613.672s1,15.049-1,17.558c0,0,44.145,8.026,49.664,5.518s3.01-6.521,0-8.027-18.06-7.023-20.066-17.558c0,0,6.521-3.01-14.548,1S796.744,613.672,796.744,613.672Z" transform="translate(-489.26 -386.925)" fill="#dc9ba3"/>
    <path id="Path_4231" data-name="Path 4231" d="M796.744,613.672s1,15.049-1,17.558c0,0,44.145,8.026,49.664,5.518s3.01-6.521,0-8.027-18.06-7.023-20.066-17.558c0,0,6.521-3.01-14.548,1S796.744,613.672,796.744,613.672Z" transform="translate(-489.26 -386.925)" fill="#263238" opacity="0.88"/>
    <path id="Path_4232" data-name="Path 4232" d="M359.5,199.48l-.191.091a61.929,61.929,0,0,0-23.076,18.856c-3.421,4.529-7.625,8.847-11.623,9.561-8.879,1.57-74.169,69.687-58.5,133.084s107.1,66.014,107.1,66.014,19.444,3.306,30.6,9.919a20.581,20.581,0,0,0,17.432,1.681c13.284-4.74,35.116-11.615,44.958-9.5,14.623,3.145,139.961-49.251,139.961-49.251s-52.232-50.323-129.01-49.251c0,0-121.174-84.879-117-119.985Z" transform="translate(-225.068 -183.056)" fill="#6c63ff"/>
    <path id="Path_4233" data-name="Path 4233" d="M359.5,199.48l-.191.091a61.929,61.929,0,0,0-23.076,18.856c-3.421,4.529-7.625,8.847-11.623,9.561-8.879,1.57-74.169,69.687-58.5,133.084s107.1,66.014,107.1,66.014,19.444,3.306,30.6,9.919a20.581,20.581,0,0,0,17.432,1.681c13.284-4.74,35.116-11.615,44.958-9.5,14.623,3.145,139.961-49.251,139.961-49.251s-52.232-50.323-129.01-49.251c0,0-121.174-84.879-117-119.985Z" transform="translate(-225.068 -183.056)" opacity="0.14"/>
    <path id="Path_4234" data-name="Path 4234" d="M366.339,199.24,353.8,211.318s-9.531,18.621-18.059,20.13S264.5,298.382,279.553,359.277s102.839,63.411,102.839,63.411,18.27,3.105,29.02,9.321a20.821,20.821,0,0,0,17.412,1.706c12.787-4.529,33.5-11.026,42.856-9.013,14.046,3.02,134.443-47.306,134.443-47.306s-50.165-48.313-123.908-47.306c0,0-116.383-81.528-112.37-115.247Z" transform="translate(-231.817 -182.936)" fill="url(#linear-gradient)"/>
    <ellipse id="Ellipse_5202" data-name="Ellipse 5202" cx="39.56" cy="72.017" rx="39.56" ry="72.017" transform="translate(88.621 135.722) rotate(-45)" opacity="0.1"/>
    <path id="Path_4235" data-name="Path 4235" d="M454.86,326.24s5.518,9.03,2.007,26.588,9.03,17.558,9.03,17.558h25.083l8.528-22.073-12.04,1s-8.026-2.007-4.515-20.568Z" transform="translate(-320.023 -245.942)" fill="#ffd2d9"/>
    <path id="Path_4236" data-name="Path 4236" d="M550.775,268.261c-3.838,12.215-8.648,27.089-11.217,35.025l-1.826,5.609-16.554-17.056s.727-1.691,1.816-4.058c2.423-5.247,6.642-13.81,8.719-14.5,0,0-23.076-1.5-30.1,4.013s-5.017-15.05-5.017-15.05,13.545-1,18.561-4.013,32.106-6.02,32.106-6.02S556.293,250.7,550.775,268.261Z" transform="translate(-340.61 -209.155)" fill="#ffd2d9"/>
    <path id="Path_4237" data-name="Path 4237" d="M423.86,569.482s42.64-19.565,57.69-16.555" transform="translate(-304.616 -358.43)" opacity="0.1"/>
    <path id="Path_4238" data-name="Path 4238" d="M336.86,494.174s51.67-2.007,79.762,16.053" transform="translate(-261.533 -329.368)" opacity="0.1"/>
    <path id="Path_4239" data-name="Path 4239" d="M387.86,528.021s40.634-10.033,62.2-6.521" transform="translate(-286.948 -342.625)" opacity="0.1"/>
    <path id="Path_4240" data-name="Path 4240" d="M873.464,576.247l-3.511,25.584-9.03-1s-.547-.5-1.475-1.344c-2.433-2.142-7.495-6.341-12.34-8.628a15.123,15.123,0,0,0-5.247-1.565l10.033-15.05a55.42,55.42,0,0,0,7.49,2.217,36.145,36.145,0,0,0,8.066.953A14.722,14.722,0,0,0,873.464,576.247Z" transform="translate(-512.278 -369.064)" fill="#ffd2d9"/>
    <path id="Path_4241" data-name="Path 4241" d="M701.109,526.761c-4.515,4.013-25.082-4.515-28.594,8.528l-3.231-12.371-9.948-38.07-1.37-5.242-8.287-.356-95.1-4.058-5.4-.221-2.839-.12,3.767-1.866,25.083-12.431s9.03-.632,21.5-2.343h0c18.892-2.589,45.65-7.65,60.76-16.715,25.083-15.05,34.614,35.617,34.614,35.617s3.813,12.857,6.722,25.524a142.92,142.92,0,0,1,3.01,16.585C702.218,523.079,702.088,525.893,701.109,526.761Z" transform="translate(-365.272 -301.519)" fill="#e9e9ef"/>
    <path id="Path_4242" data-name="Path 4242" d="M702.615,526.751c-4.515,4.013-25.083-4.515-28.594,8.528l-3.23-12.371-9.948-38.07-1.369-5.242-8.528-.5-91.9-5.674-5.674-.351-1.746-.105-2.262-.14,27.34-12.291s9.03-.632,21.5-2.343h0c18.892-2.589,45.65-7.65,60.76-16.715,25.083-15.05,34.614,35.617,34.614,35.617s3.812,12.857,6.722,25.524A142.879,142.879,0,0,1,703.3,519.2C703.723,523.069,703.593,525.883,702.615,526.751Z" transform="translate(-366.774 -301.509)" fill="#1147b0"/>
    <path id="Path_4243" data-name="Path 4243" d="M859.368,576.457l-8.779,10.294-3.512,4.1a15.12,15.12,0,0,0-5.247-1.565l10.033-15.05a55.48,55.48,0,0,0,7.505,2.217Z" transform="translate(-512.294 -369.064)" opacity="0.1"/>
    <path id="Path_4244" data-name="Path 4244" d="M693.6,527.381l-9.817,11.508-4.731,5.548v1.5c-5.789,1.334-23.833-2.468-27.812-3.341-.5-.105-.783-.17-.783-.17-11.538.5-54.178-24.581-54.178-24.581s-46.654,8.027-69.228,6.02c-12.607-1.124-16.138-5.684-16.8-9.5a9.894,9.894,0,0,1,.747-5.553l20.136-14.167,2.674-1.881,4.269-3.01s7.42-1.681,16.845-3.763h0c14.723-3.246,34.348-7.465,38.321-7.77,6.522-.5,23.076,5.016,32.607,16.053a28.171,28.171,0,0,0,5.518,4.515l.261.171c2.679,1.776,5.98,3.667,9.657,5.6,12.145,6.4,28.333,13.264,39.465,17.774C688.361,525.394,693.6,527.381,693.6,527.381Z" transform="translate(-347.251 -321.201)" fill="#1147b0"/>
    <path id="Path_4245" data-name="Path 4245" d="M890.936,578.24l-3.512,25.584-9.03-1s-.547-.5-1.475-1.344c2.007.045,5.3-.532,5.99-4.675,0,0-3.476-12.165,2.007-17.4A14.722,14.722,0,0,0,890.936,578.24Z" transform="translate(-529.735 -371.057)" opacity="0.1"/>
    <path id="Path_4246" data-name="Path 4246" d="M883.38,595.8s-5.017-17.558,6.522-19.564l19.063,7.525,22.073,1.505s5.764,9.411-3.476,19.945a28.378,28.378,0,0,1-20.066,9.531l-24.12,1.129-7.525-15.551S882.377,601.824,883.38,595.8Z" transform="translate(-529.096 -370.061)" fill="#3c3e45"/>
    <path id="Path_4247" data-name="Path 4247" d="M578.665,477.57c-2.508.737-12.983,3.863-23.7,8.107h0a131.969,131.969,0,0,0-15.441,7.118c-1.038.582-2.007,1.169-2.96,1.761a25.527,25.527,0,0,0-6.471,5.418c-6.191,8.026-15.285,12.32-19.81,14.081a9.894,9.894,0,0,1,.747-5.553l20.121-14.162-2.839-.12,3.768-1.866-2.263-.141,27.34-12.29S566.2,479.291,578.665,477.57Z" transform="translate(-347.468 -321.107)" opacity="0.1"/>
    <path id="Path_4248" data-name="Path 4248" d="M564.241,338.656l-1.826,5.609L545.86,327.208s.727-1.69,1.816-4.058C549.768,327.59,559.761,335.33,564.241,338.656Z" transform="translate(-365.253 -244.435)" opacity="0.1"/>
    <path id="Path_4249" data-name="Path 4249" d="M427.412,346.037a29.161,29.161,0,0,1-1.294-5.232l-21.571,7.525s-14.8,11.287-13.294,35.868c0,0,18.31-6.772,26.337,1.254l.166,1.415a65.214,65.214,0,0,0,17.683,37.313c4.013,4.189,7.75,8.914,9.742,13.444,0,0,14.046-4.013,22.574-15.05S516.917,400,516.917,400s-21.571.5-24.581-7.023S479.293,369.4,482.8,356.857s5.518-16.554,5.518-16.554-20.568-14.548-19.063-19.063l-13.043,15.05L450.2,338.3a9.632,9.632,0,0,1,.707,3.667C451.226,355.6,431.982,358.884,427.412,346.037Z" transform="translate(-288.586 -243.317)" fill="#05ccf0"/>
    <path id="Path_4263" data-name="Path 4263" d="M482.19,336.337a51.964,51.964,0,0,1,.763-5.588L454.86,328.24s1.947,1.68,2.794,7.951c3.3,1.956,7.143,4.59,11.252,4.59A21.973,21.973,0,0,0,482.19,336.337Z" transform="translate(-320.036 -246.973)" opacity="0.1"/>
    <circle id="Ellipse_5203" data-name="Ellipse 5203" cx="22.073" cy="22.073" r="22.073" transform="translate(127.035 48.833)" fill="#ffd2d9"/>
    <path id="Path_4264" data-name="Path 4264" d="M440.58,282.261h3.01v-8.528l3.01-9.03s15.05-7.023,22.073-5.518l5.518,5.017s1.5-12.04-7.525-16.555-25.083-2.508-29.1,1-10.535,9.531-5.518,26.086l1.505,4.013S439.577,276.743,440.58,282.261Z" transform="translate(-307.791 -205.624)" fill="#844f6e"/>
    <g id="Group_1262" data-name="Group 1262" transform="translate(102.56 77.928)" opacity="0.05">
      <path id="Path_4265" data-name="Path 4265" d="M528.58,331.83l1.646-.547,7.595-8.744a2.137,2.137,0,0,1-.05-1.289Z" transform="translate(-459.636 -321.25)"/>
      <path id="Path_4266" data-name="Path 4266" d="M507.53,362.789a11.338,11.338,0,0,0,6.888-11.036,4.593,4.593,0,0,0-.05-.843l-.16.181-6.02,2.007a9.635,9.635,0,0,1,.707,3.667A11.991,11.991,0,0,1,507.53,362.789Z" transform="translate(-449.146 -336.031)"/>
      <path id="Path_4267" data-name="Path 4267" d="M589.251,477.42c-12.571,4.374-29.6,11.262-34.774,17.969-.125.166-.256.321-.386.5,13.775-9.446,44.03-18.059,44.03-18.059A78.2,78.2,0,0,1,589.251,477.42Z" transform="translate(-472.349 -399.077)"/>
      <path id="Path_4268" data-name="Path 4268" d="M450.7,459.134c-2.007-4.515-5.754-9.255-9.742-13.444a65.214,65.214,0,0,1-17.683-37.313l-.166-1.415c-8.026-8.026-26.337-1.254-26.337-1.254-.953-15.591,4.65-25.83,8.874-31.238l-1.1.386s-14.8,11.287-13.294,35.868c0,0,18.31-6.772,26.337,1.254l.166,1.415a65.216,65.216,0,0,0,17.683,37.313c4.013,4.189,7.75,8.914,9.742,13.444,0,0,12.225-3.512,20.788-12.923a51.932,51.932,0,0,1-15.27,7.906Z" transform="translate(-391.146 -347.772)"/>
    </g>
    <path id="Path_4269" data-name="Path 4269" d="M446.533,405.317s-24.079,34.614-36.621,44.647-16.053-4.515-16.053-4.515V413.343l22.073-2.508.236,3.045.266,3.476L437,395.284s20.568-18.561,24.581-7.525S446.533,405.317,446.533,405.317Z" transform="translate(-289.71 -274.699)" fill="#ffd2d9"/>
    <path id="Path_4270" data-name="Path 4270" d="M416.154,440.3a47.788,47.788,0,0,1-9.531,4.229c-4.741,1.46-10.174-.075-12.792-1v-3.747L415.9,437.27Z" transform="translate(-289.721 -301.146)" opacity="0.1"/>
    <path id="Path_4271" data-name="Path 4271" d="M392.049,430.756l-1.319,5.373s7.841,3.657,14.362,1.65a57.033,57.033,0,0,0,12.541-6.02c1-.5-4.013-6.02-4.013-6.02Z" transform="translate(-288.379 -295.41)" fill="#05ccf0"/>
    <path id="Path_4272" data-name="Path 4272" d="M681.36,546.278a40.752,40.752,0,0,1,11.036-6.02,39.425,39.425,0,0,0,10.535-5.518" transform="translate(-432.565 -349.564)" opacity="0.1"/>
    <path id="Path_4273" data-name="Path 4273" d="M937.769,594.185l-.823-.055c1.194,3.01,2.92,10.429-4.158,18.511a28.38,28.38,0,0,1-20.066,9.531l-23.362,1.094.748,1.54,24.124-1.144a28.379,28.379,0,0,0,20.066-9.531C943.533,603.6,937.769,594.185,937.769,594.185Z" transform="translate(-535.825 -378.976)" fill="#fff" opacity="0.2"/>
    <path id="Path_4274" data-name="Path 4274" d="M759.025,645.74h-.075c.065,1.184.18,3.627.2,6.311C759.171,649.693,759.1,647.375,759.025,645.74Z" transform="translate(-471.15 -404.696)" fill="lime" opacity="0.05"/>
    <path id="Path_4275" data-name="Path 4275" d="M816.06,637.1q.105.457.236.9C816.788,637.717,817.495,637.185,816.06,637.1Z" transform="translate(-499.525 -400.39)" fill="lime" opacity="0.05"/>
    <path id="Path_4276" data-name="Path 4276" d="M845.523,654.863c-5.142,2.338-43.809-4.47-49.067-5.413a3.913,3.913,0,0,1-.6,1.4s44.145,8.026,49.663,5.518c2.839-1.289,3.552-2.98,3.166-4.515C848.4,652.921,847.455,653.985,845.523,654.863Z" transform="translate(-489.379 -406.545)" fill="#fff" opacity="0.2"/>
    <path id="Path_4277" data-name="Path 4277" d="M757.791,645c-.025-.5-.045-.758-.045-.758S755.192,645.153,757.791,645Z" transform="translate(-469.992 -403.948)" fill="lime" opacity="0.05"/>
    <rect id="Rectangle_1367" data-name="Rectangle 1367" width="34.614" height="17.056" rx="4.08" transform="translate(136.087 59.885)" opacity="0.1"/>
    <rect id="Rectangle_1368" data-name="Rectangle 1368" width="14.548" height="6.521" rx="2.44" transform="translate(122.989 65.412)" opacity="0.1"/>
    <rect id="Rectangle_1369" data-name="Rectangle 1369" width="34.614" height="17.056" rx="4.08" transform="translate(136.087 59.381)" fill="#7679b4"/>
    <rect id="Rectangle_1370" data-name="Rectangle 1370" width="30.541" height="15.05" rx="4.08" transform="translate(140.135 60.386)" fill="#565388"/>
    <rect id="Rectangle_1371" data-name="Rectangle 1371" width="14.548" height="6.521" rx="2.44" transform="translate(122.989 64.908)" fill="#565388"/>
    <path id="Path_4278" data-name="Path 4278" d="M473.411,258.254A34.187,34.187,0,0,0,486.143,244.6a3.078,3.078,0,0,0,.472-2.107c-.356-1.365-2.137-1.605-3.421-2.192-2.393-1.1-3.4-3.873-4.971-5.985a11.969,11.969,0,0,0-11.7-4.515c-2.287.462-4.4,1.6-6.712,1.936-4.976.727-10.4-2.288-14.874,0-2.037,1.048-3.416,3.01-4.63,4.966-3.045,4.871-6.863,10.033-4.094,15.747,1.59,3.266,4.129,5.975,7.7,6.928s7.7.161,11.322-.236c2.985-.321,6.11-1,9.115-.687C467.858,258.836,470.055,260.271,473.411,258.254Z" transform="translate(-310.278 -198.066)" opacity="0.1"/>
    <path id="Path_4279" data-name="Path 4279" d="M473.411,256.254A34.187,34.187,0,0,0,486.143,242.6a3.079,3.079,0,0,0,.472-2.107c-.356-1.364-2.137-1.605-3.421-2.192-2.393-1.1-3.4-3.873-4.971-5.985a11.97,11.97,0,0,0-11.7-4.515c-2.287.462-4.4,1.6-6.712,1.936-4.976.727-10.4-2.288-14.874,0-2.037,1.048-3.416,3.01-4.63,4.966-3.045,4.871-6.863,10.033-4.094,15.747,1.59,3.266,4.129,5.975,7.7,6.928s7.7.161,11.322-.236c2.985-.321,6.11-1,9.115-.687C467.858,256.836,470.055,258.271,473.411,256.254Z" transform="translate(-310.278 -197.069)" fill="#844f6e"/>
    <path id="Path_4280" data-name="Path 4280" d="M821.933,117.01l-218.213,39V39L821.933,0Z" transform="translate(-352.806)" fill="#6c63ff" opacity="0.2"/>
    <path id="Path_4281" data-name="Path 4281" d="M948.112,20l40.358-6.958.587,18.085L947.63,38.052Z" transform="translate(-524.193 -6.498)" fill="#6c63ff" opacity="0.2"/>
    <g id="Group_1263" data-name="Group 1263" transform="translate(299.734 32.562)" opacity="0.2">
      <path id="Path_4282" data-name="Path 4282" d="M864.178,387a15.044,15.044,0,0,1,4.174-.346c8.252.145,16.815.953,24.912-1.505,4.3-1.294,8.157-3.431,12.591-4.349,7.525-1.55,15.049.712,22.449-1.174,1.505-.386,3.346-.928,4.415-.346,1.239.672.361,2.418,1.871,2.859a7.13,7.13,0,0,1,1.4.321c.551.321.205,1-.346,1.44-3.356,2.724-10.184.913-14.387,3.115-.933.5-1.635,1.134-2.508,1.655a18.9,18.9,0,0,1-4.359,1.605l-23.342,6.521a113.872,113.872,0,0,1-17.031,3.828c-5.779.687-11.774.406-16.008-1.555a4.247,4.247,0,0,1-2.1-1.64C854.27,394.115,858.364,388.542,864.178,387Z" transform="translate(-818.493 -305.092)" fill="#252223" opacity="0.1"/>
      <path id="Path_4283" data-name="Path 4283" d="M726.133,136.06,745.662,151.5l19.529,15.436L733.116,173l-32.076,6.06,12.546-21.5Z" transform="translate(-701.04 -100.368)" fill="#6c63ff" opacity="0.3"/>
      <path id="Path_4284" data-name="Path 4284" d="M766.613,128.94l19.529,15.436,19.529,15.441-32.076,6.06-32.076,6.065,12.547-21.5Z" transform="translate(-721.213 -96.819)" fill="#6c63ff" opacity="0.3"/>
      <path id="Path_4285" data-name="Path 4285" d="M814.309,64.91l-37.689,71.8L848.1,122.8l26.412-4.991Z" transform="translate(-738.705 -64.91)" fill="#6c63ff"/>
      <path id="Path_4286" data-name="Path 4286" d="M911.948,117.8,885.537,122.8,851.75,64.91Z" transform="translate(-776.146 -64.91)" opacity="0.1"/>
      <path id="Path_4287" data-name="Path 4287" d="M920.848,291.7a2.052,2.052,0,0,0-2.177-1.5s.5-3.943-7.625-2.353a2.072,2.072,0,0,0-3.215-.652l-.346-1.831s-4.455,2.553.266,6.2l.567,3.01a.941.941,0,0,0,.071.221.949.949,0,0,1,.06.171c.216.878,1.8,7.836-1.8,10.214-3.858,2.584-6.065-5.378-6.065-5.378-2.508-10.4-7.284-10.359-8.417-10.193-.135,0-.276.03-.417.04-.532.03-2.182.622-2.814,6.617-.757,7.194-3.512,5.4-3.512,5.4-6.175-3.366-10.534-.421-10.534-.421-10.715,6.3-1.605,18.12.276,20.362-.707,3.567-2.137,9.852-3.512,10.113-1.946.366-5.588,7.2,4.274,17.824l2.624-.5s-8.112-10.595-1.726-15.867a8.278,8.278,0,0,1-.5,1.129c-3.577,6.115,8.593,13.484,8.593,13.484l2.92-.552-6.742-8.493c-2.679-3.512,2.317-6.381,2.317-6.381,5.914-4.946,2.87-10.916,2.87-10.916l13.805-2.609c-1.706,3.772-4.214,13.043,4.124,25.253l1.946-.366-1.59-14.809s.5-3.185,3.883-7.991c1.344,6.02,4.194,16.409,8.5,20.758l2.819-.532s-3.436-9.858-3.512-13.545c-.035-1.5-.1-2.985-.236-4.47l-.7-7.766a6.657,6.657,0,0,0,2.96-6.948l-2.594-13.474a1.42,1.42,0,0,1,1.2-1.676l3.326-.451a.833.833,0,0,0,.637-1.109Z" transform="translate(-825.373 -258.416)" fill="url(#linear-gradient-2)"/>
      <path id="Path_4288" data-name="Path 4288" d="M945,341.435s3.12,18.591,9.225,24.751l2.769-.5s-3.371-9.677-3.462-13.284c-.035-1.465-.095-2.93-.23-4.389l-1.134-12.541Z" transform="translate(-863.07 -283.389)" fill="#535461"/>
      <path id="Path_4289" data-name="Path 4289" d="M945,341.435s3.12,18.591,9.225,24.751l2.769-.5s-3.371-9.677-3.462-13.284c-.035-1.465-.095-2.93-.23-4.389l-1.134-12.541Z" transform="translate(-863.07 -283.389)" opacity="0.05"/>
      <path id="Path_4290" data-name="Path 4290" d="M876.4,352.67s-2.007,11.944-3.9,12.305-5.488,7.068,4.2,17.5l2.578-.5s-8.929-11.658-.436-16.429C878.833,365.557,880.313,355.585,876.4,352.67Z" transform="translate(-825.819 -291.96)" fill="#535461"/>
      <path id="Path_4291" data-name="Path 4291" d="M876.4,352.67s-2.007,11.944-3.9,12.305-5.488,7.068,4.2,17.5l2.578-.5s-8.929-11.658-.436-16.429C878.833,365.557,880.313,355.585,876.4,352.67Z" transform="translate(-825.819 -291.96)" opacity="0.05"/>
      <path id="Path_4292" data-name="Path 4292" d="M908.91,295.6l-.557-2.94c-4.63-3.572-.261-6.08-.261-6.08l.6,3.15c10.971-3.16,10.384,1.6,10.384,1.6a2.007,2.007,0,0,1,2.137,1.46.818.818,0,0,1-.662,1.084l-3.266.446a1.394,1.394,0,0,0-1.184,1.645l2.543,13.228a6.636,6.636,0,0,1-1.334,5.423,7.5,7.5,0,0,1-4.861,2.583l-25.2,4.766s3.01,5.864-2.819,10.715c0,0-4.906,2.8-2.278,6.266l6.617,8.337-2.864.542s-11.944-7.234-8.432-13.239a12,12,0,0,0-.808-12.11s-12.24-13.5-.587-20.357c0,0,4.3-2.889,10.359.416,0,0,2.7,1.761,3.446-5.3.617-5.884,2.237-6.466,2.759-6.5a1.4,1.4,0,0,0,.406-.04c1.114-.161,5.814-.2,8.267,10.008,0,0,2.167,7.8,5.945,5.3,3.537-2.333,2.006-9.165,1.771-10.033a.947.947,0,0,0-.06-.166h0a.933.933,0,0,1-.055-.211Z" transform="translate(-826.213 -259.024)" fill="#535461"/>
      <path id="Path_4293" data-name="Path 4293" d="M929.674,345.948s-7.755,10.76,3.055,26.588l1.911-.361-1.56-14.548s.923-6.105,9.3-14.116Z" transform="translate(-854.091 -287.395)" fill="#535461"/>
      <circle id="Ellipse_5204" data-name="Ellipse 5204" cx="2.042" cy="2.042" r="2.042" transform="translate(81.163 29.295) rotate(-10.7)" fill="#535461"/>
      <path id="Path_4294" data-name="Path 4294" d="M899.578,290.726c2.358-3.587.953-3.823.04-4.766-.622-.642-5.849-.888-9.1-.978-.07-.251-.181-.672-.311-1.184,0,0-.261-.943-.381-1.605h.206L890,282l4.013-.216c3.426-.141,3.592-1.5,3.592-1.5.08-2.343-3.787-.1-3.787-.1-.768.376-2.8.1-4.395-.216a8.77,8.77,0,0,1-.075-1,7.578,7.578,0,0,0-.1-1.55,2.5,2.5,0,0,0-.5-1.214,20.472,20.472,0,0,0-4.043-3.692,6.96,6.96,0,0,1,.241-2.634,3.2,3.2,0,0,0,1.686-3.406,3.076,3.076,0,0,0-.311-.883,2.763,2.763,0,0,0-.612-3.476,2.374,2.374,0,0,0-.341-.256,3.155,3.155,0,0,0-2.192-.5,5.718,5.718,0,0,0-2.378.973,6.461,6.461,0,0,1-2.684,1.385,10.971,10.971,0,0,0-2.192.055,3.042,3.042,0,0,0-1.666,2.147,4.28,4.28,0,0,1-1.36,2.4,7.111,7.111,0,0,1-2.383.652,3.512,3.512,0,0,0-2.533,2.122,2.317,2.317,0,0,0,.913,2.654,1.85,1.85,0,0,0,.431.236,3.7,3.7,0,0,1,.5.2.416.416,0,0,1,.165.276.886.886,0,0,1-.085.4,2.124,2.124,0,0,0,.145,1.691,1.088,1.088,0,0,0,.417.451.753.753,0,0,0,.165.105c.587.256,1.314-.321,1.9-.06h.045a4.1,4.1,0,0,1,.582.808,1.666,1.666,0,0,0,.5.421,2.458,2.458,0,0,0,1.731.371,6.1,6.1,0,0,0,2.152-.863c.888-.5,1.856-1.2,1.927-2.192.04-.607-.276-1.194-.2-1.8a1.651,1.651,0,0,1,.336-.788,6.137,6.137,0,0,0-.106,1.545,8.217,8.217,0,0,0,.151,1.249,8.874,8.874,0,0,0,1.144,3.045,13.249,13.249,0,0,1,1.65,3.948,5.376,5.376,0,0,1,.03,1.866,7.747,7.747,0,0,0-.2,2.895c.055.441.2.446.2.446h.035a2.247,2.247,0,0,0,.783,1.59c4.54,1.876,13.775-.783,13.775-.783-1.866.657-3.2,5.769-3.2,5.769a7.158,7.158,0,0,1-1.355,3.06h0c-1-.151-2.187.973-3.08,1.63l-.075.05a.738.738,0,0,0-.13,1.1l3.552,3.893c2.047,1.45,3.226,1.545,3.557,1.134.216-.271.07-.752-.432-1.219-1.214-1.129-1.038-4.791-1-5.1A77.33,77.33,0,0,1,899.578,290.726Z" transform="translate(-824.626 -246.436)" fill="url(#linear-gradient-3)"/>
      <path id="Path_4295" data-name="Path 4295" d="M898.309,276.583a7.086,7.086,0,0,0-.351,4.415l-3.848-2.042s1.224-.331.968-3.246Z" transform="translate(-837.709 -253.607)" fill="#f9d5c6"/>
      <path id="Path_4296" data-name="Path 4296" d="M902.505,308.8s10.209.145,11.077,1.069,2.2,1.169,0,4.65S908.956,323,908.956,323l-2.6-1.189a6.887,6.887,0,0,0,1.791-3.6s1.234-4.981,3.01-5.608c0,0-8.714,2.538-13.043.682a2.5,2.5,0,0,1-.617-2.749C898.036,308.657,902.505,308.8,902.505,308.8Z" transform="translate(-839.327 -270.095)" fill="#353535"/>
      <path id="Path_4297" data-name="Path 4297" d="M893.963,282.323s-2.548-.627-2.363,3.281a8.752,8.752,0,0,0,1.214,4.013c.828,1.415,2.006,3.848,1.661,5.869-.5,3.06,0,3.065,0,3.065l1.3-.793a11.3,11.3,0,0,1,5.834-1.656h.607a37.712,37.712,0,0,1-1.249-6.341,3.863,3.863,0,0,0-.557-2.508C898.674,285.007,895.182,282.318,893.963,282.323Z" transform="translate(-836.454 -256.884)" opacity="0.1"/>
      <path id="Path_4298" data-name="Path 4298" d="M893.893,281.963s-2.549-.627-2.363,3.281a8.753,8.753,0,0,0,1.214,4.013c.828,1.415,2.007,3.848,1.661,5.869-.5,3.06,0,3.065,0,3.065l1.3-.793a11.3,11.3,0,0,1,5.834-1.655h.607A37.738,37.738,0,0,1,900.9,289.4a3.864,3.864,0,0,0-.557-2.508C898.6,284.637,895.112,281.963,893.893,281.963Z" transform="translate(-836.419 -256.705)" fill="#409cd6"/>
      <path id="Path_4299" data-name="Path 4299" d="M894.267,287.041a1.836,1.836,0,0,1,3.01-.682,4.6,4.6,0,0,1,.923,1.425c1.209,2.739,2.127,4.445,2.127,4.445a14.605,14.605,0,0,1,2.292.532c.115.938.266,1.911.266,1.911l-3.256.16-4.46-5.287A2.555,2.555,0,0,1,894.267,287.041Z" transform="translate(-837.741 -258.653)" opacity="0.1"/>
      <path id="Path_4300" data-name="Path 4300" d="M894.189,286.651a1.836,1.836,0,0,1,3.01-.682,4.592,4.592,0,0,1,.923,1.425c1.209,2.739,2.127,4.445,2.127,4.445s4.9,1.349,6.165.712c0,0,3.642-2.172,3.582.115,0,0-.145,1.314-3.386,1.43l-7.053.346-4.46-5.287A2.59,2.59,0,0,1,894.189,286.651Z" transform="translate(-837.703 -258.458)" fill="#f9d5c6"/>
      <path id="Path_4301" data-name="Path 4301" d="M895.45,277.2c.1-.457.311-.281.241-1.084l3.231.873a7.451,7.451,0,0,0-.331,1,3.472,3.472,0,0,1-1,.186C896.875,278.322,896.057,277.54,895.45,277.2Z" transform="translate(-838.377 -253.812)" opacity="0.1"/>
      <circle id="Ellipse_5205" data-name="Ellipse 5205" cx="3.11" cy="3.11" r="3.11" transform="translate(55.155 18.786) rotate(-10.7)" fill="#f9d5c6"/>
      <path id="Path_4302" data-name="Path 4302" d="M885.69,267.792c-.552.03-1.154-.146-1.62.146a1.775,1.775,0,0,0-.5,1.711,4.875,4.875,0,0,1,.215,1.866c-.2.808-1,1.3-1.706,1.731s-1.5,1-1.58,1.816c-.065.587.236,1.164.2,1.756-.06.968-.968,1.635-1.811,2.127a5.609,5.609,0,0,1-2.007.828,2.1,2.1,0,0,1-1.981-.722c-.226-.311-.361-.727-.712-.888-.552-.261-1.239.3-1.791.05a1,1,0,0,1-.441-.467,2.132,2.132,0,0,1-.146-1.645.886.886,0,0,0,.075-.386c-.045-.316-.431-.421-.732-.537a2.262,2.262,0,0,1-1.174-2.744,3.285,3.285,0,0,1,2.383-2.057,6.669,6.669,0,0,0,2.247-.622,4.084,4.084,0,0,0,1.269-2.333,2.886,2.886,0,0,1,1.56-2.082,9.839,9.839,0,0,1,2.072-.04,5.759,5.759,0,0,0,2.508-1.334,5.246,5.246,0,0,1,2.242-.938,2.844,2.844,0,0,1,2.288.652C887.932,264.938,888.018,267.667,885.69,267.792Z" transform="translate(-825.627 -247.27)" opacity="0.1"/>
      <path id="Path_4303" data-name="Path 4303" d="M885.465,267.652c-.552.03-1.154-.145-1.62.145a1.776,1.776,0,0,0-.5,1.711,4.872,4.872,0,0,1,.216,1.866c-.2.808-1,1.3-1.706,1.731s-1.5,1-1.58,1.816c-.065.587.236,1.164.2,1.756-.06.968-.968,1.635-1.811,2.127a5.6,5.6,0,0,1-2.006.828,2.1,2.1,0,0,1-1.977-.712c-.226-.311-.361-.727-.712-.888-.552-.261-1.239.3-1.791.05a1,1,0,0,1-.441-.467,2.131,2.131,0,0,1-.146-1.645.881.881,0,0,0,.075-.386c-.045-.316-.431-.421-.732-.537a2.262,2.262,0,0,1-1.174-2.744,3.285,3.285,0,0,1,2.383-2.057,6.665,6.665,0,0,0,2.247-.622,4.083,4.083,0,0,0,1.269-2.333,2.885,2.885,0,0,1,1.56-2.082,9.832,9.832,0,0,1,2.072-.04,5.76,5.76,0,0,0,2.508-1.334,5.247,5.247,0,0,1,2.242-.938,2.844,2.844,0,0,1,2.287.652C887.707,264.8,887.793,267.522,885.465,267.652Z" transform="translate(-825.518 -247.205)" fill="#2f302f"/>
      <path id="Path_4304" data-name="Path 4304" d="M897.967,286.291s-4.013.261-3.672,3.065-1.395-3.2-1.395-3.2l1.56-1.681,2.227.271Z" transform="translate(-837.106 -257.978)" opacity="0.1"/>
      <path id="Path_4305" data-name="Path 4305" d="M897.756,286.131s-4.013.261-3.672,3.065-1.395-3.2-1.395-3.2l1.56-1.681,2.227.271Z" transform="translate(-837.002 -257.898)" fill="#409cd6"/>
      <path id="Path_4306" data-name="Path 4306" d="M909.974,336.14l3.381,3.818c1.946,1.425,3.06,1.5,3.371,1.129.2-.261.06-.732-.417-1.189-1.209-1.154-1-5.017-1-5.017a2.358,2.358,0,0,1-2.252-1.455c-.958-.15-2.062.938-2.9,1.57l-.07.05a.732.732,0,0,0-.105,1.094Z" transform="translate(-845.517 -282.363)" fill="#409cd6"/>
      <path id="Path_4307" data-name="Path 4307" d="M918.572,334.915s-1.926.266-2.252-1.455a2.418,2.418,0,0,0,2.252,1.455Z" transform="translate(-848.778 -282.387)" opacity="0.1"/>
      <path id="Path_4308" data-name="Path 4308" d="M909.986,337.729l3.381,3.818c1.947,1.425,3.06,1.5,3.371,1.129-.973-.3-3.727-1.5-6.567-6.075l-.07.05a.733.733,0,0,0-.115,1.079Z" transform="translate(-845.529 -283.952)" opacity="0.1"/>
      <path id="Path_4309" data-name="Path 4309" d="M797.889,396.834s-8.945,8,11.438,13.84c0,0,2.659-8.388-3.045-13.735a6.22,6.22,0,0,0-8.257-.241Z" transform="translate(-788.784 -313.179)" fill="#6c63ff"/>
      <path id="Path_4310" data-name="Path 4310" d="M800,398.11s9.9,4.961,11.352,13.991" transform="translate(-790.81 -314.605)" fill="none" stroke="#535461" stroke-miterlimit="10" stroke-width="1"/>
      <path id="Path_4311" data-name="Path 4311" d="M815.525,392s-5.192-10.143-2.93-18.757a17.262,17.262,0,0,0-.642-10.926,29.008,29.008,0,0,0-2.453-4.71" transform="translate(-795.544 -294.422)" fill="none" stroke="#535461" stroke-miterlimit="10" stroke-width="2"/>
      <path id="Path_4312" data-name="Path 4312" d="M807.5,344.859c.251,1.314-1.415,5.583-1.415,5.583s-3.105-3.366-3.351-4.68a2.425,2.425,0,0,1,4.766-.9Z" transform="translate(-792.153 -287.084)" fill="#6c63ff"/>
      <path id="Path_4313" data-name="Path 4313" d="M818.25,356.536c-.5,1.239-4.219,3.918-4.219,3.918s-.777-4.515-.271-5.754a2.437,2.437,0,0,1,4.515,1.836Z" transform="translate(-797.582 -292.215)" fill="#6c63ff"/>
      <path id="Path_4314" data-name="Path 4314" d="M821.643,380.451c-1.064.813-5.623,1.254-5.623,1.254s1.61-4.289,2.668-5.1a2.424,2.424,0,1,1,2.95,3.848Z" transform="translate(-798.793 -303.638)" fill="#6c63ff"/>
      <path id="Path_4315" data-name="Path 4315" d="M820.988,400.3c-.908,1-5.328,2.182-5.328,2.182s.858-4.515,1.771-5.478a2.425,2.425,0,0,1,3.557,3.3Z" transform="translate(-798.614 -313.669)" fill="#6c63ff"/>
      <path id="Path_4316" data-name="Path 4316" d="M803.518,365.649c1.119.737,5.694.858,5.694.858s-1.9-4.164-3.01-4.906a2.426,2.426,0,0,0-2.674,4.048Z" transform="translate(-792.025 -296.211)" fill="#6c63ff"/>
      <path id="Path_4317" data-name="Path 4317" d="M802.026,388.271c1.289.371,5.689-.888,5.689-.888s-3.06-3.406-4.349-3.778a2.425,2.425,0,0,0-1.34,4.66Z" transform="translate(-790.945 -307.33)" fill="#6c63ff"/>
      <path id="Path_4318" data-name="Path 4318" d="M804.638,410.793c1.2.582,5.759.09,5.759.09s-2.443-3.873-3.647-4.455a2.426,2.426,0,0,0-2.112,4.369Z" transform="translate(-792.438 -318.63)" fill="#6c63ff"/>
      <path id="Path_4319" data-name="Path 4319" d="M807.5,344.859c.251,1.314-1.415,5.583-1.415,5.583s-3.105-3.366-3.351-4.68a2.425,2.425,0,0,1,4.766-.9Z" transform="translate(-792.153 -287.084)" opacity="0.25"/>
      <path id="Path_4320" data-name="Path 4320" d="M818.25,356.536c-.5,1.239-4.219,3.918-4.219,3.918s-.777-4.515-.271-5.754a2.437,2.437,0,0,1,4.515,1.836Z" transform="translate(-797.582 -292.215)" opacity="0.25"/>
      <path id="Path_4321" data-name="Path 4321" d="M821.643,380.451c-1.064.813-5.623,1.254-5.623,1.254s1.61-4.289,2.668-5.1a2.424,2.424,0,1,1,2.95,3.848Z" transform="translate(-798.793 -303.638)" opacity="0.25"/>
      <path id="Path_4322" data-name="Path 4322" d="M820.988,400.3c-.908,1-5.328,2.182-5.328,2.182s.858-4.515,1.771-5.478a2.425,2.425,0,0,1,3.557,3.3Z" transform="translate(-798.614 -313.669)" opacity="0.25"/>
      <path id="Path_4323" data-name="Path 4323" d="M803.518,365.649c1.119.737,5.694.858,5.694.858s-1.9-4.164-3.01-4.906a2.426,2.426,0,0,0-2.674,4.048Z" transform="translate(-792.025 -296.211)" opacity="0.25"/>
      <path id="Path_4324" data-name="Path 4324" d="M802.026,388.271c1.289.371,5.689-.888,5.689-.888s-3.06-3.406-4.349-3.778a2.425,2.425,0,0,0-1.34,4.66Z" transform="translate(-790.945 -307.33)" opacity="0.25"/>
      <path id="Path_4325" data-name="Path 4325" d="M804.638,410.793c1.2.582,5.759.09,5.759.09s-2.443-3.873-3.647-4.455a2.426,2.426,0,0,0-2.112,4.369Z" transform="translate(-792.438 -318.63)" opacity="0.25"/>
      <path id="Path_4326" data-name="Path 4326" d="M835.02,395.858s-5.192-10.143-2.93-18.757a17.261,17.261,0,0,0-.637-10.9A29.025,29.025,0,0,0,829,361.49" transform="translate(-805.262 -296.356)" fill="none" stroke="#535461" stroke-miterlimit="10" stroke-width="2"/>
      <path id="Path_4327" data-name="Path 4327" d="M827.033,348.679c.251,1.314-1.415,5.583-1.415,5.583s-3.105-3.366-3.351-4.68a2.425,2.425,0,1,1,4.766-.9Z" transform="translate(-801.885 -288.987)" fill="#6c63ff"/>
      <path id="Path_4328" data-name="Path 4328" d="M837.779,360.356c-.5,1.239-4.219,3.918-4.219,3.918s-.778-4.515-.271-5.754a2.437,2.437,0,1,1,4.515,1.836Z" transform="translate(-807.314 -294.118)" fill="#6c63ff"/>
      <path id="Path_4329" data-name="Path 4329" d="M841.173,384.271c-1.063.813-5.623,1.254-5.623,1.254s1.61-4.289,2.668-5.1a2.424,2.424,0,0,1,2.95,3.848Z" transform="translate(-808.526 -305.541)" fill="#6c63ff"/>
      <path id="Path_4330" data-name="Path 4330" d="M840.518,404.124c-.908,1-5.328,2.182-5.328,2.182s.858-4.515,1.771-5.478a2.424,2.424,0,1,1,3.557,3.3Z" transform="translate(-808.347 -315.573)" fill="#6c63ff"/>
      <path id="Path_4331" data-name="Path 4331" d="M823.048,369.469c1.119.737,5.694.858,5.694.858s-1.9-4.164-3.01-4.906a2.426,2.426,0,0,0-2.674,4.048Z" transform="translate(-801.758 -298.114)" fill="#6c63ff"/>
      <path id="Path_4332" data-name="Path 4332" d="M821.556,392.081c1.289.371,5.689-.888,5.689-.888s-3.06-3.406-4.349-3.777a2.425,2.425,0,1,0-1.339,4.66Z" transform="translate(-800.677 -309.228)" fill="#6c63ff"/>
      <path id="Path_4333" data-name="Path 4333" d="M824.2,414.614c1.2.582,5.759.09,5.759.09s-2.443-3.873-3.647-4.455a2.426,2.426,0,1,0-2.112,4.369Z" transform="translate(-802.186 -320.534)" fill="#6c63ff"/>
      <path id="Path_4334" data-name="Path 4334" d="M873.6,244.127l-.883.166a.628.628,0,0,0-.236-1.234l-7.149,1.349a.628.628,0,1,0,.236,1.234l.883-.166a.628.628,0,1,0,.236,1.234l-1.234.236a.628.628,0,1,0,.236,1.234l7.149-1.349a.628.628,0,1,0-.236-1.234l1.234-.236a.628.628,0,0,0-.236-1.234Z" transform="translate(-823.114 -237.33)" fill="#252223" opacity="0.1"/>
      <path id="Path_4335" data-name="Path 4335" d="M847.775,268.6l-.883.165a.628.628,0,0,0-.236-1.234l-7.164,1.349a.628.628,0,0,0,.236,1.234l.883-.166a.628.628,0,0,0,.236,1.234l-1.234.236a.628.628,0,0,0,.236,1.234l7.168-1.35a.628.628,0,1,0-.236-1.234l1.234-.236a.628.628,0,0,0-.236-1.234Z" transform="translate(-810.237 -249.525)" fill="#252223" opacity="0.1"/>
      <path id="Path_4336" data-name="Path 4336" d="M993.565,237.337l-.883.166a.628.628,0,0,0-.235-1.234l-7.144,1.364a.628.628,0,0,0,.236,1.234l.883-.166a.628.628,0,1,0,.236,1.234l-1.259.206a.628.628,0,0,0,.236,1.234l7.149-1.349a.628.628,0,1,0-.236-1.234l1.234-.236a.628.628,0,1,0-.236-1.234Z" transform="translate(-882.901 -233.946)" fill="#252223" opacity="0.1"/>
      <circle id="Ellipse_5206" data-name="Ellipse 5206" cx="6.657" cy="6.657" r="6.657" transform="translate(7.402 13.707) rotate(-10.7)" fill="#6c63ff" opacity="0.3"/>
      <path id="Path_4337" data-name="Path 4337" d="M891.12,338.19a29.905,29.905,0,0,1,4.906,5.578c1.56,2.624,1.064,3.511,1.064,3.511" transform="translate(-836.219 -284.744)" opacity="0.05"/>
    </g>
  </g>
</svg>
