<svg xmlns="http://www.w3.org/2000/svg" viewBox="0 0 15.66 16.95"><defs><style>.cls-1{fill:#9597a1;}</style></defs><title>Delete</title><g id="Layer_2" data-name="Layer 2"><g id="Layer_1-2" data-name="Layer 1"><path class="cls-1" d="M13.87,15.83a2.24,2.24,0,0,0,.32-1.08,1.15,1.15,0,0,0,0-.19V3.18a.69.69,0,0,0-.2-.47.61.61,0,0,0-.45-.19.67.67,0,0,0-.47.18.72.72,0,0,0-.19.48V13.77h0v.76h0l0,.25,0,0,0,.11,0,.12h0l-.07.1,0,.11h0l0,0h0l-.07.06-.07.1,0,0h0l0,0-.12,0-.1.08,0,0h0v0l-.11,0-.11.05v0l-.26,0v0H3.86v0l-.25,0v0l-.12-.05-.11,0v0h0l0,0-.1-.08-.11,0v0h0l0,0,0,0L3,15.34,3,15.28H3v0H3l-.06-.1-.08-.1,0,0h0l0-.12,0-.11h0v-.11h0v-.13h0V4.62c0-.16,0-.32,0-.48s0-.63,0-.94v0a.68.68,0,0,0-.19-.47.68.68,0,0,0-.44-.19h0a.7.7,0,0,0-.48.18.77.77,0,0,0-.19.48v10.9a1.7,1.7,0,0,1,0,.22c0,.17,0,.34,0,.51a2.33,2.33,0,0,0,.35,1.07,2.45,2.45,0,0,0,.78.76,2.44,2.44,0,0,0,1.2.31h8.08a2.28,2.28,0,0,0,2-1.12Z"/><path class="cls-1" d="M14.6,3.75H15a.69.69,0,0,0,.47-.2.63.63,0,0,0,.19-.45.64.64,0,0,0-.19-.47.69.69,0,0,0-.47-.2H.66a.68.68,0,0,0-.47.19A.65.65,0,0,0,0,3.08a.68.68,0,0,0,.19.47.69.69,0,0,0,.47.2H14.6v0Z"/><path class="cls-1" d="M12.09,3.56a.7.7,0,0,0,.2-.47V2a3.7,3.7,0,0,0,0-.65,1.21,1.21,0,0,0-.05-.18l0,0A2.23,2.23,0,0,0,12,.8a2.25,2.25,0,0,0-.56-.55A2.06,2.06,0,0,0,10.34,0H5.49a4.59,4.59,0,0,0-.74,0A1.74,1.74,0,0,0,3.37,1.78V3.09a.71.71,0,0,0,.2.47A.75.75,0,0,0,4,3.75a.68.68,0,0,0,.47-.19.69.69,0,0,0,.2-.47V1.92h0V1.81l0,0,0-.1,0,0,.07-.08,0,0,0,0V1.44h.06l0,0v0h.08l0-.05,0,0L5,1.25l0,0,.1,0,0,.05h.1v0h4.84v0h.23v0h.11l0,0,.09,0,0,0,.09.06,0,0,0,.05h.08v0l0,0,0,0h0V1.5l.06,0,0,0,.06.08,0,0,0,.1,0,0v.11h0v.22c0,.07,0,.15,0,.22v.73a.71.71,0,0,0,.2.47.75.75,0,0,0,.45.19A.68.68,0,0,0,12.09,3.56Z"/><path class="cls-1" d="M4.57,5.62a.69.69,0,0,0-.2.47v6.67h0v.6a.69.69,0,0,0,.2.47.65.65,0,0,0,.92,0,.69.69,0,0,0,.2-.47V6.7h0v-.6a.7.7,0,0,0-.19-.47.68.68,0,0,0-.44-.19H5A.68.68,0,0,0,4.57,5.62Z"/><path class="cls-1" d="M7.37,5.62a.69.69,0,0,0-.2.47v6.67h0v.6a.65.65,0,0,0,.65.66.68.68,0,0,0,.47-.19.7.7,0,0,0,.2-.47V6.69h0V6.1h0a.73.73,0,0,0-.19-.47.72.72,0,0,0-.44-.19h0A.68.68,0,0,0,7.37,5.62Z"/><path class="cls-1" d="M11.09,5.62a.61.61,0,0,0-.45-.19.68.68,0,0,0-.47.19.69.69,0,0,0-.2.47v6.68h0v.6a.67.67,0,0,0,.65.66.68.68,0,0,0,.47-.19.69.69,0,0,0,.2-.47V6.69h0V6.1h0A.69.69,0,0,0,11.09,5.62Z"/></g></g></svg>