<?xml version="1.0" encoding="utf-8"?>
<!-- Generator: Adobe Illustrator 23.0.3, SVG Export Plug-In . SVG Version: 6.00 Build 0)  -->
<svg version="1.1" id="Layer_1" xmlns="http://www.w3.org/2000/svg" xmlns:xlink="http://www.w3.org/1999/xlink" x="0px" y="0px"
	 viewBox="0 0 28 28" style="enable-background:new 0 0 28 28;" xml:space="preserve">
<style type="text/css">
	.st0{fill:#465A91;}
</style>
<title>envelope-o</title>
<path class="st0" d="M26,23.5v-12c-0.3,0.4-0.7,0.7-1.1,1c-2.2,1.7-4.5,3.5-6.7,5.3c-1.2,1-2.6,2.2-4.3,2.2h0
	c-1.6,0-3.1-1.2-4.3-2.2c-2.2-1.8-4.4-3.6-6.7-5.3c-0.4-0.3-0.8-0.7-1.1-1v12C2,23.8,2.2,24,2.5,24h23C25.8,24,26,23.8,26,23.5
	L26,23.5z M26,7.1C26,6.7,26.1,6,25.5,6h-23C2.2,6,2,6.2,2,6.5c0,1.8,0.9,3.3,2.3,4.4c2.1,1.6,4.2,3.3,6.3,5
	c0.8,0.7,2.3,2.1,3.4,2.1h0c1.1,0,2.6-1.4,3.4-2.1c2.1-1.7,4.2-3.3,6.3-5C24.7,10.1,26,8.4,26,7.1L26,7.1z M28,6.5v17
	c0,1.4-1.1,2.5-2.5,2.5h-23C1.1,26,0,24.9,0,23.5v-17C0,5.1,1.1,4,2.5,4h23C26.9,4,28,5.1,28,6.5z"/>
</svg>
