<?xml version="1.0" encoding="utf-8"?>
<!-- Generator: Adobe Illustrator 23.0.3, SVG Export Plug-In . SVG Version: 6.00 Build 0)  -->
<svg version="1.1" id="Layer_1" xmlns="http://www.w3.org/2000/svg" xmlns:xlink="http://www.w3.org/1999/xlink" x="0px" y="0px"
	 viewBox="0 0 32 32" style="enable-background:new 0 0 32 32;" xml:space="preserve">
<style type="text/css">
	.st0{fill:#465A91;}
</style>
<title>phone</title>
<path class="st0" d="M24,0H8C6.3,0,5,1.3,5,3v26c0,1.7,1.3,3,3,3h16c1.7,0,3-1.3,3-3V3C27,1.3,25.7,0,24,0z M25,29c0,0.6-0.4,1-1,1
	H8c-0.6,0-1-0.4-1-1v-2h18V29z M25,26H7V6h18V26z M25,5H7V3c0-0.6,0.4-1,1-1h16c0.6,0,1,0.4,1,1V5z M18,3.5C18,3.8,17.8,4,17.5,4h-3
	C14.2,4,14,3.8,14,3.5l0,0C14,3.2,14.2,3,14.5,3h3C17.8,3,18,3.2,18,3.5L18,3.5z M17,28.5c0,0.3-0.2,0.5-0.5,0.5h-1
	c-0.3,0-0.5-0.2-0.5-0.5l0,0c0-0.3,0.2-0.5,0.5-0.5h1C16.8,28,17,28.2,17,28.5L17,28.5z"/>
</svg>
