<svg xmlns="http://www.w3.org/2000/svg" viewBox="0 0 17.26 21.61"><defs><style>.cls-1{fill:#666766;}</style></defs><title>Asset 7</title><g id="Layer_2" data-name="Layer 2"><g id="Layer_1-2" data-name="Layer 1"><path class="cls-1" d="M13.87,14.1a2.64,2.64,0,0,1-1.07,0,5.38,5.38,0,0,1-1.34-.4,4,4,0,0,1,1.94.1,2.55,2.55,0,0,1,.47.27m-4.44-.73-.09,0-.63.16-.27.07c-.54.14-1.1.28-1.65.45.21-.51.4-1,.59-1.51s.29-.75.44-1.12l.23.37a7.24,7.24,0,0,0,1.38,1.55M8.05,7.69a4.71,4.71,0,0,1-.3,1.79,2.88,2.88,0,0,1,0-2.12,1.72,1.72,0,0,1,.18-.3,1.33,1.33,0,0,1,.17.63M5.21,15.56q-.21.38-.42.69c-.35.52-.91,1.07-1.2,1.07a.13.13,0,0,1-.11-.05.14.14,0,0,1,0-.09,1.74,1.74,0,0,1,.63-.85,6.49,6.49,0,0,1,1.14-.77m9.58-1.43c0-.64-1.11-1-1.12-1.05a4.28,4.28,0,0,0-1.37-.22,8,8,0,0,0-1.89.26,6.46,6.46,0,0,1-1.69-1.73c-.19-.3-.37-.59-.52-.87a6.41,6.41,0,0,0,.64-2.88c-.05-.84-.43-1.41-1-1.41-.35,0-.66.26-.91.78a4.1,4.1,0,0,0,.35,3.54c-.25.57-.47,1.16-.69,1.73s-.55,1.45-.87,2.15a7.6,7.6,0,0,0-2.22,1.3,2.28,2.28,0,0,0-.9,1.4.89.89,0,0,0,.25.68.94.94,0,0,0,.69.31c.87,0,1.7-1.19,1.86-1.43a12.3,12.3,0,0,0,.91-1.63,22.06,22.06,0,0,1,2.28-.66l.27-.07.63-.17.71-.18a6.22,6.22,0,0,0,2.44.93,2.88,2.88,0,0,0,1.71-.17.62.62,0,0,0,.39-.61m1.68,5.45a1.18,1.18,0,0,1-1.23,1.24H2A1.18,1.18,0,0,1,.79,19.58V2A1.18,1.18,0,0,1,2,.79H11V4.28a2,2,0,0,0,2,2h3.46l0,0ZM15.65,5.51H13a1.17,1.17,0,0,1-1.23-1.23V1.6Zm1.61,14.07V6L11.75.47v0h0L11.28,0H2A2,2,0,0,0,0,2V19.58a2,2,0,0,0,2,2H15.24a2,2,0,0,0,2-2"/></g></g></svg>